<?xml version="1.0" encoding="UTF-8" standalone="no"?>
<!-- Created with Inkscape (http://www.inkscape.org/) -->

<svg
   version="1.1"
   id="svg2"
   width="4492.6982"
   height="1605.0793"
   viewBox="0 0 4492.6982 1605.0793"
   sodipodi:docname="MSX_logo.svg"
   inkscape:version="1.2.1 (9c6d41e410, 2022-07-14)"
   xmlns:inkscape="http://www.inkscape.org/namespaces/inkscape"
   xmlns:sodipodi="http://sodipodi.sourceforge.net/DTD/sodipodi-0.dtd"
   xmlns="http://www.w3.org/2000/svg"
   xmlns:svg="http://www.w3.org/2000/svg">
  <defs
     id="defs6" />
  <sodipodi:namedview
     id="namedview4"
     pagecolor="#ffffff"
     bordercolor="#000000"
     borderopacity="0.25"
     inkscape:showpageshadow="2"
     inkscape:pageopacity="0.0"
     inkscape:pagecheckerboard="0"
     inkscape:deskcolor="#d1d1d1"
     showgrid="false"
     inkscape:zoom="0.40260419"
     inkscape:cx="1973.4022"
     inkscape:cy="620.95727"
     inkscape:window-width="3840"
     inkscape:window-height="1137"
     inkscape:window-x="-8"
     inkscape:window-y="-8"
     inkscape:window-maximized="1"
     inkscape:current-layer="g8" />
  <g
     inkscape:groupmode="layer"
     inkscape:label="Image"
     id="g8">
    <path
       style="fill:#000000;stroke-width:2.53968"
       d="M 82.03118,812.77591 V 93.283879 l 3.0477,-3.04762 3.0476,-3.04762 H 1860.3081 3632.4897 l 0.6436,721.481491 0.6438,721.48137 -1.0583,1.0582 -1.058,1.0581 H 1856.846 82.03118 Z m 554.72863,489.00529 7.427,-27.2911 6.0182,-20.3174 6.0181,-20.3175 7.3163,-24.127 7.3162,-24.1269 5.4682,-19.0477 5.4682,-19.0476 7.7489,-25.3968 7.7488,-25.3968 13.5392,-40.6349 13.5392,-40.635 9.9995,-29.08293 9.9995,-29.08299 2.4143,8.76553 2.4142,8.76554 28.5785,109.20635 28.5784,109.2063 3.5006,12.6984 3.5005,12.6984 10.4665,44.4445 10.4665,44.4444 2.9199,10.1587 2.9199,10.1588 140.1396,0.6563 140.13949,0.6564 1.3988,-4.4659 1.3988,-4.4659 11.2687,-44.4444 11.2687,-44.4445 9.2452,-35.5555 9.2452,-35.5556 4.8026,-16.5079 4.8026,-16.5079 7.5189,-26.6667 7.5188,-26.6667 6.4703,-22.1322 6.4703,-22.1323 11.9875,-36.2804 11.9874,-36.28043 3.5509,11.42857 3.5509,11.42857 5.0222,16.50794 5.0221,16.50785 12.8041,46.9842 12.8039,46.9841 4.7014,17.7778 4.7014,17.7778 6.3253,24.1269 6.3252,24.127 17.9395,67.8341 17.9394,67.834 v 1.3723 1.3723 h 411.1828 411.1828 l 26.2775,-9.1238 26.2775,-9.1238 19.0476,-9.1072 19.0477,-9.1072 20.46,-12.0526 20.46,-12.0527 20.7052,-16.717 20.7052,-16.7171 15.7188,-18.2634 15.7188,-18.2634 11.2284,-17.3572 11.2283,-17.3573 6.4462,-14.5215 6.4462,-14.5215 7.1299,-20.3174 7.1298,-20.3175 5.4824,-25.3968 5.4823,-25.3969 2.1263,-35.5555 2.1264,-35.55553 -2.1991,-27.93651 -2.1991,-27.93651 -5.0364,-12.94773 -5.0364,-12.94773 -10.4199,-22.55393 -10.42,-22.5539 -19.302,-28.98413 -19.3021,-28.98413 -24.6792,-24.67923 -24.6793,-24.67924 -29.4806,-19.63274 -29.4807,-19.63273 -26.1162,-11.3569 -26.1162,-11.35693 -22.8572,-5.87385 -22.8571,-5.87388 -15.2381,-1.55784 -15.2381,-1.55785 -135.654,-0.28411 -135.654,-0.28411 -12.8464,-3.33235 -12.8465,-3.33231 -9.8911,-10.60379 -9.8911,-10.60381 1.1068,-13.34674 1.1068,-13.34674 5.9224,-8.31718 5.9224,-8.31721 10.41,-4.72764 10.4099,-4.72765 340.3175,-0.0256 340.3174,-0.0257 49.5238,70.28929 49.5238,70.28927 27.3212,36.55804 27.3211,36.55805 -1.8209,2.96381 -1.8212,2.96378 -82.8965,124.44444 -82.8966,124.44445 -47.8061,72.3809 -47.8061,72.381 -43.0069,64.6307 -43.007,64.6307 -1.2685,3.3058 -1.2686,3.3058 h 166.1782 166.1783 l 5.1182,-5.7143 5.1183,-5.7143 90.7088,-131.6021 90.7088,-131.602 1.3953,-3.636 1.3953,-3.6361 2.9029,0.046 2.9028,0.046 8.6075,13.2878 8.6075,13.2877 42.3599,59.6825 42.3601,59.6825 43.246,60.9524 43.2457,60.9524 4.4914,6.9841 4.4914,6.9841 h 176.4876 176.4877 l -1.2615,-3.1746 -1.2617,-3.1746 -42.8196,-63.6095 -42.8198,-63.6094 -41.9047,-61.5422 -41.9048,-61.5421 -35.5556,-51.9642 -35.5555,-51.96406 -54.224,-79.39215 -54.2243,-79.39217 -9.7389,-13.74677 -9.7389,-13.74674 21.1129,-30.6977 21.1126,-30.69768 18.7233,-27.16266 18.7233,-27.16264 46.9841,-67.95213 46.9842,-67.95212 61.4161,-89.01221 61.4161,-89.01219 20.4887,-29.75654 20.4886,-29.75655 v -2.64203 -2.64203 l -173.1203,0.65254 -173.1202,0.65255 -47.1972,68.9092 -47.1972,68.90921 -18.8168,25.05904 -18.8165,25.05905 -18.8523,23.4882 -18.8521,23.48818 -10.709,-14.59929 -10.7091,-14.59931 -38.1468,-54.60318 -38.1468,-54.60317 -15.4037,-22.85714 -15.4039,-22.85714 -16.8142,-26.03175 -16.8145,-26.03174 h -460.6591 -460.6591 l -20.3458,3.85953 -20.3457,3.8595 -13.6705,4.70334 -13.6704,4.70334 -14.6154,6.68521 -14.6154,6.6852 -18.1961,11.98769 -18.1962,11.98765 -16.1572,15.11429 -16.1572,15.11428 -15.9542,21.25783 -15.9543,21.2578 -11.6265,22.10646 -11.6265,22.10644 -6.6515,17.74078 -6.6515,17.74077 -6.162,24.16399 -6.162,24.16398 -2.9155,22.85714 -2.9154,22.85715 -0.1,30.47619 -0.1,30.47618 3.1805,25.39683 3.1804,25.39682 7.291,27.93651 7.291,27.93651 9.0133,21.5873 9.0133,21.5873 12.0258,19.94847 12.0258,19.94847 17.0761,20.61732 17.0761,20.61729 18.4795,14.84206 18.4794,14.84205 17.2154,10.32153 17.2154,10.32152 22.8924,8.28912 22.8924,8.28914 17.0351,2.90829 17.035,2.90829 13.9683,2.3627 13.9682,2.36269 31.7461,2.4752 31.746,2.4752 125.1419,-0.0284 125.1419,-0.0284 8.3941,5.18786 8.3941,5.18786 4.6149,8.56924 4.6148,8.56925 -1.3048,11.57626 -1.3048,11.5762 -5.7589,8.0876 -5.7589,8.0876 -11.2977,4.8428 -11.2977,4.8428 H 1814.193 1545.5059 l -4.0969,-15.873 -4.097,-15.873 -19.1111,-72.38099 -19.1111,-72.38095 -6.14,-22.85714 -6.1401,-22.85714 -16.7798,-62.22222 -16.7798,-62.22222 -16.5404,-62.22222 -16.5403,-62.22222 -14.0466,-53.33333 -14.0465,-53.33333 -15.3098,-55.87302 -15.3098,-55.87301 -3.6288,-13.96825 -3.6289,-13.96826 -2.3143,-6.3492 -2.3142,-6.34921 -2.7564,-10.79365 -2.7564,-10.79365 h -122.9268 -122.9268 l -1.3918,2.25191 -1.3917,2.25191 -6.1926,22.51 -6.1926,22.50999 -4.9184,16.50793 -4.9184,16.50794 -6.8842,22.85714 -6.8842,22.85714 -11.4692,39.36508 -11.4692,39.36508 -6.2975,21.5873 -6.2975,21.5873 -6.3747,22.85714 -6.3747,22.85715 -10.0472,34.28571 -10.04719,34.28571 -5.2974,17.77778 -5.2974,17.77778 -3.5931,-11.42858 -3.5931,-11.42857 -12.8613,-46.98412 -12.8612,-46.98413 -7.2659,-27.9365 -7.2659,-27.93651 -6.5875,-24.12698 -6.5874,-24.12699 -5.8313,-21.5873 -5.8313,-21.5873 -16.8764,-65.89724 -16.8765,-65.89724 -2.063,-2.06301 -2.063,-2.06304 -127.9451,0.65867 -127.9449,0.65869 -3.4299,13.96826 -3.4299,13.96825 -4.8015,16.50794 -4.8015,16.50793 -13.06,45.71429 -13.0601,45.71428 -4.7581,16.50793 -4.7581,16.50794 -7.9686,29.20635 -7.9686,29.20635 -3.4868,11.42857 -3.4867,11.42857 -5.2848,21.5873 -5.2847,21.5873 -2.264,6.34921 -2.2639,6.3492 -6.5309,24.12699 -6.5309,24.12698 -9.1339,33.01587 -9.1339,33.01587 -5.945,21.5873 -5.9449,21.5873 -6.2636,22.85715 -6.2636,22.85714 -11.8788,43.1746 -11.8789,43.1746 -8.9531,33.01587 -8.9531,33.01587 -3.6248,15.2381 -3.6248,15.23809 -2.2923,6.34917 -2.2922,6.3492 -9.2185,34.2857 -9.2185,34.2858 -2.1853,6.3492 -2.1853,6.3492 -7.9709,29.2063 -7.9708,29.2064 -11.4462,40.6349 -11.4463,40.6349 -8.7293,31.746 -8.7293,31.7461 -3.5409,11.4285 -3.541,11.4286 -1.6892,5.7143 -1.6893,5.7143 151.9171,-0.01 151.9172,-0.01 7.427,-27.2911 z"
       id="path116" />
  </g>
</svg>
