<?xml version="1.0" encoding="UTF-8" standalone="no"?>
<svg
   version="1.2"
   id="Layer_1"
   x="0px"
   y="0px"
   viewBox="0 0 172.238 180.994"
   xml:space="preserve"
   sodipodi:docname="Open-source-hardware-logo-mirrored.svg"
   inkscape:version="1.3.2 (091e20e, 2023-11-25, custom)"
   xmlns:inkscape="http://www.inkscape.org/namespaces/inkscape"
   xmlns:sodipodi="http://sodipodi.sourceforge.net/DTD/sodipodi-0.dtd"
   xmlns="http://www.w3.org/2000/svg"
   xmlns:svg="http://www.w3.org/2000/svg"><defs
   id="defs17" /><sodipodi:namedview
   id="namedview17"
   pagecolor="#ffffff"
   bordercolor="#000000"
   borderopacity="0.25"
   inkscape:showpageshadow="2"
   inkscape:pageopacity="0.0"
   inkscape:pagecheckerboard="0"
   inkscape:deskcolor="#d1d1d1"
   inkscape:zoom="2.5995336"
   inkscape:cx="100.78731"
   inkscape:cy="140.02512"
   inkscape:window-width="1419"
   inkscape:window-height="1160"
   inkscape:window-x="430"
   inkscape:window-y="4"
   inkscape:window-maximized="0"
   inkscape:current-layer="Layer_1" />
<path
   fill="#0099b0"
   d="m 6.2339214,18.043353 5.1492026,-0.957547 c 0.125292,-0.02349 0.262488,-0.141267 0.304774,-0.262174 l 1.57837,-3.682343 c 0.05889,-0.113703 0.04761,-0.292244 -0.02506,-0.398116 L 10.241084,8.3704693 C 10.169354,8.2652237 10.18345,8.1051627 10.273973,8.014639 l 3.747182,-3.7471812 c 0.09052,-0.090524 0.250271,-0.1052456 0.355517,-0.032889 l 4.449445,3.0533748 c 0.105245,0.072356 0.285666,0.085199 0.399996,0.028817 L 22.795692,5.8555384 C 22.916912,5.8154449 23.035,5.6798159 23.058806,5.5542103 L 24.050182,0.22834533 C 24.073361,0.10273973 24.197087,0 24.324885,0 h 5.299867 c 0.127485,0 0.251211,0.10273973 0.27439,0.22834533 l 0.991063,5.32586497 c 0.0238,0.1256056 0.14158,0.2612346 0.263114,0.3013281 l 3.569892,1.4612222 c 0.114643,0.056381 0.295064,0.043539 0.399996,-0.028817 l 4.449132,-3.0533748 c 0.105559,-0.072356 0.26562,-0.057634 0.35583,0.032889 l 3.747495,3.7471812 c 0.09021,0.090524 0.105245,0.2505847 0.03289,0.3558303 l -3.000439,4.3727037 c -0.07204,0.105872 -0.08332,0.284413 -0.02475,0.398116 l 1.578684,3.682343 c 0.04197,0.120907 0.178854,0.238682 0.304773,0.262174 l 5.14889,0.957547 c 0.125919,0.0238 0.228345,0.147218 0.228345,0.275016 l -3.13e-4,5.299554 c 0,0.127798 -0.10274,0.252151 -0.228345,0.275017 l -5.022658,0.934681 c -0.125605,0.02287 -0.259982,0.142207 -0.298196,0.264053 l -1.568034,3.916953 c -0.05607,0.114956 -0.04291,0.29475 0.02976,0.399996 l 2.852907,4.157513 c 0.07204,0.105246 0.05732,0.26562 -0.03289,0.356144 l -3.747808,3.747181 c -0.09021,0.0899 -0.250271,0.104619 -0.35583,0.03289 l -4.083904,-2.803103 c -0.105246,-0.07204 -0.281595,-0.07768 -0.391539,-0.01347 l -1.801078,0.961619 c -0.114016,0.05826 -0.247139,0.0091 -0.296003,-0.109004 l -3.713665,-8.973126 c -0.04918,-0.118088 0,-0.268752 0.109004,-0.33547 l 0.450739,-0.275957 c 0.08332,-0.05074 0.196396,-0.138134 0.28504,-0.218322 1.625982,-1.041179 2.704749,-2.862617 2.704749,-4.936832 0,-3.236928 -2.624248,-5.860863 -5.860863,-5.860863 -3.236615,0 -5.86055,2.623935 -5.86055,5.860863 0,2.074215 1.078454,3.895653 2.704749,4.936832 0.08802,0.08019 0.201407,0.167579 0.284413,0.218322 l 0.450739,0.275957 c 0.108378,0.06672 0.157869,0.217382 0.109005,0.33547 l -3.713353,8.973439 c -0.04886,0.118088 -0.181673,0.166952 -0.296003,0.109004 l -1.801077,-0.961619 c -0.110258,-0.06421 -0.286293,-0.05889 -0.391539,0.01347 l -4.084218,2.803104 c -0.105245,0.07173 -0.26562,0.05701 -0.355517,-0.03289 l -3.747808,-3.747181 c -0.09052,-0.09052 -0.105245,-0.250898 -0.03289,-0.356143 l 2.853221,-4.157514 c 0.07204,-0.105246 0.08551,-0.28504 0.02944,-0.399996 L 11.555714,25.091988 C 11.517187,24.970141 11.383751,24.8508 11.257832,24.827934 L 6.2351743,23.893253 C 6.1098819,23.870387 6.006829,23.746034 6.006829,23.618236 l -6.265e-4,-5.299553 c -3.132e-4,-0.128112 0.1024265,-0.251525 0.2277189,-0.27533"
   id="path1"
   style="stroke-width:0.313231" />
<path
   fill-rule="evenodd"
   fill="#0099b0"
   d="m 39.667874,56.626195 h -1.131703 v -3.838331 c 0,-1.38636 0.954101,-1.852448 2.340775,-1.852448 0.843217,0 1.464354,0.221454 1.896926,0.820978 l -0.887383,0.676579 c -0.199528,-0.321688 -0.477051,-0.433198 -1.064985,-0.433198 -0.809702,0 -1.15363,0.189191 -1.15363,0.721371 v 0.587934 h 1.564275 c 1.209072,0 1.830209,0.76585 1.830209,1.664196 0,0.97634 -0.732021,1.719637 -1.985571,1.719637 -0.765536,0 -1.153943,-0.177288 -1.386673,-0.566008 h -0.02224 z m 0,-1.974921 c 0,0.876734 0.321688,0.976341 1.264513,0.976341 0.765537,0 1.065299,-0.332964 1.065299,-0.709781 0,-0.410646 -0.310725,-0.677205 -0.976654,-0.677205 h -1.353158 z"
   id="path2"
   style="stroke-width:0.313231" />
<path
   fill-rule="evenodd"
   fill="#0099b0"
   d="m 37.293271,56.626195 h -1.13139 v -3.383833 c 0,-0.820352 -0.543769,-1.175869 -1.098501,-1.175869 -0.288486,0 -0.477051,0.07768 -0.743297,0.277836 l -0.820665,-0.976341 c 0.343928,-0.266246 0.720745,-0.432572 1.175869,-0.432572 0.598897,0 1.109464,0.222081 1.464354,0.665616 h 0.02224 v -0.598898 h 1.13139 z"
   id="path3"
   style="stroke-width:0.313231" />
<path
   fill-rule="evenodd"
   fill="#0099b0"
   d="m 30.114958,56.626195 h -1.13139 v -7.898743 h 1.13139 v 2.87358 c 0.421609,-0.39937 0.87642,-0.665616 1.453392,-0.665616 0.687855,0 1.186832,0.310099 1.50852,0.732334 0.310725,0.398743 0.399369,0.764597 0.399369,2.141246 0,1.38636 -0.08864,1.752214 -0.399369,2.151584 -0.321688,0.421608 -0.820665,0.732333 -1.50852,0.732333 -0.576972,0 -1.098501,-0.266872 -1.453392,-0.654652 z m 1.109464,-4.559702 c -1.054022,0 -1.109464,0.932488 -1.109464,1.742503 0,0.820979 0.05544,1.752214 1.109464,1.752214 1.064985,0 1.120427,-0.876107 1.120427,-1.752214 0,-0.86577 -0.05544,-1.742503 -1.120427,-1.742503"
   id="path4"
   style="stroke-width:0.313231" />
<polygon
   fill-rule="evenodd"
   fill="#0099b0"
   points="107.068,162.826 103.242,162.826 99.809,175.398 99.736,175.398 95.664,162.826 93.043,162.826 88.971,175.398 88.9,175.398 85.464,162.826 81.64,162.826 87.377,180.781 90.564,180.781 94.318,168.208 94.389,168.208 98.143,180.781 101.332,180.781 "
   id="polygon4"
   transform="matrix(-0.3132309,0,0,0.3132309,53.950264,0)" />
<path
   fill-rule="evenodd"
   fill="#0099b0"
   d="m 16.930757,56.626195 h -1.131704 v -3.838331 c 0,-1.38636 0.954415,-1.852448 2.340775,-1.852448 0.842904,0 1.464668,0.221454 1.897239,0.820978 l -0.887696,0.676579 c -0.199528,-0.321688 -0.476424,-0.433198 -1.064359,-0.433198 -0.810015,0 -1.153942,0.189191 -1.153942,0.721371 v 0.587934 h 1.564275 c 1.208758,0 1.830521,0.76585 1.830521,1.664196 0,0.97634 -0.732334,1.719637 -1.985884,1.719637 -0.765223,0 -1.153942,-0.177288 -1.386986,-0.566008 h -0.02193 v 0.49929 z m 0,-1.974921 c 0,0.876734 0.321688,0.976341 1.264513,0.976341 0.765223,0 1.064985,-0.332964 1.064985,-0.709781 0,-0.410646 -0.310725,-0.677205 -0.976341,-0.677205 h -1.353157 z"
   id="path5"
   style="stroke-width:0.313231" />
<path
   fill-rule="evenodd"
   fill="#0099b0"
   d="m 14.55584,56.626195 h -1.131077 v -3.383833 c 0,-0.820352 -0.543142,-1.175869 -1.098187,-1.175869 -0.288799,0 -0.477051,0.07768 -0.743297,0.277836 L 10.7623,51.367988 c 0.343928,-0.266246 0.721371,-0.432572 1.175869,-0.432572 0.598898,0 1.109151,0.222081 1.464041,0.665616 h 0.02255 v -0.598898 h 1.131077 z"
   id="path6"
   style="stroke-width:0.313231" />
<path
   fill-rule="evenodd"
   fill="#0099b0"
   d="m 6.1048702,54.241255 v -0.932488 c 0,-1.453078 1.0756349,-2.373664 2.3179087,-2.373664 1.0872244,0 2.3185351,0.709781 2.3185351,2.89488 0,2.307572 -1.3421944,2.862617 -2.496137,2.862617 -0.75426,0 -1.4750043,-0.266246 -2.0297363,-0.909622 l 0.8209782,-0.699132 c 0.3329645,0.344554 0.799052,0.543769 1.2309975,0.543769 0.7768126,0 1.3421944,-0.466087 1.3421944,-1.38636 z M 9.6096108,53.30908 c -0.021926,-0.854181 -0.5212163,-1.309305 -1.1868319,-1.309305 -0.6656157,0 -1.1539427,0.455124 -1.1868319,1.309305 z"
   id="path7"
   style="stroke-width:0.313231" />
<path
   fill-rule="evenodd"
   fill="#0099b0"
   d="m 53.950264,44.925142 c 0,1.220034 -0.177289,1.686122 -0.609861,2.163172 -0.310725,0.343928 -0.832254,0.720745 -1.708674,0.720745 -0.876107,0 -1.397637,-0.376817 -1.708362,-0.720745 -0.432572,-0.47705 -0.610174,-0.943451 -0.610174,-2.163172 0,-1.209385 0.177602,-1.675159 0.610174,-2.15221 0.310725,-0.343927 0.832255,-0.721371 1.708362,-0.721371 0.87642,0 1.397949,0.377444 1.708674,0.721371 0.432572,0.477364 0.609861,0.942825 0.609861,2.15221 m -3.505367,0.01096 c 0,0.810015 0.06641,1.031469 0.277209,1.331231 0.166639,0.233044 0.521529,0.410646 0.909623,0.410646 0.388406,0 0.743296,-0.177289 0.909622,-0.410646 0.210804,-0.299762 0.277523,-0.521216 0.277523,-1.342194 0,-0.810015 -0.06672,-1.032096 -0.277523,-1.331232 -0.166326,-0.233043 -0.521216,-0.410645 -0.909622,-0.410645 -0.388094,0 -0.742984,0.177288 -0.909623,0.410645 -0.210804,0.299136 -0.277209,0.521217 -0.277209,1.342195"
   id="path8"
   style="stroke-width:0.313231" />
<path
   fill-rule="evenodd"
   fill="#0099b0"
   d="m 38.455044,45.357714 v -0.931862 c 0,-1.453705 1.075948,-2.374291 2.318222,-2.374291 1.087538,0 2.318535,0.710408 2.318535,2.895507 0,2.306945 -1.342194,2.861991 -2.495824,2.861991 -0.754573,0 -1.475317,-0.266247 -2.030049,-0.909623 l 0.820978,-0.698505 c 0.332651,0.343928 0.798426,0.543769 1.230998,0.543769 0.776812,0 1.342507,-0.466088 1.342507,-1.386986 z m 3.505367,-0.931549 c -0.02224,-0.854807 -0.521529,-1.309305 -1.187145,-1.309305 -0.665616,0 -1.153629,0.454498 -1.186832,1.309305 z"
   id="path9"
   style="stroke-width:0.313231" />
<path
   fill-rule="evenodd"
   fill="#0099b0"
   d="m 37.489353,47.74234 h -1.13139 v -3.349378 c 0,-0.765849 -0.47705,-1.209384 -1.120427,-1.209384 -0.632413,0 -1.109463,0.443535 -1.109463,1.209384 v 3.349378 h -1.13139 v -3.738097 c 0,-1.276103 0.998266,-1.952682 1.874687,-1.952682 0.598897,0 1.109463,0.222081 1.464041,0.665616 h 0.02255 V 42.11828 h 1.13139 z"
   id="path10"
   style="stroke-width:0.313231" />
<path
   fill-rule="evenodd"
   fill="#0099b0"
   d="m 29.937356,46.799829 c -0.721057,0.676578 -1.564275,1.009543 -2.473897,1.009543 -1.308992,0 -2.329498,-0.6321 -2.329498,-1.730601 0,-0.898033 0.465461,-1.608441 1.63068,-1.686122 l 0.931862,-0.06609 c 0.565695,-0.04479 0.742983,-0.288798 0.742983,-0.532805 0,-0.38778 -0.244007,-0.676579 -0.964751,-0.676579 -0.610487,0 -1.065611,0.211118 -1.509146,0.521216 l -0.698505,-0.820352 c 0.554732,-0.466087 1.220034,-0.765849 2.207964,-0.765849 1.186832,0 2.096455,0.587934 2.096455,1.730601 0,0.964751 -0.687855,1.519796 -1.619404,1.597477 l -0.99858,0.08864 c -0.38872,0.03289 -0.687855,0.155362 -0.687855,0.554731 0,0.477051 0.466401,0.720745 1.109464,0.720745 0.75426,0 1.286752,-0.243381 1.774766,-0.720745 z"
   id="path11"
   style="stroke-width:0.313231" />
<path
   fill-rule="evenodd"
   fill="#0099b0"
   d="m 24.490584,44.925142 c 0,1.220034 -0.177915,1.686122 -0.610487,2.163172 -0.310725,0.343928 -0.831941,0.720745 -1.708048,0.720745 -0.876733,0 -1.397949,-0.376817 -1.708674,-0.720745 -0.432572,-0.47705 -0.609861,-0.943451 -0.609861,-2.163172 0,-1.209385 0.177289,-1.675159 0.609861,-2.15221 0.310725,-0.343927 0.831941,-0.721371 1.708674,-0.721371 0.876107,0 1.397323,0.377444 1.708048,0.721371 0.432572,0.477364 0.610487,0.942825 0.610487,2.15221 m -3.505367,0.01096 c 0,0.810015 0.06609,1.031469 0.27721,1.331231 0.166325,0.233044 0.521216,0.410646 0.909622,0.410646 0.38778,0 0.743297,-0.177289 0.908996,-0.410646 0.211118,-0.299762 0.277836,-0.521216 0.277836,-1.342194 0,-0.810015 -0.06672,-1.032096 -0.277836,-1.331232 -0.165699,-0.233043 -0.521216,-0.410645 -0.908996,-0.410645 -0.388406,0 -0.743297,0.177288 -0.909622,0.410645 -0.211118,0.299136 -0.27721,0.521217 -0.27721,1.342195"
   id="path12"
   style="stroke-width:0.313231" />
<path
   fill-rule="evenodd"
   fill="#0099b0"
   d="m 18.88751,45.857004 c 0,1.275476 -0.99858,1.952055 -1.885963,1.952055 -0.587308,0 -1.098188,-0.222081 -1.453078,-0.665616 h -0.02193 v 0.599524 H 14.395466 V 42.11828 h 1.131076 v 3.350004 c 0,0.765223 0.477051,1.209385 1.109778,1.209385 0.643063,0 1.120113,-0.444162 1.120113,-1.209385 V 42.11828 h 1.131077 z"
   id="path13"
   style="stroke-width:0.313231" />
<path
   fill-rule="evenodd"
   fill="#0099b0"
   d="m 13.154445,47.74234 h -1.131703 v -3.383207 c 0,-0.820978 -0.543143,-1.175868 -1.098188,-1.175868 -0.288799,0 -0.477051,0.07768 -0.743297,0.277209 L 9.360279,42.484133 c 0.344554,-0.266246 0.720744,-0.432572 1.175869,-0.432572 0.598897,0 1.109777,0.222081 1.464667,0.665616 h 0.02193 V 42.11828 h 1.131703 z"
   id="path14"
   style="stroke-width:0.313231" />
<path
   fill-rule="evenodd"
   fill="#0099b0"
   d="m 5.7568707,46.090047 c 0.2772093,0.343928 0.6765787,0.587935 1.1420399,0.587935 0.9205856,0 1.4646676,-0.521843 1.4646676,-1.742504 0,-1.230997 -0.5437688,-1.752213 -1.4646676,-1.752213 -0.4654612,0 -0.8651438,0.244007 -1.1420399,0.587934 L 4.9249294,43.027902 c 0.4877005,-0.566008 1.1649057,-0.976341 2.0187732,-0.976341 1.2977156,0 2.5512657,0.820979 2.5512657,2.883917 0,2.053229 -1.2535501,2.873581 -2.5512657,2.873581 -0.8541807,0 -1.5313859,-0.410646 -2.0187732,-0.975715 z"
   id="path15"
   style="stroke-width:0.313231" />
<path
   fill-rule="evenodd"
   fill="#0099b0"
   d="m 0,45.357714 v -0.931862 c 0,-1.453705 1.0768878,-2.374291 2.3185351,-2.374291 1.0878509,0 2.3185351,0.710408 2.3185351,2.895507 0,2.306945 -1.3421944,2.861991 -2.496137,2.861991 -0.75426,0 -1.47563077,-0.266247 -2.02973623,-0.909623 L 0.93217516,46.200931 C 1.2651396,46.544859 1.7306007,46.7447 2.1631726,46.7447 c 0.7768126,0 1.3421944,-0.466088 1.3421944,-1.386986 z M 3.505367,44.426165 C 3.4834408,43.571358 2.9841508,43.11686 2.3185351,43.11686 c -0.6656156,0 -1.1533162,0.454498 -1.1868319,1.309305 z"
   id="path16"
   style="stroke-width:0.313231" />
<path
   fill="#0099b0"
   d="m 46.106649,46.677982 c -1.064985,0 -1.120427,-0.876733 -1.120427,-1.741877 0,-0.876733 0.05544,-1.75284 1.120427,-1.75284 1.053708,0 1.109464,0.931862 1.109464,1.75284 0,0.810015 -0.05544,1.741877 -1.109464,1.741877 m 2.245239,9.948213 V 42.118593 h -1.135775 v 0.587934 c -0.355204,-0.388406 -0.876421,-0.654652 -1.453392,-0.654652 -0.687542,0 -1.187145,0.310725 -1.508833,0.732334 -0.310412,0.399369 -0.399056,0.765223 -0.399056,2.152209 0,1.375397 0.08864,1.741877 0.399056,2.14062 0.321688,0.421609 0.821291,0.732334 1.508833,0.732334 0.576971,0 1.031783,-0.266246 1.453392,-0.665616 l 0.0041,4.457276 c -0.37713,-0.443535 -0.887384,-0.665616 -1.486281,-0.665616 -0.87642,0 -1.874687,0.676579 -1.874687,1.952055 v 3.738724 h 1.13139 v -3.350004 c 0,-0.76585 0.477051,-1.209385 1.109464,-1.209385 0.643376,0 1.120114,0.443535 1.120114,1.209385 v 3.350004 z"
   id="path17"
   style="stroke-width:0.313231" />
</svg>
