<?xml version="1.0" encoding="UTF-8" standalone="no"?>
<!-- Uploaded to: SVG Repo, www.svgrepo.com, Generator: SVG Repo Mixer Tools -->

<svg
   fill="#000000"
   width="800px"
   height="800px"
   viewBox="0 0 32 32"
   id="Camada_1"
   version="1.1"
   xml:space="preserve"
   sodipodi:docname="raspberry-logo-raspberry-pi-svgrepo-com_15mm.svg"
   inkscape:version="1.3.2 (091e20e, 2023-11-25, custom)"
   xmlns:inkscape="http://www.inkscape.org/namespaces/inkscape"
   xmlns:sodipodi="http://sodipodi.sourceforge.net/DTD/sodipodi-0.dtd"
   xmlns="http://www.w3.org/2000/svg"
   xmlns:svg="http://www.w3.org/2000/svg"><defs
   id="defs14" /><sodipodi:namedview
   id="namedview14"
   pagecolor="#ffffff"
   bordercolor="#000000"
   borderopacity="0.25"
   inkscape:showpageshadow="2"
   inkscape:pageopacity="0.0"
   inkscape:pagecheckerboard="0"
   inkscape:deskcolor="#d1d1d1"
   inkscape:zoom="4.705"
   inkscape:cx="179.38363"
   inkscape:cy="87.141339"
   inkscape:window-width="1419"
   inkscape:window-height="1160"
   inkscape:window-x="234"
   inkscape:window-y="0"
   inkscape:window-maximized="0"
   inkscape:current-layer="Camada_1" />

<g
   id="g14"
   transform="matrix(0.08098988,0,0,0.08098988,4.6618621,1.8380202)">

<g
   id="g2">

<path
   d="M 13.8,6.4 C 12.4,5.3 10.9,4.5 9.2,3.9 c 1.5,0.9 3,1.7 4.2,2.9 C 13.3,7.9 11.9,8.6 10.3,8.5 10.2,8.4 10.4,8.4 10.4,8.2 10,8.1 9.5,8.2 9.2,8 9.2,7.9 9.4,7.9 9.3,7.8 9,7.6 8.6,7.5 8.3,7.3 8.3,7.2 8.5,7.2 8.6,7.1 8.3,6.9 7.9,6.8 7.6,6.5 7.7,6.4 7.8,6.5 7.9,6.3 7.6,6.1 7.3,5.9 7.1,5.6 7.2,5.5 7.3,5.6 7.4,5.5 7.3,5.2 6.9,5 6.8,4.7 7,4.7 7.1,4.8 7.3,4.6 7.1,4.3 6.7,4.2 6.6,3.8 6.7,3.7 6.9,3.8 7,3.7 7,3.4 6.8,3.2 6.7,2.9 7,2.8 7.4,2.9 7.7,2.8 7.7,2.7 7.6,2.6 7.6,2.5 8,2.3 8.4,2.5 8.8,2.6 8.9,2.4 8.7,2.4 8.8,2.2 9.1,2.2 9.4,2.4 9.8,2.4 9.9,2.2 9.6,2.2 9.6,2 c 0.4,0 0.7,0.2 1,0.4 0.1,-0.1 0,-0.2 0.1,-0.4 0.3,0.1 0.5,0.3 0.8,0.5 0.2,0 0.1,-0.2 0.2,-0.3 0.3,0.1 0.5,0.4 0.7,0.5 0.2,0 0.1,-0.2 0.2,-0.3 0.3,0.2 0.5,0.5 0.7,0.7 0.2,0 0.1,-0.2 0.3,-0.2 0.6,0.7 1.2,1.5 1.1,2.5 0,0.5 -0.4,0.8 -0.9,1 z"
   id="path1" />

<path
   d="m 23.5,7.1 c 0.1,0.1 0.2,0.1 0.3,0.1 -0.3,0.3 -0.7,0.3 -1.1,0.5 0,0.1 0.1,0.1 0.1,0.2 -0.3,0.2 -0.8,0.1 -1.1,0.2 -0.1,0.1 0.1,0.2 0,0.3 -0.4,0.1 -0.8,0 -1.3,-0.1 C 19.5,8.1 18.8,7.7 18.5,6.8 19.7,5.5 21.2,4.7 22.7,3.9 21,4.5 19.5,5.3 18.1,6.3 17.5,6.1 17.2,5.6 17.2,5 17.2,4.3 17.8,3.2 18.4,2.7 L 18.6,3 c 0.3,-0.2 0.5,-0.6 0.8,-0.7 0.1,0.1 0,0.3 0.2,0.3 0.2,-0.1 0.4,-0.4 0.7,-0.5 0.1,0.1 0,0.2 0.2,0.3 0.3,0 0.5,-0.3 0.9,-0.4 0,0.1 -0.1,0.2 0,0.4 0.3,-0.2 0.6,-0.4 1,-0.4 0,0.1 -0.2,0.2 -0.1,0.4 0.3,0 0.6,-0.2 1,-0.2 0,0.1 -0.1,0.2 0,0.4 0.4,-0.1 0.8,-0.2 1.2,-0.1 0,0.1 -0.1,0.2 -0.1,0.3 0.3,0.1 0.7,0 1,0.1 -0.1,0.3 -0.4,0.5 -0.4,0.8 0.1,0.1 0.3,0 0.4,0.1 -0.1,0.4 -0.5,0.5 -0.6,0.8 0.1,0.2 0.3,0 0.4,0.1 -0.1,0.3 -0.5,0.5 -0.7,0.8 0.1,0.2 0.2,0.1 0.3,0.1 -0.2,0.3 -0.5,0.4 -0.7,0.7 0.1,0.1 0.2,0.1 0.3,0.2 -0.2,0.3 -0.6,0.4 -0.9,0.6 z"
   id="path2" />

</g>

<g
   id="g13">

<path
   d="m 15.4,16 c 0,1.8 -1.4,3.6 -3.2,4 -1.8,0.4 -3.4,-0.9 -3.5,-2.7 -0.1,-1.8 1.2,-3.6 2.9,-4 2.1,-0.6 3.8,0.7 3.8,2.7 z"
   id="path3" />

<path
   d="m 23.4,16.9 c 0,2.1 -1.8,3.4 -3.8,2.8 -1.8,-0.6 -3.1,-2.5 -2.8,-4.4 0.3,-1.8 2.1,-2.9 3.9,-2.2 1.6,0.6 2.7,2.2 2.7,3.8 z"
   id="path4" />

<path
   d="m 16.1,19.4 c 1,0 2,0.4 2.7,1.2 1.2,1.3 1.1,3.2 -0.2,4.3 -1.3,1.1 -3.4,1.2 -4.7,0.1 -1,-0.8 -1.4,-1.8 -1.2,-3.1 0.3,-1.3 1.2,-2 2.4,-2.4 0.3,0 0.6,-0.1 1,-0.1 z"
   id="path5" />

<path
   d="m 19.8,25.3 c 0.1,-1 0.5,-2 1.3,-2.9 0.5,-0.5 1,-1 1.5,-1.4 0.3,-0.2 0.6,-0.3 0.9,-0.4 0.6,-0.1 1.1,0.1 1.3,0.7 0.4,1 0.5,2 0,3 -0.6,1.4 -1.7,2.3 -3.2,2.6 -0.1,0 -0.3,0 -0.5,0 -0.9,0.1 -1.3,-0.3 -1.3,-1.6 z"
   id="path6" />

<path
   d="m 6.9,22.7 c 0,0 0,-0.2 0,-0.3 0.1,-1.1 0.7,-1.5 1.8,-1.2 1.7,0.5 3.3,2.5 3.4,4.3 0,1.1 -0.5,1.6 -1.6,1.4 C 9,26.7 8,25.9 7.4,24.6 7,24 6.9,23.4 6.9,22.7 Z"
   id="path7" />

<path
   d="m 16.2,12.8 c -0.8,0 -1.6,-0.1 -2.3,-0.5 -1.3,-0.7 -1.3,-1.6 -0.2,-2.4 1.5,-1.1 3.5,-1 4.9,0.2 0.1,0.1 0.2,0.2 0.3,0.3 0.5,0.6 0.4,1.2 -0.2,1.7 -0.5,0.4 -1.1,0.5 -1.7,0.6 -0.3,0.1 -0.6,0.1 -0.8,0.1 z"
   id="path8" />

<path
   d="m 16,30 c -1.2,0 -2.2,-0.5 -3.1,-1.4 -0.4,-0.4 -0.4,-0.8 0.1,-1.1 0.7,-0.4 1.4,-0.6 2.2,-0.7 1,-0.1 2,-0.1 3,0.2 0.2,0.1 0.5,0.2 0.7,0.3 0.6,0.3 0.7,0.6 0.2,1.2 0,0 0,0 -0.1,0.1 -0.7,0.9 -1.7,1.4 -3,1.4 z"
   id="path9" />

<path
   d="m 7.8,16.8 c 0,1.1 -0.2,2.1 -0.6,3.1 C 7.1,20.2 7,20.4 6.8,20.6 6.5,21 6.3,21 6,20.7 4.6,19.3 4.8,16.6 6.5,15.4 c 0.6,-0.5 1,-0.4 1.2,0.4 0,0.3 0.1,0.7 0.1,1 z"
   id="path10" />

<path
   d="m 26.9,18.3 c 0,0.8 -0.3,1.7 -0.9,2.4 -0.3,0.3 -0.5,0.3 -0.8,0 -0.3,-0.4 -0.5,-0.9 -0.6,-1.4 -0.3,-1 -0.4,-2.1 -0.3,-3.2 0,-0.2 0.1,-0.5 0.2,-0.7 0.2,-0.4 0.4,-0.5 0.8,-0.2 1,0.6 1.6,1.7 1.6,3.1 z"
   id="path11" />

<path
   d="m 7.5,13.9 c -0.1,-1.3 0.3,-2.5 1.4,-3.3 1.1,-0.8 2.3,-1 3.6,-0.8 0,0.3 -0.2,0.5 -0.3,0.7 -0.7,0.9 -1.6,1.6 -2.4,2.3 -0.5,0.4 -1,0.7 -1.5,1 -0.4,0.1 -0.6,0.3 -0.8,0.1 z"
   id="path12" />

<path
   d="m 24.6,14 c -0.2,0.1 -0.5,0 -0.7,-0.2 -0.7,-0.4 -1.4,-0.9 -2,-1.4 -0.7,-0.6 -1.3,-1.2 -1.9,-1.8 -0.1,-0.2 -0.3,-0.4 -0.3,-0.6 0.6,-0.3 2.6,-0.2 3.6,0.7 1,0.8 1.6,2.4 1.3,3.3 z"
   id="path13" />

</g>

</g>

</svg>
