%TF.GenerationSoftware,KiCad,Pcbnew,8.0.6*%
%TF.CreationDate,2024-11-30T11:18:15+01:00*%
%TF.ProjectId,Pico2-MSX,5069636f-322d-44d5-9358-2e6b69636164,0.3*%
%TF.SameCoordinates,Original*%
%TF.FileFunction,Copper,L2,Inr*%
%TF.FilePolarity,Positive*%
%FSLAX46Y46*%
G04 Gerber Fmt 4.6, Leading zero omitted, Abs format (unit mm)*
G04 Created by KiCad (PCBNEW 8.0.6) date 2024-11-30 11:18:15*
%MOMM*%
%LPD*%
G01*
G04 APERTURE LIST*
%TA.AperFunction,ComponentPad*%
%ADD10O,2.100000X1.000000*%
%TD*%
%TA.AperFunction,ComponentPad*%
%ADD11O,1.800000X1.000000*%
%TD*%
%TA.AperFunction,ComponentPad*%
%ADD12C,0.600000*%
%TD*%
%TA.AperFunction,ComponentPad*%
%ADD13C,1.000000*%
%TD*%
%TA.AperFunction,ComponentPad*%
%ADD14O,1.000000X1.000000*%
%TD*%
%TA.AperFunction,ComponentPad*%
%ADD15C,2.000000*%
%TD*%
%TA.AperFunction,ViaPad*%
%ADD16C,0.500000*%
%TD*%
%TA.AperFunction,ViaPad*%
%ADD17C,1.200000*%
%TD*%
%TA.AperFunction,ViaPad*%
%ADD18C,0.475000*%
%TD*%
%TA.AperFunction,ViaPad*%
%ADD19C,0.600000*%
%TD*%
%TA.AperFunction,ViaPad*%
%ADD20C,0.400000*%
%TD*%
G04 APERTURE END LIST*
D10*
%TO.N,GND*%
%TO.C,J2*%
X195897500Y-80634000D03*
D11*
X200097500Y-80634000D03*
D10*
X195897500Y-71994000D03*
D11*
X200097500Y-71994000D03*
%TD*%
D12*
%TO.N,GND*%
%TO.C,U6*%
X155979167Y-89785667D03*
X155979167Y-90919000D03*
X155979167Y-92052333D03*
X157112500Y-89785667D03*
X157112500Y-90919000D03*
X157112500Y-92052333D03*
X158245833Y-89785667D03*
X158245833Y-90919000D03*
X158245833Y-92052333D03*
%TD*%
D13*
%TO.N,/SWCLK*%
%TO.C,J1*%
X165367500Y-96951500D03*
D14*
%TO.N,GND*%
X165367500Y-98221500D03*
%TO.N,/SWD*%
X165367500Y-99491500D03*
%TD*%
D15*
%TO.N,GND*%
%TO.C,SW1*%
X122430000Y-78564000D03*
X128930000Y-78564000D03*
%TO.N,/~{USB_BOOT}*%
X122430000Y-74064000D03*
X128930000Y-74064000D03*
%TD*%
D16*
%TO.N,GND*%
X129872500Y-87552500D03*
X165112500Y-91379000D03*
D17*
X182151500Y-94631500D03*
D16*
X156512500Y-98419000D03*
X124152500Y-86282500D03*
X161887500Y-103866500D03*
X153402500Y-65846500D03*
D17*
X182751500Y-90219000D03*
D16*
X153402500Y-74726500D03*
X165112500Y-87294000D03*
X154512500Y-98419000D03*
X157712500Y-83419000D03*
X149112500Y-90719000D03*
X157852500Y-98919000D03*
X149612500Y-90719000D03*
X164612500Y-90459000D03*
X153402500Y-72821500D03*
D17*
X136633750Y-112826500D03*
D16*
X154912500Y-82919000D03*
X147162500Y-80441500D03*
X165112500Y-94859000D03*
X148540000Y-79489000D03*
D17*
X190302500Y-94631500D03*
D16*
X126062500Y-81832500D03*
X164612500Y-87294000D03*
X149112500Y-88719000D03*
X168860000Y-100285250D03*
D18*
X161712500Y-84762750D03*
D16*
X153402500Y-63941500D03*
D18*
X161712500Y-83006500D03*
D16*
X164612500Y-94859000D03*
X145682500Y-100924000D03*
X131420000Y-91997500D03*
X149612500Y-88719000D03*
X136452500Y-104254000D03*
D17*
X180751500Y-92419000D03*
D16*
X160187500Y-105166500D03*
X149112500Y-92719000D03*
X164612500Y-91379000D03*
D18*
X161712500Y-82531500D03*
D16*
X154912500Y-83419000D03*
X145682500Y-101869000D03*
X165112500Y-90459000D03*
X157852500Y-98419000D03*
D17*
X132981913Y-110287500D03*
D16*
X135832500Y-102666500D03*
X125102500Y-88467500D03*
X157712500Y-82919000D03*
X149612500Y-92719000D03*
X148540000Y-70599000D03*
X168860000Y-101015000D03*
X147162500Y-71551500D03*
D17*
X132982500Y-112827500D03*
D16*
X154512500Y-98919000D03*
D18*
X161712500Y-84287750D03*
D16*
X174332500Y-103022500D03*
X137352500Y-103016500D03*
X156512500Y-98919000D03*
X157887500Y-100766500D03*
X174332500Y-107647500D03*
D19*
%TO.N,/AUDIO*%
X126697500Y-85012500D03*
D17*
%TO.N,+5V*%
X130759413Y-108382309D03*
X133299413Y-106477309D03*
D16*
X142552500Y-105525000D03*
D17*
X190209000Y-92419000D03*
X132030000Y-107429809D03*
X188939000Y-92419000D03*
X191479000Y-92419000D03*
%TO.N,Net-(D1-A)*%
X129172500Y-114097500D03*
X130441913Y-114097500D03*
X127901913Y-114097500D03*
D16*
%TO.N,/SWD*%
X158712500Y-96719000D03*
%TO.N,/SWCLK*%
X158312500Y-94919000D03*
%TO.N,/~{USB_BOOT}*%
X144942500Y-74419000D03*
%TO.N,+3V3*%
X129872500Y-88822500D03*
D19*
X156312500Y-87919000D03*
X185052500Y-79356500D03*
D16*
X155912500Y-75679000D03*
X142552500Y-97319000D03*
X170432500Y-99772500D03*
D19*
X185052500Y-72856500D03*
X170432500Y-86119000D03*
D16*
X155912500Y-66789000D03*
D19*
X185052500Y-73669000D03*
X154112500Y-89319000D03*
D16*
X148762500Y-73784000D03*
D19*
X185052500Y-78544000D03*
X155512500Y-87919000D03*
D16*
X131777500Y-90092500D03*
D19*
X154112500Y-90119000D03*
D16*
%TO.N,/SPI0_SCK*%
X151312500Y-87919000D03*
X135270000Y-86282500D03*
D20*
%TO.N,+1V1*%
X159512500Y-83569000D03*
D16*
X153112500Y-90719000D03*
X159112500Y-86919000D03*
X161112500Y-90519000D03*
X157512500Y-94919000D03*
D20*
X159062500Y-83569000D03*
D16*
%TO.N,/LED2*%
X166325000Y-87419000D03*
X191837500Y-68731500D03*
%TO.N,/LED1*%
X195250000Y-68731500D03*
X167137500Y-87419000D03*
D19*
%TO.N,Net-(D3-A)*%
X193183750Y-78714000D03*
D17*
X193483750Y-83281500D03*
X193483750Y-82081500D03*
D19*
X193783750Y-73914000D03*
X193183750Y-73914000D03*
X193783750Y-78714000D03*
D17*
X193483750Y-84481500D03*
D16*
%TO.N,/MSX_D3*%
X139650000Y-112826500D03*
%TO.N,/MSX_D7*%
X144412500Y-111875000D03*
%TO.N,/MSX_D6*%
X142190000Y-109970000D03*
X139015000Y-109970000D03*
%TO.N,/MSX_D2*%
X139015000Y-109017500D03*
X143142500Y-109017500D03*
%TO.N,/MSX_D1*%
X137110000Y-110922500D03*
%TO.N,/MSX_D5*%
X141555000Y-113779000D03*
%TO.N,/MSX_D0*%
X145682500Y-108065000D03*
X137427500Y-108065000D03*
%TO.N,/~{WAIT}*%
X177620750Y-113785750D03*
%TO.N,/A11*%
X163462500Y-112510000D03*
%TO.N,/A13*%
X164732500Y-109994000D03*
X156962500Y-113779000D03*
%TO.N,/A12*%
X164097500Y-111715250D03*
%TO.N,/A8*%
X158382500Y-113780000D03*
X158382500Y-111240000D03*
%TO.N,/A9*%
X159652500Y-110921500D03*
%TO.N,/A14*%
X165367500Y-109016500D03*
%TO.N,/~{RESET}*%
X167590000Y-113779000D03*
%TO.N,/~{SLTSL}*%
X173940000Y-112122500D03*
X182511913Y-113779809D03*
%TO.N,/A1*%
X150062500Y-111875000D03*
%TO.N,/A0*%
X149387500Y-112827500D03*
X152350000Y-112827500D03*
%TO.N,/A7*%
X160922500Y-112827500D03*
%TO.N,/A4*%
X149087500Y-109970000D03*
X151912500Y-109970000D03*
%TO.N,/A5*%
X152667500Y-110922500D03*
%TO.N,/A3*%
X151715000Y-113780000D03*
%TO.N,/~{WR}*%
X168825543Y-112140543D03*
%TO.N,/~{M1}*%
X175845000Y-113779500D03*
%TO.N,/~{IORQ_RD}*%
X171732500Y-103022500D03*
X167272500Y-103022500D03*
%TO.N,/SPI0_~{CS}*%
X135270000Y-87552500D03*
X153112500Y-87319000D03*
%TO.N,/SPI0_MOSI*%
X135270000Y-85012500D03*
X153112500Y-88119000D03*
%TO.N,/~{IORQ}*%
X170432500Y-112122500D03*
%TD*%
%TA.AperFunction,Conductor*%
%TO.N,GND*%
G36*
X200997342Y-61530976D02*
G01*
X201119264Y-61542985D01*
X201138294Y-61546770D01*
X201143633Y-61548390D01*
X201250854Y-61580915D01*
X201268785Y-61588342D01*
X201372522Y-61643791D01*
X201388658Y-61654573D01*
X201479583Y-61729193D01*
X201493306Y-61742916D01*
X201567926Y-61833841D01*
X201578708Y-61849977D01*
X201634157Y-61953714D01*
X201641584Y-61971645D01*
X201675728Y-62084203D01*
X201679514Y-62103237D01*
X201691523Y-62225157D01*
X201692000Y-62234861D01*
X201692000Y-71868160D01*
X201673093Y-71926351D01*
X201623593Y-71962315D01*
X201562407Y-71962315D01*
X201512907Y-71926351D01*
X201495902Y-71887474D01*
X201459070Y-71702311D01*
X201459070Y-71702309D01*
X201383691Y-71520326D01*
X201383685Y-71520314D01*
X201274250Y-71356537D01*
X201274247Y-71356533D01*
X201134966Y-71217252D01*
X201134962Y-71217249D01*
X200971185Y-71107814D01*
X200971173Y-71107808D01*
X200789189Y-71032429D01*
X200595993Y-70994000D01*
X200347501Y-70994000D01*
X200347500Y-70994001D01*
X200347500Y-71694000D01*
X199847500Y-71694000D01*
X199847500Y-70994001D01*
X199847499Y-70994000D01*
X199599006Y-70994000D01*
X199405811Y-71032429D01*
X199405809Y-71032429D01*
X199223826Y-71107808D01*
X199223814Y-71107814D01*
X199060037Y-71217249D01*
X199060033Y-71217252D01*
X198920752Y-71356533D01*
X198920749Y-71356537D01*
X198811314Y-71520314D01*
X198811308Y-71520326D01*
X198735931Y-71702304D01*
X198735928Y-71702315D01*
X198727637Y-71744000D01*
X199530512Y-71744000D01*
X199513295Y-71753940D01*
X199457440Y-71809795D01*
X199417944Y-71878204D01*
X199397500Y-71954504D01*
X199397500Y-72033496D01*
X199417944Y-72109796D01*
X199457440Y-72178205D01*
X199513295Y-72234060D01*
X199530512Y-72244000D01*
X198727637Y-72244000D01*
X198735928Y-72285684D01*
X198735931Y-72285695D01*
X198811308Y-72467673D01*
X198811314Y-72467685D01*
X198920749Y-72631462D01*
X198920752Y-72631466D01*
X199060033Y-72770747D01*
X199060037Y-72770750D01*
X199223814Y-72880185D01*
X199223826Y-72880191D01*
X199405810Y-72955570D01*
X199599006Y-72993999D01*
X199599010Y-72994000D01*
X199847499Y-72994000D01*
X199847500Y-72993999D01*
X199847500Y-72294000D01*
X200347500Y-72294000D01*
X200347500Y-72993999D01*
X200347501Y-72994000D01*
X200595990Y-72994000D01*
X200595993Y-72993999D01*
X200789188Y-72955570D01*
X200789190Y-72955570D01*
X200971173Y-72880191D01*
X200971185Y-72880185D01*
X201134962Y-72770750D01*
X201134966Y-72770747D01*
X201274247Y-72631466D01*
X201274250Y-72631462D01*
X201383685Y-72467685D01*
X201383691Y-72467673D01*
X201459070Y-72285690D01*
X201459070Y-72285688D01*
X201495902Y-72100525D01*
X201525799Y-72047141D01*
X201581364Y-72021525D01*
X201641373Y-72033462D01*
X201682906Y-72078392D01*
X201692000Y-72119839D01*
X201692000Y-80508160D01*
X201673093Y-80566351D01*
X201623593Y-80602315D01*
X201562407Y-80602315D01*
X201512907Y-80566351D01*
X201495902Y-80527474D01*
X201459070Y-80342311D01*
X201459070Y-80342309D01*
X201383691Y-80160326D01*
X201383685Y-80160314D01*
X201274250Y-79996537D01*
X201274247Y-79996533D01*
X201134966Y-79857252D01*
X201134962Y-79857249D01*
X200971185Y-79747814D01*
X200971173Y-79747808D01*
X200789189Y-79672429D01*
X200595993Y-79634000D01*
X200347501Y-79634000D01*
X200347500Y-79634001D01*
X200347500Y-80334000D01*
X199847500Y-80334000D01*
X199847500Y-79634001D01*
X199847499Y-79634000D01*
X199599006Y-79634000D01*
X199405811Y-79672429D01*
X199405809Y-79672429D01*
X199223826Y-79747808D01*
X199223814Y-79747814D01*
X199060037Y-79857249D01*
X199060033Y-79857252D01*
X198920752Y-79996533D01*
X198920749Y-79996537D01*
X198811314Y-80160314D01*
X198811308Y-80160326D01*
X198735931Y-80342304D01*
X198735928Y-80342315D01*
X198727637Y-80384000D01*
X199530512Y-80384000D01*
X199513295Y-80393940D01*
X199457440Y-80449795D01*
X199417944Y-80518204D01*
X199397500Y-80594504D01*
X199397500Y-80673496D01*
X199417944Y-80749796D01*
X199457440Y-80818205D01*
X199513295Y-80874060D01*
X199530512Y-80884000D01*
X198727637Y-80884000D01*
X198735928Y-80925684D01*
X198735931Y-80925695D01*
X198811308Y-81107673D01*
X198811314Y-81107685D01*
X198920749Y-81271462D01*
X198920752Y-81271466D01*
X199060033Y-81410747D01*
X199060037Y-81410750D01*
X199223814Y-81520185D01*
X199223826Y-81520191D01*
X199405810Y-81595570D01*
X199599006Y-81633999D01*
X199599010Y-81634000D01*
X199847499Y-81634000D01*
X199847500Y-81633999D01*
X199847500Y-80934000D01*
X200347500Y-80934000D01*
X200347500Y-81633999D01*
X200347501Y-81634000D01*
X200595990Y-81634000D01*
X200595993Y-81633999D01*
X200789188Y-81595570D01*
X200789190Y-81595570D01*
X200971173Y-81520191D01*
X200971185Y-81520185D01*
X201134962Y-81410750D01*
X201134966Y-81410747D01*
X201274247Y-81271466D01*
X201274250Y-81271462D01*
X201383685Y-81107685D01*
X201383691Y-81107673D01*
X201459070Y-80925690D01*
X201459070Y-80925688D01*
X201495902Y-80740525D01*
X201525799Y-80687141D01*
X201581364Y-80661525D01*
X201641373Y-80673462D01*
X201682906Y-80718392D01*
X201692000Y-80759839D01*
X201692000Y-114117638D01*
X201691523Y-114127342D01*
X201679514Y-114249262D01*
X201675728Y-114268296D01*
X201641584Y-114380854D01*
X201634157Y-114398785D01*
X201578708Y-114502522D01*
X201567926Y-114518658D01*
X201493306Y-114609583D01*
X201479583Y-114623306D01*
X201388658Y-114697926D01*
X201372522Y-114708708D01*
X201268785Y-114764157D01*
X201250854Y-114771584D01*
X201138296Y-114805728D01*
X201119263Y-114809514D01*
X201013219Y-114819959D01*
X200997341Y-114821523D01*
X200987639Y-114822000D01*
X188552935Y-114822000D01*
X188476511Y-114842478D01*
X188476507Y-114842480D01*
X188407991Y-114882038D01*
X188352038Y-114937991D01*
X188312480Y-115006507D01*
X188312478Y-115006511D01*
X188292000Y-115082935D01*
X188292000Y-115556991D01*
X188273093Y-115615182D01*
X188223593Y-115651146D01*
X188193186Y-115655991D01*
X123492186Y-115777859D01*
X123433960Y-115759061D01*
X123397903Y-115709629D01*
X123393000Y-115678859D01*
X123393000Y-115082937D01*
X123392999Y-115082935D01*
X123372521Y-115006511D01*
X123372519Y-115006507D01*
X123332961Y-114937991D01*
X123332960Y-114937989D01*
X123277011Y-114882040D01*
X123277008Y-114882038D01*
X123208492Y-114842480D01*
X123208488Y-114842478D01*
X123132064Y-114822000D01*
X123132062Y-114822000D01*
X120097361Y-114822000D01*
X120087657Y-114821523D01*
X119965737Y-114809514D01*
X119946703Y-114805728D01*
X119834145Y-114771584D01*
X119816214Y-114764157D01*
X119712477Y-114708708D01*
X119696341Y-114697926D01*
X119605416Y-114623306D01*
X119591693Y-114609583D01*
X119517073Y-114518658D01*
X119506291Y-114502522D01*
X119450842Y-114398785D01*
X119443415Y-114380854D01*
X119412915Y-114280308D01*
X119409270Y-114268294D01*
X119405485Y-114249262D01*
X119405134Y-114245703D01*
X119393477Y-114127342D01*
X119393000Y-114117638D01*
X119393000Y-114097500D01*
X127046728Y-114097500D01*
X127061700Y-114239950D01*
X127065417Y-114275308D01*
X127120661Y-114445330D01*
X127120667Y-114445344D01*
X127162996Y-114518658D01*
X127210054Y-114600165D01*
X127210056Y-114600167D01*
X127329678Y-114733021D01*
X127329684Y-114733027D01*
X127474315Y-114838109D01*
X127474325Y-114838115D01*
X127572984Y-114882040D01*
X127637646Y-114910829D01*
X127812522Y-114948000D01*
X127812525Y-114948000D01*
X127991301Y-114948000D01*
X127991304Y-114948000D01*
X128166180Y-114910829D01*
X128247843Y-114874470D01*
X128329500Y-114838115D01*
X128329502Y-114838113D01*
X128329506Y-114838112D01*
X128352339Y-114821523D01*
X128478341Y-114729977D01*
X128479794Y-114731978D01*
X128526767Y-114711013D01*
X128586627Y-114723679D01*
X128595809Y-114730339D01*
X128596073Y-114729977D01*
X128744902Y-114838109D01*
X128744912Y-114838115D01*
X128843571Y-114882040D01*
X128908233Y-114910829D01*
X129083109Y-114948000D01*
X129083112Y-114948000D01*
X129261888Y-114948000D01*
X129261891Y-114948000D01*
X129436767Y-114910829D01*
X129518430Y-114874470D01*
X129600087Y-114838115D01*
X129600089Y-114838113D01*
X129600093Y-114838112D01*
X129622926Y-114821523D01*
X129748928Y-114729977D01*
X129750640Y-114732333D01*
X129795828Y-114711645D01*
X129855806Y-114723739D01*
X129865146Y-114730444D01*
X129865486Y-114729977D01*
X130014315Y-114838109D01*
X130014325Y-114838115D01*
X130112984Y-114882040D01*
X130177646Y-114910829D01*
X130352522Y-114948000D01*
X130352525Y-114948000D01*
X130531301Y-114948000D01*
X130531304Y-114948000D01*
X130706180Y-114910829D01*
X130787843Y-114874470D01*
X130869500Y-114838115D01*
X130869502Y-114838113D01*
X130869506Y-114838112D01*
X131014143Y-114733026D01*
X131133772Y-114600165D01*
X131223163Y-114445335D01*
X131278410Y-114275303D01*
X131297098Y-114097500D01*
X131278410Y-113919697D01*
X131232694Y-113778997D01*
X141049353Y-113778997D01*
X141049353Y-113779002D01*
X141069834Y-113921456D01*
X141129622Y-114052371D01*
X141129623Y-114052373D01*
X141223872Y-114161143D01*
X141223873Y-114161144D01*
X141323005Y-114224852D01*
X141344947Y-114238953D01*
X141444881Y-114268296D01*
X141483035Y-114279499D01*
X141483036Y-114279499D01*
X141483039Y-114279500D01*
X141483041Y-114279500D01*
X141626959Y-114279500D01*
X141626961Y-114279500D01*
X141765053Y-114238953D01*
X141886128Y-114161143D01*
X141980377Y-114052373D01*
X142040165Y-113921457D01*
X142060503Y-113780002D01*
X142060504Y-113779997D01*
X151209353Y-113779997D01*
X151209353Y-113780002D01*
X151229834Y-113922456D01*
X151289165Y-114052371D01*
X151289623Y-114053373D01*
X151383707Y-114161953D01*
X151383873Y-114162144D01*
X151504942Y-114239950D01*
X151504947Y-114239953D01*
X151601476Y-114268296D01*
X151643035Y-114280499D01*
X151643036Y-114280499D01*
X151643039Y-114280500D01*
X151643041Y-114280500D01*
X151786959Y-114280500D01*
X151786961Y-114280500D01*
X151925053Y-114239953D01*
X152046128Y-114162143D01*
X152140377Y-114053373D01*
X152200165Y-113922457D01*
X152219820Y-113785752D01*
X152220647Y-113780002D01*
X152220647Y-113779997D01*
X152220503Y-113778997D01*
X156456853Y-113778997D01*
X156456853Y-113779002D01*
X156477334Y-113921456D01*
X156537122Y-114052371D01*
X156537123Y-114052373D01*
X156631372Y-114161143D01*
X156631373Y-114161144D01*
X156730505Y-114224852D01*
X156752447Y-114238953D01*
X156852381Y-114268296D01*
X156890535Y-114279499D01*
X156890536Y-114279499D01*
X156890539Y-114279500D01*
X156890541Y-114279500D01*
X157034459Y-114279500D01*
X157034461Y-114279500D01*
X157172553Y-114238953D01*
X157293628Y-114161143D01*
X157387877Y-114052373D01*
X157447665Y-113921457D01*
X157468003Y-113780002D01*
X157468004Y-113779997D01*
X157876853Y-113779997D01*
X157876853Y-113780002D01*
X157897334Y-113922456D01*
X157956665Y-114052371D01*
X157957123Y-114053373D01*
X158051207Y-114161953D01*
X158051373Y-114162144D01*
X158172442Y-114239950D01*
X158172447Y-114239953D01*
X158268976Y-114268296D01*
X158310535Y-114280499D01*
X158310536Y-114280499D01*
X158310539Y-114280500D01*
X158310541Y-114280500D01*
X158454459Y-114280500D01*
X158454461Y-114280500D01*
X158592553Y-114239953D01*
X158713628Y-114162143D01*
X158807877Y-114053373D01*
X158867665Y-113922457D01*
X158887320Y-113785752D01*
X158888147Y-113780002D01*
X158888147Y-113779997D01*
X158888003Y-113778997D01*
X167084353Y-113778997D01*
X167084353Y-113779002D01*
X167104834Y-113921456D01*
X167164622Y-114052371D01*
X167164623Y-114052373D01*
X167258872Y-114161143D01*
X167258873Y-114161144D01*
X167358005Y-114224852D01*
X167379947Y-114238953D01*
X167479881Y-114268296D01*
X167518035Y-114279499D01*
X167518036Y-114279499D01*
X167518039Y-114279500D01*
X167518041Y-114279500D01*
X167661959Y-114279500D01*
X167661961Y-114279500D01*
X167800053Y-114238953D01*
X167921128Y-114161143D01*
X168015377Y-114052373D01*
X168075165Y-113921457D01*
X168095503Y-113780002D01*
X168095576Y-113779497D01*
X175339353Y-113779497D01*
X175339353Y-113779502D01*
X175359834Y-113921956D01*
X175362689Y-113928207D01*
X175419623Y-114052873D01*
X175513439Y-114161143D01*
X175513873Y-114161644D01*
X175612227Y-114224852D01*
X175634947Y-114239453D01*
X175741403Y-114270711D01*
X175773035Y-114279999D01*
X175773036Y-114279999D01*
X175773039Y-114280000D01*
X175773041Y-114280000D01*
X175916959Y-114280000D01*
X175916961Y-114280000D01*
X176055053Y-114239453D01*
X176176128Y-114161643D01*
X176270377Y-114052873D01*
X176330165Y-113921957D01*
X176349748Y-113785752D01*
X176349749Y-113785747D01*
X177115103Y-113785747D01*
X177115103Y-113785752D01*
X177135584Y-113928206D01*
X177192289Y-114052371D01*
X177195373Y-114059123D01*
X177284207Y-114161644D01*
X177289623Y-114167894D01*
X177410692Y-114245700D01*
X177410697Y-114245703D01*
X177487643Y-114268296D01*
X177548785Y-114286249D01*
X177548786Y-114286249D01*
X177548789Y-114286250D01*
X177548791Y-114286250D01*
X177692709Y-114286250D01*
X177692711Y-114286250D01*
X177830803Y-114245703D01*
X177951878Y-114167893D01*
X178046127Y-114059123D01*
X178105915Y-113928207D01*
X178126397Y-113785750D01*
X178125570Y-113780000D01*
X178125542Y-113779806D01*
X182006266Y-113779806D01*
X182006266Y-113779811D01*
X182026747Y-113922265D01*
X182086394Y-114052871D01*
X182086536Y-114053182D01*
X182142387Y-114117638D01*
X182180786Y-114161953D01*
X182301379Y-114239453D01*
X182301860Y-114239762D01*
X182367264Y-114258966D01*
X182439948Y-114280308D01*
X182439949Y-114280308D01*
X182439952Y-114280309D01*
X182439954Y-114280309D01*
X182583872Y-114280309D01*
X182583874Y-114280309D01*
X182721966Y-114239762D01*
X182843041Y-114161952D01*
X182937290Y-114053182D01*
X182997078Y-113922266D01*
X183016706Y-113785750D01*
X183017560Y-113779811D01*
X183017560Y-113779806D01*
X182997078Y-113637352D01*
X182977661Y-113594835D01*
X182937290Y-113506436D01*
X182843041Y-113397666D01*
X182843040Y-113397665D01*
X182843039Y-113397664D01*
X182721970Y-113319858D01*
X182721967Y-113319856D01*
X182721966Y-113319856D01*
X182721963Y-113319855D01*
X182583877Y-113279309D01*
X182583874Y-113279309D01*
X182439952Y-113279309D01*
X182439948Y-113279309D01*
X182301862Y-113319855D01*
X182301855Y-113319858D01*
X182180786Y-113397664D01*
X182086535Y-113506437D01*
X182026747Y-113637352D01*
X182006266Y-113779806D01*
X178125542Y-113779806D01*
X178105915Y-113643293D01*
X178046127Y-113512378D01*
X178046127Y-113512377D01*
X177951878Y-113403607D01*
X177951877Y-113403606D01*
X177951876Y-113403605D01*
X177830807Y-113325799D01*
X177830804Y-113325797D01*
X177830803Y-113325797D01*
X177830800Y-113325796D01*
X177692714Y-113285250D01*
X177692711Y-113285250D01*
X177548789Y-113285250D01*
X177548785Y-113285250D01*
X177410699Y-113325796D01*
X177410692Y-113325799D01*
X177289623Y-113403605D01*
X177195372Y-113512378D01*
X177135584Y-113643293D01*
X177115103Y-113785747D01*
X176349749Y-113785747D01*
X176350647Y-113779502D01*
X176350647Y-113779497D01*
X176330165Y-113637043D01*
X176282198Y-113532012D01*
X176270377Y-113506127D01*
X176176128Y-113397357D01*
X176176127Y-113397356D01*
X176176126Y-113397355D01*
X176055057Y-113319549D01*
X176055054Y-113319547D01*
X176055053Y-113319547D01*
X176053357Y-113319049D01*
X175916964Y-113279000D01*
X175916961Y-113279000D01*
X175773039Y-113279000D01*
X175773035Y-113279000D01*
X175634949Y-113319546D01*
X175634942Y-113319549D01*
X175513873Y-113397355D01*
X175419622Y-113506128D01*
X175359834Y-113637043D01*
X175339353Y-113779497D01*
X168095576Y-113779497D01*
X168095647Y-113779002D01*
X168095647Y-113778997D01*
X168075165Y-113636543D01*
X168056116Y-113594832D01*
X168015377Y-113505627D01*
X167921128Y-113396857D01*
X167921127Y-113396856D01*
X167921126Y-113396855D01*
X167800057Y-113319049D01*
X167800054Y-113319047D01*
X167800053Y-113319047D01*
X167800050Y-113319046D01*
X167661964Y-113278500D01*
X167661961Y-113278500D01*
X167518039Y-113278500D01*
X167518035Y-113278500D01*
X167379949Y-113319046D01*
X167379942Y-113319049D01*
X167258873Y-113396855D01*
X167164622Y-113505628D01*
X167104834Y-113636543D01*
X167084353Y-113778997D01*
X158888003Y-113778997D01*
X158867665Y-113637543D01*
X158807877Y-113506628D01*
X158807877Y-113506627D01*
X158713628Y-113397857D01*
X158713627Y-113397856D01*
X158713626Y-113397855D01*
X158592557Y-113320049D01*
X158592554Y-113320047D01*
X158592553Y-113320047D01*
X158592550Y-113320046D01*
X158454464Y-113279500D01*
X158454461Y-113279500D01*
X158310539Y-113279500D01*
X158310535Y-113279500D01*
X158172449Y-113320046D01*
X158172442Y-113320049D01*
X158051373Y-113397855D01*
X157957122Y-113506628D01*
X157897334Y-113637543D01*
X157876853Y-113779997D01*
X157468004Y-113779997D01*
X157468147Y-113779002D01*
X157468147Y-113778997D01*
X157447665Y-113636543D01*
X157428616Y-113594832D01*
X157387877Y-113505627D01*
X157293628Y-113396857D01*
X157293627Y-113396856D01*
X157293626Y-113396855D01*
X157172557Y-113319049D01*
X157172554Y-113319047D01*
X157172553Y-113319047D01*
X157172550Y-113319046D01*
X157034464Y-113278500D01*
X157034461Y-113278500D01*
X156890539Y-113278500D01*
X156890535Y-113278500D01*
X156752449Y-113319046D01*
X156752442Y-113319049D01*
X156631373Y-113396855D01*
X156537122Y-113505628D01*
X156477334Y-113636543D01*
X156456853Y-113778997D01*
X152220503Y-113778997D01*
X152200165Y-113637543D01*
X152143003Y-113512378D01*
X152140377Y-113506627D01*
X152135336Y-113500810D01*
X152106593Y-113467637D01*
X152082776Y-113411278D01*
X152096635Y-113351683D01*
X152142876Y-113311615D01*
X152203837Y-113306380D01*
X152209268Y-113307807D01*
X152278039Y-113328000D01*
X152278041Y-113328000D01*
X152421959Y-113328000D01*
X152421961Y-113328000D01*
X152560053Y-113287453D01*
X152681128Y-113209643D01*
X152775377Y-113100873D01*
X152835165Y-112969957D01*
X152855647Y-112827500D01*
X152855647Y-112827497D01*
X160416853Y-112827497D01*
X160416853Y-112827502D01*
X160437334Y-112969956D01*
X160496665Y-113099871D01*
X160497123Y-113100873D01*
X160591372Y-113209643D01*
X160591373Y-113209644D01*
X160707343Y-113284173D01*
X160712447Y-113287453D01*
X160818903Y-113318711D01*
X160850535Y-113327999D01*
X160850536Y-113327999D01*
X160850539Y-113328000D01*
X160850541Y-113328000D01*
X160994459Y-113328000D01*
X160994461Y-113328000D01*
X161132553Y-113287453D01*
X161253628Y-113209643D01*
X161347877Y-113100873D01*
X161407665Y-112969957D01*
X161428147Y-112827500D01*
X161428003Y-112826500D01*
X161407665Y-112685043D01*
X161392783Y-112652456D01*
X161347877Y-112554127D01*
X161309636Y-112509994D01*
X162956853Y-112509994D01*
X162956853Y-112510002D01*
X162977334Y-112652456D01*
X163037122Y-112783371D01*
X163037123Y-112783373D01*
X163075359Y-112827500D01*
X163131373Y-112892144D01*
X163250897Y-112968957D01*
X163252447Y-112969953D01*
X163358903Y-113001211D01*
X163390535Y-113010499D01*
X163390536Y-113010499D01*
X163390539Y-113010500D01*
X163390541Y-113010500D01*
X163534459Y-113010500D01*
X163534461Y-113010500D01*
X163672553Y-112969953D01*
X163793628Y-112892143D01*
X163887877Y-112783373D01*
X163947665Y-112652457D01*
X163957730Y-112582450D01*
X163968147Y-112510002D01*
X163968147Y-112509994D01*
X163947665Y-112367543D01*
X163942337Y-112355875D01*
X163935363Y-112295089D01*
X163965450Y-112241812D01*
X164021107Y-112216395D01*
X164032391Y-112215750D01*
X164169459Y-112215750D01*
X164169461Y-112215750D01*
X164307553Y-112175203D01*
X164361490Y-112140540D01*
X168319896Y-112140540D01*
X168319896Y-112140545D01*
X168340377Y-112282999D01*
X168382621Y-112375499D01*
X168400166Y-112413916D01*
X168494415Y-112522686D01*
X168494416Y-112522687D01*
X168587414Y-112582453D01*
X168615490Y-112600496D01*
X168721946Y-112631754D01*
X168753578Y-112641042D01*
X168753579Y-112641042D01*
X168753582Y-112641043D01*
X168753584Y-112641043D01*
X168897502Y-112641043D01*
X168897504Y-112641043D01*
X169035596Y-112600496D01*
X169156671Y-112522686D01*
X169250920Y-112413916D01*
X169310708Y-112283000D01*
X169326207Y-112175200D01*
X169331190Y-112140545D01*
X169331190Y-112140540D01*
X169328596Y-112122497D01*
X169926853Y-112122497D01*
X169926853Y-112122502D01*
X169947334Y-112264956D01*
X169993730Y-112366547D01*
X170007123Y-112395873D01*
X170096817Y-112499386D01*
X170101373Y-112504644D01*
X170178372Y-112554128D01*
X170222447Y-112582453D01*
X170283897Y-112600496D01*
X170360535Y-112622999D01*
X170360536Y-112622999D01*
X170360539Y-112623000D01*
X170360541Y-112623000D01*
X170504459Y-112623000D01*
X170504461Y-112623000D01*
X170642553Y-112582453D01*
X170763628Y-112504643D01*
X170857877Y-112395873D01*
X170917665Y-112264957D01*
X170932994Y-112158339D01*
X170938147Y-112122502D01*
X170938147Y-112122497D01*
X173434353Y-112122497D01*
X173434353Y-112122502D01*
X173454834Y-112264956D01*
X173501230Y-112366547D01*
X173514623Y-112395873D01*
X173604317Y-112499386D01*
X173608873Y-112504644D01*
X173685872Y-112554128D01*
X173729947Y-112582453D01*
X173791397Y-112600496D01*
X173868035Y-112622999D01*
X173868036Y-112622999D01*
X173868039Y-112623000D01*
X173868041Y-112623000D01*
X174011959Y-112623000D01*
X174011961Y-112623000D01*
X174150053Y-112582453D01*
X174271128Y-112504643D01*
X174365377Y-112395873D01*
X174425165Y-112264957D01*
X174440494Y-112158339D01*
X174445647Y-112122502D01*
X174445647Y-112122497D01*
X174425165Y-111980043D01*
X174402384Y-111930161D01*
X174365377Y-111849127D01*
X174271128Y-111740357D01*
X174271127Y-111740356D01*
X174271126Y-111740355D01*
X174150057Y-111662549D01*
X174150054Y-111662547D01*
X174150053Y-111662547D01*
X174150050Y-111662546D01*
X174011964Y-111622000D01*
X174011961Y-111622000D01*
X173868039Y-111622000D01*
X173868035Y-111622000D01*
X173729949Y-111662546D01*
X173729942Y-111662549D01*
X173608873Y-111740355D01*
X173514622Y-111849128D01*
X173454834Y-111980043D01*
X173434353Y-112122497D01*
X170938147Y-112122497D01*
X170917665Y-111980043D01*
X170894884Y-111930161D01*
X170857877Y-111849127D01*
X170763628Y-111740357D01*
X170763627Y-111740356D01*
X170763626Y-111740355D01*
X170642557Y-111662549D01*
X170642554Y-111662547D01*
X170642553Y-111662547D01*
X170642550Y-111662546D01*
X170504464Y-111622000D01*
X170504461Y-111622000D01*
X170360539Y-111622000D01*
X170360535Y-111622000D01*
X170222449Y-111662546D01*
X170222442Y-111662549D01*
X170101373Y-111740355D01*
X170007122Y-111849128D01*
X169947334Y-111980043D01*
X169926853Y-112122497D01*
X169328596Y-112122497D01*
X169310708Y-111998086D01*
X169279687Y-111930161D01*
X169250920Y-111867170D01*
X169156671Y-111758400D01*
X169156670Y-111758399D01*
X169156669Y-111758398D01*
X169035600Y-111680592D01*
X169035597Y-111680590D01*
X169035596Y-111680590D01*
X169035593Y-111680589D01*
X168897507Y-111640043D01*
X168897504Y-111640043D01*
X168753582Y-111640043D01*
X168753578Y-111640043D01*
X168615492Y-111680589D01*
X168615485Y-111680592D01*
X168494416Y-111758398D01*
X168400165Y-111867171D01*
X168340377Y-111998086D01*
X168319896Y-112140540D01*
X164361490Y-112140540D01*
X164428628Y-112097393D01*
X164522877Y-111988623D01*
X164582665Y-111857707D01*
X164599537Y-111740357D01*
X164603147Y-111715252D01*
X164603147Y-111715247D01*
X164582665Y-111572793D01*
X164522877Y-111441877D01*
X164428628Y-111333107D01*
X164428627Y-111333106D01*
X164428626Y-111333105D01*
X164307557Y-111255299D01*
X164307554Y-111255297D01*
X164307553Y-111255297D01*
X164307550Y-111255296D01*
X164169464Y-111214750D01*
X164169461Y-111214750D01*
X164025539Y-111214750D01*
X164025535Y-111214750D01*
X163887449Y-111255296D01*
X163887442Y-111255299D01*
X163766373Y-111333105D01*
X163672122Y-111441878D01*
X163612334Y-111572793D01*
X163591853Y-111715247D01*
X163591853Y-111715252D01*
X163612334Y-111857706D01*
X163617663Y-111869375D01*
X163624637Y-111930161D01*
X163594550Y-111983438D01*
X163538893Y-112008855D01*
X163527609Y-112009500D01*
X163390535Y-112009500D01*
X163252449Y-112050046D01*
X163252442Y-112050049D01*
X163131373Y-112127855D01*
X163037122Y-112236628D01*
X162977334Y-112367543D01*
X162956853Y-112509994D01*
X161309636Y-112509994D01*
X161253628Y-112445357D01*
X161253627Y-112445356D01*
X161253626Y-112445355D01*
X161132557Y-112367549D01*
X161132554Y-112367547D01*
X161132553Y-112367547D01*
X161132550Y-112367546D01*
X160994464Y-112327000D01*
X160994461Y-112327000D01*
X160850539Y-112327000D01*
X160850535Y-112327000D01*
X160712449Y-112367546D01*
X160712442Y-112367549D01*
X160591373Y-112445355D01*
X160497122Y-112554128D01*
X160437334Y-112685043D01*
X160416853Y-112827497D01*
X152855647Y-112827497D01*
X152855503Y-112826500D01*
X152835165Y-112685043D01*
X152820283Y-112652456D01*
X152775377Y-112554127D01*
X152681128Y-112445357D01*
X152681127Y-112445356D01*
X152681126Y-112445355D01*
X152560057Y-112367549D01*
X152560054Y-112367547D01*
X152560053Y-112367547D01*
X152560050Y-112367546D01*
X152421964Y-112327000D01*
X152421961Y-112327000D01*
X152278039Y-112327000D01*
X152278035Y-112327000D01*
X152139949Y-112367546D01*
X152139942Y-112367549D01*
X152018873Y-112445355D01*
X151924622Y-112554128D01*
X151864834Y-112685043D01*
X151844353Y-112827497D01*
X151844353Y-112827502D01*
X151864834Y-112969956D01*
X151924623Y-113100873D01*
X151958406Y-113139862D01*
X151982223Y-113196221D01*
X151968364Y-113255816D01*
X151922123Y-113295884D01*
X151861162Y-113301119D01*
X151855695Y-113299682D01*
X151786964Y-113279500D01*
X151786961Y-113279500D01*
X151643039Y-113279500D01*
X151643035Y-113279500D01*
X151504949Y-113320046D01*
X151504942Y-113320049D01*
X151383873Y-113397855D01*
X151289622Y-113506628D01*
X151229834Y-113637543D01*
X151209353Y-113779997D01*
X142060504Y-113779997D01*
X142060647Y-113779002D01*
X142060647Y-113778997D01*
X142040165Y-113636543D01*
X142021116Y-113594832D01*
X141980377Y-113505627D01*
X141886128Y-113396857D01*
X141886127Y-113396856D01*
X141886126Y-113396855D01*
X141765057Y-113319049D01*
X141765054Y-113319047D01*
X141765053Y-113319047D01*
X141765050Y-113319046D01*
X141626964Y-113278500D01*
X141626961Y-113278500D01*
X141483039Y-113278500D01*
X141483035Y-113278500D01*
X141344949Y-113319046D01*
X141344942Y-113319049D01*
X141223873Y-113396855D01*
X141129622Y-113505628D01*
X141069834Y-113636543D01*
X141049353Y-113778997D01*
X131232694Y-113778997D01*
X131223163Y-113749665D01*
X131223160Y-113749660D01*
X131223158Y-113749655D01*
X131158319Y-113637352D01*
X131133772Y-113594835D01*
X131053899Y-113506127D01*
X131014147Y-113461978D01*
X131014141Y-113461972D01*
X130869510Y-113356890D01*
X130869500Y-113356884D01*
X130706186Y-113284173D01*
X130706181Y-113284171D01*
X130706180Y-113284171D01*
X130706177Y-113284170D01*
X130706176Y-113284170D01*
X130672914Y-113277100D01*
X130531304Y-113247000D01*
X130352522Y-113247000D01*
X130241012Y-113270702D01*
X130177649Y-113284170D01*
X130177643Y-113284172D01*
X130014327Y-113356884D01*
X130014324Y-113356886D01*
X130014321Y-113356887D01*
X130014321Y-113356888D01*
X129869683Y-113461974D01*
X129869681Y-113461975D01*
X129865486Y-113465024D01*
X129863982Y-113462955D01*
X129816856Y-113483539D01*
X129757099Y-113470393D01*
X129749212Y-113464629D01*
X129748927Y-113465023D01*
X129600097Y-113356890D01*
X129600087Y-113356884D01*
X129436773Y-113284173D01*
X129436768Y-113284171D01*
X129436767Y-113284171D01*
X129436764Y-113284170D01*
X129436763Y-113284170D01*
X129403501Y-113277100D01*
X129261891Y-113247000D01*
X129083109Y-113247000D01*
X128971599Y-113270702D01*
X128908236Y-113284170D01*
X128908230Y-113284172D01*
X128744914Y-113356884D01*
X128744911Y-113356886D01*
X128744908Y-113356887D01*
X128744908Y-113356888D01*
X128600270Y-113461974D01*
X128600268Y-113461975D01*
X128596073Y-113465024D01*
X128594636Y-113463046D01*
X128547500Y-113484002D01*
X128487659Y-113471248D01*
X128478601Y-113464662D01*
X128478340Y-113465023D01*
X128329510Y-113356890D01*
X128329500Y-113356884D01*
X128166186Y-113284173D01*
X128166181Y-113284171D01*
X128166180Y-113284171D01*
X128166177Y-113284170D01*
X128166176Y-113284170D01*
X128132914Y-113277100D01*
X127991304Y-113247000D01*
X127812522Y-113247000D01*
X127701012Y-113270702D01*
X127637649Y-113284170D01*
X127637643Y-113284172D01*
X127474327Y-113356884D01*
X127474324Y-113356886D01*
X127329678Y-113461977D01*
X127329678Y-113461978D01*
X127210056Y-113594832D01*
X127210052Y-113594838D01*
X127120667Y-113749655D01*
X127120661Y-113749669D01*
X127065417Y-113919691D01*
X127065416Y-113919695D01*
X127065416Y-113919697D01*
X127046728Y-114097500D01*
X119393000Y-114097500D01*
X119393000Y-112826497D01*
X139144353Y-112826497D01*
X139144353Y-112826502D01*
X139164834Y-112968956D01*
X139183807Y-113010500D01*
X139224623Y-113099873D01*
X139318872Y-113208643D01*
X139318873Y-113208644D01*
X139436399Y-113284173D01*
X139439947Y-113286453D01*
X139525642Y-113311615D01*
X139578035Y-113326999D01*
X139578036Y-113326999D01*
X139578039Y-113327000D01*
X139578041Y-113327000D01*
X139721959Y-113327000D01*
X139721961Y-113327000D01*
X139860053Y-113286453D01*
X139981128Y-113208643D01*
X140075377Y-113099873D01*
X140135165Y-112968957D01*
X140155503Y-112827502D01*
X140155504Y-112827497D01*
X148881853Y-112827497D01*
X148881853Y-112827502D01*
X148902334Y-112969956D01*
X148961665Y-113099871D01*
X148962123Y-113100873D01*
X149056372Y-113209643D01*
X149056373Y-113209644D01*
X149172343Y-113284173D01*
X149177447Y-113287453D01*
X149283903Y-113318711D01*
X149315535Y-113327999D01*
X149315536Y-113327999D01*
X149315539Y-113328000D01*
X149315541Y-113328000D01*
X149459459Y-113328000D01*
X149459461Y-113328000D01*
X149597553Y-113287453D01*
X149718628Y-113209643D01*
X149812877Y-113100873D01*
X149872665Y-112969957D01*
X149893147Y-112827500D01*
X149893003Y-112826500D01*
X149872665Y-112685043D01*
X149857783Y-112652456D01*
X149812877Y-112554127D01*
X149765443Y-112499385D01*
X149741626Y-112443027D01*
X149755484Y-112383432D01*
X149801725Y-112343364D01*
X149862686Y-112338128D01*
X149868154Y-112339565D01*
X149990535Y-112375499D01*
X149990536Y-112375499D01*
X149990539Y-112375500D01*
X149990541Y-112375500D01*
X150134459Y-112375500D01*
X150134461Y-112375500D01*
X150272553Y-112334953D01*
X150393628Y-112257143D01*
X150487877Y-112148373D01*
X150547665Y-112017457D01*
X150568147Y-111875000D01*
X150567338Y-111869375D01*
X150547665Y-111732543D01*
X150532780Y-111699950D01*
X150487877Y-111601627D01*
X150393628Y-111492857D01*
X150393627Y-111492856D01*
X150393626Y-111492855D01*
X150272557Y-111415049D01*
X150272554Y-111415047D01*
X150272553Y-111415047D01*
X150272550Y-111415046D01*
X150134464Y-111374500D01*
X150134461Y-111374500D01*
X149990539Y-111374500D01*
X149990535Y-111374500D01*
X149852449Y-111415046D01*
X149852442Y-111415049D01*
X149731373Y-111492855D01*
X149637122Y-111601628D01*
X149577334Y-111732543D01*
X149556853Y-111874997D01*
X149556853Y-111875002D01*
X149577334Y-112017456D01*
X149637123Y-112148373D01*
X149684555Y-112203113D01*
X149708373Y-112259472D01*
X149694514Y-112319067D01*
X149648274Y-112359135D01*
X149587313Y-112364371D01*
X149581845Y-112362934D01*
X149459464Y-112327000D01*
X149459461Y-112327000D01*
X149315539Y-112327000D01*
X149315535Y-112327000D01*
X149177449Y-112367546D01*
X149177442Y-112367549D01*
X149056373Y-112445355D01*
X148962122Y-112554128D01*
X148902334Y-112685043D01*
X148881853Y-112827497D01*
X140155504Y-112827497D01*
X140155647Y-112826502D01*
X140155647Y-112826497D01*
X140135165Y-112684043D01*
X140120740Y-112652457D01*
X140075377Y-112553127D01*
X139981128Y-112444357D01*
X139981127Y-112444356D01*
X139981126Y-112444355D01*
X139860057Y-112366549D01*
X139860054Y-112366547D01*
X139860053Y-112366547D01*
X139860050Y-112366546D01*
X139721964Y-112326000D01*
X139721961Y-112326000D01*
X139578039Y-112326000D01*
X139578035Y-112326000D01*
X139439949Y-112366546D01*
X139439942Y-112366549D01*
X139318873Y-112444355D01*
X139224622Y-112553128D01*
X139164834Y-112684043D01*
X139144353Y-112826497D01*
X119393000Y-112826497D01*
X119393000Y-111874997D01*
X143906853Y-111874997D01*
X143906853Y-111875002D01*
X143927334Y-112017456D01*
X143983546Y-112140540D01*
X143987123Y-112148373D01*
X144045505Y-112215750D01*
X144081373Y-112257144D01*
X144190072Y-112327000D01*
X144202447Y-112334953D01*
X144297743Y-112362934D01*
X144340535Y-112375499D01*
X144340536Y-112375499D01*
X144340539Y-112375500D01*
X144340541Y-112375500D01*
X144484459Y-112375500D01*
X144484461Y-112375500D01*
X144622553Y-112334953D01*
X144743628Y-112257143D01*
X144837877Y-112148373D01*
X144897665Y-112017457D01*
X144918147Y-111875000D01*
X144917338Y-111869375D01*
X144897665Y-111732543D01*
X144882780Y-111699950D01*
X144837877Y-111601627D01*
X144743628Y-111492857D01*
X144743627Y-111492856D01*
X144743626Y-111492855D01*
X144622557Y-111415049D01*
X144622554Y-111415047D01*
X144622553Y-111415047D01*
X144622550Y-111415046D01*
X144484464Y-111374500D01*
X144484461Y-111374500D01*
X144340539Y-111374500D01*
X144340535Y-111374500D01*
X144202449Y-111415046D01*
X144202442Y-111415049D01*
X144081373Y-111492855D01*
X143987122Y-111601628D01*
X143927334Y-111732543D01*
X143906853Y-111874997D01*
X119393000Y-111874997D01*
X119393000Y-110922497D01*
X136604353Y-110922497D01*
X136604353Y-110922502D01*
X136624834Y-111064956D01*
X136668648Y-111160894D01*
X136684623Y-111195873D01*
X136778872Y-111304643D01*
X136778873Y-111304644D01*
X136887572Y-111374500D01*
X136899947Y-111382453D01*
X137006403Y-111413711D01*
X137038035Y-111422999D01*
X137038036Y-111422999D01*
X137038039Y-111423000D01*
X137038041Y-111423000D01*
X137181959Y-111423000D01*
X137181961Y-111423000D01*
X137320053Y-111382453D01*
X137441128Y-111304643D01*
X137535377Y-111195873D01*
X137595165Y-111064957D01*
X137601992Y-111017471D01*
X137615647Y-110922502D01*
X137615647Y-110922497D01*
X152161853Y-110922497D01*
X152161853Y-110922502D01*
X152182334Y-111064956D01*
X152226148Y-111160894D01*
X152242123Y-111195873D01*
X152336372Y-111304643D01*
X152336373Y-111304644D01*
X152445072Y-111374500D01*
X152457447Y-111382453D01*
X152563903Y-111413711D01*
X152595535Y-111422999D01*
X152595536Y-111422999D01*
X152595539Y-111423000D01*
X152595541Y-111423000D01*
X152739459Y-111423000D01*
X152739461Y-111423000D01*
X152877553Y-111382453D01*
X152998628Y-111304643D01*
X153054644Y-111239997D01*
X157876853Y-111239997D01*
X157876853Y-111240002D01*
X157897334Y-111382456D01*
X157957122Y-111513371D01*
X157957123Y-111513373D01*
X158014071Y-111579095D01*
X158051373Y-111622144D01*
X158172442Y-111699950D01*
X158172447Y-111699953D01*
X158278903Y-111731211D01*
X158310535Y-111740499D01*
X158310536Y-111740499D01*
X158310539Y-111740500D01*
X158310541Y-111740500D01*
X158454459Y-111740500D01*
X158454461Y-111740500D01*
X158592553Y-111699953D01*
X158713628Y-111622143D01*
X158807877Y-111513373D01*
X158867665Y-111382457D01*
X158878853Y-111304643D01*
X158888147Y-111240002D01*
X158888147Y-111239997D01*
X158867665Y-111097543D01*
X158852783Y-111064956D01*
X158807877Y-110966627D01*
X158768772Y-110921497D01*
X159146853Y-110921497D01*
X159146853Y-110921502D01*
X159167334Y-111063956D01*
X159182673Y-111097543D01*
X159227123Y-111194873D01*
X159279482Y-111255299D01*
X159321373Y-111303644D01*
X159431628Y-111374500D01*
X159442447Y-111381453D01*
X159548903Y-111412711D01*
X159580535Y-111421999D01*
X159580536Y-111421999D01*
X159580539Y-111422000D01*
X159580541Y-111422000D01*
X159724459Y-111422000D01*
X159724461Y-111422000D01*
X159862553Y-111381453D01*
X159983628Y-111303643D01*
X160077877Y-111194873D01*
X160137665Y-111063957D01*
X160158003Y-110922502D01*
X160158147Y-110921502D01*
X160158147Y-110921497D01*
X160137665Y-110779043D01*
X160078334Y-110649128D01*
X160077877Y-110648127D01*
X159983628Y-110539357D01*
X159983627Y-110539356D01*
X159983626Y-110539355D01*
X159862557Y-110461549D01*
X159862554Y-110461547D01*
X159862553Y-110461547D01*
X159862550Y-110461546D01*
X159724464Y-110421000D01*
X159724461Y-110421000D01*
X159580539Y-110421000D01*
X159580535Y-110421000D01*
X159442449Y-110461546D01*
X159442442Y-110461549D01*
X159321373Y-110539355D01*
X159227122Y-110648128D01*
X159167334Y-110779043D01*
X159146853Y-110921497D01*
X158768772Y-110921497D01*
X158713628Y-110857857D01*
X158713627Y-110857856D01*
X158713626Y-110857855D01*
X158592557Y-110780049D01*
X158592554Y-110780047D01*
X158592553Y-110780047D01*
X158592550Y-110780046D01*
X158454464Y-110739500D01*
X158454461Y-110739500D01*
X158310539Y-110739500D01*
X158310535Y-110739500D01*
X158172449Y-110780046D01*
X158172442Y-110780049D01*
X158051373Y-110857855D01*
X157957122Y-110966628D01*
X157897334Y-111097543D01*
X157876853Y-111239997D01*
X153054644Y-111239997D01*
X153092877Y-111195873D01*
X153152665Y-111064957D01*
X153159492Y-111017471D01*
X153173147Y-110922502D01*
X153173147Y-110922497D01*
X153152665Y-110780043D01*
X153092877Y-110649128D01*
X153092877Y-110649127D01*
X152998628Y-110540357D01*
X152998627Y-110540356D01*
X152998626Y-110540355D01*
X152877557Y-110462549D01*
X152877554Y-110462547D01*
X152877553Y-110462547D01*
X152877550Y-110462546D01*
X152739464Y-110422000D01*
X152739461Y-110422000D01*
X152595539Y-110422000D01*
X152595535Y-110422000D01*
X152457449Y-110462546D01*
X152457442Y-110462549D01*
X152336373Y-110540355D01*
X152242122Y-110649128D01*
X152182334Y-110780043D01*
X152161853Y-110922497D01*
X137615647Y-110922497D01*
X137595165Y-110780043D01*
X137535377Y-110649128D01*
X137535377Y-110649127D01*
X137441128Y-110540357D01*
X137441127Y-110540356D01*
X137441126Y-110540355D01*
X137320057Y-110462549D01*
X137320054Y-110462547D01*
X137320053Y-110462547D01*
X137320050Y-110462546D01*
X137181964Y-110422000D01*
X137181961Y-110422000D01*
X137038039Y-110422000D01*
X137038035Y-110422000D01*
X136899949Y-110462546D01*
X136899942Y-110462549D01*
X136778873Y-110540355D01*
X136684622Y-110649128D01*
X136624834Y-110780043D01*
X136604353Y-110922497D01*
X119393000Y-110922497D01*
X119393000Y-108382309D01*
X129904228Y-108382309D01*
X129922646Y-108557547D01*
X129922917Y-108560117D01*
X129978161Y-108730139D01*
X129978167Y-108730153D01*
X130049182Y-108853154D01*
X130067554Y-108884974D01*
X130067556Y-108884976D01*
X130187178Y-109017830D01*
X130187184Y-109017836D01*
X130331815Y-109122918D01*
X130331825Y-109122924D01*
X130495139Y-109195635D01*
X130495146Y-109195638D01*
X130670022Y-109232809D01*
X130670025Y-109232809D01*
X130848801Y-109232809D01*
X130848804Y-109232809D01*
X131023680Y-109195638D01*
X131106070Y-109158956D01*
X131187000Y-109122924D01*
X131187002Y-109122922D01*
X131187006Y-109122921D01*
X131331643Y-109017835D01*
X131331947Y-109017497D01*
X138509353Y-109017497D01*
X138509353Y-109017502D01*
X138529834Y-109159956D01*
X138588391Y-109288176D01*
X138589623Y-109290873D01*
X138651594Y-109362392D01*
X138683872Y-109399643D01*
X138700713Y-109410466D01*
X138739444Y-109457833D01*
X138742936Y-109518918D01*
X138709857Y-109570391D01*
X138700713Y-109577034D01*
X138683872Y-109587856D01*
X138589622Y-109696628D01*
X138529834Y-109827543D01*
X138509353Y-109969997D01*
X138509353Y-109970002D01*
X138529834Y-110112456D01*
X138554067Y-110165518D01*
X138589623Y-110243373D01*
X138683872Y-110352143D01*
X138683873Y-110352144D01*
X138792572Y-110422000D01*
X138804947Y-110429953D01*
X138911403Y-110461211D01*
X138943035Y-110470499D01*
X138943036Y-110470499D01*
X138943039Y-110470500D01*
X138943041Y-110470500D01*
X139086959Y-110470500D01*
X139086961Y-110470500D01*
X139225053Y-110429953D01*
X139346128Y-110352143D01*
X139440377Y-110243373D01*
X139500165Y-110112457D01*
X139517196Y-109994002D01*
X139520647Y-109970002D01*
X139520647Y-109969997D01*
X141684353Y-109969997D01*
X141684353Y-109970002D01*
X141704834Y-110112456D01*
X141729067Y-110165518D01*
X141764623Y-110243373D01*
X141858872Y-110352143D01*
X141858873Y-110352144D01*
X141967572Y-110422000D01*
X141979947Y-110429953D01*
X142086403Y-110461211D01*
X142118035Y-110470499D01*
X142118036Y-110470499D01*
X142118039Y-110470500D01*
X142118041Y-110470500D01*
X142261959Y-110470500D01*
X142261961Y-110470500D01*
X142400053Y-110429953D01*
X142521128Y-110352143D01*
X142615377Y-110243373D01*
X142675165Y-110112457D01*
X142692196Y-109994002D01*
X142695647Y-109970002D01*
X142695647Y-109969997D01*
X148581853Y-109969997D01*
X148581853Y-109970002D01*
X148602334Y-110112456D01*
X148626567Y-110165518D01*
X148662123Y-110243373D01*
X148756372Y-110352143D01*
X148756373Y-110352144D01*
X148865072Y-110422000D01*
X148877447Y-110429953D01*
X148983903Y-110461211D01*
X149015535Y-110470499D01*
X149015536Y-110470499D01*
X149015539Y-110470500D01*
X149015541Y-110470500D01*
X149159459Y-110470500D01*
X149159461Y-110470500D01*
X149297553Y-110429953D01*
X149418628Y-110352143D01*
X149512877Y-110243373D01*
X149572665Y-110112457D01*
X149589696Y-109994002D01*
X149593147Y-109970002D01*
X149593147Y-109969997D01*
X151406853Y-109969997D01*
X151406853Y-109970002D01*
X151427334Y-110112456D01*
X151451567Y-110165518D01*
X151487123Y-110243373D01*
X151581372Y-110352143D01*
X151581373Y-110352144D01*
X151690072Y-110422000D01*
X151702447Y-110429953D01*
X151808903Y-110461211D01*
X151840535Y-110470499D01*
X151840536Y-110470499D01*
X151840539Y-110470500D01*
X151840541Y-110470500D01*
X151984459Y-110470500D01*
X151984461Y-110470500D01*
X152122553Y-110429953D01*
X152243628Y-110352143D01*
X152337877Y-110243373D01*
X152397665Y-110112457D01*
X152414696Y-109994002D01*
X152414697Y-109993997D01*
X164226853Y-109993997D01*
X164226853Y-109994002D01*
X164247334Y-110136456D01*
X164296162Y-110243373D01*
X164307123Y-110267373D01*
X164380576Y-110352143D01*
X164401373Y-110376144D01*
X164485102Y-110429953D01*
X164522447Y-110453953D01*
X164628903Y-110485211D01*
X164660535Y-110494499D01*
X164660536Y-110494499D01*
X164660539Y-110494500D01*
X164660541Y-110494500D01*
X164804459Y-110494500D01*
X164804461Y-110494500D01*
X164942553Y-110453953D01*
X165063628Y-110376143D01*
X165157877Y-110267373D01*
X165217665Y-110136457D01*
X165238147Y-109994000D01*
X165234696Y-109970000D01*
X165217665Y-109851543D01*
X165217642Y-109851493D01*
X181177247Y-109851493D01*
X181177247Y-109851506D01*
X181196240Y-110165518D01*
X181196243Y-110165540D01*
X181252950Y-110474977D01*
X181346546Y-110775336D01*
X181417285Y-110932511D01*
X181475663Y-111062221D01*
X181475667Y-111062229D01*
X181475671Y-111062235D01*
X181638410Y-111331438D01*
X181638414Y-111331444D01*
X181638419Y-111331452D01*
X181832440Y-111579102D01*
X182054898Y-111801560D01*
X182302548Y-111995581D01*
X182302559Y-111995587D01*
X182302561Y-111995589D01*
X182571764Y-112158328D01*
X182571779Y-112158337D01*
X182858665Y-112287454D01*
X183159022Y-112381049D01*
X183468459Y-112437756D01*
X183468463Y-112437756D01*
X183468471Y-112437758D01*
X183468475Y-112437758D01*
X183468481Y-112437759D01*
X183782494Y-112456753D01*
X183782500Y-112456753D01*
X183782506Y-112456753D01*
X184096518Y-112437759D01*
X184096522Y-112437758D01*
X184096529Y-112437758D01*
X184405978Y-112381049D01*
X184706335Y-112287454D01*
X184993221Y-112158337D01*
X185262452Y-111995581D01*
X185510102Y-111801560D01*
X185732560Y-111579102D01*
X185926581Y-111331452D01*
X186089337Y-111062221D01*
X186218454Y-110775335D01*
X186312049Y-110474978D01*
X186368758Y-110165529D01*
X186370541Y-110136059D01*
X186387753Y-109851506D01*
X186387753Y-109851493D01*
X186368759Y-109537481D01*
X186368756Y-109537459D01*
X186312049Y-109228022D01*
X186246552Y-109017835D01*
X186218454Y-108927665D01*
X186089337Y-108640779D01*
X186039023Y-108557549D01*
X185926589Y-108371561D01*
X185926587Y-108371559D01*
X185926581Y-108371548D01*
X185732560Y-108123898D01*
X185510102Y-107901440D01*
X185262452Y-107707419D01*
X185262444Y-107707414D01*
X185262438Y-107707410D01*
X184993235Y-107544671D01*
X184993229Y-107544667D01*
X184993221Y-107544663D01*
X184840376Y-107475873D01*
X184706336Y-107415546D01*
X184405976Y-107321950D01*
X184405977Y-107321950D01*
X184096540Y-107265243D01*
X184096518Y-107265240D01*
X183782506Y-107246247D01*
X183782494Y-107246247D01*
X183468481Y-107265240D01*
X183468459Y-107265243D01*
X183159022Y-107321950D01*
X182858663Y-107415546D01*
X182571785Y-107544660D01*
X182571764Y-107544671D01*
X182302561Y-107707410D01*
X182302542Y-107707423D01*
X182054904Y-107901435D01*
X182054901Y-107901437D01*
X181832437Y-108123901D01*
X181832435Y-108123904D01*
X181638423Y-108371542D01*
X181638410Y-108371561D01*
X181475671Y-108640764D01*
X181475660Y-108640785D01*
X181346546Y-108927663D01*
X181252950Y-109228022D01*
X181196243Y-109537459D01*
X181196240Y-109537481D01*
X181177247Y-109851493D01*
X165217642Y-109851493D01*
X165157877Y-109720628D01*
X165157877Y-109720627D01*
X165095039Y-109648107D01*
X165071221Y-109591747D01*
X165085080Y-109532152D01*
X165131321Y-109492085D01*
X165192282Y-109486849D01*
X165197721Y-109488278D01*
X165295539Y-109517000D01*
X165295541Y-109517000D01*
X165439459Y-109517000D01*
X165439461Y-109517000D01*
X165577553Y-109476453D01*
X165698628Y-109398643D01*
X165792877Y-109289873D01*
X165852665Y-109158957D01*
X165873003Y-109017502D01*
X165873147Y-109016502D01*
X165873147Y-109016497D01*
X165852665Y-108874043D01*
X165793334Y-108744128D01*
X165792877Y-108743127D01*
X165698628Y-108634357D01*
X165698627Y-108634356D01*
X165698626Y-108634355D01*
X165577557Y-108556549D01*
X165577554Y-108556547D01*
X165577553Y-108556547D01*
X165577550Y-108556546D01*
X165439464Y-108516000D01*
X165439461Y-108516000D01*
X165295539Y-108516000D01*
X165295535Y-108516000D01*
X165157449Y-108556546D01*
X165157442Y-108556549D01*
X165036373Y-108634355D01*
X164942122Y-108743128D01*
X164882334Y-108874043D01*
X164861853Y-109016497D01*
X164861853Y-109016502D01*
X164882334Y-109158956D01*
X164913876Y-109228022D01*
X164942123Y-109289873D01*
X165004961Y-109362392D01*
X165028778Y-109418752D01*
X165014919Y-109478347D01*
X164968678Y-109518414D01*
X164907717Y-109523650D01*
X164902250Y-109522213D01*
X164804464Y-109493500D01*
X164804461Y-109493500D01*
X164660539Y-109493500D01*
X164660535Y-109493500D01*
X164522449Y-109534046D01*
X164522442Y-109534049D01*
X164401373Y-109611855D01*
X164307122Y-109720628D01*
X164247334Y-109851543D01*
X164226853Y-109993997D01*
X152414697Y-109993997D01*
X152418147Y-109970002D01*
X152418147Y-109969997D01*
X152397665Y-109827543D01*
X152348838Y-109720628D01*
X152337877Y-109696627D01*
X152243628Y-109587857D01*
X152243627Y-109587856D01*
X152243626Y-109587855D01*
X152122557Y-109510049D01*
X152122554Y-109510047D01*
X152122553Y-109510047D01*
X152122550Y-109510046D01*
X151984464Y-109469500D01*
X151984461Y-109469500D01*
X151840539Y-109469500D01*
X151840535Y-109469500D01*
X151702449Y-109510046D01*
X151702442Y-109510049D01*
X151581373Y-109587855D01*
X151487122Y-109696628D01*
X151427334Y-109827543D01*
X151406853Y-109969997D01*
X149593147Y-109969997D01*
X149572665Y-109827543D01*
X149523838Y-109720628D01*
X149512877Y-109696627D01*
X149418628Y-109587857D01*
X149418627Y-109587856D01*
X149418626Y-109587855D01*
X149297557Y-109510049D01*
X149297554Y-109510047D01*
X149297553Y-109510047D01*
X149297550Y-109510046D01*
X149159464Y-109469500D01*
X149159461Y-109469500D01*
X149015539Y-109469500D01*
X149015535Y-109469500D01*
X148877449Y-109510046D01*
X148877442Y-109510049D01*
X148756373Y-109587855D01*
X148662122Y-109696628D01*
X148602334Y-109827543D01*
X148581853Y-109969997D01*
X142695647Y-109969997D01*
X142675165Y-109827543D01*
X142626338Y-109720628D01*
X142615377Y-109696627D01*
X142521128Y-109587857D01*
X142521127Y-109587856D01*
X142521126Y-109587855D01*
X142400057Y-109510049D01*
X142400054Y-109510047D01*
X142400053Y-109510047D01*
X142400050Y-109510046D01*
X142261964Y-109469500D01*
X142261961Y-109469500D01*
X142118039Y-109469500D01*
X142118035Y-109469500D01*
X141979949Y-109510046D01*
X141979942Y-109510049D01*
X141858873Y-109587855D01*
X141764622Y-109696628D01*
X141704834Y-109827543D01*
X141684353Y-109969997D01*
X139520647Y-109969997D01*
X139500165Y-109827543D01*
X139451338Y-109720628D01*
X139440377Y-109696627D01*
X139346128Y-109587857D01*
X139346127Y-109587856D01*
X139338033Y-109582654D01*
X139329287Y-109577034D01*
X139290556Y-109529669D01*
X139287062Y-109468584D01*
X139320141Y-109417111D01*
X139329287Y-109410466D01*
X139346128Y-109399643D01*
X139440377Y-109290873D01*
X139500165Y-109159957D01*
X139506992Y-109112471D01*
X139520647Y-109017502D01*
X139520647Y-109017497D01*
X142636853Y-109017497D01*
X142636853Y-109017502D01*
X142657334Y-109159956D01*
X142715891Y-109288176D01*
X142717123Y-109290873D01*
X142811372Y-109399643D01*
X142811373Y-109399644D01*
X142920072Y-109469500D01*
X142932447Y-109477453D01*
X143038903Y-109508711D01*
X143070535Y-109517999D01*
X143070536Y-109517999D01*
X143070539Y-109518000D01*
X143070541Y-109518000D01*
X143214459Y-109518000D01*
X143214461Y-109518000D01*
X143352553Y-109477453D01*
X143473628Y-109399643D01*
X143567877Y-109290873D01*
X143627665Y-109159957D01*
X143634492Y-109112471D01*
X143648147Y-109017502D01*
X143648147Y-109017497D01*
X143627665Y-108875043D01*
X143567877Y-108744128D01*
X143567877Y-108744127D01*
X143473628Y-108635357D01*
X143473627Y-108635356D01*
X143473626Y-108635355D01*
X143352557Y-108557549D01*
X143352554Y-108557547D01*
X143352553Y-108557547D01*
X143352550Y-108557546D01*
X143214464Y-108517000D01*
X143214461Y-108517000D01*
X143070539Y-108517000D01*
X143070535Y-108517000D01*
X142932449Y-108557546D01*
X142932442Y-108557549D01*
X142811373Y-108635355D01*
X142717122Y-108744128D01*
X142657334Y-108875043D01*
X142636853Y-109017497D01*
X139520647Y-109017497D01*
X139500165Y-108875043D01*
X139440377Y-108744128D01*
X139440377Y-108744127D01*
X139346128Y-108635357D01*
X139346127Y-108635356D01*
X139346126Y-108635355D01*
X139225057Y-108557549D01*
X139225054Y-108557547D01*
X139225053Y-108557547D01*
X139225050Y-108557546D01*
X139086964Y-108517000D01*
X139086961Y-108517000D01*
X138943039Y-108517000D01*
X138943035Y-108517000D01*
X138804949Y-108557546D01*
X138804942Y-108557549D01*
X138683873Y-108635355D01*
X138589622Y-108744128D01*
X138529834Y-108875043D01*
X138509353Y-109017497D01*
X131331947Y-109017497D01*
X131451272Y-108884974D01*
X131540663Y-108730144D01*
X131595910Y-108560112D01*
X131614598Y-108382309D01*
X131609756Y-108336244D01*
X131622477Y-108276397D01*
X131667947Y-108235456D01*
X131728797Y-108229060D01*
X131748475Y-108235454D01*
X131765733Y-108243138D01*
X131940609Y-108280309D01*
X131940612Y-108280309D01*
X132119388Y-108280309D01*
X132119391Y-108280309D01*
X132294267Y-108243138D01*
X132381050Y-108204500D01*
X132457587Y-108170424D01*
X132457589Y-108170422D01*
X132457593Y-108170421D01*
X132602230Y-108065335D01*
X132602534Y-108064997D01*
X136921853Y-108064997D01*
X136921853Y-108065002D01*
X136942334Y-108207456D01*
X137001152Y-108336246D01*
X137002123Y-108338373D01*
X137096372Y-108447143D01*
X137096373Y-108447144D01*
X137205072Y-108517000D01*
X137217447Y-108524953D01*
X137323903Y-108556211D01*
X137355535Y-108565499D01*
X137355536Y-108565499D01*
X137355539Y-108565500D01*
X137355541Y-108565500D01*
X137499459Y-108565500D01*
X137499461Y-108565500D01*
X137637553Y-108524953D01*
X137758628Y-108447143D01*
X137852877Y-108338373D01*
X137912665Y-108207457D01*
X137924678Y-108123904D01*
X137933147Y-108065002D01*
X137933147Y-108064997D01*
X145176853Y-108064997D01*
X145176853Y-108065002D01*
X145197334Y-108207456D01*
X145256152Y-108336246D01*
X145257123Y-108338373D01*
X145351372Y-108447143D01*
X145351373Y-108447144D01*
X145460072Y-108517000D01*
X145472447Y-108524953D01*
X145578903Y-108556211D01*
X145610535Y-108565499D01*
X145610536Y-108565499D01*
X145610539Y-108565500D01*
X145610541Y-108565500D01*
X145754459Y-108565500D01*
X145754461Y-108565500D01*
X145892553Y-108524953D01*
X146013628Y-108447143D01*
X146107877Y-108338373D01*
X146167665Y-108207457D01*
X146179678Y-108123904D01*
X146188147Y-108065002D01*
X146188147Y-108064997D01*
X146167665Y-107922543D01*
X146144743Y-107872352D01*
X146107877Y-107791627D01*
X146013628Y-107682857D01*
X146013627Y-107682856D01*
X146013626Y-107682855D01*
X145892557Y-107605049D01*
X145892554Y-107605047D01*
X145892553Y-107605047D01*
X145892550Y-107605046D01*
X145754464Y-107564500D01*
X145754461Y-107564500D01*
X145610539Y-107564500D01*
X145610535Y-107564500D01*
X145472449Y-107605046D01*
X145472442Y-107605049D01*
X145351373Y-107682855D01*
X145257122Y-107791628D01*
X145197334Y-107922543D01*
X145176853Y-108064997D01*
X137933147Y-108064997D01*
X137912665Y-107922543D01*
X137889743Y-107872352D01*
X137852877Y-107791627D01*
X137758628Y-107682857D01*
X137758627Y-107682856D01*
X137758626Y-107682855D01*
X137637557Y-107605049D01*
X137637554Y-107605047D01*
X137637553Y-107605047D01*
X137637550Y-107605046D01*
X137499464Y-107564500D01*
X137499461Y-107564500D01*
X137355539Y-107564500D01*
X137355535Y-107564500D01*
X137217449Y-107605046D01*
X137217442Y-107605049D01*
X137096373Y-107682855D01*
X137002122Y-107791628D01*
X136942334Y-107922543D01*
X136921853Y-108064997D01*
X132602534Y-108064997D01*
X132721859Y-107932474D01*
X132811250Y-107777644D01*
X132866497Y-107607612D01*
X132885185Y-107429809D01*
X132880401Y-107384294D01*
X132893121Y-107324447D01*
X132938590Y-107283506D01*
X132999440Y-107277109D01*
X133019121Y-107283503D01*
X133035146Y-107290638D01*
X133210022Y-107327809D01*
X133210025Y-107327809D01*
X133388801Y-107327809D01*
X133388804Y-107327809D01*
X133563680Y-107290638D01*
X133650463Y-107252000D01*
X133727000Y-107217924D01*
X133727002Y-107217922D01*
X133727006Y-107217921D01*
X133871643Y-107112835D01*
X133991272Y-106979974D01*
X134080663Y-106825144D01*
X134135910Y-106655112D01*
X134154598Y-106477309D01*
X134135910Y-106299506D01*
X134080663Y-106129474D01*
X134080660Y-106129469D01*
X134080658Y-106129464D01*
X134034735Y-106049924D01*
X133991272Y-105974644D01*
X133871643Y-105841783D01*
X133871641Y-105841781D01*
X133727010Y-105736699D01*
X133727000Y-105736693D01*
X133563686Y-105663982D01*
X133563681Y-105663980D01*
X133563680Y-105663980D01*
X133563677Y-105663979D01*
X133563676Y-105663979D01*
X133530414Y-105656909D01*
X133388804Y-105626809D01*
X133210022Y-105626809D01*
X133098512Y-105650511D01*
X133035149Y-105663979D01*
X133035143Y-105663981D01*
X132871827Y-105736693D01*
X132871824Y-105736695D01*
X132727178Y-105841786D01*
X132727178Y-105841787D01*
X132607556Y-105974641D01*
X132607552Y-105974647D01*
X132518167Y-106129464D01*
X132518161Y-106129478D01*
X132462917Y-106299500D01*
X132444228Y-106477309D01*
X132449012Y-106522823D01*
X132436290Y-106582671D01*
X132390821Y-106623612D01*
X132329971Y-106630008D01*
X132310291Y-106623614D01*
X132294269Y-106616481D01*
X132294267Y-106616480D01*
X132294264Y-106616479D01*
X132294263Y-106616479D01*
X132261001Y-106609409D01*
X132119391Y-106579309D01*
X131940609Y-106579309D01*
X131829099Y-106603011D01*
X131765736Y-106616479D01*
X131765730Y-106616481D01*
X131602414Y-106689193D01*
X131602411Y-106689195D01*
X131457765Y-106794286D01*
X131457765Y-106794287D01*
X131338143Y-106927141D01*
X131338139Y-106927147D01*
X131248754Y-107081964D01*
X131248748Y-107081978D01*
X131193504Y-107252000D01*
X131193503Y-107252004D01*
X131193503Y-107252006D01*
X131174815Y-107429809D01*
X131174815Y-107429810D01*
X131179656Y-107475873D01*
X131166934Y-107535721D01*
X131121464Y-107576662D01*
X131060613Y-107583056D01*
X131040934Y-107576662D01*
X131023680Y-107568980D01*
X131023677Y-107568979D01*
X131023676Y-107568979D01*
X130990414Y-107561909D01*
X130848804Y-107531809D01*
X130670022Y-107531809D01*
X130558512Y-107555511D01*
X130495149Y-107568979D01*
X130495143Y-107568981D01*
X130331827Y-107641693D01*
X130331824Y-107641695D01*
X130187178Y-107746786D01*
X130187178Y-107746787D01*
X130067556Y-107879641D01*
X130067552Y-107879647D01*
X129978167Y-108034464D01*
X129978161Y-108034478D01*
X129922917Y-108204500D01*
X129922916Y-108204504D01*
X129922916Y-108204506D01*
X129904228Y-108382309D01*
X119393000Y-108382309D01*
X119393000Y-104771493D01*
X125297247Y-104771493D01*
X125297247Y-104771506D01*
X125316240Y-105085518D01*
X125316243Y-105085540D01*
X125372950Y-105394977D01*
X125466546Y-105695336D01*
X125532456Y-105841781D01*
X125595663Y-105982221D01*
X125595667Y-105982229D01*
X125595671Y-105982235D01*
X125758410Y-106251438D01*
X125758414Y-106251444D01*
X125758419Y-106251452D01*
X125952440Y-106499102D01*
X126174898Y-106721560D01*
X126422548Y-106915581D01*
X126422559Y-106915587D01*
X126422561Y-106915589D01*
X126441680Y-106927147D01*
X126691779Y-107078337D01*
X126978665Y-107207454D01*
X127279022Y-107301049D01*
X127588459Y-107357756D01*
X127588463Y-107357756D01*
X127588471Y-107357758D01*
X127588475Y-107357758D01*
X127588481Y-107357759D01*
X127902494Y-107376753D01*
X127902500Y-107376753D01*
X127902506Y-107376753D01*
X128216518Y-107357759D01*
X128216522Y-107357758D01*
X128216529Y-107357758D01*
X128525978Y-107301049D01*
X128826335Y-107207454D01*
X129113221Y-107078337D01*
X129382452Y-106915581D01*
X129630102Y-106721560D01*
X129852560Y-106499102D01*
X130046581Y-106251452D01*
X130209337Y-105982221D01*
X130338454Y-105695335D01*
X130391533Y-105524997D01*
X142046853Y-105524997D01*
X142046853Y-105525002D01*
X142067334Y-105667456D01*
X142080067Y-105695336D01*
X142127123Y-105798373D01*
X142221372Y-105907143D01*
X142221373Y-105907144D01*
X142342442Y-105984950D01*
X142342447Y-105984953D01*
X142448903Y-106016211D01*
X142480535Y-106025499D01*
X142480536Y-106025499D01*
X142480539Y-106025500D01*
X142480541Y-106025500D01*
X142624459Y-106025500D01*
X142624461Y-106025500D01*
X142762553Y-105984953D01*
X142883628Y-105907143D01*
X142977877Y-105798373D01*
X143037665Y-105667457D01*
X143058147Y-105525000D01*
X143037665Y-105382543D01*
X142977877Y-105251627D01*
X142883628Y-105142857D01*
X142883627Y-105142856D01*
X142883626Y-105142855D01*
X142762557Y-105065049D01*
X142762554Y-105065047D01*
X142762553Y-105065047D01*
X142762550Y-105065046D01*
X142624464Y-105024500D01*
X142624461Y-105024500D01*
X142480539Y-105024500D01*
X142480535Y-105024500D01*
X142342449Y-105065046D01*
X142342442Y-105065049D01*
X142221373Y-105142855D01*
X142127122Y-105251628D01*
X142067334Y-105382543D01*
X142046853Y-105524997D01*
X130391533Y-105524997D01*
X130432049Y-105394978D01*
X130488758Y-105085529D01*
X130507753Y-104771500D01*
X130488758Y-104457471D01*
X130432049Y-104148022D01*
X130338454Y-103847665D01*
X130209337Y-103560779D01*
X130161987Y-103482453D01*
X130046589Y-103291561D01*
X130046587Y-103291559D01*
X130046581Y-103291548D01*
X129852560Y-103043898D01*
X129831159Y-103022497D01*
X166766853Y-103022497D01*
X166766853Y-103022502D01*
X166787334Y-103164956D01*
X166830913Y-103260379D01*
X166847123Y-103295873D01*
X166941372Y-103404643D01*
X166941373Y-103404644D01*
X167030786Y-103462106D01*
X167062447Y-103482453D01*
X167168903Y-103513711D01*
X167200535Y-103522999D01*
X167200536Y-103522999D01*
X167200539Y-103523000D01*
X167200541Y-103523000D01*
X167344459Y-103523000D01*
X167344461Y-103523000D01*
X167482553Y-103482453D01*
X167603628Y-103404643D01*
X167697877Y-103295873D01*
X167757665Y-103164957D01*
X167775070Y-103043901D01*
X167778147Y-103022502D01*
X167778147Y-103022497D01*
X171226853Y-103022497D01*
X171226853Y-103022502D01*
X171247334Y-103164956D01*
X171290913Y-103260379D01*
X171307123Y-103295873D01*
X171401372Y-103404643D01*
X171401373Y-103404644D01*
X171490786Y-103462106D01*
X171522447Y-103482453D01*
X171628903Y-103513711D01*
X171660535Y-103522999D01*
X171660536Y-103522999D01*
X171660539Y-103523000D01*
X171660541Y-103523000D01*
X171804459Y-103523000D01*
X171804461Y-103523000D01*
X171942553Y-103482453D01*
X172063628Y-103404643D01*
X172157877Y-103295873D01*
X172217665Y-103164957D01*
X172235070Y-103043901D01*
X172238147Y-103022502D01*
X172238147Y-103022497D01*
X172217665Y-102880043D01*
X172205312Y-102852994D01*
X172157877Y-102749127D01*
X172063628Y-102640357D01*
X172063627Y-102640356D01*
X172063626Y-102640355D01*
X171942557Y-102562549D01*
X171942554Y-102562547D01*
X171942553Y-102562547D01*
X171942550Y-102562546D01*
X171804464Y-102522000D01*
X171804461Y-102522000D01*
X171660539Y-102522000D01*
X171660535Y-102522000D01*
X171522449Y-102562546D01*
X171522442Y-102562549D01*
X171401373Y-102640355D01*
X171307122Y-102749128D01*
X171247334Y-102880043D01*
X171226853Y-103022497D01*
X167778147Y-103022497D01*
X167757665Y-102880043D01*
X167745312Y-102852994D01*
X167697877Y-102749127D01*
X167603628Y-102640357D01*
X167603627Y-102640356D01*
X167603626Y-102640355D01*
X167482557Y-102562549D01*
X167482554Y-102562547D01*
X167482553Y-102562547D01*
X167482550Y-102562546D01*
X167344464Y-102522000D01*
X167344461Y-102522000D01*
X167200539Y-102522000D01*
X167200535Y-102522000D01*
X167062449Y-102562546D01*
X167062442Y-102562549D01*
X166941373Y-102640355D01*
X166847122Y-102749128D01*
X166787334Y-102880043D01*
X166766853Y-103022497D01*
X129831159Y-103022497D01*
X129630102Y-102821440D01*
X129382452Y-102627419D01*
X129382444Y-102627414D01*
X129382438Y-102627410D01*
X129113235Y-102464671D01*
X129113229Y-102464667D01*
X129113221Y-102464663D01*
X129041342Y-102432312D01*
X128826336Y-102335546D01*
X128525976Y-102241950D01*
X128525977Y-102241950D01*
X128216540Y-102185243D01*
X128216518Y-102185240D01*
X127902506Y-102166247D01*
X127902494Y-102166247D01*
X127588481Y-102185240D01*
X127588459Y-102185243D01*
X127279022Y-102241950D01*
X126978663Y-102335546D01*
X126691785Y-102464660D01*
X126691764Y-102464671D01*
X126422561Y-102627410D01*
X126422542Y-102627423D01*
X126174904Y-102821435D01*
X126174901Y-102821437D01*
X125952437Y-103043901D01*
X125952435Y-103043904D01*
X125758423Y-103291542D01*
X125758410Y-103291561D01*
X125595671Y-103560764D01*
X125595660Y-103560785D01*
X125466546Y-103847663D01*
X125372950Y-104148022D01*
X125316243Y-104457459D01*
X125316240Y-104457481D01*
X125297247Y-104771493D01*
X119393000Y-104771493D01*
X119393000Y-97971500D01*
X164398339Y-97971500D01*
X165157882Y-97971500D01*
X165107436Y-98021946D01*
X165064649Y-98096055D01*
X165042500Y-98178713D01*
X165042500Y-98264287D01*
X165064649Y-98346945D01*
X165107436Y-98421054D01*
X165157882Y-98471500D01*
X164398339Y-98471500D01*
X164439151Y-98606038D01*
X164439152Y-98606040D01*
X164532002Y-98779752D01*
X164532006Y-98779758D01*
X164656974Y-98932030D01*
X164705470Y-98971830D01*
X164738457Y-99023361D01*
X164734855Y-99084441D01*
X164726491Y-99101029D01*
X164687044Y-99163807D01*
X164687044Y-99163809D01*
X164631188Y-99323434D01*
X164631185Y-99323446D01*
X164612251Y-99491495D01*
X164612251Y-99491504D01*
X164631185Y-99659553D01*
X164631188Y-99659565D01*
X164687044Y-99819190D01*
X164687044Y-99819191D01*
X164777020Y-99962386D01*
X164777023Y-99962390D01*
X164896610Y-100081977D01*
X164896612Y-100081978D01*
X164896613Y-100081979D01*
X165012256Y-100154643D01*
X165039810Y-100171956D01*
X165103732Y-100194323D01*
X165199434Y-100227811D01*
X165199438Y-100227812D01*
X165199441Y-100227813D01*
X165199442Y-100227813D01*
X165199446Y-100227814D01*
X165367496Y-100246749D01*
X165367500Y-100246749D01*
X165367504Y-100246749D01*
X165535553Y-100227814D01*
X165535555Y-100227813D01*
X165535559Y-100227813D01*
X165695190Y-100171956D01*
X165838390Y-100081977D01*
X165957977Y-99962390D01*
X166047956Y-99819190D01*
X166064294Y-99772497D01*
X169926853Y-99772497D01*
X169926853Y-99772502D01*
X169947334Y-99914956D01*
X169968995Y-99962386D01*
X170007123Y-100045873D01*
X170038409Y-100081979D01*
X170101373Y-100154644D01*
X170222442Y-100232450D01*
X170222447Y-100232453D01*
X170328903Y-100263711D01*
X170360535Y-100272999D01*
X170360536Y-100272999D01*
X170360539Y-100273000D01*
X170360541Y-100273000D01*
X170504459Y-100273000D01*
X170504461Y-100273000D01*
X170642553Y-100232453D01*
X170763628Y-100154643D01*
X170857877Y-100045873D01*
X170917665Y-99914957D01*
X170938147Y-99772500D01*
X170917665Y-99630043D01*
X170857877Y-99499127D01*
X170763628Y-99390357D01*
X170763627Y-99390356D01*
X170763626Y-99390355D01*
X170642557Y-99312549D01*
X170642554Y-99312547D01*
X170642553Y-99312547D01*
X170642550Y-99312546D01*
X170504464Y-99272000D01*
X170504461Y-99272000D01*
X170360539Y-99272000D01*
X170360535Y-99272000D01*
X170222449Y-99312546D01*
X170222442Y-99312549D01*
X170101373Y-99390355D01*
X170007122Y-99499128D01*
X169947334Y-99630043D01*
X169926853Y-99772497D01*
X166064294Y-99772497D01*
X166103813Y-99659559D01*
X166122749Y-99491500D01*
X166122749Y-99491495D01*
X166103814Y-99323446D01*
X166103811Y-99323434D01*
X166080980Y-99258190D01*
X166047956Y-99163810D01*
X166047954Y-99163807D01*
X166047954Y-99163806D01*
X166028022Y-99132086D01*
X166008507Y-99101028D01*
X165993557Y-99041700D01*
X166016335Y-98984913D01*
X166029529Y-98971829D01*
X166078024Y-98932030D01*
X166078031Y-98932023D01*
X166202993Y-98779758D01*
X166202997Y-98779752D01*
X166295847Y-98606040D01*
X166295848Y-98606038D01*
X166336661Y-98471500D01*
X165577118Y-98471500D01*
X165627564Y-98421054D01*
X165670351Y-98346945D01*
X165692500Y-98264287D01*
X165692500Y-98178713D01*
X165670351Y-98096055D01*
X165627564Y-98021946D01*
X165577118Y-97971500D01*
X166336661Y-97971500D01*
X166295848Y-97836961D01*
X166295847Y-97836959D01*
X166202997Y-97663247D01*
X166202993Y-97663241D01*
X166078025Y-97510969D01*
X166029528Y-97471168D01*
X165996541Y-97419636D01*
X166000143Y-97358557D01*
X166008498Y-97341986D01*
X166047956Y-97279190D01*
X166103813Y-97119559D01*
X166105888Y-97101143D01*
X166122749Y-96951504D01*
X166122749Y-96951495D01*
X166103814Y-96783446D01*
X166103811Y-96783434D01*
X166080980Y-96718190D01*
X166047956Y-96623810D01*
X165957977Y-96480610D01*
X165838390Y-96361023D01*
X165838387Y-96361021D01*
X165838386Y-96361020D01*
X165695191Y-96271044D01*
X165535565Y-96215188D01*
X165535553Y-96215185D01*
X165367504Y-96196251D01*
X165367496Y-96196251D01*
X165199446Y-96215185D01*
X165199434Y-96215188D01*
X165039809Y-96271044D01*
X165039808Y-96271044D01*
X164896613Y-96361020D01*
X164777020Y-96480613D01*
X164687044Y-96623808D01*
X164687044Y-96623809D01*
X164631188Y-96783434D01*
X164631185Y-96783446D01*
X164612251Y-96951495D01*
X164612251Y-96951504D01*
X164631185Y-97119553D01*
X164631188Y-97119565D01*
X164687044Y-97279190D01*
X164687044Y-97279191D01*
X164726491Y-97341970D01*
X164741441Y-97401301D01*
X164718662Y-97458088D01*
X164705472Y-97471168D01*
X164656967Y-97510976D01*
X164532006Y-97663241D01*
X164532002Y-97663247D01*
X164439152Y-97836959D01*
X164439151Y-97836961D01*
X164398339Y-97971500D01*
X119393000Y-97971500D01*
X119393000Y-97318997D01*
X142046853Y-97318997D01*
X142046853Y-97319002D01*
X142067334Y-97461456D01*
X142127122Y-97592371D01*
X142127123Y-97592373D01*
X142209822Y-97687813D01*
X142221373Y-97701144D01*
X142230095Y-97706749D01*
X142342447Y-97778953D01*
X142448903Y-97810211D01*
X142480535Y-97819499D01*
X142480536Y-97819499D01*
X142480539Y-97819500D01*
X142480541Y-97819500D01*
X142624459Y-97819500D01*
X142624461Y-97819500D01*
X142762553Y-97778953D01*
X142883628Y-97701143D01*
X142977877Y-97592373D01*
X143037665Y-97461457D01*
X143052460Y-97358557D01*
X143058147Y-97319002D01*
X143058147Y-97318997D01*
X143037665Y-97176543D01*
X143003231Y-97101144D01*
X142977877Y-97045627D01*
X142883628Y-96936857D01*
X142883627Y-96936856D01*
X142883626Y-96936855D01*
X142762557Y-96859049D01*
X142762554Y-96859047D01*
X142762553Y-96859047D01*
X142762550Y-96859046D01*
X142624464Y-96818500D01*
X142624461Y-96818500D01*
X142480539Y-96818500D01*
X142480535Y-96818500D01*
X142342449Y-96859046D01*
X142342442Y-96859049D01*
X142221373Y-96936855D01*
X142127122Y-97045628D01*
X142067334Y-97176543D01*
X142046853Y-97318997D01*
X119393000Y-97318997D01*
X119393000Y-96718997D01*
X158206853Y-96718997D01*
X158206853Y-96719002D01*
X158227334Y-96861456D01*
X158287122Y-96992371D01*
X158287123Y-96992373D01*
X158381372Y-97101143D01*
X158381373Y-97101144D01*
X158410037Y-97119565D01*
X158502447Y-97178953D01*
X158608903Y-97210211D01*
X158640535Y-97219499D01*
X158640536Y-97219499D01*
X158640539Y-97219500D01*
X158640541Y-97219500D01*
X158784459Y-97219500D01*
X158784461Y-97219500D01*
X158922553Y-97178953D01*
X159043628Y-97101143D01*
X159137877Y-96992373D01*
X159197665Y-96861457D01*
X159218147Y-96719000D01*
X159197665Y-96576543D01*
X159137877Y-96445627D01*
X159043628Y-96336857D01*
X159043627Y-96336856D01*
X159043626Y-96336855D01*
X158922557Y-96259049D01*
X158922554Y-96259047D01*
X158922553Y-96259047D01*
X158922550Y-96259046D01*
X158784464Y-96218500D01*
X158784461Y-96218500D01*
X158640539Y-96218500D01*
X158640535Y-96218500D01*
X158502449Y-96259046D01*
X158502442Y-96259049D01*
X158381373Y-96336855D01*
X158287122Y-96445628D01*
X158227334Y-96576543D01*
X158206853Y-96718997D01*
X119393000Y-96718997D01*
X119393000Y-94918997D01*
X157006853Y-94918997D01*
X157006853Y-94919002D01*
X157027334Y-95061456D01*
X157087122Y-95192371D01*
X157087123Y-95192373D01*
X157178340Y-95297644D01*
X157181373Y-95301144D01*
X157181375Y-95301145D01*
X157302447Y-95378953D01*
X157408903Y-95410211D01*
X157440535Y-95419499D01*
X157440536Y-95419499D01*
X157440539Y-95419500D01*
X157440541Y-95419500D01*
X157584459Y-95419500D01*
X157584461Y-95419500D01*
X157722553Y-95378953D01*
X157843628Y-95301143D01*
X157843636Y-95301133D01*
X157847665Y-95297644D01*
X157904023Y-95273824D01*
X157963619Y-95287679D01*
X157977335Y-95297644D01*
X157981366Y-95301137D01*
X157981372Y-95301143D01*
X158102447Y-95378953D01*
X158208903Y-95410211D01*
X158240535Y-95419499D01*
X158240536Y-95419499D01*
X158240539Y-95419500D01*
X158240541Y-95419500D01*
X158384459Y-95419500D01*
X158384461Y-95419500D01*
X158522553Y-95378953D01*
X158643628Y-95301143D01*
X158737877Y-95192373D01*
X158797665Y-95061457D01*
X158818147Y-94919000D01*
X158797665Y-94776543D01*
X158737877Y-94645627D01*
X158643628Y-94536857D01*
X158643627Y-94536856D01*
X158643626Y-94536855D01*
X158522557Y-94459049D01*
X158522554Y-94459047D01*
X158522553Y-94459047D01*
X158522550Y-94459046D01*
X158384464Y-94418500D01*
X158384461Y-94418500D01*
X158240539Y-94418500D01*
X158240535Y-94418500D01*
X158102449Y-94459046D01*
X158102442Y-94459049D01*
X157981372Y-94536856D01*
X157977330Y-94540359D01*
X157920971Y-94564176D01*
X157861376Y-94550317D01*
X157847670Y-94540359D01*
X157843627Y-94536856D01*
X157722557Y-94459049D01*
X157722554Y-94459047D01*
X157722553Y-94459047D01*
X157722550Y-94459046D01*
X157584464Y-94418500D01*
X157584461Y-94418500D01*
X157440539Y-94418500D01*
X157440535Y-94418500D01*
X157302449Y-94459046D01*
X157302442Y-94459049D01*
X157181373Y-94536855D01*
X157087122Y-94645628D01*
X157027334Y-94776543D01*
X157006853Y-94918997D01*
X119393000Y-94918997D01*
X119393000Y-92419000D01*
X188083815Y-92419000D01*
X188102504Y-92596808D01*
X188157748Y-92766830D01*
X188157754Y-92766844D01*
X188228769Y-92889845D01*
X188247141Y-92921665D01*
X188247143Y-92921667D01*
X188366765Y-93054521D01*
X188366771Y-93054527D01*
X188511402Y-93159609D01*
X188511412Y-93159615D01*
X188674726Y-93232326D01*
X188674733Y-93232329D01*
X188849609Y-93269500D01*
X188849612Y-93269500D01*
X189028388Y-93269500D01*
X189028391Y-93269500D01*
X189203267Y-93232329D01*
X189284930Y-93195970D01*
X189366587Y-93159615D01*
X189366589Y-93159613D01*
X189366593Y-93159612D01*
X189511230Y-93054526D01*
X189511229Y-93054526D01*
X189515427Y-93051477D01*
X189516943Y-93053564D01*
X189563645Y-93032768D01*
X189623494Y-93045485D01*
X189632285Y-93051872D01*
X189632573Y-93051477D01*
X189781402Y-93159609D01*
X189781412Y-93159615D01*
X189944726Y-93232326D01*
X189944733Y-93232329D01*
X190119609Y-93269500D01*
X190119612Y-93269500D01*
X190298388Y-93269500D01*
X190298391Y-93269500D01*
X190473267Y-93232329D01*
X190554930Y-93195970D01*
X190636587Y-93159615D01*
X190636589Y-93159613D01*
X190636593Y-93159612D01*
X190781230Y-93054526D01*
X190781229Y-93054526D01*
X190785427Y-93051477D01*
X190786943Y-93053564D01*
X190833645Y-93032768D01*
X190893494Y-93045485D01*
X190902285Y-93051872D01*
X190902573Y-93051477D01*
X191051402Y-93159609D01*
X191051412Y-93159615D01*
X191214726Y-93232326D01*
X191214733Y-93232329D01*
X191389609Y-93269500D01*
X191389612Y-93269500D01*
X191568388Y-93269500D01*
X191568391Y-93269500D01*
X191743267Y-93232329D01*
X191824930Y-93195970D01*
X191906587Y-93159615D01*
X191906589Y-93159613D01*
X191906593Y-93159612D01*
X192051230Y-93054526D01*
X192170859Y-92921665D01*
X192260250Y-92766835D01*
X192315497Y-92596803D01*
X192334185Y-92419000D01*
X192315497Y-92241197D01*
X192260250Y-92071165D01*
X192260247Y-92071160D01*
X192260245Y-92071155D01*
X192214322Y-91991615D01*
X192170859Y-91916335D01*
X192059305Y-91792442D01*
X192051234Y-91783478D01*
X192051228Y-91783472D01*
X191906597Y-91678390D01*
X191906587Y-91678384D01*
X191743273Y-91605673D01*
X191743268Y-91605671D01*
X191743267Y-91605671D01*
X191743264Y-91605670D01*
X191743263Y-91605670D01*
X191710001Y-91598600D01*
X191568391Y-91568500D01*
X191389609Y-91568500D01*
X191278099Y-91592202D01*
X191214736Y-91605670D01*
X191214730Y-91605672D01*
X191051414Y-91678384D01*
X191051411Y-91678386D01*
X191051408Y-91678387D01*
X191051408Y-91678388D01*
X190906770Y-91783474D01*
X190906768Y-91783475D01*
X190902573Y-91786524D01*
X190901073Y-91784459D01*
X190854212Y-91805246D01*
X190794382Y-91792442D01*
X190785706Y-91786138D01*
X190785427Y-91786523D01*
X190636597Y-91678390D01*
X190636587Y-91678384D01*
X190473273Y-91605673D01*
X190473268Y-91605671D01*
X190473267Y-91605671D01*
X190473264Y-91605670D01*
X190473263Y-91605670D01*
X190440001Y-91598600D01*
X190298391Y-91568500D01*
X190119609Y-91568500D01*
X190008099Y-91592202D01*
X189944736Y-91605670D01*
X189944730Y-91605672D01*
X189781414Y-91678384D01*
X189781411Y-91678386D01*
X189781408Y-91678387D01*
X189781408Y-91678388D01*
X189636770Y-91783474D01*
X189636768Y-91783475D01*
X189632573Y-91786524D01*
X189631073Y-91784459D01*
X189584212Y-91805246D01*
X189524382Y-91792442D01*
X189515706Y-91786138D01*
X189515427Y-91786523D01*
X189366597Y-91678390D01*
X189366587Y-91678384D01*
X189203273Y-91605673D01*
X189203268Y-91605671D01*
X189203267Y-91605671D01*
X189203264Y-91605670D01*
X189203263Y-91605670D01*
X189170001Y-91598600D01*
X189028391Y-91568500D01*
X188849609Y-91568500D01*
X188738099Y-91592202D01*
X188674736Y-91605670D01*
X188674730Y-91605672D01*
X188511414Y-91678384D01*
X188511411Y-91678386D01*
X188366765Y-91783477D01*
X188366765Y-91783478D01*
X188247143Y-91916332D01*
X188247139Y-91916338D01*
X188157754Y-92071155D01*
X188157748Y-92071169D01*
X188102504Y-92241191D01*
X188083815Y-92419000D01*
X119393000Y-92419000D01*
X119393000Y-90718997D01*
X152606853Y-90718997D01*
X152606853Y-90719002D01*
X152627334Y-90861456D01*
X152680993Y-90978950D01*
X152687123Y-90992373D01*
X152781372Y-91101143D01*
X152781373Y-91101144D01*
X152902442Y-91178950D01*
X152902447Y-91178953D01*
X153008903Y-91210211D01*
X153040535Y-91219499D01*
X153040536Y-91219499D01*
X153040539Y-91219500D01*
X153040541Y-91219500D01*
X153184459Y-91219500D01*
X153184461Y-91219500D01*
X153322553Y-91178953D01*
X153443628Y-91101143D01*
X153537877Y-90992373D01*
X153597665Y-90861457D01*
X153618147Y-90719000D01*
X153606613Y-90638777D01*
X153617046Y-90578488D01*
X153660924Y-90535846D01*
X153721487Y-90527138D01*
X153764872Y-90546145D01*
X153834875Y-90599861D01*
X153968791Y-90655330D01*
X154112500Y-90674250D01*
X154256209Y-90655330D01*
X154390125Y-90599861D01*
X154495508Y-90518997D01*
X160606853Y-90518997D01*
X160606853Y-90519002D01*
X160627334Y-90661456D01*
X160633177Y-90674250D01*
X160687123Y-90792373D01*
X160781372Y-90901143D01*
X160781373Y-90901144D01*
X160902442Y-90978950D01*
X160902447Y-90978953D01*
X161008903Y-91010211D01*
X161040535Y-91019499D01*
X161040536Y-91019499D01*
X161040539Y-91019500D01*
X161040541Y-91019500D01*
X161184459Y-91019500D01*
X161184461Y-91019500D01*
X161322553Y-90978953D01*
X161443628Y-90901143D01*
X161537877Y-90792373D01*
X161597665Y-90661457D01*
X161618147Y-90519000D01*
X161617086Y-90511622D01*
X161597665Y-90376543D01*
X161579540Y-90336855D01*
X161537877Y-90245627D01*
X161443628Y-90136857D01*
X161443627Y-90136856D01*
X161443626Y-90136855D01*
X161322557Y-90059049D01*
X161322554Y-90059047D01*
X161322553Y-90059047D01*
X161322550Y-90059046D01*
X161184464Y-90018500D01*
X161184461Y-90018500D01*
X161040539Y-90018500D01*
X161040535Y-90018500D01*
X160902449Y-90059046D01*
X160902442Y-90059049D01*
X160781373Y-90136855D01*
X160687122Y-90245628D01*
X160627334Y-90376543D01*
X160606853Y-90518997D01*
X154495508Y-90518997D01*
X154505121Y-90511621D01*
X154593361Y-90396625D01*
X154648830Y-90262709D01*
X154667750Y-90119000D01*
X154664261Y-90092502D01*
X154648830Y-89975291D01*
X154593361Y-89841375D01*
X154593358Y-89841371D01*
X154593357Y-89841369D01*
X154545704Y-89779268D01*
X154525279Y-89721593D01*
X154542656Y-89662927D01*
X154545704Y-89658732D01*
X154565798Y-89632546D01*
X154593361Y-89596625D01*
X154648830Y-89462709D01*
X154667750Y-89319000D01*
X154662938Y-89282453D01*
X154648830Y-89175291D01*
X154593361Y-89041375D01*
X154505121Y-88926379D01*
X154390125Y-88838139D01*
X154390121Y-88838137D01*
X154256209Y-88782670D01*
X154256208Y-88782669D01*
X154112500Y-88763750D01*
X153968791Y-88782669D01*
X153968790Y-88782670D01*
X153834878Y-88838137D01*
X153834874Y-88838139D01*
X153719881Y-88926377D01*
X153719877Y-88926381D01*
X153631639Y-89041374D01*
X153631637Y-89041378D01*
X153576170Y-89175290D01*
X153576169Y-89175291D01*
X153557250Y-89318999D01*
X153557250Y-89319000D01*
X153576169Y-89462708D01*
X153576170Y-89462709D01*
X153631639Y-89596625D01*
X153659202Y-89632546D01*
X153679296Y-89658732D01*
X153699720Y-89716408D01*
X153682343Y-89775074D01*
X153679296Y-89779268D01*
X153631639Y-89841374D01*
X153631637Y-89841378D01*
X153576170Y-89975290D01*
X153576169Y-89975291D01*
X153557250Y-90118999D01*
X153557250Y-90119000D01*
X153571228Y-90225178D01*
X153560078Y-90285339D01*
X153515695Y-90327456D01*
X153455033Y-90335442D01*
X153419552Y-90321384D01*
X153322557Y-90259049D01*
X153322554Y-90259047D01*
X153322553Y-90259047D01*
X153322550Y-90259046D01*
X153184464Y-90218500D01*
X153184461Y-90218500D01*
X153040539Y-90218500D01*
X153040535Y-90218500D01*
X152902449Y-90259046D01*
X152902442Y-90259049D01*
X152781373Y-90336855D01*
X152687122Y-90445628D01*
X152627334Y-90576543D01*
X152606853Y-90718997D01*
X119393000Y-90718997D01*
X119393000Y-90092497D01*
X131271853Y-90092497D01*
X131271853Y-90092502D01*
X131292334Y-90234956D01*
X131305009Y-90262709D01*
X131352123Y-90365873D01*
X131378770Y-90396625D01*
X131446373Y-90474644D01*
X131515388Y-90518997D01*
X131567447Y-90552453D01*
X131649491Y-90576543D01*
X131705535Y-90592999D01*
X131705536Y-90592999D01*
X131705539Y-90593000D01*
X131705541Y-90593000D01*
X131849459Y-90593000D01*
X131849461Y-90593000D01*
X131987553Y-90552453D01*
X132108628Y-90474643D01*
X132202877Y-90365873D01*
X132262665Y-90234957D01*
X132269492Y-90187471D01*
X132283147Y-90092502D01*
X132283147Y-90092497D01*
X132262665Y-89950043D01*
X132202877Y-89819127D01*
X132108628Y-89710357D01*
X132108627Y-89710356D01*
X132108626Y-89710355D01*
X131987557Y-89632549D01*
X131987554Y-89632547D01*
X131987553Y-89632547D01*
X131987550Y-89632546D01*
X131849464Y-89592000D01*
X131849461Y-89592000D01*
X131705539Y-89592000D01*
X131705535Y-89592000D01*
X131567449Y-89632546D01*
X131567442Y-89632549D01*
X131446373Y-89710355D01*
X131352122Y-89819128D01*
X131292334Y-89950043D01*
X131271853Y-90092497D01*
X119393000Y-90092497D01*
X119393000Y-88822497D01*
X129366853Y-88822497D01*
X129366853Y-88822502D01*
X129387334Y-88964956D01*
X129447122Y-89095871D01*
X129447123Y-89095873D01*
X129515938Y-89175290D01*
X129541373Y-89204644D01*
X129662442Y-89282450D01*
X129662447Y-89282453D01*
X129768903Y-89313711D01*
X129800535Y-89322999D01*
X129800536Y-89322999D01*
X129800539Y-89323000D01*
X129800541Y-89323000D01*
X129944459Y-89323000D01*
X129944461Y-89323000D01*
X130082553Y-89282453D01*
X130203628Y-89204643D01*
X130297877Y-89095873D01*
X130357665Y-88964957D01*
X130364492Y-88917471D01*
X130378147Y-88822502D01*
X130378147Y-88822497D01*
X130357665Y-88680043D01*
X130297877Y-88549127D01*
X130203628Y-88440357D01*
X130203627Y-88440356D01*
X130203626Y-88440355D01*
X130082557Y-88362549D01*
X130082554Y-88362547D01*
X130082553Y-88362547D01*
X130082550Y-88362546D01*
X129944464Y-88322000D01*
X129944461Y-88322000D01*
X129800539Y-88322000D01*
X129800535Y-88322000D01*
X129662449Y-88362546D01*
X129662442Y-88362549D01*
X129541373Y-88440355D01*
X129447122Y-88549128D01*
X129387334Y-88680043D01*
X129366853Y-88822497D01*
X119393000Y-88822497D01*
X119393000Y-87552497D01*
X134764353Y-87552497D01*
X134764353Y-87552502D01*
X134784834Y-87694956D01*
X134844622Y-87825871D01*
X134844623Y-87825873D01*
X134925319Y-87919002D01*
X134938873Y-87934644D01*
X135059942Y-88012450D01*
X135059947Y-88012453D01*
X135166403Y-88043711D01*
X135198035Y-88052999D01*
X135198036Y-88052999D01*
X135198039Y-88053000D01*
X135198041Y-88053000D01*
X135341959Y-88053000D01*
X135341961Y-88053000D01*
X135480053Y-88012453D01*
X135601128Y-87934643D01*
X135614685Y-87918997D01*
X150806853Y-87918997D01*
X150806853Y-87919002D01*
X150827334Y-88061456D01*
X150853613Y-88118997D01*
X150887123Y-88192373D01*
X150981372Y-88301143D01*
X150981373Y-88301144D01*
X151102442Y-88378950D01*
X151102447Y-88378953D01*
X151208903Y-88410211D01*
X151240535Y-88419499D01*
X151240536Y-88419499D01*
X151240539Y-88419500D01*
X151240541Y-88419500D01*
X151384459Y-88419500D01*
X151384461Y-88419500D01*
X151522553Y-88378953D01*
X151643628Y-88301143D01*
X151737877Y-88192373D01*
X151797665Y-88061457D01*
X151818075Y-87919500D01*
X151818147Y-87919002D01*
X151818147Y-87918997D01*
X151797665Y-87776543D01*
X151796701Y-87774433D01*
X151737877Y-87645627D01*
X151643628Y-87536857D01*
X151643627Y-87536856D01*
X151643626Y-87536855D01*
X151522557Y-87459049D01*
X151522554Y-87459047D01*
X151522553Y-87459047D01*
X151522550Y-87459046D01*
X151384464Y-87418500D01*
X151384461Y-87418500D01*
X151240539Y-87418500D01*
X151240535Y-87418500D01*
X151102449Y-87459046D01*
X151102442Y-87459049D01*
X150981373Y-87536855D01*
X150887122Y-87645628D01*
X150827334Y-87776543D01*
X150806853Y-87918997D01*
X135614685Y-87918997D01*
X135695377Y-87825873D01*
X135755165Y-87694957D01*
X135769914Y-87592373D01*
X135775647Y-87552502D01*
X135775647Y-87552497D01*
X135755165Y-87410043D01*
X135742664Y-87382670D01*
X135713585Y-87318997D01*
X152606853Y-87318997D01*
X152606853Y-87319002D01*
X152627334Y-87461456D01*
X152687123Y-87592373D01*
X152740669Y-87654170D01*
X152764486Y-87710529D01*
X152750627Y-87770124D01*
X152740669Y-87783830D01*
X152687123Y-87845626D01*
X152627334Y-87976543D01*
X152606853Y-88118997D01*
X152606853Y-88119002D01*
X152627334Y-88261456D01*
X152680993Y-88378950D01*
X152687123Y-88392373D01*
X152781372Y-88501143D01*
X152781373Y-88501144D01*
X152856038Y-88549128D01*
X152902447Y-88578953D01*
X153008903Y-88610211D01*
X153040535Y-88619499D01*
X153040536Y-88619499D01*
X153040539Y-88619500D01*
X153040541Y-88619500D01*
X153184459Y-88619500D01*
X153184461Y-88619500D01*
X153322553Y-88578953D01*
X153443628Y-88501143D01*
X153537877Y-88392373D01*
X153597665Y-88261457D01*
X153618147Y-88119000D01*
X153597665Y-87976543D01*
X153571385Y-87918999D01*
X154957250Y-87918999D01*
X154957250Y-87919000D01*
X154976169Y-88062708D01*
X154976170Y-88062709D01*
X155029877Y-88192373D01*
X155031639Y-88196625D01*
X155119879Y-88311621D01*
X155234875Y-88399861D01*
X155368791Y-88455330D01*
X155512500Y-88474250D01*
X155656209Y-88455330D01*
X155790125Y-88399861D01*
X155852232Y-88352203D01*
X155909907Y-88331779D01*
X155968573Y-88349156D01*
X155972758Y-88352197D01*
X155996408Y-88370344D01*
X156034869Y-88399857D01*
X156034871Y-88399858D01*
X156034875Y-88399861D01*
X156168791Y-88455330D01*
X156312500Y-88474250D01*
X156456209Y-88455330D01*
X156590125Y-88399861D01*
X156705121Y-88311621D01*
X156793361Y-88196625D01*
X156848830Y-88062709D01*
X156867750Y-87919000D01*
X156848830Y-87775291D01*
X156793361Y-87641375D01*
X156705121Y-87526379D01*
X156590125Y-87438139D01*
X156590121Y-87438137D01*
X156456209Y-87382670D01*
X156456208Y-87382669D01*
X156312500Y-87363750D01*
X156168791Y-87382669D01*
X156168790Y-87382670D01*
X156034878Y-87438137D01*
X156034874Y-87438139D01*
X155972768Y-87485796D01*
X155915092Y-87506220D01*
X155856426Y-87488843D01*
X155852232Y-87485796D01*
X155817372Y-87459047D01*
X155790125Y-87438139D01*
X155790121Y-87438137D01*
X155656209Y-87382670D01*
X155656208Y-87382669D01*
X155512500Y-87363750D01*
X155368791Y-87382669D01*
X155368790Y-87382670D01*
X155234878Y-87438137D01*
X155234874Y-87438139D01*
X155119881Y-87526377D01*
X155119877Y-87526381D01*
X155031639Y-87641374D01*
X155031637Y-87641378D01*
X154976170Y-87775290D01*
X154976169Y-87775291D01*
X154957250Y-87918999D01*
X153571385Y-87918999D01*
X153537877Y-87845627D01*
X153484328Y-87783828D01*
X153460512Y-87727473D01*
X153474370Y-87667877D01*
X153484320Y-87654180D01*
X153537877Y-87592373D01*
X153597665Y-87461457D01*
X153618147Y-87319000D01*
X153612414Y-87279128D01*
X153597665Y-87176543D01*
X153548461Y-87068803D01*
X153537877Y-87045627D01*
X153443628Y-86936857D01*
X153443627Y-86936856D01*
X153443626Y-86936855D01*
X153415838Y-86918997D01*
X158606853Y-86918997D01*
X158606853Y-86919002D01*
X158627334Y-87061456D01*
X158687122Y-87192371D01*
X158687123Y-87192373D01*
X158760056Y-87276543D01*
X158781373Y-87301144D01*
X158902442Y-87378950D01*
X158902447Y-87378953D01*
X159008331Y-87410043D01*
X159040535Y-87419499D01*
X159040536Y-87419499D01*
X159040539Y-87419500D01*
X159040541Y-87419500D01*
X159184459Y-87419500D01*
X159184461Y-87419500D01*
X159186174Y-87418997D01*
X165819353Y-87418997D01*
X165819353Y-87419002D01*
X165839834Y-87561456D01*
X165878275Y-87645628D01*
X165899623Y-87692373D01*
X165993570Y-87800794D01*
X165993873Y-87801144D01*
X166063092Y-87845628D01*
X166114947Y-87878953D01*
X166221403Y-87910211D01*
X166253035Y-87919499D01*
X166253036Y-87919499D01*
X166253039Y-87919500D01*
X166253041Y-87919500D01*
X166396959Y-87919500D01*
X166396961Y-87919500D01*
X166535053Y-87878953D01*
X166656128Y-87801143D01*
X166656430Y-87800793D01*
X166656762Y-87800593D01*
X166661481Y-87796505D01*
X166662188Y-87797321D01*
X166708826Y-87769198D01*
X166769787Y-87774433D01*
X166800689Y-87796885D01*
X166801019Y-87796505D01*
X166805443Y-87800339D01*
X166806070Y-87800794D01*
X166806373Y-87801144D01*
X166875592Y-87845628D01*
X166927447Y-87878953D01*
X167033903Y-87910211D01*
X167065535Y-87919499D01*
X167065536Y-87919499D01*
X167065539Y-87919500D01*
X167065541Y-87919500D01*
X167209459Y-87919500D01*
X167209461Y-87919500D01*
X167347553Y-87878953D01*
X167468628Y-87801143D01*
X167562877Y-87692373D01*
X167622665Y-87561457D01*
X167643075Y-87419500D01*
X167643147Y-87419002D01*
X167643147Y-87418997D01*
X167622665Y-87276543D01*
X167584225Y-87192373D01*
X167562877Y-87145627D01*
X167468628Y-87036857D01*
X167468627Y-87036856D01*
X167468626Y-87036855D01*
X167347557Y-86959049D01*
X167347554Y-86959047D01*
X167347553Y-86959047D01*
X167347550Y-86959046D01*
X167209464Y-86918500D01*
X167209461Y-86918500D01*
X167065539Y-86918500D01*
X167065535Y-86918500D01*
X166927449Y-86959046D01*
X166927442Y-86959049D01*
X166806372Y-87036856D01*
X166806368Y-87036860D01*
X166806064Y-87037211D01*
X166805732Y-87037410D01*
X166801019Y-87041495D01*
X166800311Y-87040679D01*
X166753666Y-87068803D01*
X166692705Y-87063562D01*
X166661809Y-87041115D01*
X166661481Y-87041495D01*
X166657060Y-87037664D01*
X166656436Y-87037211D01*
X166656131Y-87036860D01*
X166656127Y-87036856D01*
X166535057Y-86959049D01*
X166535054Y-86959047D01*
X166535053Y-86959047D01*
X166535050Y-86959046D01*
X166396964Y-86918500D01*
X166396961Y-86918500D01*
X166253039Y-86918500D01*
X166253035Y-86918500D01*
X166114949Y-86959046D01*
X166114942Y-86959049D01*
X165993873Y-87036855D01*
X165899622Y-87145628D01*
X165839834Y-87276543D01*
X165819353Y-87418997D01*
X159186174Y-87418997D01*
X159322553Y-87378953D01*
X159443628Y-87301143D01*
X159537877Y-87192373D01*
X159597665Y-87061457D01*
X159618147Y-86919000D01*
X159618075Y-86918500D01*
X159597665Y-86776543D01*
X159582095Y-86742450D01*
X159537877Y-86645627D01*
X159443628Y-86536857D01*
X159443627Y-86536856D01*
X159443626Y-86536855D01*
X159322557Y-86459049D01*
X159322554Y-86459047D01*
X159322553Y-86459047D01*
X159322550Y-86459046D01*
X159184464Y-86418500D01*
X159184461Y-86418500D01*
X159040539Y-86418500D01*
X159040535Y-86418500D01*
X158902449Y-86459046D01*
X158902442Y-86459049D01*
X158781373Y-86536855D01*
X158687122Y-86645628D01*
X158627334Y-86776543D01*
X158606853Y-86918997D01*
X153415838Y-86918997D01*
X153322557Y-86859049D01*
X153322554Y-86859047D01*
X153322553Y-86859047D01*
X153322550Y-86859046D01*
X153184464Y-86818500D01*
X153184461Y-86818500D01*
X153040539Y-86818500D01*
X153040535Y-86818500D01*
X152902449Y-86859046D01*
X152902442Y-86859049D01*
X152781373Y-86936855D01*
X152687122Y-87045628D01*
X152627334Y-87176543D01*
X152606853Y-87318997D01*
X135713585Y-87318997D01*
X135695377Y-87279127D01*
X135601128Y-87170357D01*
X135601127Y-87170356D01*
X135601126Y-87170355D01*
X135480057Y-87092549D01*
X135480054Y-87092547D01*
X135480053Y-87092547D01*
X135480050Y-87092546D01*
X135341964Y-87052000D01*
X135341961Y-87052000D01*
X135198039Y-87052000D01*
X135198035Y-87052000D01*
X135059949Y-87092546D01*
X135059942Y-87092549D01*
X134938873Y-87170355D01*
X134844622Y-87279128D01*
X134784834Y-87410043D01*
X134764353Y-87552497D01*
X119393000Y-87552497D01*
X119393000Y-86282497D01*
X134764353Y-86282497D01*
X134764353Y-86282502D01*
X134784834Y-86424956D01*
X134844622Y-86555871D01*
X134844623Y-86555873D01*
X134930802Y-86655330D01*
X134938873Y-86664644D01*
X135059942Y-86742450D01*
X135059947Y-86742453D01*
X135166403Y-86773711D01*
X135198035Y-86782999D01*
X135198036Y-86782999D01*
X135198039Y-86783000D01*
X135198041Y-86783000D01*
X135341959Y-86783000D01*
X135341961Y-86783000D01*
X135480053Y-86742453D01*
X135601128Y-86664643D01*
X135695377Y-86555873D01*
X135755165Y-86424957D01*
X135775647Y-86282500D01*
X135772801Y-86262708D01*
X135755165Y-86140043D01*
X135745554Y-86118999D01*
X169877250Y-86118999D01*
X169877250Y-86119000D01*
X169896169Y-86262708D01*
X169896170Y-86262709D01*
X169951639Y-86396625D01*
X170039879Y-86511621D01*
X170154875Y-86599861D01*
X170288791Y-86655330D01*
X170432500Y-86674250D01*
X170576209Y-86655330D01*
X170710125Y-86599861D01*
X170825121Y-86511621D01*
X170913361Y-86396625D01*
X170968830Y-86262709D01*
X170987750Y-86119000D01*
X170968830Y-85975291D01*
X170913361Y-85841375D01*
X170825121Y-85726379D01*
X170710125Y-85638139D01*
X170710121Y-85638137D01*
X170576209Y-85582670D01*
X170576208Y-85582669D01*
X170432500Y-85563750D01*
X170288791Y-85582669D01*
X170288790Y-85582670D01*
X170154878Y-85638137D01*
X170154874Y-85638139D01*
X170039881Y-85726377D01*
X170039877Y-85726381D01*
X169951639Y-85841374D01*
X169951637Y-85841378D01*
X169896170Y-85975290D01*
X169896169Y-85975291D01*
X169877250Y-86118999D01*
X135745554Y-86118999D01*
X135695377Y-86009128D01*
X135695377Y-86009127D01*
X135601128Y-85900357D01*
X135601127Y-85900356D01*
X135601126Y-85900355D01*
X135480057Y-85822549D01*
X135480054Y-85822547D01*
X135480053Y-85822547D01*
X135480050Y-85822546D01*
X135341964Y-85782000D01*
X135341961Y-85782000D01*
X135198039Y-85782000D01*
X135198035Y-85782000D01*
X135059949Y-85822546D01*
X135059942Y-85822549D01*
X134938873Y-85900355D01*
X134844622Y-86009128D01*
X134784834Y-86140043D01*
X134764353Y-86282497D01*
X119393000Y-86282497D01*
X119393000Y-85012499D01*
X126142250Y-85012499D01*
X126142250Y-85012500D01*
X126161169Y-85156208D01*
X126161170Y-85156209D01*
X126214877Y-85285873D01*
X126216639Y-85290125D01*
X126304879Y-85405121D01*
X126419875Y-85493361D01*
X126553791Y-85548830D01*
X126697500Y-85567750D01*
X126841209Y-85548830D01*
X126975125Y-85493361D01*
X127090121Y-85405121D01*
X127178361Y-85290125D01*
X127233830Y-85156209D01*
X127252750Y-85012500D01*
X127252750Y-85012497D01*
X134764353Y-85012497D01*
X134764353Y-85012502D01*
X134784834Y-85154956D01*
X134815504Y-85222112D01*
X134844623Y-85285873D01*
X134884592Y-85332000D01*
X134938873Y-85394644D01*
X135059942Y-85472450D01*
X135059947Y-85472453D01*
X135166403Y-85503711D01*
X135198035Y-85512999D01*
X135198036Y-85512999D01*
X135198039Y-85513000D01*
X135198041Y-85513000D01*
X135341959Y-85513000D01*
X135341961Y-85513000D01*
X135480053Y-85472453D01*
X135601128Y-85394643D01*
X135695377Y-85285873D01*
X135755165Y-85154957D01*
X135775647Y-85012500D01*
X135771573Y-84984167D01*
X135755165Y-84870043D01*
X135695377Y-84739128D01*
X135695377Y-84739127D01*
X135601128Y-84630357D01*
X135601127Y-84630356D01*
X135601126Y-84630355D01*
X135480057Y-84552549D01*
X135480054Y-84552547D01*
X135480053Y-84552547D01*
X135480050Y-84552546D01*
X135341964Y-84512000D01*
X135341961Y-84512000D01*
X135198039Y-84512000D01*
X135198035Y-84512000D01*
X135059949Y-84552546D01*
X135059942Y-84552549D01*
X134938873Y-84630355D01*
X134844622Y-84739128D01*
X134784834Y-84870043D01*
X134764353Y-85012497D01*
X127252750Y-85012497D01*
X127233830Y-84868791D01*
X127178361Y-84734875D01*
X127090121Y-84619879D01*
X126975125Y-84531639D01*
X126975121Y-84531637D01*
X126841209Y-84476170D01*
X126841208Y-84476169D01*
X126697500Y-84457250D01*
X126553791Y-84476169D01*
X126553790Y-84476170D01*
X126419878Y-84531637D01*
X126419874Y-84531639D01*
X126304881Y-84619877D01*
X126304877Y-84619881D01*
X126216639Y-84734874D01*
X126216637Y-84734878D01*
X126161170Y-84868790D01*
X126161169Y-84868791D01*
X126142250Y-85012499D01*
X119393000Y-85012499D01*
X119393000Y-83568997D01*
X158607367Y-83568997D01*
X158607367Y-83569002D01*
X158625802Y-83697225D01*
X158665505Y-83784161D01*
X158679618Y-83815063D01*
X158694296Y-83832002D01*
X158764452Y-83912968D01*
X158871005Y-83981445D01*
X158873431Y-83983004D01*
X158997728Y-84019500D01*
X158997730Y-84019500D01*
X159127270Y-84019500D01*
X159127272Y-84019500D01*
X159251569Y-83983004D01*
X159251569Y-83983003D01*
X159258363Y-83981009D01*
X159259215Y-83983913D01*
X159307098Y-83978388D01*
X159316508Y-83981445D01*
X159316637Y-83981009D01*
X159323430Y-83983003D01*
X159323431Y-83983004D01*
X159447728Y-84019500D01*
X159447730Y-84019500D01*
X159577270Y-84019500D01*
X159577272Y-84019500D01*
X159701569Y-83983004D01*
X159810549Y-83912967D01*
X159895382Y-83815063D01*
X159949197Y-83697226D01*
X159967633Y-83569000D01*
X159949197Y-83440774D01*
X159895382Y-83322937D01*
X159810549Y-83225033D01*
X159810548Y-83225032D01*
X159810547Y-83225031D01*
X159701573Y-83154998D01*
X159701570Y-83154996D01*
X159701569Y-83154996D01*
X159701566Y-83154995D01*
X159577274Y-83118500D01*
X159577272Y-83118500D01*
X159447728Y-83118500D01*
X159447725Y-83118500D01*
X159335752Y-83151378D01*
X159323435Y-83154995D01*
X159316637Y-83156991D01*
X159315790Y-83154107D01*
X159267773Y-83159584D01*
X159258487Y-83156567D01*
X159258363Y-83156991D01*
X159251565Y-83154995D01*
X159231638Y-83149144D01*
X159127274Y-83118500D01*
X159127272Y-83118500D01*
X158997728Y-83118500D01*
X158997725Y-83118500D01*
X158873433Y-83154995D01*
X158873426Y-83154998D01*
X158764452Y-83225031D01*
X158679617Y-83322938D01*
X158625802Y-83440774D01*
X158607367Y-83568997D01*
X119393000Y-83568997D01*
X119393000Y-82081500D01*
X192628565Y-82081500D01*
X192647254Y-82259308D01*
X192702498Y-82429330D01*
X192702504Y-82429344D01*
X192773519Y-82552345D01*
X192791891Y-82584165D01*
X192791893Y-82584167D01*
X192819886Y-82615257D01*
X192844772Y-82671152D01*
X192832050Y-82731001D01*
X192819886Y-82747743D01*
X192791893Y-82778832D01*
X192791889Y-82778838D01*
X192702504Y-82933655D01*
X192702498Y-82933669D01*
X192647254Y-83103691D01*
X192647253Y-83103695D01*
X192647253Y-83103697D01*
X192641861Y-83154996D01*
X192628565Y-83281500D01*
X192647254Y-83459308D01*
X192702498Y-83629330D01*
X192702504Y-83629344D01*
X192773519Y-83752345D01*
X192791891Y-83784165D01*
X192791893Y-83784167D01*
X192819886Y-83815257D01*
X192844772Y-83871152D01*
X192832050Y-83931001D01*
X192819886Y-83947743D01*
X192791893Y-83978832D01*
X192791889Y-83978838D01*
X192702504Y-84133655D01*
X192702498Y-84133669D01*
X192647254Y-84303691D01*
X192647253Y-84303695D01*
X192647253Y-84303697D01*
X192628565Y-84481500D01*
X192644210Y-84630355D01*
X192647254Y-84659308D01*
X192702498Y-84829330D01*
X192702504Y-84829344D01*
X192773519Y-84952345D01*
X192791891Y-84984165D01*
X192791893Y-84984167D01*
X192911515Y-85117021D01*
X192911521Y-85117027D01*
X193056152Y-85222109D01*
X193056162Y-85222115D01*
X193219476Y-85294826D01*
X193219483Y-85294829D01*
X193394359Y-85332000D01*
X193394362Y-85332000D01*
X193573138Y-85332000D01*
X193573141Y-85332000D01*
X193748017Y-85294829D01*
X193829680Y-85258470D01*
X193911337Y-85222115D01*
X193911339Y-85222113D01*
X193911343Y-85222112D01*
X194055980Y-85117026D01*
X194175609Y-84984165D01*
X194265000Y-84829335D01*
X194320247Y-84659303D01*
X194338935Y-84481500D01*
X194320247Y-84303697D01*
X194265000Y-84133665D01*
X194264997Y-84133660D01*
X194264995Y-84133655D01*
X194175609Y-83978835D01*
X194158570Y-83959912D01*
X194147614Y-83947743D01*
X194122728Y-83891851D01*
X194135447Y-83832002D01*
X194147613Y-83815257D01*
X194175609Y-83784165D01*
X194265000Y-83629335D01*
X194320247Y-83459303D01*
X194338935Y-83281500D01*
X194320247Y-83103697D01*
X194265000Y-82933665D01*
X194264997Y-82933660D01*
X194264995Y-82933655D01*
X194175609Y-82778835D01*
X194175606Y-82778832D01*
X194147614Y-82747743D01*
X194122728Y-82691851D01*
X194135447Y-82632002D01*
X194147613Y-82615257D01*
X194175609Y-82584165D01*
X194265000Y-82429335D01*
X194320247Y-82259303D01*
X194338935Y-82081500D01*
X194320247Y-81903697D01*
X194265000Y-81733665D01*
X194264997Y-81733660D01*
X194264995Y-81733655D01*
X194207458Y-81633999D01*
X194175609Y-81578835D01*
X194055980Y-81445974D01*
X194055978Y-81445972D01*
X193911347Y-81340890D01*
X193911337Y-81340884D01*
X193748023Y-81268173D01*
X193748018Y-81268171D01*
X193748017Y-81268171D01*
X193748014Y-81268170D01*
X193748013Y-81268170D01*
X193714751Y-81261100D01*
X193573141Y-81231000D01*
X193394359Y-81231000D01*
X193282849Y-81254702D01*
X193219486Y-81268170D01*
X193219480Y-81268172D01*
X193056164Y-81340884D01*
X193056161Y-81340886D01*
X192911515Y-81445977D01*
X192911515Y-81445978D01*
X192791893Y-81578832D01*
X192791889Y-81578838D01*
X192702504Y-81733655D01*
X192702498Y-81733669D01*
X192647254Y-81903691D01*
X192628565Y-82081500D01*
X119393000Y-82081500D01*
X119393000Y-78564000D01*
X120924859Y-78564000D01*
X120945386Y-78811736D01*
X121006412Y-79052719D01*
X121106265Y-79280363D01*
X121106270Y-79280372D01*
X121206563Y-79433881D01*
X121906211Y-78734232D01*
X121917482Y-78776292D01*
X121989890Y-78901708D01*
X122092292Y-79004110D01*
X122217708Y-79076518D01*
X122259765Y-79087787D01*
X121559942Y-79787610D01*
X121606768Y-79824054D01*
X121825388Y-79942366D01*
X122060513Y-80023084D01*
X122305706Y-80064000D01*
X122554294Y-80064000D01*
X122799486Y-80023084D01*
X123034611Y-79942366D01*
X123253234Y-79824053D01*
X123253237Y-79824051D01*
X123300056Y-79787610D01*
X122600234Y-79087787D01*
X122642292Y-79076518D01*
X122767708Y-79004110D01*
X122870110Y-78901708D01*
X122942518Y-78776292D01*
X122953787Y-78734233D01*
X123653435Y-79433881D01*
X123753729Y-79280372D01*
X123753734Y-79280363D01*
X123853587Y-79052719D01*
X123914613Y-78811736D01*
X123935140Y-78564000D01*
X127424859Y-78564000D01*
X127445386Y-78811736D01*
X127506412Y-79052719D01*
X127606265Y-79280363D01*
X127606270Y-79280372D01*
X127706563Y-79433881D01*
X128406211Y-78734232D01*
X128417482Y-78776292D01*
X128489890Y-78901708D01*
X128592292Y-79004110D01*
X128717708Y-79076518D01*
X128759765Y-79087787D01*
X128059942Y-79787610D01*
X128106768Y-79824054D01*
X128325388Y-79942366D01*
X128560513Y-80023084D01*
X128805706Y-80064000D01*
X129054294Y-80064000D01*
X129299486Y-80023084D01*
X129534611Y-79942366D01*
X129577788Y-79919000D01*
X158912500Y-79919000D01*
X158912500Y-81519000D01*
X159062500Y-81669000D01*
X159062501Y-81669000D01*
X161062499Y-81669000D01*
X161062500Y-81669000D01*
X161212500Y-81519000D01*
X161212500Y-80384000D01*
X194377637Y-80384000D01*
X195180512Y-80384000D01*
X195163295Y-80393940D01*
X195107440Y-80449795D01*
X195067944Y-80518204D01*
X195047500Y-80594504D01*
X195047500Y-80673496D01*
X195067944Y-80749796D01*
X195107440Y-80818205D01*
X195163295Y-80874060D01*
X195180512Y-80884000D01*
X194377637Y-80884000D01*
X194385928Y-80925684D01*
X194385931Y-80925695D01*
X194461308Y-81107673D01*
X194461314Y-81107685D01*
X194570749Y-81271462D01*
X194570752Y-81271466D01*
X194710033Y-81410747D01*
X194710037Y-81410750D01*
X194873814Y-81520185D01*
X194873826Y-81520191D01*
X195055810Y-81595570D01*
X195249006Y-81633999D01*
X195249010Y-81634000D01*
X195647499Y-81634000D01*
X195647500Y-81633999D01*
X195647500Y-80934000D01*
X196147500Y-80934000D01*
X196147500Y-81633999D01*
X196147501Y-81634000D01*
X196545990Y-81634000D01*
X196545993Y-81633999D01*
X196739188Y-81595570D01*
X196739190Y-81595570D01*
X196921173Y-81520191D01*
X196921185Y-81520185D01*
X197084962Y-81410750D01*
X197084966Y-81410747D01*
X197224247Y-81271466D01*
X197224250Y-81271462D01*
X197333685Y-81107685D01*
X197333691Y-81107673D01*
X197409068Y-80925695D01*
X197409071Y-80925684D01*
X197417363Y-80884000D01*
X196614488Y-80884000D01*
X196631705Y-80874060D01*
X196687560Y-80818205D01*
X196727056Y-80749796D01*
X196747500Y-80673496D01*
X196747500Y-80594504D01*
X196727056Y-80518204D01*
X196687560Y-80449795D01*
X196631705Y-80393940D01*
X196614488Y-80384000D01*
X197417362Y-80384000D01*
X197409071Y-80342315D01*
X197409068Y-80342304D01*
X197333691Y-80160326D01*
X197333685Y-80160314D01*
X197224250Y-79996537D01*
X197224247Y-79996533D01*
X197084966Y-79857252D01*
X197084962Y-79857249D01*
X196921175Y-79747809D01*
X196892877Y-79736088D01*
X196846351Y-79696352D01*
X196832067Y-79636857D01*
X196855482Y-79580329D01*
X196860747Y-79574632D01*
X196878015Y-79557365D01*
X196953781Y-79426135D01*
X196993000Y-79279766D01*
X196993000Y-79128234D01*
X196953781Y-78981865D01*
X196953779Y-78981862D01*
X196953779Y-78981860D01*
X196878018Y-78850639D01*
X196878016Y-78850637D01*
X196878015Y-78850635D01*
X196770865Y-78743485D01*
X196770862Y-78743483D01*
X196770860Y-78743481D01*
X196639638Y-78667720D01*
X196639640Y-78667720D01*
X196582847Y-78652503D01*
X196493266Y-78628500D01*
X196341734Y-78628500D01*
X196252152Y-78652503D01*
X196195360Y-78667720D01*
X196064139Y-78743481D01*
X195956981Y-78850639D01*
X195881220Y-78981860D01*
X195862234Y-79052719D01*
X195842000Y-79128234D01*
X195842000Y-79279766D01*
X195862561Y-79356500D01*
X195881220Y-79426139D01*
X195956981Y-79557360D01*
X195956983Y-79557362D01*
X195956985Y-79557365D01*
X196064135Y-79664515D01*
X196097999Y-79684066D01*
X196138940Y-79729535D01*
X196147500Y-79769803D01*
X196147500Y-80334000D01*
X195647500Y-80334000D01*
X195647500Y-79634001D01*
X195647499Y-79634000D01*
X195249006Y-79634000D01*
X195055811Y-79672429D01*
X195055809Y-79672429D01*
X194873826Y-79747808D01*
X194873814Y-79747814D01*
X194710037Y-79857249D01*
X194710033Y-79857252D01*
X194570752Y-79996533D01*
X194570749Y-79996537D01*
X194461314Y-80160314D01*
X194461308Y-80160326D01*
X194385931Y-80342304D01*
X194385928Y-80342315D01*
X194377637Y-80384000D01*
X161212500Y-80384000D01*
X161212500Y-79919000D01*
X161062500Y-79769000D01*
X159062500Y-79769000D01*
X158912500Y-79919000D01*
X129577788Y-79919000D01*
X129753234Y-79824053D01*
X129753237Y-79824051D01*
X129800056Y-79787610D01*
X129100234Y-79087787D01*
X129142292Y-79076518D01*
X129267708Y-79004110D01*
X129370110Y-78901708D01*
X129442518Y-78776292D01*
X129453787Y-78734233D01*
X130153435Y-79433881D01*
X130253729Y-79280372D01*
X130253734Y-79280363D01*
X130353587Y-79052719D01*
X130414613Y-78811736D01*
X130435140Y-78564000D01*
X130433483Y-78543999D01*
X184497250Y-78543999D01*
X184497250Y-78544000D01*
X184516169Y-78687708D01*
X184516170Y-78687709D01*
X184527059Y-78713999D01*
X184571639Y-78821625D01*
X184571641Y-78821628D01*
X184571642Y-78821629D01*
X184624091Y-78889983D01*
X184644515Y-78947659D01*
X184627137Y-79006324D01*
X184624091Y-79010517D01*
X184571642Y-79078870D01*
X184571637Y-79078878D01*
X184516170Y-79212790D01*
X184516169Y-79212791D01*
X184497250Y-79356499D01*
X184497250Y-79356500D01*
X184516169Y-79500208D01*
X184516170Y-79500209D01*
X184571587Y-79634001D01*
X184571639Y-79634125D01*
X184659879Y-79749121D01*
X184774875Y-79837361D01*
X184908791Y-79892830D01*
X185052500Y-79911750D01*
X185196209Y-79892830D01*
X185330125Y-79837361D01*
X185445121Y-79749121D01*
X185533361Y-79634125D01*
X185588830Y-79500209D01*
X185607750Y-79356500D01*
X185588830Y-79212791D01*
X185533361Y-79078875D01*
X185480907Y-79010516D01*
X185460484Y-78952842D01*
X185477861Y-78894176D01*
X185480898Y-78889995D01*
X185533361Y-78821625D01*
X185577940Y-78713999D01*
X192628500Y-78713999D01*
X192628500Y-78714000D01*
X192647419Y-78857708D01*
X192647420Y-78857709D01*
X192702889Y-78991625D01*
X192791129Y-79106621D01*
X192906125Y-79194861D01*
X193040041Y-79250330D01*
X193183750Y-79269250D01*
X193327459Y-79250330D01*
X193445866Y-79201284D01*
X193506861Y-79196484D01*
X193521630Y-79201283D01*
X193640041Y-79250330D01*
X193783750Y-79269250D01*
X193927459Y-79250330D01*
X194061375Y-79194861D01*
X194176371Y-79106621D01*
X194264611Y-78991625D01*
X194320080Y-78857709D01*
X194339000Y-78714000D01*
X194320080Y-78570291D01*
X194264611Y-78436375D01*
X194176371Y-78321379D01*
X194061375Y-78233139D01*
X194061371Y-78233137D01*
X193927459Y-78177670D01*
X193927458Y-78177669D01*
X193783750Y-78158750D01*
X193640041Y-78177669D01*
X193640040Y-78177670D01*
X193521635Y-78226714D01*
X193460638Y-78231514D01*
X193445865Y-78226714D01*
X193327459Y-78177670D01*
X193327458Y-78177669D01*
X193183750Y-78158750D01*
X193040041Y-78177669D01*
X193040040Y-78177670D01*
X192906128Y-78233137D01*
X192906124Y-78233139D01*
X192791131Y-78321377D01*
X192791127Y-78321381D01*
X192702889Y-78436374D01*
X192702887Y-78436378D01*
X192647420Y-78570290D01*
X192647419Y-78570291D01*
X192628500Y-78713999D01*
X185577940Y-78713999D01*
X185588830Y-78687709D01*
X185607750Y-78544000D01*
X185588830Y-78400291D01*
X185533361Y-78266375D01*
X185445121Y-78151379D01*
X185330125Y-78063139D01*
X185330121Y-78063137D01*
X185196209Y-78007670D01*
X185196208Y-78007669D01*
X185052500Y-77988750D01*
X184908791Y-78007669D01*
X184908790Y-78007670D01*
X184774878Y-78063137D01*
X184774874Y-78063139D01*
X184659881Y-78151377D01*
X184659877Y-78151381D01*
X184571639Y-78266374D01*
X184571637Y-78266378D01*
X184516170Y-78400290D01*
X184516169Y-78400291D01*
X184497250Y-78543999D01*
X130433483Y-78543999D01*
X130414613Y-78316263D01*
X130353587Y-78075280D01*
X130253734Y-77847636D01*
X130253729Y-77847627D01*
X130153435Y-77694117D01*
X129453787Y-78393764D01*
X129442518Y-78351708D01*
X129370110Y-78226292D01*
X129267708Y-78123890D01*
X129142292Y-78051482D01*
X129100232Y-78040211D01*
X129800056Y-77340388D01*
X129753232Y-77303945D01*
X129534611Y-77185633D01*
X129299486Y-77104915D01*
X129054294Y-77064000D01*
X128805706Y-77064000D01*
X128560513Y-77104915D01*
X128325388Y-77185633D01*
X128106765Y-77303947D01*
X128106764Y-77303947D01*
X128059942Y-77340388D01*
X128759766Y-78040212D01*
X128717708Y-78051482D01*
X128592292Y-78123890D01*
X128489890Y-78226292D01*
X128417482Y-78351708D01*
X128406212Y-78393766D01*
X127706564Y-77694118D01*
X127606268Y-77847632D01*
X127506412Y-78075283D01*
X127445386Y-78316263D01*
X127424859Y-78564000D01*
X123935140Y-78564000D01*
X123914613Y-78316263D01*
X123853587Y-78075280D01*
X123753734Y-77847636D01*
X123753729Y-77847627D01*
X123653435Y-77694117D01*
X122953787Y-78393764D01*
X122942518Y-78351708D01*
X122870110Y-78226292D01*
X122767708Y-78123890D01*
X122642292Y-78051482D01*
X122600232Y-78040211D01*
X123300056Y-77340388D01*
X123253232Y-77303945D01*
X123034611Y-77185633D01*
X122799486Y-77104915D01*
X122554294Y-77064000D01*
X122305706Y-77064000D01*
X122060513Y-77104915D01*
X121825388Y-77185633D01*
X121606765Y-77303947D01*
X121606764Y-77303947D01*
X121559942Y-77340388D01*
X122259766Y-78040212D01*
X122217708Y-78051482D01*
X122092292Y-78123890D01*
X121989890Y-78226292D01*
X121917482Y-78351708D01*
X121906212Y-78393766D01*
X121206564Y-77694118D01*
X121106268Y-77847632D01*
X121006412Y-78075283D01*
X120945386Y-78316263D01*
X120924859Y-78564000D01*
X119393000Y-78564000D01*
X119393000Y-75678997D01*
X155406853Y-75678997D01*
X155406853Y-75679002D01*
X155427334Y-75821456D01*
X155487122Y-75952371D01*
X155487123Y-75952373D01*
X155581372Y-76061143D01*
X155581373Y-76061144D01*
X155702442Y-76138950D01*
X155702447Y-76138953D01*
X155808903Y-76170211D01*
X155840535Y-76179499D01*
X155840536Y-76179499D01*
X155840539Y-76179500D01*
X155840541Y-76179500D01*
X155984459Y-76179500D01*
X155984461Y-76179500D01*
X156122553Y-76138953D01*
X156243628Y-76061143D01*
X156337877Y-75952373D01*
X156397665Y-75821457D01*
X156418147Y-75679000D01*
X156397665Y-75536543D01*
X156337877Y-75405627D01*
X156243628Y-75296857D01*
X156243627Y-75296856D01*
X156243626Y-75296855D01*
X156122557Y-75219049D01*
X156122554Y-75219047D01*
X156122553Y-75219047D01*
X156122550Y-75219046D01*
X155984464Y-75178500D01*
X155984461Y-75178500D01*
X155840539Y-75178500D01*
X155840535Y-75178500D01*
X155702449Y-75219046D01*
X155702442Y-75219049D01*
X155581373Y-75296855D01*
X155487122Y-75405628D01*
X155427334Y-75536543D01*
X155406853Y-75678997D01*
X119393000Y-75678997D01*
X119393000Y-74063996D01*
X121174723Y-74063996D01*
X121174723Y-74064003D01*
X121193791Y-74281969D01*
X121193792Y-74281976D01*
X121193793Y-74281977D01*
X121250425Y-74493330D01*
X121342898Y-74691639D01*
X121468402Y-74870877D01*
X121623123Y-75025598D01*
X121802361Y-75151102D01*
X122000670Y-75243575D01*
X122212023Y-75300207D01*
X122212027Y-75300207D01*
X122212030Y-75300208D01*
X122429997Y-75319277D01*
X122430000Y-75319277D01*
X122430003Y-75319277D01*
X122647969Y-75300208D01*
X122647970Y-75300207D01*
X122647977Y-75300207D01*
X122859330Y-75243575D01*
X123057639Y-75151102D01*
X123236877Y-75025598D01*
X123391598Y-74870877D01*
X123517102Y-74691639D01*
X123609575Y-74493330D01*
X123666207Y-74281977D01*
X123666683Y-74276543D01*
X123685277Y-74064003D01*
X123685277Y-74063996D01*
X127674723Y-74063996D01*
X127674723Y-74064003D01*
X127693791Y-74281969D01*
X127693792Y-74281976D01*
X127693793Y-74281977D01*
X127750425Y-74493330D01*
X127842898Y-74691639D01*
X127968402Y-74870877D01*
X128123123Y-75025598D01*
X128302361Y-75151102D01*
X128500670Y-75243575D01*
X128712023Y-75300207D01*
X128712027Y-75300207D01*
X128712030Y-75300208D01*
X128929997Y-75319277D01*
X128930000Y-75319277D01*
X128930003Y-75319277D01*
X129147969Y-75300208D01*
X129147970Y-75300207D01*
X129147977Y-75300207D01*
X129359330Y-75243575D01*
X129557639Y-75151102D01*
X129736877Y-75025598D01*
X129891598Y-74870877D01*
X130017102Y-74691639D01*
X130109575Y-74493330D01*
X130129493Y-74418997D01*
X144436853Y-74418997D01*
X144436853Y-74419002D01*
X144457334Y-74561456D01*
X144516787Y-74691637D01*
X144517123Y-74692373D01*
X144611372Y-74801143D01*
X144611373Y-74801144D01*
X144719880Y-74870877D01*
X144732447Y-74878953D01*
X144838903Y-74910211D01*
X144870535Y-74919499D01*
X144870536Y-74919499D01*
X144870539Y-74919500D01*
X144870541Y-74919500D01*
X145014459Y-74919500D01*
X145014461Y-74919500D01*
X145152553Y-74878953D01*
X145273628Y-74801143D01*
X145367877Y-74692373D01*
X145427665Y-74561457D01*
X145440922Y-74469250D01*
X145448147Y-74419002D01*
X145448147Y-74418997D01*
X145427665Y-74276543D01*
X145369811Y-74149862D01*
X145367877Y-74145627D01*
X145273628Y-74036857D01*
X145273627Y-74036856D01*
X145273626Y-74036855D01*
X145152557Y-73959049D01*
X145152554Y-73959047D01*
X145152553Y-73959047D01*
X145152550Y-73959046D01*
X145014464Y-73918500D01*
X145014461Y-73918500D01*
X144870539Y-73918500D01*
X144870535Y-73918500D01*
X144732449Y-73959046D01*
X144732442Y-73959049D01*
X144611373Y-74036855D01*
X144517122Y-74145628D01*
X144457334Y-74276543D01*
X144436853Y-74418997D01*
X130129493Y-74418997D01*
X130166207Y-74281977D01*
X130166683Y-74276543D01*
X130185277Y-74064003D01*
X130185277Y-74063996D01*
X130166208Y-73846030D01*
X130166207Y-73846027D01*
X130166207Y-73846023D01*
X130149587Y-73783997D01*
X148256853Y-73783997D01*
X148256853Y-73784002D01*
X148277334Y-73926456D01*
X148337122Y-74057371D01*
X148337123Y-74057373D01*
X148413595Y-74145627D01*
X148431373Y-74166144D01*
X148492348Y-74205330D01*
X148552447Y-74243953D01*
X148658903Y-74275211D01*
X148690535Y-74284499D01*
X148690536Y-74284499D01*
X148690539Y-74284500D01*
X148690541Y-74284500D01*
X148834459Y-74284500D01*
X148834461Y-74284500D01*
X148972553Y-74243953D01*
X149093628Y-74166143D01*
X149187877Y-74057373D01*
X149247665Y-73926457D01*
X149259230Y-73846023D01*
X149268147Y-73784002D01*
X149268147Y-73783997D01*
X149247665Y-73641543D01*
X149244524Y-73634666D01*
X149187877Y-73510627D01*
X149093628Y-73401857D01*
X149093627Y-73401856D01*
X149093626Y-73401855D01*
X148972557Y-73324049D01*
X148972554Y-73324047D01*
X148972553Y-73324047D01*
X148969049Y-73323018D01*
X148834464Y-73283500D01*
X148834461Y-73283500D01*
X148690539Y-73283500D01*
X148690535Y-73283500D01*
X148552449Y-73324046D01*
X148552442Y-73324049D01*
X148431373Y-73401855D01*
X148337122Y-73510628D01*
X148277334Y-73641543D01*
X148256853Y-73783997D01*
X130149587Y-73783997D01*
X130109575Y-73634670D01*
X130083154Y-73578010D01*
X130017107Y-73436372D01*
X130017103Y-73436364D01*
X130014843Y-73433137D01*
X129891598Y-73257123D01*
X129736877Y-73102402D01*
X129736873Y-73102399D01*
X129736872Y-73102398D01*
X129637435Y-73032772D01*
X129557639Y-72976898D01*
X129359330Y-72884425D01*
X129255109Y-72856499D01*
X184497250Y-72856499D01*
X184497250Y-72856500D01*
X184516169Y-73000208D01*
X184516170Y-73000209D01*
X184545342Y-73070639D01*
X184571639Y-73134125D01*
X184571641Y-73134128D01*
X184571642Y-73134129D01*
X184624091Y-73202483D01*
X184644515Y-73260159D01*
X184627137Y-73318824D01*
X184624091Y-73323017D01*
X184571642Y-73391370D01*
X184571637Y-73391378D01*
X184516170Y-73525290D01*
X184516169Y-73525291D01*
X184497250Y-73668999D01*
X184497250Y-73669000D01*
X184516169Y-73812708D01*
X184516170Y-73812709D01*
X184545912Y-73884515D01*
X184571639Y-73946625D01*
X184659879Y-74061621D01*
X184774875Y-74149861D01*
X184908791Y-74205330D01*
X185052500Y-74224250D01*
X185196209Y-74205330D01*
X185330125Y-74149861D01*
X185445121Y-74061621D01*
X185533361Y-73946625D01*
X185546875Y-73913999D01*
X192628500Y-73913999D01*
X192628500Y-73914000D01*
X192647419Y-74057708D01*
X192647420Y-74057709D01*
X192692334Y-74166144D01*
X192702889Y-74191625D01*
X192791129Y-74306621D01*
X192906125Y-74394861D01*
X193040041Y-74450330D01*
X193183750Y-74469250D01*
X193327459Y-74450330D01*
X193445866Y-74401284D01*
X193506861Y-74396484D01*
X193521630Y-74401283D01*
X193640041Y-74450330D01*
X193783750Y-74469250D01*
X193927459Y-74450330D01*
X194061375Y-74394861D01*
X194176371Y-74306621D01*
X194264611Y-74191625D01*
X194320080Y-74057709D01*
X194339000Y-73914000D01*
X194330050Y-73846023D01*
X194320080Y-73770291D01*
X194264611Y-73636375D01*
X194176371Y-73521379D01*
X194061375Y-73433139D01*
X194061371Y-73433137D01*
X193927459Y-73377670D01*
X193927458Y-73377669D01*
X193783750Y-73358750D01*
X193640041Y-73377669D01*
X193640040Y-73377670D01*
X193521635Y-73426714D01*
X193460638Y-73431514D01*
X193445865Y-73426714D01*
X193327459Y-73377670D01*
X193327458Y-73377669D01*
X193183750Y-73358750D01*
X193040041Y-73377669D01*
X193040040Y-73377670D01*
X192906128Y-73433137D01*
X192906124Y-73433139D01*
X192791131Y-73521377D01*
X192791127Y-73521381D01*
X192702889Y-73636374D01*
X192702887Y-73636378D01*
X192647420Y-73770290D01*
X192647419Y-73770291D01*
X192628500Y-73913999D01*
X185546875Y-73913999D01*
X185588830Y-73812709D01*
X185607750Y-73669000D01*
X185588830Y-73525291D01*
X185533361Y-73391375D01*
X185480907Y-73323016D01*
X185460484Y-73265342D01*
X185477861Y-73206676D01*
X185480898Y-73202495D01*
X185533361Y-73134125D01*
X185588830Y-73000209D01*
X185607750Y-72856500D01*
X185588830Y-72712791D01*
X185533361Y-72578875D01*
X185445121Y-72463879D01*
X185330125Y-72375639D01*
X185330121Y-72375637D01*
X185196209Y-72320170D01*
X185196208Y-72320169D01*
X185052500Y-72301250D01*
X184908791Y-72320169D01*
X184908790Y-72320170D01*
X184774878Y-72375637D01*
X184774874Y-72375639D01*
X184659881Y-72463877D01*
X184659877Y-72463881D01*
X184571639Y-72578874D01*
X184571637Y-72578878D01*
X184516170Y-72712790D01*
X184516169Y-72712791D01*
X184497250Y-72856499D01*
X129255109Y-72856499D01*
X129147977Y-72827793D01*
X129147976Y-72827792D01*
X129147969Y-72827791D01*
X128930003Y-72808723D01*
X128929997Y-72808723D01*
X128712030Y-72827791D01*
X128500666Y-72884426D01*
X128302372Y-72976892D01*
X128302364Y-72976896D01*
X128123127Y-73102398D01*
X127968398Y-73257127D01*
X127842896Y-73436364D01*
X127842892Y-73436372D01*
X127750426Y-73634666D01*
X127693791Y-73846030D01*
X127674723Y-74063996D01*
X123685277Y-74063996D01*
X123666208Y-73846030D01*
X123666207Y-73846027D01*
X123666207Y-73846023D01*
X123609575Y-73634670D01*
X123583154Y-73578010D01*
X123517107Y-73436372D01*
X123517103Y-73436364D01*
X123514843Y-73433137D01*
X123391598Y-73257123D01*
X123236877Y-73102402D01*
X123236873Y-73102399D01*
X123236872Y-73102398D01*
X123137435Y-73032772D01*
X123057639Y-72976898D01*
X122859330Y-72884425D01*
X122647977Y-72827793D01*
X122647976Y-72827792D01*
X122647969Y-72827791D01*
X122430003Y-72808723D01*
X122429997Y-72808723D01*
X122212030Y-72827791D01*
X122000666Y-72884426D01*
X121802372Y-72976892D01*
X121802364Y-72976896D01*
X121623127Y-73102398D01*
X121468398Y-73257127D01*
X121342896Y-73436364D01*
X121342892Y-73436372D01*
X121250426Y-73634666D01*
X121193791Y-73846030D01*
X121174723Y-74063996D01*
X119393000Y-74063996D01*
X119393000Y-71744000D01*
X194377637Y-71744000D01*
X195180512Y-71744000D01*
X195163295Y-71753940D01*
X195107440Y-71809795D01*
X195067944Y-71878204D01*
X195047500Y-71954504D01*
X195047500Y-72033496D01*
X195067944Y-72109796D01*
X195107440Y-72178205D01*
X195163295Y-72234060D01*
X195180512Y-72244000D01*
X194377637Y-72244000D01*
X194385928Y-72285684D01*
X194385931Y-72285695D01*
X194461308Y-72467673D01*
X194461314Y-72467685D01*
X194570749Y-72631462D01*
X194570752Y-72631466D01*
X194710033Y-72770747D01*
X194710037Y-72770750D01*
X194873814Y-72880185D01*
X194873826Y-72880191D01*
X195055810Y-72955570D01*
X195249006Y-72993999D01*
X195249010Y-72994000D01*
X195647499Y-72994000D01*
X195647500Y-72993999D01*
X195647500Y-72294000D01*
X196147500Y-72294000D01*
X196147500Y-72858195D01*
X196128593Y-72916386D01*
X196098002Y-72943930D01*
X196064139Y-72963481D01*
X195956981Y-73070639D01*
X195881220Y-73201860D01*
X195881053Y-73202483D01*
X195842000Y-73348234D01*
X195842000Y-73499766D01*
X195876586Y-73628847D01*
X195881220Y-73646139D01*
X195956981Y-73777360D01*
X195956983Y-73777362D01*
X195956985Y-73777365D01*
X196064135Y-73884515D01*
X196064137Y-73884516D01*
X196064139Y-73884518D01*
X196195361Y-73960279D01*
X196195359Y-73960279D01*
X196195363Y-73960280D01*
X196195365Y-73960281D01*
X196341734Y-73999500D01*
X196341736Y-73999500D01*
X196493264Y-73999500D01*
X196493266Y-73999500D01*
X196639635Y-73960281D01*
X196639637Y-73960279D01*
X196639639Y-73960279D01*
X196770860Y-73884518D01*
X196770860Y-73884517D01*
X196770865Y-73884515D01*
X196878015Y-73777365D01*
X196940580Y-73669000D01*
X196953779Y-73646139D01*
X196953779Y-73646137D01*
X196953781Y-73646135D01*
X196993000Y-73499766D01*
X196993000Y-73348234D01*
X196953781Y-73201865D01*
X196953779Y-73201862D01*
X196953779Y-73201860D01*
X196878018Y-73070639D01*
X196878016Y-73070637D01*
X196878015Y-73070635D01*
X196860756Y-73053376D01*
X196832981Y-72998862D01*
X196842552Y-72938430D01*
X196885817Y-72895165D01*
X196892879Y-72891910D01*
X196921175Y-72880189D01*
X196921185Y-72880185D01*
X197084962Y-72770750D01*
X197084966Y-72770747D01*
X197224247Y-72631466D01*
X197224250Y-72631462D01*
X197333685Y-72467685D01*
X197333691Y-72467673D01*
X197409068Y-72285695D01*
X197409071Y-72285684D01*
X197417363Y-72244000D01*
X196614488Y-72244000D01*
X196631705Y-72234060D01*
X196687560Y-72178205D01*
X196727056Y-72109796D01*
X196747500Y-72033496D01*
X196747500Y-71954504D01*
X196727056Y-71878204D01*
X196687560Y-71809795D01*
X196631705Y-71753940D01*
X196614488Y-71744000D01*
X197417362Y-71744000D01*
X197409071Y-71702315D01*
X197409068Y-71702304D01*
X197333691Y-71520326D01*
X197333685Y-71520314D01*
X197224250Y-71356537D01*
X197224247Y-71356533D01*
X197084966Y-71217252D01*
X197084962Y-71217249D01*
X196921185Y-71107814D01*
X196921173Y-71107808D01*
X196739189Y-71032429D01*
X196545993Y-70994000D01*
X196147501Y-70994000D01*
X196147500Y-70994001D01*
X196147500Y-71694000D01*
X195647500Y-71694000D01*
X195647500Y-70994001D01*
X195647499Y-70994000D01*
X195249006Y-70994000D01*
X195055811Y-71032429D01*
X195055809Y-71032429D01*
X194873826Y-71107808D01*
X194873814Y-71107814D01*
X194710037Y-71217249D01*
X194710033Y-71217252D01*
X194570752Y-71356533D01*
X194570749Y-71356537D01*
X194461314Y-71520314D01*
X194461308Y-71520326D01*
X194385931Y-71702304D01*
X194385928Y-71702315D01*
X194377637Y-71744000D01*
X119393000Y-71744000D01*
X119393000Y-68731497D01*
X191331853Y-68731497D01*
X191331853Y-68731502D01*
X191352334Y-68873956D01*
X191412122Y-69004871D01*
X191412123Y-69004873D01*
X191506372Y-69113643D01*
X191506373Y-69113644D01*
X191627442Y-69191450D01*
X191627447Y-69191453D01*
X191733903Y-69222711D01*
X191765535Y-69231999D01*
X191765536Y-69231999D01*
X191765539Y-69232000D01*
X191765541Y-69232000D01*
X191909459Y-69232000D01*
X191909461Y-69232000D01*
X192047553Y-69191453D01*
X192168628Y-69113643D01*
X192262877Y-69004873D01*
X192322665Y-68873957D01*
X192343147Y-68731500D01*
X192343147Y-68731497D01*
X194744353Y-68731497D01*
X194744353Y-68731502D01*
X194764834Y-68873956D01*
X194824622Y-69004871D01*
X194824623Y-69004873D01*
X194918872Y-69113643D01*
X194918873Y-69113644D01*
X195039942Y-69191450D01*
X195039947Y-69191453D01*
X195146403Y-69222711D01*
X195178035Y-69231999D01*
X195178036Y-69231999D01*
X195178039Y-69232000D01*
X195178041Y-69232000D01*
X195321959Y-69232000D01*
X195321961Y-69232000D01*
X195460053Y-69191453D01*
X195581128Y-69113643D01*
X195675377Y-69004873D01*
X195735165Y-68873957D01*
X195755647Y-68731500D01*
X195735165Y-68589043D01*
X195675377Y-68458127D01*
X195581128Y-68349357D01*
X195581127Y-68349356D01*
X195581126Y-68349355D01*
X195460057Y-68271549D01*
X195460054Y-68271547D01*
X195460053Y-68271547D01*
X195460050Y-68271546D01*
X195321964Y-68231000D01*
X195321961Y-68231000D01*
X195178039Y-68231000D01*
X195178035Y-68231000D01*
X195039949Y-68271546D01*
X195039942Y-68271549D01*
X194918873Y-68349355D01*
X194824622Y-68458128D01*
X194764834Y-68589043D01*
X194744353Y-68731497D01*
X192343147Y-68731497D01*
X192322665Y-68589043D01*
X192262877Y-68458127D01*
X192168628Y-68349357D01*
X192168627Y-68349356D01*
X192168626Y-68349355D01*
X192047557Y-68271549D01*
X192047554Y-68271547D01*
X192047553Y-68271547D01*
X192047550Y-68271546D01*
X191909464Y-68231000D01*
X191909461Y-68231000D01*
X191765539Y-68231000D01*
X191765535Y-68231000D01*
X191627449Y-68271546D01*
X191627442Y-68271549D01*
X191506373Y-68349355D01*
X191412122Y-68458128D01*
X191352334Y-68589043D01*
X191331853Y-68731497D01*
X119393000Y-68731497D01*
X119393000Y-66788997D01*
X155406853Y-66788997D01*
X155406853Y-66789002D01*
X155427334Y-66931456D01*
X155487122Y-67062371D01*
X155487123Y-67062373D01*
X155581372Y-67171143D01*
X155581373Y-67171144D01*
X155702442Y-67248950D01*
X155702447Y-67248953D01*
X155808903Y-67280211D01*
X155840535Y-67289499D01*
X155840536Y-67289499D01*
X155840539Y-67289500D01*
X155840541Y-67289500D01*
X155984459Y-67289500D01*
X155984461Y-67289500D01*
X156122553Y-67248953D01*
X156243628Y-67171143D01*
X156337877Y-67062373D01*
X156397665Y-66931457D01*
X156418147Y-66789000D01*
X156397665Y-66646543D01*
X156337877Y-66515627D01*
X156243628Y-66406857D01*
X156243627Y-66406856D01*
X156243626Y-66406855D01*
X156122557Y-66329049D01*
X156122554Y-66329047D01*
X156122553Y-66329047D01*
X156122550Y-66329046D01*
X155984464Y-66288500D01*
X155984461Y-66288500D01*
X155840539Y-66288500D01*
X155840535Y-66288500D01*
X155702449Y-66329046D01*
X155702442Y-66329049D01*
X155581373Y-66406855D01*
X155487122Y-66515628D01*
X155427334Y-66646543D01*
X155406853Y-66788997D01*
X119393000Y-66788997D01*
X119393000Y-62234861D01*
X119393477Y-62225157D01*
X119405485Y-62103237D01*
X119409271Y-62084203D01*
X119443415Y-61971645D01*
X119450842Y-61953714D01*
X119506291Y-61849977D01*
X119517073Y-61833841D01*
X119591696Y-61742912D01*
X119605412Y-61729196D01*
X119696342Y-61654571D01*
X119712477Y-61643791D01*
X119816216Y-61588340D01*
X119834143Y-61580915D01*
X119946707Y-61546770D01*
X119965733Y-61542985D01*
X120087657Y-61530976D01*
X120097361Y-61530500D01*
X120140095Y-61530500D01*
X200944905Y-61530500D01*
X200987639Y-61530500D01*
X200997342Y-61530976D01*
G37*
%TD.AperFunction*%
%TD*%
M02*
