%TF.GenerationSoftware,KiCad,Pcbnew,8.0.5*%
%TF.CreationDate,2024-10-26T23:56:44+02:00*%
%TF.ProjectId,Pico2-MSX,5069636f-322d-44d5-9358-2e6b69636164,0.3*%
%TF.SameCoordinates,Original*%
%TF.FileFunction,Paste,Top*%
%TF.FilePolarity,Positive*%
%FSLAX46Y46*%
G04 Gerber Fmt 4.6, Leading zero omitted, Abs format (unit mm)*
G04 Created by KiCad (PCBNEW 8.0.5) date 2024-10-26 23:56:44*
%MOMM*%
%LPD*%
G01*
G04 APERTURE LIST*
G04 Aperture macros list*
%AMRoundRect*
0 Rectangle with rounded corners*
0 $1 Rounding radius*
0 $2 $3 $4 $5 $6 $7 $8 $9 X,Y pos of 4 corners*
0 Add a 4 corners polygon primitive as box body*
4,1,4,$2,$3,$4,$5,$6,$7,$8,$9,$2,$3,0*
0 Add four circle primitives for the rounded corners*
1,1,$1+$1,$2,$3*
1,1,$1+$1,$4,$5*
1,1,$1+$1,$6,$7*
1,1,$1+$1,$8,$9*
0 Add four rect primitives between the rounded corners*
20,1,$1+$1,$2,$3,$4,$5,0*
20,1,$1+$1,$4,$5,$6,$7,0*
20,1,$1+$1,$6,$7,$8,$9,0*
20,1,$1+$1,$8,$9,$2,$3,0*%
G04 Aperture macros list end*
%ADD10RoundRect,0.079500X-0.100500X0.079500X-0.100500X-0.079500X0.100500X-0.079500X0.100500X0.079500X0*%
%ADD11R,1.240000X0.600000*%
%ADD12R,1.240000X0.300000*%
%ADD13RoundRect,0.135000X0.135000X0.185000X-0.135000X0.185000X-0.135000X-0.185000X0.135000X-0.185000X0*%
%ADD14RoundRect,0.150000X-0.650000X-0.150000X0.650000X-0.150000X0.650000X0.150000X-0.650000X0.150000X0*%
%ADD15RoundRect,0.100000X-0.100000X0.637500X-0.100000X-0.637500X0.100000X-0.637500X0.100000X0.637500X0*%
%ADD16RoundRect,0.079500X0.079500X0.100500X-0.079500X0.100500X-0.079500X-0.100500X0.079500X-0.100500X0*%
%ADD17R,1.400000X1.200000*%
%ADD18RoundRect,0.140000X-0.140000X-0.170000X0.140000X-0.170000X0.140000X0.170000X-0.140000X0.170000X0*%
%ADD19RoundRect,0.135000X-0.185000X0.135000X-0.185000X-0.135000X0.185000X-0.135000X0.185000X0.135000X0*%
%ADD20RoundRect,0.243750X0.456250X-0.243750X0.456250X0.243750X-0.456250X0.243750X-0.456250X-0.243750X0*%
%ADD21RoundRect,0.200000X-0.275000X0.200000X-0.275000X-0.200000X0.275000X-0.200000X0.275000X0.200000X0*%
%ADD22RoundRect,0.250000X-0.350000X-0.350000X0.350000X-0.350000X0.350000X0.350000X-0.350000X0.350000X0*%
%ADD23RoundRect,0.055000X0.335000X-0.055000X0.335000X0.055000X-0.335000X0.055000X-0.335000X-0.055000X0*%
%ADD24RoundRect,0.055000X-0.055000X-0.335000X0.055000X-0.335000X0.055000X0.335000X-0.055000X0.335000X0*%
%ADD25R,0.133333X0.133333*%
%ADD26RoundRect,0.079500X-0.079500X-0.100500X0.079500X-0.100500X0.079500X0.100500X-0.079500X0.100500X0*%
%ADD27RoundRect,0.250000X-0.450000X-0.425000X0.450000X-0.425000X0.450000X0.425000X-0.450000X0.425000X0*%
%ADD28RoundRect,0.140000X0.170000X-0.140000X0.170000X0.140000X-0.170000X0.140000X-0.170000X-0.140000X0*%
%ADD29RoundRect,0.135000X0.185000X-0.135000X0.185000X0.135000X-0.185000X0.135000X-0.185000X-0.135000X0*%
%ADD30RoundRect,0.200000X-0.200000X-0.275000X0.200000X-0.275000X0.200000X0.275000X-0.200000X0.275000X0*%
%ADD31RoundRect,0.140000X0.140000X0.170000X-0.140000X0.170000X-0.140000X-0.170000X0.140000X-0.170000X0*%
%ADD32RoundRect,0.225000X0.375000X-0.225000X0.375000X0.225000X-0.375000X0.225000X-0.375000X-0.225000X0*%
%ADD33RoundRect,0.150000X0.825000X0.150000X-0.825000X0.150000X-0.825000X-0.150000X0.825000X-0.150000X0*%
%ADD34RoundRect,0.135000X-0.135000X-0.185000X0.135000X-0.185000X0.135000X0.185000X-0.135000X0.185000X0*%
%ADD35RoundRect,0.079500X0.100500X-0.079500X0.100500X0.079500X-0.100500X0.079500X-0.100500X-0.079500X0*%
%ADD36RoundRect,0.100000X0.100000X-0.637500X0.100000X0.637500X-0.100000X0.637500X-0.100000X-0.637500X0*%
%ADD37RoundRect,0.140000X-0.170000X0.140000X-0.170000X-0.140000X0.170000X-0.140000X0.170000X0.140000X0*%
%ADD38RoundRect,0.225000X-0.225000X-0.725000X0.225000X-0.725000X0.225000X0.725000X-0.225000X0.725000X0*%
%ADD39RoundRect,0.225000X-0.375000X0.225000X-0.375000X-0.225000X0.375000X-0.225000X0.375000X0.225000X0*%
%ADD40RoundRect,0.375000X0.375000X-0.625000X0.375000X0.625000X-0.375000X0.625000X-0.375000X-0.625000X0*%
%ADD41RoundRect,0.500000X1.400000X-0.500000X1.400000X0.500000X-1.400000X0.500000X-1.400000X-0.500000X0*%
%ADD42RoundRect,0.250000X0.450000X0.425000X-0.450000X0.425000X-0.450000X-0.425000X0.450000X-0.425000X0*%
G04 APERTURE END LIST*
D10*
%TO.C,C14*%
X157802500Y-96974000D03*
X157802500Y-97664000D03*
%TD*%
%TO.C,C10*%
X154512500Y-96974000D03*
X154512500Y-97664000D03*
%TD*%
D11*
%TO.C,J2*%
X195297500Y-79514000D03*
X195297500Y-78714000D03*
D12*
X195297500Y-77564000D03*
X195297500Y-76564000D03*
X195297500Y-76064000D03*
X195297500Y-75064000D03*
D11*
X195297500Y-73914000D03*
X195297500Y-73114000D03*
X195297500Y-73114000D03*
X195297500Y-73914000D03*
D12*
X195297500Y-74564000D03*
X195297500Y-75564000D03*
X195297500Y-77064000D03*
X195297500Y-78064000D03*
D11*
X195297500Y-78714000D03*
X195297500Y-79514000D03*
%TD*%
D13*
%TO.C,R12*%
X192230000Y-77564000D03*
X191210000Y-77564000D03*
%TD*%
D14*
%TO.C,U4*%
X147162500Y-75679000D03*
X147162500Y-76949000D03*
X147162500Y-78219000D03*
X147162500Y-79489000D03*
X154362500Y-79489000D03*
X154362500Y-78219000D03*
X154362500Y-76949000D03*
X154362500Y-75679000D03*
%TD*%
D15*
%TO.C,U2*%
X143202500Y-98529000D03*
X142552500Y-98529000D03*
X141902500Y-98529000D03*
X141252500Y-98529000D03*
X140602500Y-98529000D03*
X139952500Y-98529000D03*
X139302500Y-98529000D03*
X138652500Y-98529000D03*
X138002500Y-98529000D03*
X137352500Y-98529000D03*
X137352500Y-104254000D03*
X138002500Y-104254000D03*
X138652500Y-104254000D03*
X139302500Y-104254000D03*
X139952500Y-104254000D03*
X140602500Y-104254000D03*
X141252500Y-104254000D03*
X141902500Y-104254000D03*
X142552500Y-104254000D03*
X143202500Y-104254000D03*
%TD*%
D16*
%TO.C,C7*%
X151057500Y-92719000D03*
X150367500Y-92719000D03*
%TD*%
D13*
%TO.C,R11*%
X192230000Y-74567750D03*
X191210000Y-74567750D03*
%TD*%
%TO.C,R1*%
X126062500Y-86282500D03*
X125042500Y-86282500D03*
%TD*%
D17*
%TO.C,Y1*%
X157887500Y-103516500D03*
X160087500Y-103516500D03*
X160087500Y-101816500D03*
X157887500Y-101816500D03*
%TD*%
D18*
%TO.C,C15*%
X158507500Y-105166500D03*
X159467500Y-105166500D03*
%TD*%
D19*
%TO.C,R9*%
X158887500Y-77632750D03*
X158887500Y-78652750D03*
%TD*%
D20*
%TO.C,D2*%
X193312500Y-64656500D03*
X193312500Y-62781500D03*
%TD*%
D19*
%TO.C,R7*%
X147162500Y-72629000D03*
X147162500Y-73649000D03*
%TD*%
D21*
%TO.C,R15*%
X200112500Y-67094000D03*
X200112500Y-68744000D03*
%TD*%
D22*
%TO.C,U6*%
X156412500Y-90219000D03*
X156412500Y-91619000D03*
X157812500Y-90219000D03*
X157812500Y-91619000D03*
D23*
X152216000Y-87119000D03*
X152216000Y-87519000D03*
X152216000Y-87919000D03*
X152216000Y-88319000D03*
X152216000Y-88719000D03*
X152216000Y-89119000D03*
X152216000Y-89519000D03*
X152216000Y-89919000D03*
X152216000Y-90319000D03*
X152216000Y-90719000D03*
X152216000Y-91119000D03*
X152216000Y-91519000D03*
X152216000Y-91919000D03*
X152216000Y-92319000D03*
X152216000Y-92719000D03*
X152216000Y-93119000D03*
X152216000Y-93519000D03*
X152216000Y-93919000D03*
X152216000Y-94319000D03*
X152216000Y-94719000D03*
D24*
X153312500Y-95815500D03*
X153712500Y-95815500D03*
X154112500Y-95815500D03*
X154512500Y-95815500D03*
X154912500Y-95815500D03*
X155312500Y-95815500D03*
X155712500Y-95815500D03*
X156112500Y-95815500D03*
X156512500Y-95815500D03*
X156912500Y-95815500D03*
X157312500Y-95815500D03*
X157712500Y-95815500D03*
X158112500Y-95815500D03*
X158512500Y-95815500D03*
X158912500Y-95815500D03*
X159312500Y-95815500D03*
X159712500Y-95815500D03*
X160112500Y-95815500D03*
X160512500Y-95815500D03*
X160912500Y-95815500D03*
D23*
X162009000Y-94719000D03*
X162009000Y-94319000D03*
X162009000Y-93919000D03*
X162009000Y-93519000D03*
X162009000Y-93119000D03*
X162009000Y-92719000D03*
X162009000Y-92319000D03*
X162009000Y-91919000D03*
X162009000Y-91519000D03*
X162009000Y-91119000D03*
X162009000Y-90719000D03*
X162009000Y-90319000D03*
X162009000Y-89919000D03*
X162009000Y-89519000D03*
X162009000Y-89119000D03*
X162009000Y-88719000D03*
X162009000Y-88319000D03*
X162009000Y-87919000D03*
X162009000Y-87519000D03*
X162009000Y-87119000D03*
D24*
X160912500Y-86022500D03*
X160512500Y-86022500D03*
X160112500Y-86022500D03*
X159712500Y-86022500D03*
X159312500Y-86022500D03*
X158912500Y-86022500D03*
X158512500Y-86022500D03*
X158112500Y-86022500D03*
X157712500Y-86022500D03*
X157312500Y-86022500D03*
X156912500Y-86022500D03*
X156512500Y-86022500D03*
X156112500Y-86022500D03*
X155712500Y-86022500D03*
X155312500Y-86022500D03*
X154912500Y-86022500D03*
X154512500Y-86022500D03*
X154112500Y-86022500D03*
X153712500Y-86022500D03*
X153312500Y-86022500D03*
D25*
X155979167Y-89785667D03*
X155979167Y-90919000D03*
X155979167Y-92052333D03*
X157112500Y-89785667D03*
X157112500Y-90919000D03*
X157112500Y-92052333D03*
X158245833Y-89785667D03*
X158245833Y-90919000D03*
X158245833Y-92052333D03*
%TD*%
D26*
%TO.C,C22*%
X163167500Y-94809000D03*
X163857500Y-94809000D03*
%TD*%
D27*
%TO.C,C27*%
X187352500Y-96906500D03*
X190052500Y-96906500D03*
%TD*%
D28*
%TO.C,C9*%
X154362500Y-73619000D03*
X154362500Y-72659000D03*
%TD*%
D29*
%TO.C,R2*%
X126062500Y-83742500D03*
X126062500Y-82722500D03*
%TD*%
D19*
%TO.C,R4*%
X135832500Y-100881500D03*
X135832500Y-101901500D03*
%TD*%
D29*
%TO.C,R3*%
X126062500Y-90092500D03*
X126062500Y-89072500D03*
%TD*%
%TO.C,R5*%
X145682500Y-73649000D03*
X145682500Y-72629000D03*
%TD*%
D19*
%TO.C,R8*%
X157937500Y-77632750D03*
X157937500Y-78652750D03*
%TD*%
D30*
%TO.C,C16*%
X159312500Y-84525250D03*
X160912500Y-84525250D03*
%TD*%
D16*
%TO.C,C5*%
X151057500Y-88719000D03*
X150367500Y-88719000D03*
%TD*%
D31*
%TO.C,C25*%
X184582500Y-94631500D03*
X183622500Y-94631500D03*
%TD*%
D32*
%TO.C,D3*%
X193483750Y-89417500D03*
X193483750Y-86117500D03*
%TD*%
D30*
%TO.C,C17*%
X159312500Y-82769000D03*
X160912500Y-82769000D03*
%TD*%
D33*
%TO.C,U1*%
X133300000Y-90092500D03*
X133300000Y-88822500D03*
X133300000Y-87552500D03*
X133300000Y-86282500D03*
X133300000Y-85012500D03*
X133300000Y-83742500D03*
X133300000Y-82472500D03*
X128350000Y-82472500D03*
X128350000Y-83742500D03*
X128350000Y-85012500D03*
X128350000Y-86282500D03*
X128350000Y-87552500D03*
X128350000Y-88822500D03*
X128350000Y-90092500D03*
%TD*%
D34*
%TO.C,R10*%
X158477500Y-100166500D03*
X159497500Y-100166500D03*
%TD*%
D28*
%TO.C,C4*%
X144730000Y-102829000D03*
X144730000Y-101869000D03*
%TD*%
D35*
%TO.C,C13*%
X157712500Y-84864000D03*
X157712500Y-84174000D03*
%TD*%
D21*
%TO.C,R13*%
X193312500Y-67094000D03*
X193312500Y-68744000D03*
%TD*%
D31*
%TO.C,C2*%
X133300000Y-91997500D03*
X132340000Y-91997500D03*
%TD*%
D36*
%TO.C,U7*%
X170432500Y-104260000D03*
X171082500Y-104260000D03*
X171732500Y-104260000D03*
X172382500Y-104260000D03*
X173032500Y-104260000D03*
X173682500Y-104260000D03*
X174332500Y-104260000D03*
X174332500Y-98535000D03*
X173682500Y-98535000D03*
X173032500Y-98535000D03*
X172382500Y-98535000D03*
X171732500Y-98535000D03*
X171082500Y-98535000D03*
X170432500Y-98535000D03*
%TD*%
D37*
%TO.C,C3*%
X144730000Y-99964000D03*
X144730000Y-100924000D03*
%TD*%
D28*
%TO.C,C8*%
X154362500Y-64729000D03*
X154362500Y-63769000D03*
%TD*%
D37*
%TO.C,C18*%
X161887500Y-102186500D03*
X161887500Y-103146500D03*
%TD*%
D21*
%TO.C,R14*%
X196712500Y-67094000D03*
X196712500Y-68744000D03*
%TD*%
D38*
%TO.C,L1*%
X159362500Y-80719000D03*
X160762500Y-80719000D03*
%TD*%
D26*
%TO.C,C19*%
X163167500Y-87294000D03*
X163857500Y-87294000D03*
%TD*%
D16*
%TO.C,C6*%
X151057500Y-90719000D03*
X150367500Y-90719000D03*
%TD*%
D35*
%TO.C,C11*%
X154912500Y-84864000D03*
X154912500Y-84174000D03*
%TD*%
D37*
%TO.C,C23*%
X168860000Y-98535000D03*
X168860000Y-99495000D03*
%TD*%
D10*
%TO.C,C12*%
X156512500Y-96974000D03*
X156512500Y-97664000D03*
%TD*%
D20*
%TO.C,D4*%
X196712500Y-64656500D03*
X196712500Y-62781500D03*
%TD*%
D39*
%TO.C,D1*%
X129172500Y-106732500D03*
X129172500Y-110032500D03*
%TD*%
D31*
%TO.C,C1*%
X126062500Y-87711250D03*
X125102500Y-87711250D03*
%TD*%
D18*
%TO.C,C26*%
X187822500Y-94631500D03*
X188782500Y-94631500D03*
%TD*%
D20*
%TO.C,D5*%
X200112500Y-64656500D03*
X200112500Y-62781500D03*
%TD*%
D26*
%TO.C,C21*%
X163167500Y-91294000D03*
X163857500Y-91294000D03*
%TD*%
D40*
%TO.C,U8*%
X182752500Y-92419000D03*
X185052500Y-92419000D03*
D41*
X185052500Y-86119000D03*
D40*
X187352500Y-92419000D03*
%TD*%
D42*
%TO.C,C24*%
X185052500Y-96906500D03*
X182352500Y-96906500D03*
%TD*%
D19*
%TO.C,R6*%
X147162500Y-63739000D03*
X147162500Y-64759000D03*
%TD*%
D14*
%TO.C,U3*%
X147162500Y-66789000D03*
X147162500Y-68059000D03*
X147162500Y-69329000D03*
X147162500Y-70599000D03*
X154362500Y-70599000D03*
X154362500Y-69329000D03*
X154362500Y-68059000D03*
X154362500Y-66789000D03*
%TD*%
D26*
%TO.C,C20*%
X163167500Y-90544000D03*
X163857500Y-90544000D03*
%TD*%
M02*
