M48
; DRILL file {KiCad 8.0.5} date 2024-11-14T03:50:50+0100
; FORMAT={-:-/ absolute / inch / decimal}
; #@! TF.CreationDate,2024-11-14T03:50:50+01:00
; #@! TF.GenerationSoftware,Kicad,Pcbnew,8.0.5
; #@! TF.FileFunction,Plated,1,4,PTH
FMAT,2
INCH
; #@! TA.AperFunction,Plated,PTH,ViaDrill
T1C0.0079
; #@! TA.AperFunction,Plated,PTH,ViaDrill
T2C0.0098
; #@! TA.AperFunction,Plated,PTH,ComponentDrill
T3C0.0098
; #@! TA.AperFunction,Plated,PTH,ViaDrill
T4C0.0118
; #@! TA.AperFunction,Plated,PTH,ViaDrill
T5C0.0236
; #@! TA.AperFunction,Plated,PTH,ComponentDrill
T6C0.0236
; #@! TA.AperFunction,Plated,PTH,ComponentDrill
T7C0.0256
; #@! TA.AperFunction,Plated,PTH,ComponentDrill
T8C0.0433
%
G90
G05
T1
X5.3256Y-3.3469
X5.3256Y-3.3969
X5.3256Y-3.4469
X5.398Y-4.367
X5.4105Y-4.2545
X5.473Y-4.292
X5.473Y-4.3295
X5.498Y-4.442
X5.573Y-4.4795
X5.598Y-4.3295
X5.6355Y-4.292
X5.6855Y-4.4045
X5.7064Y-2.9299
X5.7355Y-4.2545
X5.8568Y-2.9049
X5.8696Y-4.3295
X5.8814Y-4.442
X5.8824Y-3.4929
X5.8824Y-3.5716
X5.8824Y-3.6504
X5.9001Y-3.4929
X5.9001Y-3.5716
X5.9001Y-3.6504
X5.908Y-4.4045
X5.9572Y-3.4614
X5.973Y-4.4795
X5.9808Y-4.3295
X5.998Y-4.442
X6.0105Y-4.367
X6.0281Y-3.4378
X6.0281Y-3.4693
X6.0832Y-3.8649
X6.0832Y-3.8826
X6.0989Y-3.2763
X6.0989Y-3.2941
X6.1619Y-3.8649
X6.1619Y-3.8826
X6.1796Y-4.4795
X6.2092Y-3.2763
X6.2092Y-3.2941
X6.2127Y-3.8649
X6.2127Y-3.8826
X6.216Y-3.9672
X6.2328Y-3.737
X6.2355Y-4.3795
X6.2355Y-4.4795
X6.2485Y-3.8078
X6.2643Y-3.2901
X6.28Y-3.2901
X6.2855Y-4.367
X6.3355Y-4.442
X6.4355Y-4.4295
X6.4605Y-4.3982
X6.471Y-3.4368
X6.471Y-3.5647
X6.471Y-3.5943
X6.471Y-3.7326
X6.4855Y-4.3305
X6.4887Y-3.4368
X6.4887Y-3.5647
X6.4887Y-3.5943
X6.4887Y-3.7326
X6.5105Y-4.292
X6.5482Y-3.4417
X6.5802Y-3.4417
X6.5855Y-4.056
X6.598Y-4.4795
X6.6467Y-4.415
X6.7099Y-4.4143
X6.7611Y-4.056
X6.848Y-4.4143
X6.923Y-4.4795
X6.9929Y-4.4798
X7.148Y-4.4143
T2
X4.8879Y-3.3969
X4.9253Y-3.483
X4.9631Y-3.2218
X5.1131Y-3.4469
X5.1131Y-3.4969
X5.174Y-3.6219
X5.1881Y-3.5469
X5.3477Y-4.042
X5.4076Y-4.0558
X5.6123Y-3.8315
X5.6123Y-4.1545
X5.7355Y-3.9734
X5.7355Y-4.0106
X5.848Y-2.7795
X5.848Y-3.1295
X6.0281Y-3.5716
X6.0395Y-2.5174
X6.0395Y-2.5924
X6.0395Y-2.867
X6.0395Y-2.942
X6.1383Y-2.6295
X6.1383Y-2.9795
X6.2013Y-3.737
X6.2643Y-3.422
X6.3066Y-4.1404
X6.343Y-3.5637
X6.3666Y-3.2493
X6.3666Y-3.268
X6.3666Y-3.3184
X6.3666Y-3.3371
X6.3735Y-4.0892
X6.648Y-3.9482
X6.648Y-3.977
X6.7099Y-3.9281
X6.8635Y-4.056
X6.8635Y-4.2381
X7.5527Y-2.706
X7.687Y-2.706
T3
X6.1409Y-3.5349
X6.1409Y-3.5795
X6.1409Y-3.6241
X6.1855Y-3.5349
X6.1855Y-3.5795
X6.1855Y-3.6241
X6.2302Y-3.5349
X6.2302Y-3.5795
X6.2302Y-3.6241
T4
X4.9881Y-3.3469
X6.0674Y-3.5165
X6.0674Y-3.548
X6.1225Y-3.4614
X6.154Y-3.4614
X6.7099Y-3.3905
X7.2855Y-2.8684
X7.2855Y-2.9004
X7.2855Y-3.0923
X7.2855Y-3.1243
X7.6057Y-2.91
X7.6057Y-3.099
X7.6293Y-2.91
X7.6293Y-3.099
T5
X5.0855Y-4.392
X5.0855Y-4.442
X5.0855Y-4.492
X5.148Y-4.1545
X5.198Y-4.1545
X5.2355Y-4.317
X5.2355Y-4.3795
X5.2355Y-4.442
X5.248Y-4.1545
X5.3793Y-4.442
X7.1162Y-3.6385
X7.1713Y-3.7256
X7.1949Y-3.5519
X7.4385Y-3.6385
X7.4885Y-3.6385
X7.4922Y-3.7256
X7.5385Y-3.6385
X7.6175Y-3.2316
X7.6175Y-3.2788
X7.6175Y-3.326
T7
X6.5105Y-3.817
X6.5105Y-3.867
X6.5105Y-3.917
T8
X4.8201Y-2.9159
X4.8201Y-3.0931
X5.076Y-2.9159
X5.076Y-3.0931
T6
G00X7.6908Y-2.8344
M15
G01X7.7342Y-2.8344
M16
G05
G00X7.6908Y-3.1746
M15
G01X7.7342Y-3.1746
M16
G05
G00X7.8621Y-2.8344
M15
G01X7.8936Y-2.8344
M16
G05
G00X7.8621Y-3.1746
M15
G01X7.8936Y-3.1746
M16
G05
M30
