%TF.GenerationSoftware,KiCad,Pcbnew,8.0.4*%
%TF.CreationDate,2024-09-04T03:30:15+02:00*%
%TF.ProjectId,Pico2-MSX,5069636f-322d-44d5-9358-2e6b69636164,rev?*%
%TF.SameCoordinates,Original*%
%TF.FileFunction,Soldermask,Top*%
%TF.FilePolarity,Negative*%
%FSLAX46Y46*%
G04 Gerber Fmt 4.6, Leading zero omitted, Abs format (unit mm)*
G04 Created by KiCad (PCBNEW 8.0.4) date 2024-09-04 03:30:15*
%MOMM*%
%LPD*%
G01*
G04 APERTURE LIST*
G04 Aperture macros list*
%AMRoundRect*
0 Rectangle with rounded corners*
0 $1 Rounding radius*
0 $2 $3 $4 $5 $6 $7 $8 $9 X,Y pos of 4 corners*
0 Add a 4 corners polygon primitive as box body*
4,1,4,$2,$3,$4,$5,$6,$7,$8,$9,$2,$3,0*
0 Add four circle primitives for the rounded corners*
1,1,$1+$1,$2,$3*
1,1,$1+$1,$4,$5*
1,1,$1+$1,$6,$7*
1,1,$1+$1,$8,$9*
0 Add four rect primitives between the rounded corners*
20,1,$1+$1,$2,$3,$4,$5,0*
20,1,$1+$1,$4,$5,$6,$7,0*
20,1,$1+$1,$6,$7,$8,$9,0*
20,1,$1+$1,$8,$9,$2,$3,0*%
G04 Aperture macros list end*
%ADD10C,0.120000*%
%ADD11RoundRect,0.100000X-0.100000X0.130000X-0.100000X-0.130000X0.100000X-0.130000X0.100000X0.130000X0*%
%ADD12C,2.500000*%
%ADD13C,0.650000*%
%ADD14R,1.240000X0.600000*%
%ADD15R,1.240000X0.300000*%
%ADD16O,2.100000X1.000000*%
%ADD17O,1.800000X1.000000*%
%ADD18RoundRect,0.135000X0.135000X0.185000X-0.135000X0.185000X-0.135000X-0.185000X0.135000X-0.185000X0*%
%ADD19RoundRect,0.150000X-0.650000X-0.150000X0.650000X-0.150000X0.650000X0.150000X-0.650000X0.150000X0*%
%ADD20RoundRect,0.100000X-0.100000X0.637500X-0.100000X-0.637500X0.100000X-0.637500X0.100000X0.637500X0*%
%ADD21RoundRect,0.100000X0.130000X0.100000X-0.130000X0.100000X-0.130000X-0.100000X0.130000X-0.100000X0*%
%ADD22R,1.400000X1.200000*%
%ADD23RoundRect,0.140000X-0.140000X-0.170000X0.140000X-0.170000X0.140000X0.170000X-0.140000X0.170000X0*%
%ADD24RoundRect,0.135000X-0.185000X0.135000X-0.185000X-0.135000X0.185000X-0.135000X0.185000X0.135000X0*%
%ADD25RoundRect,0.243750X0.456250X-0.243750X0.456250X0.243750X-0.456250X0.243750X-0.456250X-0.243750X0*%
%ADD26RoundRect,0.200000X-0.275000X0.200000X-0.275000X-0.200000X0.275000X-0.200000X0.275000X0.200000X0*%
%ADD27RoundRect,0.055000X0.335000X-0.055000X0.335000X0.055000X-0.335000X0.055000X-0.335000X-0.055000X0*%
%ADD28RoundRect,0.055000X-0.055000X-0.335000X0.055000X-0.335000X0.055000X0.335000X-0.055000X0.335000X0*%
%ADD29C,0.600000*%
%ADD30R,1.133333X1.133333*%
%ADD31RoundRect,0.100000X-0.130000X-0.100000X0.130000X-0.100000X0.130000X0.100000X-0.130000X0.100000X0*%
%ADD32RoundRect,0.250000X-0.450000X-0.425000X0.450000X-0.425000X0.450000X0.425000X-0.450000X0.425000X0*%
%ADD33RoundRect,0.140000X0.170000X-0.140000X0.170000X0.140000X-0.170000X0.140000X-0.170000X-0.140000X0*%
%ADD34RoundRect,0.375000X-0.375000X-4.625000X0.375000X-4.625000X0.375000X4.625000X-0.375000X4.625000X0*%
%ADD35RoundRect,0.375000X-0.375000X-4.125000X0.375000X-4.125000X0.375000X4.125000X-0.375000X4.125000X0*%
%ADD36C,1.000000*%
%ADD37O,1.000000X1.000000*%
%ADD38RoundRect,0.135000X0.185000X-0.135000X0.185000X0.135000X-0.185000X0.135000X-0.185000X-0.135000X0*%
%ADD39RoundRect,0.225000X-0.225000X-0.250000X0.225000X-0.250000X0.225000X0.250000X-0.225000X0.250000X0*%
%ADD40RoundRect,0.140000X0.140000X0.170000X-0.140000X0.170000X-0.140000X-0.170000X0.140000X-0.170000X0*%
%ADD41RoundRect,0.225000X0.375000X-0.225000X0.375000X0.225000X-0.375000X0.225000X-0.375000X-0.225000X0*%
%ADD42RoundRect,0.150000X0.825000X0.150000X-0.825000X0.150000X-0.825000X-0.150000X0.825000X-0.150000X0*%
%ADD43RoundRect,0.135000X-0.135000X-0.185000X0.135000X-0.185000X0.135000X0.185000X-0.135000X0.185000X0*%
%ADD44RoundRect,0.100000X0.100000X-0.130000X0.100000X0.130000X-0.100000X0.130000X-0.100000X-0.130000X0*%
%ADD45RoundRect,0.100000X0.100000X-0.637500X0.100000X0.637500X-0.100000X0.637500X-0.100000X-0.637500X0*%
%ADD46RoundRect,0.140000X-0.170000X0.140000X-0.170000X-0.140000X0.170000X-0.140000X0.170000X0.140000X0*%
%ADD47RoundRect,0.250000X-0.375000X-0.850000X0.375000X-0.850000X0.375000X0.850000X-0.375000X0.850000X0*%
%ADD48RoundRect,0.225000X-0.375000X0.225000X-0.375000X-0.225000X0.375000X-0.225000X0.375000X0.225000X0*%
%ADD49RoundRect,0.375000X0.375000X-0.625000X0.375000X0.625000X-0.375000X0.625000X-0.375000X-0.625000X0*%
%ADD50RoundRect,0.500000X1.400000X-0.500000X1.400000X0.500000X-1.400000X0.500000X-1.400000X-0.500000X0*%
%ADD51RoundRect,0.250000X0.450000X0.425000X-0.450000X0.425000X-0.450000X-0.425000X0.450000X-0.425000X0*%
%ADD52C,2.000000*%
G04 APERTURE END LIST*
%TO.C,U5*%
D10*
X73126500Y-104873500D02*
X138658500Y-104873500D01*
X138658500Y-114073500D01*
X73126500Y-114073500D01*
X73126500Y-104873500D01*
G36*
X73126500Y-104873500D02*
G01*
X138658500Y-104873500D01*
X138658500Y-114073500D01*
X73126500Y-114073500D01*
X73126500Y-104873500D01*
G37*
%TD*%
D11*
%TO.C,C14*%
X107852500Y-85499000D03*
X107852500Y-86139000D03*
%TD*%
D12*
%TO.C,TP1*%
X72143750Y-72231500D03*
%TD*%
D11*
%TO.C,C10*%
X104562500Y-85499000D03*
X104562500Y-86139000D03*
%TD*%
D13*
%TO.C,J2*%
X146467500Y-67504000D03*
X146467500Y-61724000D03*
D14*
X145347500Y-67814000D03*
X145347500Y-67014000D03*
D15*
X145347500Y-65864000D03*
X145347500Y-64864000D03*
X145347500Y-64364000D03*
X145347500Y-63364000D03*
D14*
X145347500Y-62214000D03*
X145347500Y-61414000D03*
X145347500Y-61414000D03*
X145347500Y-62214000D03*
D15*
X145347500Y-62864000D03*
X145347500Y-63864000D03*
X145347500Y-65364000D03*
X145347500Y-66364000D03*
D14*
X145347500Y-67014000D03*
X145347500Y-67814000D03*
D16*
X145947500Y-68934000D03*
D17*
X150147500Y-68934000D03*
D16*
X145947500Y-60294000D03*
D17*
X150147500Y-60294000D03*
%TD*%
D18*
%TO.C,R12*%
X142280000Y-65864000D03*
X141260000Y-65864000D03*
%TD*%
D19*
%TO.C,U4*%
X97212500Y-63979000D03*
X97212500Y-65249000D03*
X97212500Y-66519000D03*
X97212500Y-67789000D03*
X104412500Y-67789000D03*
X104412500Y-66519000D03*
X104412500Y-65249000D03*
X104412500Y-63979000D03*
%TD*%
D20*
%TO.C,U2*%
X93252500Y-86829000D03*
X92602500Y-86829000D03*
X91952500Y-86829000D03*
X91302500Y-86829000D03*
X90652500Y-86829000D03*
X90002500Y-86829000D03*
X89352500Y-86829000D03*
X88702500Y-86829000D03*
X88052500Y-86829000D03*
X87402500Y-86829000D03*
X87402500Y-92554000D03*
X88052500Y-92554000D03*
X88702500Y-92554000D03*
X89352500Y-92554000D03*
X90002500Y-92554000D03*
X90652500Y-92554000D03*
X91302500Y-92554000D03*
X91952500Y-92554000D03*
X92602500Y-92554000D03*
X93252500Y-92554000D03*
%TD*%
D21*
%TO.C,C7*%
X100882500Y-81019000D03*
X100242500Y-81019000D03*
%TD*%
D18*
%TO.C,R11*%
X142280000Y-62867750D03*
X141260000Y-62867750D03*
%TD*%
%TO.C,R1*%
X76112500Y-74582500D03*
X75092500Y-74582500D03*
%TD*%
D22*
%TO.C,Y1*%
X107937500Y-91816500D03*
X110137500Y-91816500D03*
X110137500Y-90116500D03*
X107937500Y-90116500D03*
%TD*%
D23*
%TO.C,C15*%
X108557500Y-93466500D03*
X109517500Y-93466500D03*
%TD*%
D24*
%TO.C,R9*%
X108962500Y-65932750D03*
X108962500Y-66952750D03*
%TD*%
D25*
%TO.C,D2*%
X143362500Y-52956500D03*
X143362500Y-51081500D03*
%TD*%
D24*
%TO.C,R7*%
X97212500Y-60929000D03*
X97212500Y-61949000D03*
%TD*%
D26*
%TO.C,R15*%
X150162500Y-55394000D03*
X150162500Y-57044000D03*
%TD*%
D27*
%TO.C,U6*%
X102266000Y-75419000D03*
X102266000Y-75819000D03*
X102266000Y-76219000D03*
X102266000Y-76619000D03*
X102266000Y-77019000D03*
X102266000Y-77419000D03*
X102266000Y-77819000D03*
X102266000Y-78219000D03*
X102266000Y-78619000D03*
X102266000Y-79019000D03*
X102266000Y-79419000D03*
X102266000Y-79819000D03*
X102266000Y-80219000D03*
X102266000Y-80619000D03*
X102266000Y-81019000D03*
X102266000Y-81419000D03*
X102266000Y-81819000D03*
X102266000Y-82219000D03*
X102266000Y-82619000D03*
X102266000Y-83019000D03*
D28*
X103362500Y-84115500D03*
X103762500Y-84115500D03*
X104162500Y-84115500D03*
X104562500Y-84115500D03*
X104962500Y-84115500D03*
X105362500Y-84115500D03*
X105762500Y-84115500D03*
X106162500Y-84115500D03*
X106562500Y-84115500D03*
X106962500Y-84115500D03*
X107362500Y-84115500D03*
X107762500Y-84115500D03*
X108162500Y-84115500D03*
X108562500Y-84115500D03*
X108962500Y-84115500D03*
X109362500Y-84115500D03*
X109762500Y-84115500D03*
X110162500Y-84115500D03*
X110562500Y-84115500D03*
X110962500Y-84115500D03*
D27*
X112059000Y-83019000D03*
X112059000Y-82619000D03*
X112059000Y-82219000D03*
X112059000Y-81819000D03*
X112059000Y-81419000D03*
X112059000Y-81019000D03*
X112059000Y-80619000D03*
X112059000Y-80219000D03*
X112059000Y-79819000D03*
X112059000Y-79419000D03*
X112059000Y-79019000D03*
X112059000Y-78619000D03*
X112059000Y-78219000D03*
X112059000Y-77819000D03*
X112059000Y-77419000D03*
X112059000Y-77019000D03*
X112059000Y-76619000D03*
X112059000Y-76219000D03*
X112059000Y-75819000D03*
X112059000Y-75419000D03*
D28*
X110962500Y-74322500D03*
X110562500Y-74322500D03*
X110162500Y-74322500D03*
X109762500Y-74322500D03*
X109362500Y-74322500D03*
X108962500Y-74322500D03*
X108562500Y-74322500D03*
X108162500Y-74322500D03*
X107762500Y-74322500D03*
X107362500Y-74322500D03*
X106962500Y-74322500D03*
X106562500Y-74322500D03*
X106162500Y-74322500D03*
X105762500Y-74322500D03*
X105362500Y-74322500D03*
X104962500Y-74322500D03*
X104562500Y-74322500D03*
X104162500Y-74322500D03*
X103762500Y-74322500D03*
X103362500Y-74322500D03*
D29*
X106029167Y-78085667D03*
D30*
X106029167Y-78085667D03*
D29*
X106029167Y-79219000D03*
D30*
X106029167Y-79219000D03*
D29*
X106029167Y-80352333D03*
D30*
X106029167Y-80352333D03*
D29*
X107162500Y-78085667D03*
D30*
X107162500Y-78085667D03*
D29*
X107162500Y-79219000D03*
D30*
X107162500Y-79219000D03*
D29*
X107162500Y-80352333D03*
D30*
X107162500Y-80352333D03*
D29*
X108295833Y-78085667D03*
D30*
X108295833Y-78085667D03*
D29*
X108295833Y-79219000D03*
D30*
X108295833Y-79219000D03*
D29*
X108295833Y-80352333D03*
D30*
X108295833Y-80352333D03*
%TD*%
D31*
%TO.C,C22*%
X113442500Y-83109000D03*
X114082500Y-83109000D03*
%TD*%
D32*
%TO.C,C27*%
X137402500Y-85206500D03*
X140102500Y-85206500D03*
%TD*%
D33*
%TO.C,C9*%
X104412500Y-61919000D03*
X104412500Y-60959000D03*
%TD*%
D34*
%TO.C,U5*%
X136372500Y-108746500D03*
X133832500Y-108746500D03*
X131292500Y-108746500D03*
X128752500Y-108746500D03*
X126212500Y-108746500D03*
X123672500Y-108746500D03*
X121132500Y-108746500D03*
X118592500Y-108746500D03*
X116052500Y-108746500D03*
X113512500Y-108746500D03*
X110972500Y-108746500D03*
X108432500Y-108746500D03*
X105892500Y-108746500D03*
X103352500Y-108746500D03*
X100812500Y-108746500D03*
X98272500Y-108746500D03*
X95732500Y-108746500D03*
X93192500Y-108746500D03*
X90652500Y-108746500D03*
X88112500Y-108746500D03*
X85572500Y-108746500D03*
D35*
X83032500Y-108246500D03*
D34*
X80492500Y-108746500D03*
X77952500Y-108746500D03*
X75412500Y-108746500D03*
%TD*%
D36*
%TO.C,J1*%
X115417500Y-85251500D03*
D37*
X115417500Y-86521500D03*
X115417500Y-87791500D03*
%TD*%
D38*
%TO.C,R2*%
X76112500Y-72042500D03*
X76112500Y-71022500D03*
%TD*%
D24*
%TO.C,R4*%
X85882500Y-89181500D03*
X85882500Y-90201500D03*
%TD*%
D38*
%TO.C,R3*%
X76112500Y-78392500D03*
X76112500Y-77372500D03*
%TD*%
%TO.C,R5*%
X95732500Y-61949000D03*
X95732500Y-60929000D03*
%TD*%
D24*
%TO.C,R8*%
X108012500Y-65932750D03*
X108012500Y-66952750D03*
%TD*%
D39*
%TO.C,C16*%
X109512500Y-72805250D03*
X111062500Y-72805250D03*
%TD*%
D21*
%TO.C,C5*%
X100882500Y-77019000D03*
X100242500Y-77019000D03*
%TD*%
D40*
%TO.C,C25*%
X134632500Y-82931500D03*
X133672500Y-82931500D03*
%TD*%
D41*
%TO.C,D3*%
X143533750Y-77447750D03*
X143533750Y-74147750D03*
%TD*%
D39*
%TO.C,C17*%
X110087500Y-71255250D03*
X111637500Y-71255250D03*
%TD*%
D42*
%TO.C,U1*%
X83350000Y-78392500D03*
X83350000Y-77122500D03*
X83350000Y-75852500D03*
X83350000Y-74582500D03*
X83350000Y-73312500D03*
X83350000Y-72042500D03*
X83350000Y-70772500D03*
X78400000Y-70772500D03*
X78400000Y-72042500D03*
X78400000Y-73312500D03*
X78400000Y-74582500D03*
X78400000Y-75852500D03*
X78400000Y-77122500D03*
X78400000Y-78392500D03*
%TD*%
D43*
%TO.C,R10*%
X108527500Y-88466500D03*
X109547500Y-88466500D03*
%TD*%
D33*
%TO.C,C4*%
X94780000Y-91129000D03*
X94780000Y-90169000D03*
%TD*%
D12*
%TO.C,TP2*%
X72143750Y-78392500D03*
%TD*%
D44*
%TO.C,C13*%
X107762500Y-72939000D03*
X107762500Y-72299000D03*
%TD*%
D26*
%TO.C,R13*%
X143362500Y-55394000D03*
X143362500Y-57044000D03*
%TD*%
D40*
%TO.C,C2*%
X83350000Y-80297500D03*
X82390000Y-80297500D03*
%TD*%
D45*
%TO.C,U7*%
X120482500Y-92560000D03*
X121132500Y-92560000D03*
X121782500Y-92560000D03*
X122432500Y-92560000D03*
X123082500Y-92560000D03*
X123732500Y-92560000D03*
X124382500Y-92560000D03*
X124382500Y-86835000D03*
X123732500Y-86835000D03*
X123082500Y-86835000D03*
X122432500Y-86835000D03*
X121782500Y-86835000D03*
X121132500Y-86835000D03*
X120482500Y-86835000D03*
%TD*%
D46*
%TO.C,C3*%
X94780000Y-88264000D03*
X94780000Y-89224000D03*
%TD*%
D33*
%TO.C,C8*%
X104412500Y-53029000D03*
X104412500Y-52069000D03*
%TD*%
D46*
%TO.C,C18*%
X111937500Y-90486500D03*
X111937500Y-91446500D03*
%TD*%
D26*
%TO.C,R14*%
X146762500Y-55394000D03*
X146762500Y-57044000D03*
%TD*%
D47*
%TO.C,L1*%
X109897500Y-69055250D03*
X112047500Y-69055250D03*
%TD*%
D31*
%TO.C,C19*%
X113442500Y-75594000D03*
X114082500Y-75594000D03*
%TD*%
D21*
%TO.C,C6*%
X100882500Y-79019000D03*
X100242500Y-79019000D03*
%TD*%
D44*
%TO.C,C11*%
X104962500Y-72939000D03*
X104962500Y-72299000D03*
%TD*%
D46*
%TO.C,C23*%
X118910000Y-86835000D03*
X118910000Y-87795000D03*
%TD*%
D11*
%TO.C,C12*%
X106562500Y-85499000D03*
X106562500Y-86139000D03*
%TD*%
D25*
%TO.C,D4*%
X146762500Y-52956500D03*
X146762500Y-51081500D03*
%TD*%
D48*
%TO.C,D1*%
X79222500Y-95032500D03*
X79222500Y-98332500D03*
%TD*%
D40*
%TO.C,C1*%
X76112500Y-76011250D03*
X75152500Y-76011250D03*
%TD*%
D23*
%TO.C,C26*%
X137872500Y-82931500D03*
X138832500Y-82931500D03*
%TD*%
D25*
%TO.C,D5*%
X150162500Y-52956500D03*
X150162500Y-51081500D03*
%TD*%
D31*
%TO.C,C21*%
X113442500Y-79594000D03*
X114082500Y-79594000D03*
%TD*%
D49*
%TO.C,U8*%
X132802500Y-80719000D03*
X135102500Y-80719000D03*
D50*
X135102500Y-74419000D03*
D49*
X137402500Y-80719000D03*
%TD*%
D51*
%TO.C,C24*%
X135102500Y-85206500D03*
X132402500Y-85206500D03*
%TD*%
D24*
%TO.C,R6*%
X97212500Y-52039000D03*
X97212500Y-53059000D03*
%TD*%
D19*
%TO.C,U3*%
X97212500Y-55089000D03*
X97212500Y-56359000D03*
X97212500Y-57629000D03*
X97212500Y-58899000D03*
X104412500Y-58899000D03*
X104412500Y-57629000D03*
X104412500Y-56359000D03*
X104412500Y-55089000D03*
%TD*%
D31*
%TO.C,C20*%
X113442500Y-78844000D03*
X114082500Y-78844000D03*
%TD*%
D52*
%TO.C,SW1*%
X72480000Y-66864000D03*
X78980000Y-66864000D03*
X72480000Y-62364000D03*
X78980000Y-62364000D03*
%TD*%
M02*
