%TF.GenerationSoftware,KiCad,Pcbnew,8.0.4*%
%TF.CreationDate,2024-09-04T03:30:15+02:00*%
%TF.ProjectId,Pico2-MSX,5069636f-322d-44d5-9358-2e6b69636164,rev?*%
%TF.SameCoordinates,Original*%
%TF.FileFunction,Soldermask,Bot*%
%TF.FilePolarity,Negative*%
%FSLAX46Y46*%
G04 Gerber Fmt 4.6, Leading zero omitted, Abs format (unit mm)*
G04 Created by KiCad (PCBNEW 8.0.4) date 2024-09-04 03:30:15*
%MOMM*%
%LPD*%
G01*
G04 APERTURE LIST*
G04 Aperture macros list*
%AMRoundRect*
0 Rectangle with rounded corners*
0 $1 Rounding radius*
0 $2 $3 $4 $5 $6 $7 $8 $9 X,Y pos of 4 corners*
0 Add a 4 corners polygon primitive as box body*
4,1,4,$2,$3,$4,$5,$6,$7,$8,$9,$2,$3,0*
0 Add four circle primitives for the rounded corners*
1,1,$1+$1,$2,$3*
1,1,$1+$1,$4,$5*
1,1,$1+$1,$6,$7*
1,1,$1+$1,$8,$9*
0 Add four rect primitives between the rounded corners*
20,1,$1+$1,$2,$3,$4,$5,0*
20,1,$1+$1,$4,$5,$6,$7,0*
20,1,$1+$1,$6,$7,$8,$9,0*
20,1,$1+$1,$8,$9,$2,$3,0*%
G04 Aperture macros list end*
%ADD10C,0.120000*%
%ADD11C,0.650000*%
%ADD12O,2.100000X1.000000*%
%ADD13O,1.800000X1.000000*%
%ADD14C,0.600000*%
%ADD15RoundRect,0.375000X-0.375000X-4.625000X0.375000X-4.625000X0.375000X4.625000X-0.375000X4.625000X0*%
%ADD16C,1.000000*%
%ADD17O,1.000000X1.000000*%
%ADD18C,2.500000*%
%ADD19C,2.000000*%
G04 APERTURE END LIST*
%TO.C,U5*%
D10*
X73126500Y-104873500D02*
X138658500Y-104873500D01*
X138658500Y-114073500D01*
X73126500Y-114073500D01*
X73126500Y-104873500D01*
G36*
X73126500Y-104873500D02*
G01*
X138658500Y-104873500D01*
X138658500Y-114073500D01*
X73126500Y-114073500D01*
X73126500Y-104873500D01*
G37*
%TD*%
D11*
%TO.C,J2*%
X146467500Y-67504000D03*
X146467500Y-61724000D03*
D12*
X145947500Y-68934000D03*
D13*
X150147500Y-68934000D03*
D12*
X145947500Y-60294000D03*
D13*
X150147500Y-60294000D03*
%TD*%
D14*
%TO.C,U6*%
X106029167Y-78085667D03*
X106029167Y-79219000D03*
X106029167Y-80352333D03*
X107162500Y-78085667D03*
X107162500Y-79219000D03*
X107162500Y-80352333D03*
X108295833Y-78085667D03*
X108295833Y-79219000D03*
X108295833Y-80352333D03*
%TD*%
D15*
%TO.C,U5*%
X136372500Y-108746500D03*
X133832500Y-108746500D03*
X131292500Y-108746500D03*
X128752500Y-108746500D03*
X126212500Y-108746500D03*
X123672500Y-108746500D03*
X121132500Y-108746500D03*
X118592500Y-108746500D03*
X116052500Y-108746500D03*
X113512500Y-108746500D03*
X110972500Y-108746500D03*
X108432500Y-108746500D03*
X105892500Y-108746500D03*
X103352500Y-108746500D03*
X100812500Y-108746500D03*
X98272500Y-108746500D03*
X95732500Y-108746500D03*
X93192500Y-108746500D03*
X90652500Y-108746500D03*
X88112500Y-108746500D03*
X85572500Y-108746500D03*
X83032500Y-108746500D03*
X80492500Y-108746500D03*
X77952500Y-108746500D03*
X75412500Y-108746500D03*
%TD*%
D16*
%TO.C,J1*%
X115417500Y-85251500D03*
D17*
X115417500Y-86521500D03*
X115417500Y-87791500D03*
%TD*%
D18*
%TO.C,TP3*%
X109262500Y-73405250D03*
%TD*%
D19*
%TO.C,SW1*%
X72480000Y-66864000D03*
X78980000Y-66864000D03*
X72480000Y-62364000D03*
X78980000Y-62364000D03*
%TD*%
M02*
