%TF.GenerationSoftware,KiCad,Pcbnew,8.0.4*%
%TF.CreationDate,2024-09-04T03:30:15+02:00*%
%TF.ProjectId,Pico2-MSX,5069636f-322d-44d5-9358-2e6b69636164,rev?*%
%TF.SameCoordinates,Original*%
%TF.FileFunction,Legend,Bot*%
%TF.FilePolarity,Positive*%
%FSLAX46Y46*%
G04 Gerber Fmt 4.6, Leading zero omitted, Abs format (unit mm)*
G04 Created by KiCad (PCBNEW 8.0.4) date 2024-09-04 03:30:15*
%MOMM*%
%LPD*%
G01*
G04 APERTURE LIST*
G04 Aperture macros list*
%AMRoundRect*
0 Rectangle with rounded corners*
0 $1 Rounding radius*
0 $2 $3 $4 $5 $6 $7 $8 $9 X,Y pos of 4 corners*
0 Add a 4 corners polygon primitive as box body*
4,1,4,$2,$3,$4,$5,$6,$7,$8,$9,$2,$3,0*
0 Add four circle primitives for the rounded corners*
1,1,$1+$1,$2,$3*
1,1,$1+$1,$4,$5*
1,1,$1+$1,$6,$7*
1,1,$1+$1,$8,$9*
0 Add four rect primitives between the rounded corners*
20,1,$1+$1,$2,$3,$4,$5,0*
20,1,$1+$1,$4,$5,$6,$7,0*
20,1,$1+$1,$6,$7,$8,$9,0*
20,1,$1+$1,$8,$9,$2,$3,0*%
G04 Aperture macros list end*
%ADD10C,0.000000*%
%ADD11C,2.125000*%
%ADD12C,0.400000*%
%ADD13C,0.500000*%
%ADD14C,0.150000*%
%ADD15C,0.120000*%
%ADD16C,0.650000*%
%ADD17O,2.100000X1.000000*%
%ADD18O,1.800000X1.000000*%
%ADD19C,0.600000*%
%ADD20RoundRect,0.375000X-0.375000X-4.625000X0.375000X-4.625000X0.375000X4.625000X-0.375000X4.625000X0*%
%ADD21C,1.000000*%
%ADD22O,1.000000X1.000000*%
%ADD23C,2.500000*%
%ADD24C,2.000000*%
G04 APERTURE END LIST*
D10*
G36*
X138628102Y-78160746D02*
G01*
X138666203Y-78162787D01*
X138703009Y-78166259D01*
X138738534Y-78171221D01*
X138772790Y-78177731D01*
X138805788Y-78185846D01*
X138837543Y-78195626D01*
X138868065Y-78207128D01*
X138897368Y-78220411D01*
X138925464Y-78235532D01*
X138952366Y-78252549D01*
X138978085Y-78271521D01*
X139002635Y-78292507D01*
X139026027Y-78315563D01*
X139048275Y-78340748D01*
X139069390Y-78368121D01*
X138844522Y-78539572D01*
X138839722Y-78532084D01*
X138834795Y-78524905D01*
X138829731Y-78518028D01*
X138824519Y-78511450D01*
X138819148Y-78505165D01*
X138813608Y-78499170D01*
X138807886Y-78493459D01*
X138801974Y-78488028D01*
X138795859Y-78482873D01*
X138789532Y-78477989D01*
X138782981Y-78473370D01*
X138776195Y-78469014D01*
X138769165Y-78464915D01*
X138761878Y-78461068D01*
X138754324Y-78457469D01*
X138746493Y-78454114D01*
X138738374Y-78450997D01*
X138729955Y-78448115D01*
X138721227Y-78445463D01*
X138712178Y-78443035D01*
X138702797Y-78440828D01*
X138693074Y-78438837D01*
X138682998Y-78437057D01*
X138672558Y-78435484D01*
X138650544Y-78432940D01*
X138626945Y-78431169D01*
X138601675Y-78430133D01*
X138574647Y-78429795D01*
X138537551Y-78430367D01*
X138503175Y-78432119D01*
X138471476Y-78435109D01*
X138442407Y-78439394D01*
X138415924Y-78445031D01*
X138391980Y-78452077D01*
X138370532Y-78460589D01*
X138360730Y-78465413D01*
X138351534Y-78470624D01*
X138342939Y-78476231D01*
X138334940Y-78482240D01*
X138327530Y-78488659D01*
X138320705Y-78495494D01*
X138314458Y-78502752D01*
X138308784Y-78510441D01*
X138303678Y-78518569D01*
X138299133Y-78527141D01*
X138295143Y-78536165D01*
X138291704Y-78545649D01*
X138288810Y-78555599D01*
X138286455Y-78566023D01*
X138284632Y-78576927D01*
X138283338Y-78588320D01*
X138282309Y-78612596D01*
X138282309Y-78761582D01*
X138678707Y-78761582D01*
X138706994Y-78762146D01*
X138734407Y-78763817D01*
X138760943Y-78766567D01*
X138786602Y-78770366D01*
X138811382Y-78775184D01*
X138835281Y-78780993D01*
X138858298Y-78787762D01*
X138880432Y-78795463D01*
X138901679Y-78804066D01*
X138922041Y-78813542D01*
X138941513Y-78823860D01*
X138960096Y-78834993D01*
X138977787Y-78846910D01*
X138994586Y-78859582D01*
X139010489Y-78872980D01*
X139025497Y-78887075D01*
X139039607Y-78901836D01*
X139052818Y-78917235D01*
X139065128Y-78933241D01*
X139076536Y-78949827D01*
X139087040Y-78966962D01*
X139096639Y-78984617D01*
X139105331Y-79002763D01*
X139113115Y-79021370D01*
X139119988Y-79040409D01*
X139125951Y-79059850D01*
X139131000Y-79079664D01*
X139135134Y-79099822D01*
X139138353Y-79120294D01*
X139140654Y-79141051D01*
X139142035Y-79162064D01*
X139142496Y-79183303D01*
X139141954Y-79206321D01*
X139140335Y-79228969D01*
X139137649Y-79251224D01*
X139133905Y-79273062D01*
X139129113Y-79294459D01*
X139123283Y-79315391D01*
X139116425Y-79335836D01*
X139108548Y-79355769D01*
X139099663Y-79375166D01*
X139089778Y-79394004D01*
X139078904Y-79412260D01*
X139067051Y-79429909D01*
X139054228Y-79446928D01*
X139040445Y-79463293D01*
X139025712Y-79478980D01*
X139010039Y-79493966D01*
X138993435Y-79508228D01*
X138975910Y-79521741D01*
X138957474Y-79534482D01*
X138938136Y-79546427D01*
X138917907Y-79557552D01*
X138896796Y-79567834D01*
X138874813Y-79577250D01*
X138851968Y-79585775D01*
X138828271Y-79593385D01*
X138803730Y-79600058D01*
X138778357Y-79605769D01*
X138752160Y-79610494D01*
X138725150Y-79614211D01*
X138697336Y-79616895D01*
X138668729Y-79618523D01*
X138639337Y-79619071D01*
X138604070Y-79618542D01*
X138570960Y-79616948D01*
X138539926Y-79614276D01*
X138510885Y-79610512D01*
X138483755Y-79605645D01*
X138458454Y-79599662D01*
X138434899Y-79592549D01*
X138413009Y-79584295D01*
X138392702Y-79574887D01*
X138373894Y-79564311D01*
X138356504Y-79552556D01*
X138340449Y-79539608D01*
X138325649Y-79525456D01*
X138312019Y-79510085D01*
X138299478Y-79493484D01*
X138287944Y-79475640D01*
X138282309Y-79475640D01*
X138282307Y-79602164D01*
X137995525Y-79602164D01*
X137995525Y-79101705D01*
X137995525Y-78997644D01*
X138282307Y-78997644D01*
X138282307Y-79101705D01*
X138282548Y-79121962D01*
X138283280Y-79141096D01*
X138284519Y-79159140D01*
X138286276Y-79176123D01*
X138288567Y-79192079D01*
X138291404Y-79207038D01*
X138294803Y-79221032D01*
X138298777Y-79234091D01*
X138303339Y-79246249D01*
X138308505Y-79257535D01*
X138314287Y-79267982D01*
X138320699Y-79277621D01*
X138327755Y-79286484D01*
X138335470Y-79294601D01*
X138343857Y-79302004D01*
X138352931Y-79308725D01*
X138362704Y-79314795D01*
X138373191Y-79320246D01*
X138384405Y-79325109D01*
X138396362Y-79329415D01*
X138409074Y-79333196D01*
X138422555Y-79336483D01*
X138436820Y-79339308D01*
X138451882Y-79341702D01*
X138484452Y-79345323D01*
X138520379Y-79347599D01*
X138559772Y-79348780D01*
X138602743Y-79349117D01*
X138637744Y-79348147D01*
X138670040Y-79345305D01*
X138699693Y-79340701D01*
X138726764Y-79334442D01*
X138739351Y-79330725D01*
X138751316Y-79326634D01*
X138762666Y-79322183D01*
X138773409Y-79317385D01*
X138783553Y-79312254D01*
X138793106Y-79306802D01*
X138802075Y-79301044D01*
X138810468Y-79294993D01*
X138818292Y-79288663D01*
X138825556Y-79282065D01*
X138832267Y-79275215D01*
X138838433Y-79268126D01*
X138844061Y-79260810D01*
X138849160Y-79253282D01*
X138853736Y-79245554D01*
X138857798Y-79237641D01*
X138864409Y-79221310D01*
X138869055Y-79204397D01*
X138871798Y-79187009D01*
X138872698Y-79169253D01*
X138872467Y-79159605D01*
X138871773Y-79150177D01*
X138870613Y-79140974D01*
X138868985Y-79132002D01*
X138866888Y-79123267D01*
X138864319Y-79114774D01*
X138861277Y-79106529D01*
X138857758Y-79098538D01*
X138853762Y-79090807D01*
X138849286Y-79083340D01*
X138844327Y-79076144D01*
X138838885Y-79069225D01*
X138832957Y-79062588D01*
X138826540Y-79056238D01*
X138819633Y-79050182D01*
X138812234Y-79044426D01*
X138804340Y-79038974D01*
X138795950Y-79033833D01*
X138787062Y-79029007D01*
X138777673Y-79024504D01*
X138767781Y-79020329D01*
X138757384Y-79016486D01*
X138746481Y-79012983D01*
X138735069Y-79009824D01*
X138723146Y-79007016D01*
X138710710Y-79004564D01*
X138697759Y-79002473D01*
X138684291Y-79000750D01*
X138670304Y-78999400D01*
X138655796Y-78998428D01*
X138640764Y-78997841D01*
X138625207Y-78997644D01*
X138282307Y-78997644D01*
X137995525Y-78997644D01*
X137995525Y-78629503D01*
X137996229Y-78597247D01*
X137998326Y-78566336D01*
X138001791Y-78536750D01*
X138006600Y-78508467D01*
X138012729Y-78481466D01*
X138020153Y-78455726D01*
X138028849Y-78431226D01*
X138038793Y-78407945D01*
X138049959Y-78385862D01*
X138062324Y-78364955D01*
X138075864Y-78345205D01*
X138090555Y-78326588D01*
X138106371Y-78309086D01*
X138123290Y-78292676D01*
X138141287Y-78277337D01*
X138160337Y-78263048D01*
X138180417Y-78249789D01*
X138201502Y-78237538D01*
X138223568Y-78226274D01*
X138246591Y-78215976D01*
X138270547Y-78206623D01*
X138295411Y-78198194D01*
X138321159Y-78190667D01*
X138347768Y-78184023D01*
X138375212Y-78178239D01*
X138403468Y-78173294D01*
X138462319Y-78165840D01*
X138524125Y-78161491D01*
X138588695Y-78160079D01*
X138628102Y-78160746D01*
G37*
G36*
X116886229Y-71755640D02*
G01*
X116907003Y-71758829D01*
X116927157Y-71764024D01*
X116946691Y-71771235D01*
X116965604Y-71780470D01*
X116983898Y-71791740D01*
X117001571Y-71805055D01*
X117018624Y-71820424D01*
X117035057Y-71837857D01*
X117050870Y-71857363D01*
X117066063Y-71878953D01*
X117080636Y-71902635D01*
X117094589Y-71928420D01*
X117107921Y-71956317D01*
X117120634Y-71986336D01*
X117132726Y-72018487D01*
X117144198Y-72052779D01*
X117155050Y-72089222D01*
X117165282Y-72127826D01*
X117218199Y-72656992D01*
X117216959Y-72765526D01*
X117213238Y-72872896D01*
X117207037Y-72979182D01*
X117198355Y-73084460D01*
X117187193Y-73188807D01*
X117173551Y-73292302D01*
X117157427Y-73395022D01*
X117138824Y-73497044D01*
X117117740Y-73598447D01*
X117094176Y-73699306D01*
X117068131Y-73799700D01*
X117039605Y-73899707D01*
X117008599Y-73999404D01*
X116975113Y-74098868D01*
X116939146Y-74198178D01*
X116900699Y-74297409D01*
X116880752Y-74354563D01*
X116870585Y-74381473D01*
X116860185Y-74407376D01*
X116849475Y-74432349D01*
X116838377Y-74456469D01*
X116826815Y-74479813D01*
X116814710Y-74502461D01*
X116801984Y-74524488D01*
X116788561Y-74545972D01*
X116774363Y-74566992D01*
X116759312Y-74587623D01*
X116743331Y-74607945D01*
X116726343Y-74628035D01*
X116708269Y-74647969D01*
X116689032Y-74667826D01*
X116674301Y-74687051D01*
X116659861Y-74705046D01*
X116645692Y-74721820D01*
X116631775Y-74737382D01*
X116618090Y-74751744D01*
X116604619Y-74764913D01*
X116591341Y-74776900D01*
X116578238Y-74787715D01*
X116565290Y-74797368D01*
X116552477Y-74805867D01*
X116539781Y-74813223D01*
X116527182Y-74819445D01*
X116514660Y-74824543D01*
X116502196Y-74828527D01*
X116489771Y-74831406D01*
X116477366Y-74833191D01*
X116464960Y-74833890D01*
X116452535Y-74833514D01*
X116440071Y-74832072D01*
X116427550Y-74829574D01*
X116414950Y-74826029D01*
X116402254Y-74821447D01*
X116389441Y-74815839D01*
X116376493Y-74809213D01*
X116363390Y-74801579D01*
X116350112Y-74792948D01*
X116336641Y-74783328D01*
X116322956Y-74772729D01*
X116309039Y-74761162D01*
X116294870Y-74748635D01*
X116265699Y-74720743D01*
X116198725Y-74649320D01*
X116136702Y-74574137D01*
X116079620Y-74495466D01*
X116027471Y-74413578D01*
X115980243Y-74328745D01*
X115937928Y-74241237D01*
X115900516Y-74151327D01*
X115867997Y-74059285D01*
X115840362Y-73965382D01*
X115817600Y-73869891D01*
X115799702Y-73773081D01*
X115786658Y-73675225D01*
X115778460Y-73576594D01*
X115775096Y-73477460D01*
X115776557Y-73378092D01*
X115782834Y-73278764D01*
X115793917Y-73179745D01*
X115809797Y-73081308D01*
X115830462Y-72983724D01*
X115855905Y-72887263D01*
X115886115Y-72792198D01*
X115921082Y-72698799D01*
X115960797Y-72607338D01*
X116005250Y-72518087D01*
X116054431Y-72431316D01*
X116108331Y-72347296D01*
X116166940Y-72266300D01*
X116230249Y-72188598D01*
X116298247Y-72114462D01*
X116370925Y-72044162D01*
X116448273Y-71977971D01*
X116530282Y-71916160D01*
X116559738Y-71892287D01*
X116588573Y-71870284D01*
X116616788Y-71850161D01*
X116644384Y-71831927D01*
X116671359Y-71815593D01*
X116697714Y-71801167D01*
X116723449Y-71788659D01*
X116748563Y-71778080D01*
X116773058Y-71769439D01*
X116796933Y-71762745D01*
X116820187Y-71758009D01*
X116842821Y-71755239D01*
X116864835Y-71754446D01*
X116886229Y-71755640D01*
G37*
G36*
X132866338Y-78160746D02*
G01*
X132904431Y-78162787D01*
X132941235Y-78166259D01*
X132976760Y-78171221D01*
X133011020Y-78177731D01*
X133044026Y-78185846D01*
X133075790Y-78195626D01*
X133106323Y-78207128D01*
X133135637Y-78220411D01*
X133163745Y-78235532D01*
X133190658Y-78252549D01*
X133216388Y-78271521D01*
X133240947Y-78292507D01*
X133264347Y-78315563D01*
X133286600Y-78340748D01*
X133307717Y-78368121D01*
X133082768Y-78539572D01*
X133077969Y-78532084D01*
X133073044Y-78524905D01*
X133067982Y-78518028D01*
X133062773Y-78511450D01*
X133057406Y-78505165D01*
X133051869Y-78499170D01*
X133046153Y-78493459D01*
X133040246Y-78488028D01*
X133034137Y-78482873D01*
X133027816Y-78477989D01*
X133021271Y-78473370D01*
X133014492Y-78469014D01*
X133007469Y-78464915D01*
X133000189Y-78461068D01*
X132992643Y-78457469D01*
X132984819Y-78454114D01*
X132976707Y-78450997D01*
X132968296Y-78448115D01*
X132959575Y-78445463D01*
X132950533Y-78443035D01*
X132941159Y-78440828D01*
X132931443Y-78438837D01*
X132921373Y-78437057D01*
X132910939Y-78435484D01*
X132888934Y-78432940D01*
X132865343Y-78431169D01*
X132840078Y-78430133D01*
X132813052Y-78429795D01*
X132775942Y-78430367D01*
X132741554Y-78432119D01*
X132709844Y-78435109D01*
X132680766Y-78439394D01*
X132654275Y-78445031D01*
X132630326Y-78452077D01*
X132608872Y-78460589D01*
X132599067Y-78465413D01*
X132589870Y-78470624D01*
X132581273Y-78476231D01*
X132573272Y-78482240D01*
X132565862Y-78488659D01*
X132559035Y-78495494D01*
X132552787Y-78502752D01*
X132547113Y-78510441D01*
X132542005Y-78518569D01*
X132537460Y-78527141D01*
X132533470Y-78536165D01*
X132530031Y-78545649D01*
X132527136Y-78555599D01*
X132524780Y-78566023D01*
X132522958Y-78576927D01*
X132521664Y-78588320D01*
X132520635Y-78612596D01*
X132520635Y-78761582D01*
X132917033Y-78761582D01*
X132945314Y-78762146D01*
X132972721Y-78763817D01*
X132999253Y-78766567D01*
X133024909Y-78770366D01*
X133049687Y-78775184D01*
X133073585Y-78780993D01*
X133096602Y-78787762D01*
X133118736Y-78795463D01*
X133139986Y-78804066D01*
X133160350Y-78813542D01*
X133179825Y-78823860D01*
X133198412Y-78834993D01*
X133216108Y-78846910D01*
X133232911Y-78859582D01*
X133248819Y-78872980D01*
X133263833Y-78887075D01*
X133277948Y-78901836D01*
X133291165Y-78917235D01*
X133303481Y-78933241D01*
X133314895Y-78949827D01*
X133325405Y-78966962D01*
X133335010Y-78984617D01*
X133343707Y-79002763D01*
X133351496Y-79021370D01*
X133358374Y-79040409D01*
X133364341Y-79059850D01*
X133369394Y-79079664D01*
X133373532Y-79099822D01*
X133376753Y-79120294D01*
X133379056Y-79141051D01*
X133380439Y-79162064D01*
X133380901Y-79183303D01*
X133380358Y-79206321D01*
X133378739Y-79228969D01*
X133376051Y-79251224D01*
X133372306Y-79273062D01*
X133367512Y-79294459D01*
X133361680Y-79315391D01*
X133354820Y-79335836D01*
X133346940Y-79355769D01*
X133338052Y-79375166D01*
X133328164Y-79394004D01*
X133317287Y-79412260D01*
X133305431Y-79429909D01*
X133292604Y-79446928D01*
X133278818Y-79463293D01*
X133264081Y-79478980D01*
X133248404Y-79493966D01*
X133231796Y-79508228D01*
X133214267Y-79521741D01*
X133195828Y-79534482D01*
X133176487Y-79546427D01*
X133156254Y-79557552D01*
X133135140Y-79567834D01*
X133113154Y-79577250D01*
X133090306Y-79585775D01*
X133066606Y-79593385D01*
X133042063Y-79600058D01*
X133016688Y-79605769D01*
X132990489Y-79610494D01*
X132963478Y-79614211D01*
X132935663Y-79616895D01*
X132907055Y-79618523D01*
X132877663Y-79619071D01*
X132842409Y-79618542D01*
X132809309Y-79616948D01*
X132778281Y-79614276D01*
X132749243Y-79610512D01*
X132722114Y-79605645D01*
X132696811Y-79599662D01*
X132673252Y-79592549D01*
X132651355Y-79584295D01*
X132631039Y-79574887D01*
X132612221Y-79564311D01*
X132594820Y-79552556D01*
X132578753Y-79539608D01*
X132563939Y-79525456D01*
X132550295Y-79510085D01*
X132537740Y-79493484D01*
X132526191Y-79475640D01*
X132520634Y-79475640D01*
X132520634Y-79602164D01*
X132233773Y-79602164D01*
X132233773Y-79101705D01*
X132233773Y-78997644D01*
X132520555Y-78997644D01*
X132520555Y-79101705D01*
X132520796Y-79121962D01*
X132521529Y-79141096D01*
X132522767Y-79159140D01*
X132524525Y-79176123D01*
X132526815Y-79192079D01*
X132529653Y-79207038D01*
X132533052Y-79221032D01*
X132537025Y-79234091D01*
X132541588Y-79246249D01*
X132546753Y-79257535D01*
X132552535Y-79267982D01*
X132558947Y-79277621D01*
X132566004Y-79286484D01*
X132573719Y-79294601D01*
X132582106Y-79302004D01*
X132591179Y-79308725D01*
X132600952Y-79314795D01*
X132611439Y-79320246D01*
X132622654Y-79325109D01*
X132634610Y-79329415D01*
X132647322Y-79333196D01*
X132660803Y-79336483D01*
X132675068Y-79339308D01*
X132690130Y-79341702D01*
X132722701Y-79345323D01*
X132758627Y-79347599D01*
X132798021Y-79348780D01*
X132840992Y-79349117D01*
X132875979Y-79348147D01*
X132908262Y-79345305D01*
X132937905Y-79340701D01*
X132964967Y-79334442D01*
X132977550Y-79330725D01*
X132989511Y-79326634D01*
X133000858Y-79322183D01*
X133011598Y-79317385D01*
X133021739Y-79312254D01*
X133031289Y-79306802D01*
X133040256Y-79301044D01*
X133048647Y-79294993D01*
X133056470Y-79288663D01*
X133063732Y-79282065D01*
X133070442Y-79275215D01*
X133076606Y-79268126D01*
X133082233Y-79260810D01*
X133087331Y-79253282D01*
X133091907Y-79245554D01*
X133095968Y-79237641D01*
X133102578Y-79221310D01*
X133107224Y-79204397D01*
X133109966Y-79187009D01*
X133110867Y-79169253D01*
X133110636Y-79159605D01*
X133109941Y-79150177D01*
X133108781Y-79140974D01*
X133107154Y-79132002D01*
X133105057Y-79123267D01*
X133102488Y-79114774D01*
X133099446Y-79106529D01*
X133095928Y-79098538D01*
X133091933Y-79090807D01*
X133087457Y-79083340D01*
X133082500Y-79076144D01*
X133077058Y-79069225D01*
X133071131Y-79062588D01*
X133064716Y-79056238D01*
X133057810Y-79050182D01*
X133050413Y-79044426D01*
X133042521Y-79038974D01*
X133034133Y-79033833D01*
X133025247Y-79029007D01*
X133015861Y-79024504D01*
X133005972Y-79020329D01*
X132995579Y-79016486D01*
X132984680Y-79012983D01*
X132973272Y-79009824D01*
X132961353Y-79007016D01*
X132948922Y-79004564D01*
X132935976Y-79002473D01*
X132922513Y-79000750D01*
X132908532Y-78999400D01*
X132894030Y-78998428D01*
X132879005Y-78997841D01*
X132863455Y-78997644D01*
X132520555Y-78997644D01*
X132233773Y-78997644D01*
X132233773Y-78629503D01*
X132234478Y-78597247D01*
X132236575Y-78566336D01*
X132240041Y-78536750D01*
X132244852Y-78508467D01*
X132250982Y-78481466D01*
X132258409Y-78455726D01*
X132267107Y-78431226D01*
X132277053Y-78407945D01*
X132288221Y-78385862D01*
X132300589Y-78364955D01*
X132314131Y-78345205D01*
X132328824Y-78326588D01*
X132344643Y-78309086D01*
X132361564Y-78292676D01*
X132379563Y-78277337D01*
X132398615Y-78263048D01*
X132418697Y-78249789D01*
X132439783Y-78237538D01*
X132461851Y-78226274D01*
X132484874Y-78215976D01*
X132508830Y-78206623D01*
X132533694Y-78198194D01*
X132559442Y-78190667D01*
X132586050Y-78184023D01*
X132613492Y-78178239D01*
X132641746Y-78173294D01*
X132700589Y-78165840D01*
X132762386Y-78161491D01*
X132826943Y-78160079D01*
X132866338Y-78160746D01*
G37*
G36*
X130416573Y-78162154D02*
G01*
X130468919Y-78168809D01*
X130495062Y-78173912D01*
X130521100Y-78180247D01*
X130546969Y-78187850D01*
X130572605Y-78196754D01*
X130597944Y-78206997D01*
X130622923Y-78218613D01*
X130647478Y-78231639D01*
X130671545Y-78246109D01*
X130695060Y-78262059D01*
X130717959Y-78279525D01*
X130740179Y-78298542D01*
X130761655Y-78319146D01*
X130782324Y-78341372D01*
X130802122Y-78365256D01*
X130820986Y-78390833D01*
X130838850Y-78418138D01*
X130855653Y-78447208D01*
X130871329Y-78478078D01*
X130885815Y-78510784D01*
X130899047Y-78545360D01*
X130910961Y-78581842D01*
X130921494Y-78620267D01*
X130930582Y-78660669D01*
X130938160Y-78703084D01*
X130944165Y-78747547D01*
X130948534Y-78794094D01*
X130951202Y-78842761D01*
X130952105Y-78893583D01*
X130951121Y-78947112D01*
X130948214Y-78998094D01*
X130943457Y-79046586D01*
X130936920Y-79092642D01*
X130928674Y-79136318D01*
X130918790Y-79177669D01*
X130907339Y-79216752D01*
X130894392Y-79253622D01*
X130880021Y-79288334D01*
X130864296Y-79320944D01*
X130847288Y-79351507D01*
X130829068Y-79380080D01*
X130809708Y-79406717D01*
X130789278Y-79431474D01*
X130767849Y-79454407D01*
X130745492Y-79475571D01*
X130722279Y-79495022D01*
X130698280Y-79512815D01*
X130673566Y-79529007D01*
X130648209Y-79543652D01*
X130622279Y-79556806D01*
X130595848Y-79568524D01*
X130541764Y-79587878D01*
X130486526Y-79602157D01*
X130430701Y-79611806D01*
X130374859Y-79617270D01*
X130319566Y-79618992D01*
X130283836Y-79618195D01*
X130248354Y-79615775D01*
X130213170Y-79611691D01*
X130178332Y-79605902D01*
X130143890Y-79598368D01*
X130109893Y-79589047D01*
X130076390Y-79577897D01*
X130043430Y-79564878D01*
X130011063Y-79549948D01*
X129979338Y-79533066D01*
X129948304Y-79514192D01*
X129918009Y-79493284D01*
X129888504Y-79470300D01*
X129859837Y-79445200D01*
X129832058Y-79417942D01*
X129805216Y-79388486D01*
X130013258Y-79211321D01*
X130029463Y-79227258D01*
X130046397Y-79242311D01*
X130063998Y-79256460D01*
X130082203Y-79269687D01*
X130100950Y-79281970D01*
X130120177Y-79293290D01*
X130139822Y-79303627D01*
X130159824Y-79312961D01*
X130180119Y-79321272D01*
X130200647Y-79328539D01*
X130221344Y-79334743D01*
X130242148Y-79339864D01*
X130262998Y-79343882D01*
X130283832Y-79346777D01*
X130304587Y-79348528D01*
X130325202Y-79349116D01*
X130343497Y-79348770D01*
X130361461Y-79347733D01*
X130379079Y-79346005D01*
X130396334Y-79343586D01*
X130413209Y-79340477D01*
X130429688Y-79336679D01*
X130445754Y-79332193D01*
X130461392Y-79327018D01*
X130476584Y-79321155D01*
X130491315Y-79314606D01*
X130505567Y-79307370D01*
X130519325Y-79299447D01*
X130532571Y-79290840D01*
X130545291Y-79281548D01*
X130557466Y-79271571D01*
X130569081Y-79260910D01*
X130580120Y-79249567D01*
X130590565Y-79237540D01*
X130600401Y-79224832D01*
X130609611Y-79211442D01*
X130618178Y-79197371D01*
X130626087Y-79182620D01*
X130633320Y-79167188D01*
X130639862Y-79151078D01*
X130645695Y-79134288D01*
X130650804Y-79116820D01*
X130655172Y-79098675D01*
X130658783Y-79079852D01*
X130661620Y-79060353D01*
X130663667Y-79040178D01*
X130664907Y-79019328D01*
X130665324Y-78997802D01*
X129777197Y-78997802D01*
X129777197Y-78761582D01*
X130063820Y-78761582D01*
X130665324Y-78761582D01*
X130664451Y-78741586D01*
X130662883Y-78722185D01*
X130660636Y-78703382D01*
X130657724Y-78685179D01*
X130654160Y-78667579D01*
X130649959Y-78650585D01*
X130645137Y-78634199D01*
X130639707Y-78618423D01*
X130633683Y-78603261D01*
X130627080Y-78588715D01*
X130619913Y-78574787D01*
X130612196Y-78561481D01*
X130603943Y-78548798D01*
X130595170Y-78536741D01*
X130585889Y-78525314D01*
X130576116Y-78514518D01*
X130565865Y-78504356D01*
X130555151Y-78494831D01*
X130543988Y-78485945D01*
X130532390Y-78477701D01*
X130520372Y-78470102D01*
X130507948Y-78463150D01*
X130495133Y-78456848D01*
X130481941Y-78451198D01*
X130468387Y-78446203D01*
X130454485Y-78441865D01*
X130440249Y-78438188D01*
X130425694Y-78435174D01*
X130410834Y-78432825D01*
X130395685Y-78431143D01*
X130380259Y-78430133D01*
X130364572Y-78429795D01*
X130348893Y-78430133D01*
X130333489Y-78431143D01*
X130318375Y-78432825D01*
X130303563Y-78435174D01*
X130289066Y-78438188D01*
X130274897Y-78441866D01*
X130261068Y-78446203D01*
X130247593Y-78451198D01*
X130234484Y-78456848D01*
X130221755Y-78463150D01*
X130209418Y-78470102D01*
X130197486Y-78477702D01*
X130185972Y-78485946D01*
X130174890Y-78494831D01*
X130164251Y-78504356D01*
X130154069Y-78514518D01*
X130144357Y-78525314D01*
X130135128Y-78536742D01*
X130126394Y-78548798D01*
X130118168Y-78561481D01*
X130110464Y-78574788D01*
X130103294Y-78588715D01*
X130096672Y-78603262D01*
X130090609Y-78618424D01*
X130085119Y-78634199D01*
X130080216Y-78650586D01*
X130075911Y-78667580D01*
X130072218Y-78685180D01*
X130069149Y-78703383D01*
X130066718Y-78722186D01*
X130064937Y-78741586D01*
X130063820Y-78761582D01*
X129777197Y-78761582D01*
X129777197Y-78761502D01*
X129777988Y-78727380D01*
X129780335Y-78694066D01*
X129784194Y-78661579D01*
X129789524Y-78629937D01*
X129796282Y-78599157D01*
X129804426Y-78569258D01*
X129813915Y-78540258D01*
X129824705Y-78512174D01*
X129836755Y-78485025D01*
X129850023Y-78458829D01*
X129864465Y-78433604D01*
X129880042Y-78409367D01*
X129896709Y-78386137D01*
X129914424Y-78363932D01*
X129933147Y-78342769D01*
X129952834Y-78322668D01*
X129973443Y-78303645D01*
X129994932Y-78285719D01*
X130017259Y-78268907D01*
X130040382Y-78253229D01*
X130064259Y-78238701D01*
X130088846Y-78225342D01*
X130114103Y-78213170D01*
X130139988Y-78202202D01*
X130166456Y-78192458D01*
X130193468Y-78183954D01*
X130220980Y-78176710D01*
X130248950Y-78170742D01*
X130277337Y-78166068D01*
X130306098Y-78162708D01*
X130335190Y-78160679D01*
X130364572Y-78159999D01*
X130416573Y-78162154D01*
G37*
G36*
X119827251Y-70728169D02*
G01*
X119920703Y-70734235D01*
X120012033Y-70745378D01*
X120101115Y-70761481D01*
X120187824Y-70782430D01*
X120272032Y-70808107D01*
X120353615Y-70838395D01*
X120432445Y-70873180D01*
X120508398Y-70912345D01*
X120581348Y-70955772D01*
X120651167Y-71003347D01*
X120717732Y-71054952D01*
X120780914Y-71110472D01*
X120840589Y-71169790D01*
X120896630Y-71232790D01*
X120948912Y-71299356D01*
X120997309Y-71369371D01*
X121041694Y-71442719D01*
X121081942Y-71519284D01*
X121117927Y-71598950D01*
X121149522Y-71681600D01*
X121176602Y-71767118D01*
X121199041Y-71855388D01*
X121216713Y-71946293D01*
X121229491Y-72039718D01*
X121237251Y-72135545D01*
X121239865Y-72233659D01*
X121237711Y-72322933D01*
X121231313Y-72412072D01*
X121220768Y-72500939D01*
X121206172Y-72589400D01*
X121187624Y-72677317D01*
X121165219Y-72764557D01*
X121109227Y-72936458D01*
X121038973Y-73104019D01*
X120955232Y-73266154D01*
X120858777Y-73421778D01*
X120750386Y-73569805D01*
X120630833Y-73709150D01*
X120500892Y-73838729D01*
X120361340Y-73957456D01*
X120212951Y-74064245D01*
X120135685Y-74112824D01*
X120056501Y-74158012D01*
X119975495Y-74199673D01*
X119892764Y-74237671D01*
X119808406Y-74271871D01*
X119722516Y-74302137D01*
X119635193Y-74328334D01*
X119546532Y-74350326D01*
X119457566Y-74367553D01*
X119369347Y-74379626D01*
X119281999Y-74386660D01*
X119195649Y-74388773D01*
X119110423Y-74386079D01*
X119026448Y-74378696D01*
X118943848Y-74366739D01*
X118862750Y-74350325D01*
X118783279Y-74329571D01*
X118705563Y-74304592D01*
X118629726Y-74275504D01*
X118555895Y-74242425D01*
X118484195Y-74205470D01*
X118414753Y-74164755D01*
X118347695Y-74120398D01*
X118283147Y-74072513D01*
X118221233Y-74021218D01*
X118162082Y-73966628D01*
X118105817Y-73908860D01*
X118052566Y-73848031D01*
X118002455Y-73784256D01*
X117955608Y-73717651D01*
X117912153Y-73648334D01*
X117872215Y-73576419D01*
X117835921Y-73502025D01*
X117803395Y-73425266D01*
X117774765Y-73346259D01*
X117750156Y-73265121D01*
X117729694Y-73181967D01*
X117713504Y-73096914D01*
X117701714Y-73010078D01*
X117694449Y-72921576D01*
X117691642Y-72832301D01*
X117693079Y-72743163D01*
X117698664Y-72654295D01*
X117708298Y-72565835D01*
X117721886Y-72477917D01*
X117739330Y-72390678D01*
X117785399Y-72218776D01*
X117845731Y-72051215D01*
X117919551Y-71889080D01*
X118006083Y-71733457D01*
X118104553Y-71585430D01*
X118214184Y-71446084D01*
X118334203Y-71316505D01*
X118463833Y-71197779D01*
X118602300Y-71090989D01*
X118674605Y-71042410D01*
X118748829Y-70997223D01*
X118824874Y-70955562D01*
X118902644Y-70917563D01*
X118982041Y-70883363D01*
X119062970Y-70853097D01*
X119145332Y-70826900D01*
X119229032Y-70804909D01*
X119332571Y-70778069D01*
X119434743Y-70757005D01*
X119535423Y-70741599D01*
X119634485Y-70731735D01*
X119731803Y-70727297D01*
X119827251Y-70728169D01*
G37*
G36*
X121828564Y-77918454D02*
G01*
X121927782Y-77922200D01*
X122027001Y-77928427D01*
X122126220Y-77937290D01*
X122225439Y-77948943D01*
X122324657Y-77963541D01*
X122423876Y-77981240D01*
X122523095Y-78002195D01*
X122622313Y-78026561D01*
X122721532Y-78054492D01*
X123091950Y-78213242D01*
X123120938Y-78228129D01*
X123148367Y-78243046D01*
X123174226Y-78258021D01*
X123198506Y-78273083D01*
X123221197Y-78288261D01*
X123242289Y-78303585D01*
X123261773Y-78319083D01*
X123279638Y-78334785D01*
X123295876Y-78350719D01*
X123310476Y-78366915D01*
X123323429Y-78383401D01*
X123334725Y-78400207D01*
X123344355Y-78417362D01*
X123352308Y-78434895D01*
X123358576Y-78452835D01*
X123363147Y-78471211D01*
X123366014Y-78490051D01*
X123367165Y-78509386D01*
X123366592Y-78529245D01*
X123364284Y-78549655D01*
X123360233Y-78570647D01*
X123354427Y-78592250D01*
X123346858Y-78614492D01*
X123337516Y-78637402D01*
X123326391Y-78661010D01*
X123313474Y-78685345D01*
X123298754Y-78710435D01*
X123282223Y-78736311D01*
X123263869Y-78763000D01*
X123243685Y-78790532D01*
X123221659Y-78818936D01*
X123197783Y-78848242D01*
X123197782Y-78848243D01*
X123197770Y-78848255D01*
X123197680Y-78848345D01*
X123196957Y-78849069D01*
X123191169Y-78854856D01*
X123144866Y-78901159D01*
X123073553Y-78987963D01*
X122998518Y-79069728D01*
X122919763Y-79146377D01*
X122837288Y-79217832D01*
X122751091Y-79284017D01*
X122661174Y-79344853D01*
X122567536Y-79400263D01*
X122470178Y-79450169D01*
X122369099Y-79494495D01*
X122264299Y-79533161D01*
X122155778Y-79566092D01*
X122043537Y-79593209D01*
X121927575Y-79614435D01*
X121807892Y-79629693D01*
X121684489Y-79638904D01*
X121557365Y-79641992D01*
X121439530Y-79638904D01*
X121324098Y-79629693D01*
X121210991Y-79614435D01*
X121100132Y-79593209D01*
X120991444Y-79566092D01*
X120884848Y-79533161D01*
X120780268Y-79494495D01*
X120677626Y-79450169D01*
X120576844Y-79400263D01*
X120477845Y-79344853D01*
X120380551Y-79284017D01*
X120284885Y-79217832D01*
X120190769Y-79146377D01*
X120098126Y-79069728D01*
X120006878Y-78987963D01*
X119916948Y-78901159D01*
X119897726Y-78881317D01*
X119879754Y-78861485D01*
X119863042Y-78841672D01*
X119847599Y-78821888D01*
X119833435Y-78802143D01*
X119820559Y-78782446D01*
X119808982Y-78762807D01*
X119798713Y-78743236D01*
X119789762Y-78723743D01*
X119782138Y-78704337D01*
X119775851Y-78685028D01*
X119770911Y-78665825D01*
X119767328Y-78646739D01*
X119765110Y-78627778D01*
X119764269Y-78608954D01*
X119764813Y-78590274D01*
X119766753Y-78571750D01*
X119770097Y-78553390D01*
X119774856Y-78535205D01*
X119781040Y-78517204D01*
X119788657Y-78499396D01*
X119797718Y-78481792D01*
X119808233Y-78464402D01*
X119820210Y-78447234D01*
X119833661Y-78430298D01*
X119848594Y-78413605D01*
X119865019Y-78397164D01*
X119882946Y-78380984D01*
X119902384Y-78365076D01*
X119923344Y-78349449D01*
X119945834Y-78334112D01*
X119969865Y-78319076D01*
X120039331Y-78280615D01*
X120108875Y-78244558D01*
X120178574Y-78210826D01*
X120248505Y-78179343D01*
X120318746Y-78150029D01*
X120389375Y-78122809D01*
X120460468Y-78097603D01*
X120532105Y-78074336D01*
X120604361Y-78052929D01*
X120677316Y-78033305D01*
X120751045Y-78015386D01*
X120825627Y-77999095D01*
X120901139Y-77984354D01*
X120977659Y-77971086D01*
X121134032Y-77948658D01*
X121332470Y-77931502D01*
X121530907Y-77920546D01*
X121729345Y-77917032D01*
X121828564Y-77918454D01*
G37*
G36*
X121656584Y-68602253D02*
G01*
X121827285Y-68616813D01*
X121996512Y-68645558D01*
X122163414Y-68688410D01*
X122327138Y-68745293D01*
X122486831Y-68816129D01*
X122641641Y-68900839D01*
X122716948Y-68948373D01*
X122790714Y-68999347D01*
X122862833Y-69053751D01*
X122933199Y-69111576D01*
X123091948Y-69270326D01*
X123115824Y-69300090D01*
X123137850Y-69329844D01*
X123158034Y-69359579D01*
X123176388Y-69389285D01*
X123192919Y-69418952D01*
X123207639Y-69448571D01*
X123220556Y-69478132D01*
X123231681Y-69507624D01*
X123241023Y-69537039D01*
X123248592Y-69566367D01*
X123254398Y-69595598D01*
X123258450Y-69624723D01*
X123260757Y-69653731D01*
X123261331Y-69682613D01*
X123260179Y-69711360D01*
X123257313Y-69739961D01*
X123252741Y-69768408D01*
X123246474Y-69796689D01*
X123238520Y-69824796D01*
X123228891Y-69852719D01*
X123217594Y-69880448D01*
X123204641Y-69907974D01*
X123190041Y-69935287D01*
X123173803Y-69962377D01*
X123155938Y-69989234D01*
X123136454Y-70015849D01*
X123115362Y-70042212D01*
X123092671Y-70068313D01*
X123068392Y-70094143D01*
X123042532Y-70119693D01*
X122986115Y-70169909D01*
X122935898Y-70207775D01*
X122884519Y-70242153D01*
X122832054Y-70273275D01*
X122778582Y-70301374D01*
X122724180Y-70326682D01*
X122668925Y-70349433D01*
X122612894Y-70369858D01*
X122556167Y-70388190D01*
X122498819Y-70404662D01*
X122440928Y-70419506D01*
X122382572Y-70432955D01*
X122323829Y-70445241D01*
X122205490Y-70467255D01*
X122086531Y-70487409D01*
X122056778Y-70496724D01*
X122027103Y-70504876D01*
X121997583Y-70511943D01*
X121968296Y-70518002D01*
X121939318Y-70523131D01*
X121910728Y-70527407D01*
X121855021Y-70533712D01*
X121801795Y-70537536D01*
X121751669Y-70539499D01*
X121663199Y-70540326D01*
X121504552Y-70537639D01*
X121425423Y-70534047D01*
X121346526Y-70528751D01*
X121267939Y-70521593D01*
X121189740Y-70512421D01*
X121112005Y-70501078D01*
X121034814Y-70487409D01*
X120958242Y-70471261D01*
X120882368Y-70452476D01*
X120807269Y-70430901D01*
X120733023Y-70406381D01*
X120659707Y-70378760D01*
X120587399Y-70347883D01*
X120516176Y-70313596D01*
X120446116Y-70275743D01*
X120383636Y-70240711D01*
X120325167Y-70205088D01*
X120270690Y-70168904D01*
X120220186Y-70132186D01*
X120173636Y-70094964D01*
X120131019Y-70057268D01*
X120092316Y-70019126D01*
X120057509Y-69980567D01*
X120026577Y-69941621D01*
X119999502Y-69902316D01*
X119976264Y-69862682D01*
X119956843Y-69822747D01*
X119941221Y-69782541D01*
X119929377Y-69742093D01*
X119921293Y-69701432D01*
X119916949Y-69660587D01*
X119916326Y-69619586D01*
X119919404Y-69578460D01*
X119926164Y-69537236D01*
X119936586Y-69495945D01*
X119950652Y-69454615D01*
X119968341Y-69413276D01*
X119989635Y-69371956D01*
X120014514Y-69330684D01*
X120042959Y-69289490D01*
X120074950Y-69248402D01*
X120110467Y-69207450D01*
X120149493Y-69166663D01*
X120192006Y-69126069D01*
X120237989Y-69085699D01*
X120287420Y-69045580D01*
X120340282Y-69005742D01*
X120415454Y-68953031D01*
X120492069Y-68904030D01*
X120570021Y-68858731D01*
X120649204Y-68817123D01*
X120729511Y-68779198D01*
X120810835Y-68744944D01*
X120893070Y-68714353D01*
X120976109Y-68687416D01*
X121144174Y-68644460D01*
X121314176Y-68615999D01*
X121485264Y-68601956D01*
X121656584Y-68602253D01*
G37*
G36*
X133979230Y-79174887D02*
G01*
X133985024Y-79174887D01*
X134308239Y-78176985D01*
X134516281Y-78176985D01*
X134839496Y-79174887D01*
X134845132Y-79174887D01*
X135117865Y-78176985D01*
X135421395Y-78176985D01*
X134966020Y-79602164D01*
X134713052Y-79602164D01*
X134415078Y-78604180D01*
X134409443Y-78604180D01*
X134111469Y-79602164D01*
X133858342Y-79602164D01*
X133403047Y-78176985D01*
X133706736Y-78176985D01*
X133979230Y-79174887D01*
G37*
G36*
X135861528Y-78328751D02*
G01*
X135881664Y-78310179D01*
X135902031Y-78292447D01*
X135922661Y-78275605D01*
X135943587Y-78259701D01*
X135964842Y-78244786D01*
X135986460Y-78230908D01*
X136008473Y-78218118D01*
X136030914Y-78206464D01*
X136053817Y-78195996D01*
X136077214Y-78186763D01*
X136101139Y-78178816D01*
X136125624Y-78172202D01*
X136150702Y-78166972D01*
X136176407Y-78163175D01*
X136202771Y-78160861D01*
X136229828Y-78160079D01*
X136261951Y-78160987D01*
X136292956Y-78163664D01*
X136322847Y-78168036D01*
X136351630Y-78174029D01*
X136379309Y-78181570D01*
X136405887Y-78190585D01*
X136431369Y-78201001D01*
X136455759Y-78212744D01*
X136479062Y-78225741D01*
X136501282Y-78239919D01*
X136522423Y-78255203D01*
X136542490Y-78271521D01*
X136561486Y-78288799D01*
X136579417Y-78306963D01*
X136596286Y-78325941D01*
X136612098Y-78345657D01*
X136626211Y-78364570D01*
X136639054Y-78383675D01*
X136650677Y-78403359D01*
X136661130Y-78424010D01*
X136665932Y-78434819D01*
X136670461Y-78446016D01*
X136674723Y-78457647D01*
X136678722Y-78469763D01*
X136682466Y-78482411D01*
X136685961Y-78495640D01*
X136692227Y-78524033D01*
X136697571Y-78555330D01*
X136702042Y-78589918D01*
X136705689Y-78628186D01*
X136708561Y-78670519D01*
X136710709Y-78717307D01*
X136712183Y-78768935D01*
X136713030Y-78825792D01*
X136713302Y-78888265D01*
X136712183Y-79008407D01*
X136708561Y-79107435D01*
X136705689Y-79150009D01*
X136702042Y-79188479D01*
X136697571Y-79223235D01*
X136692228Y-79254669D01*
X136685961Y-79283172D01*
X136678722Y-79309135D01*
X136670462Y-79332950D01*
X136661130Y-79355008D01*
X136650677Y-79375700D01*
X136639054Y-79395416D01*
X136626211Y-79414550D01*
X136612098Y-79433491D01*
X136596286Y-79453182D01*
X136579417Y-79472140D01*
X136561486Y-79490291D01*
X136542490Y-79507561D01*
X136522423Y-79523875D01*
X136501282Y-79539160D01*
X136479062Y-79553341D01*
X136455759Y-79566345D01*
X136431369Y-79578097D01*
X136418764Y-79583480D01*
X136405887Y-79588522D01*
X136392735Y-79593214D01*
X136379309Y-79597547D01*
X136365607Y-79601511D01*
X136351630Y-79605097D01*
X136337377Y-79608296D01*
X136322847Y-79611099D01*
X136308040Y-79613496D01*
X136292956Y-79615478D01*
X136277593Y-79617035D01*
X136261951Y-79618159D01*
X136246029Y-79618841D01*
X136229828Y-79619070D01*
X136202586Y-79618286D01*
X136175713Y-79615972D01*
X136149253Y-79612181D01*
X136123246Y-79606968D01*
X136097733Y-79600386D01*
X136072756Y-79592490D01*
X136048356Y-79583334D01*
X136024574Y-79572973D01*
X136001452Y-79561460D01*
X135979030Y-79548849D01*
X135957351Y-79535196D01*
X135936455Y-79520553D01*
X135916383Y-79504976D01*
X135897177Y-79488518D01*
X135878878Y-79471233D01*
X135861528Y-79453176D01*
X135861528Y-79602164D01*
X135574826Y-79602164D01*
X135574826Y-78888265D01*
X135861528Y-78888265D01*
X135862653Y-78967075D01*
X135864585Y-79006496D01*
X135867897Y-79045411D01*
X135872938Y-79083435D01*
X135880059Y-79120181D01*
X135889609Y-79155262D01*
X135895405Y-79172058D01*
X135901940Y-79188292D01*
X135909257Y-79203917D01*
X135917401Y-79218884D01*
X135926414Y-79233145D01*
X135936341Y-79246651D01*
X135947226Y-79259355D01*
X135959112Y-79271207D01*
X135972044Y-79282160D01*
X135986064Y-79292165D01*
X136001216Y-79301174D01*
X136017545Y-79309139D01*
X136035095Y-79316011D01*
X136053908Y-79321742D01*
X136074028Y-79326283D01*
X136095500Y-79329587D01*
X136118368Y-79331604D01*
X136142674Y-79332288D01*
X136167233Y-79331644D01*
X136190337Y-79329740D01*
X136212030Y-79326617D01*
X136232358Y-79322315D01*
X136251363Y-79316874D01*
X136269091Y-79310336D01*
X136285585Y-79302741D01*
X136300891Y-79294129D01*
X136315051Y-79284543D01*
X136328112Y-79274021D01*
X136340115Y-79262604D01*
X136351107Y-79250334D01*
X136361131Y-79237251D01*
X136370232Y-79223396D01*
X136378453Y-79208809D01*
X136385840Y-79193530D01*
X136392436Y-79177602D01*
X136398285Y-79161063D01*
X136403432Y-79143956D01*
X136407922Y-79126320D01*
X136411798Y-79108196D01*
X136415104Y-79089625D01*
X136420187Y-79051304D01*
X136423523Y-79011683D01*
X136425468Y-78971086D01*
X136426375Y-78929838D01*
X136426599Y-78888265D01*
X136425468Y-78806302D01*
X136423523Y-78766047D01*
X136420187Y-78726715D01*
X136415104Y-78688636D01*
X136407922Y-78652139D01*
X136398285Y-78617554D01*
X136392436Y-78601082D01*
X136385840Y-78585211D01*
X136378453Y-78569983D01*
X136370232Y-78555439D01*
X136361131Y-78541620D01*
X136351107Y-78528567D01*
X136340115Y-78516322D01*
X136328112Y-78504926D01*
X136315051Y-78494419D01*
X136300891Y-78484844D01*
X136285585Y-78476241D01*
X136269091Y-78468651D01*
X136251363Y-78462116D01*
X136232358Y-78456677D01*
X136212030Y-78452374D01*
X136190337Y-78449250D01*
X136167233Y-78447346D01*
X136142674Y-78446702D01*
X136118368Y-78447386D01*
X136095500Y-78449405D01*
X136074028Y-78452712D01*
X136053908Y-78457256D01*
X136035095Y-78462989D01*
X136017545Y-78469862D01*
X136001216Y-78477825D01*
X135986064Y-78486831D01*
X135972044Y-78496829D01*
X135959112Y-78507772D01*
X135947226Y-78519609D01*
X135936341Y-78532293D01*
X135926414Y-78545774D01*
X135917401Y-78560003D01*
X135909257Y-78574931D01*
X135901940Y-78590510D01*
X135895405Y-78606689D01*
X135889609Y-78623422D01*
X135884508Y-78640658D01*
X135880059Y-78658348D01*
X135876216Y-78676444D01*
X135872938Y-78694896D01*
X135867897Y-78732675D01*
X135864585Y-78771293D01*
X135862653Y-78810359D01*
X135861751Y-78849480D01*
X135861528Y-78888265D01*
X135574826Y-78888265D01*
X135574826Y-77600564D01*
X135861528Y-77600564D01*
X135861528Y-78328751D01*
G37*
G36*
X137095027Y-75909504D02*
G01*
X137122666Y-75911483D01*
X137149731Y-75914779D01*
X137176196Y-75919394D01*
X137202036Y-75925328D01*
X137227226Y-75932579D01*
X137251740Y-75941147D01*
X137275554Y-75951033D01*
X137298642Y-75962236D01*
X137320980Y-75974756D01*
X137342542Y-75988593D01*
X137363303Y-76003746D01*
X137383238Y-76020215D01*
X137402322Y-76038000D01*
X137420530Y-76057101D01*
X137437836Y-76077517D01*
X137443551Y-76077517D01*
X137443551Y-75925751D01*
X137730253Y-75925751D01*
X137730253Y-77350930D01*
X137443551Y-77350930D01*
X137443551Y-76502174D01*
X137443199Y-76484220D01*
X137442153Y-76466750D01*
X137440428Y-76449770D01*
X137438038Y-76433285D01*
X137434997Y-76417302D01*
X137431320Y-76401825D01*
X137427021Y-76386860D01*
X137422115Y-76372414D01*
X137416615Y-76358491D01*
X137410537Y-76345097D01*
X137403895Y-76332238D01*
X137396703Y-76319920D01*
X137388976Y-76308148D01*
X137380728Y-76296927D01*
X137371974Y-76286263D01*
X137362727Y-76276163D01*
X137353003Y-76266631D01*
X137342816Y-76257674D01*
X137332179Y-76249296D01*
X137321109Y-76241503D01*
X137309618Y-76234302D01*
X137297722Y-76227698D01*
X137285435Y-76221695D01*
X137272771Y-76216301D01*
X137259744Y-76211520D01*
X137246370Y-76207359D01*
X137232662Y-76203822D01*
X137218636Y-76200916D01*
X137204304Y-76198645D01*
X137189683Y-76197017D01*
X137174785Y-76196035D01*
X137159626Y-76195707D01*
X137144720Y-76196035D01*
X137130059Y-76197017D01*
X137115659Y-76198645D01*
X137101534Y-76200916D01*
X137087700Y-76203822D01*
X137074171Y-76207359D01*
X137060962Y-76211521D01*
X137048088Y-76216301D01*
X137035565Y-76221696D01*
X137023406Y-76227698D01*
X137011628Y-76234303D01*
X137000244Y-76241504D01*
X136989270Y-76249297D01*
X136978721Y-76257674D01*
X136968612Y-76266632D01*
X136958957Y-76276164D01*
X136949771Y-76286264D01*
X136941070Y-76296928D01*
X136932869Y-76308148D01*
X136925181Y-76319921D01*
X136918023Y-76332239D01*
X136911409Y-76345098D01*
X136905354Y-76358492D01*
X136899873Y-76372415D01*
X136894981Y-76386861D01*
X136890693Y-76401826D01*
X136887024Y-76417303D01*
X136883988Y-76433286D01*
X136881601Y-76449771D01*
X136879877Y-76466750D01*
X136878832Y-76484220D01*
X136878480Y-76502174D01*
X136878480Y-77350930D01*
X136591778Y-77350930D01*
X136591778Y-76403668D01*
X136592510Y-76373797D01*
X136594673Y-76344821D01*
X136598214Y-76316741D01*
X136603081Y-76289563D01*
X136609223Y-76263288D01*
X136616587Y-76237922D01*
X136625121Y-76213468D01*
X136634774Y-76189929D01*
X136645494Y-76167308D01*
X136657227Y-76145610D01*
X136669924Y-76124838D01*
X136683530Y-76104995D01*
X136697996Y-76086086D01*
X136713268Y-76068113D01*
X136729294Y-76051080D01*
X136746023Y-76034991D01*
X136763403Y-76019850D01*
X136781381Y-76005659D01*
X136799907Y-75992423D01*
X136818927Y-75980146D01*
X136838389Y-75968829D01*
X136858243Y-75958478D01*
X136878435Y-75949096D01*
X136898914Y-75940687D01*
X136940525Y-75926799D01*
X136982660Y-75916844D01*
X137024902Y-75910849D01*
X137045934Y-75909347D01*
X137066837Y-75908845D01*
X137095027Y-75909504D01*
G37*
G36*
X125752664Y-74658731D02*
G01*
X125805038Y-74666340D01*
X125855396Y-74678058D01*
X125879771Y-74685482D01*
X125903585Y-74693961D01*
X125926816Y-74703507D01*
X125949447Y-74714128D01*
X125971458Y-74725835D01*
X125992830Y-74738636D01*
X126013542Y-74752542D01*
X126033577Y-74767562D01*
X126052913Y-74783706D01*
X126071533Y-74800983D01*
X126089416Y-74819405D01*
X126106544Y-74838979D01*
X126122896Y-74859715D01*
X126138454Y-74881625D01*
X126153198Y-74904716D01*
X126167108Y-74928999D01*
X126180166Y-74954484D01*
X126192352Y-74981179D01*
X126203647Y-75009096D01*
X126214030Y-75038243D01*
X126251819Y-75137462D01*
X126285654Y-75236680D01*
X126315303Y-75335899D01*
X126340534Y-75435118D01*
X126361114Y-75534337D01*
X126376811Y-75633555D01*
X126387392Y-75732774D01*
X126392624Y-75831993D01*
X126392275Y-75931212D01*
X126386113Y-76030431D01*
X126373904Y-76129649D01*
X126355417Y-76228868D01*
X126330419Y-76328087D01*
X126298676Y-76427306D01*
X126259958Y-76526524D01*
X126214030Y-76625743D01*
X126151411Y-76761536D01*
X126082669Y-76891050D01*
X126007880Y-77014207D01*
X125927123Y-77130931D01*
X125840474Y-77241144D01*
X125748012Y-77344768D01*
X125649814Y-77441726D01*
X125545957Y-77531940D01*
X125436519Y-77615333D01*
X125321578Y-77691827D01*
X125201211Y-77761345D01*
X125075495Y-77823809D01*
X124944508Y-77879142D01*
X124808328Y-77927266D01*
X124667031Y-77968103D01*
X124520697Y-78001577D01*
X124256113Y-78001577D01*
X124212238Y-78005756D01*
X124169904Y-78008346D01*
X124129101Y-78009308D01*
X124089819Y-78008604D01*
X124052048Y-78006195D01*
X124015780Y-78002041D01*
X123981003Y-77996105D01*
X123947709Y-77988347D01*
X123915888Y-77978728D01*
X123885530Y-77967211D01*
X123856625Y-77953756D01*
X123829164Y-77938324D01*
X123803137Y-77920876D01*
X123778534Y-77901375D01*
X123755346Y-77879781D01*
X123733562Y-77856055D01*
X123713175Y-77830158D01*
X123694172Y-77802053D01*
X123676546Y-77771699D01*
X123660285Y-77739059D01*
X123645381Y-77704093D01*
X123631825Y-77666764D01*
X123619605Y-77627031D01*
X123608712Y-77584856D01*
X123599138Y-77540201D01*
X123590871Y-77493027D01*
X123583903Y-77443295D01*
X123578223Y-77390966D01*
X123573822Y-77336002D01*
X123570691Y-77278363D01*
X123568198Y-77154908D01*
X123579993Y-77055702D01*
X123595587Y-76956574D01*
X123615056Y-76857601D01*
X123638478Y-76758860D01*
X123665931Y-76660430D01*
X123697493Y-76562387D01*
X123733240Y-76464809D01*
X123773250Y-76367773D01*
X123817602Y-76271358D01*
X123866371Y-76175640D01*
X123919636Y-76080698D01*
X123977475Y-75986608D01*
X124039965Y-75893448D01*
X124107183Y-75801296D01*
X124179207Y-75710230D01*
X124256114Y-75620326D01*
X124454552Y-75422715D01*
X124553771Y-75325460D01*
X124652989Y-75230065D01*
X124752208Y-75137151D01*
X124851427Y-75047338D01*
X124950646Y-74961245D01*
X125049864Y-74879493D01*
X125079630Y-74860256D01*
X125109395Y-74842182D01*
X125139161Y-74825194D01*
X125168927Y-74809213D01*
X125198692Y-74794162D01*
X125228458Y-74779964D01*
X125258223Y-74766541D01*
X125287989Y-74753816D01*
X125347520Y-74730148D01*
X125407052Y-74708340D01*
X125526114Y-74667826D01*
X125584999Y-74659777D01*
X125642489Y-74655527D01*
X125698429Y-74655152D01*
X125752664Y-74658731D01*
G37*
G36*
X130928305Y-75909504D02*
G01*
X130955947Y-75911483D01*
X130983016Y-75914779D01*
X131009487Y-75919394D01*
X131035334Y-75925328D01*
X131060532Y-75932579D01*
X131085056Y-75941147D01*
X131108881Y-75951033D01*
X131131981Y-75962236D01*
X131154331Y-75974756D01*
X131175906Y-75988593D01*
X131196681Y-76003746D01*
X131216630Y-76020215D01*
X131235728Y-76038000D01*
X131253951Y-76057101D01*
X131271272Y-76077517D01*
X131276828Y-76077517D01*
X131276828Y-75925751D01*
X131563610Y-75925751D01*
X131563610Y-77350930D01*
X131276828Y-77350930D01*
X131276828Y-76493601D01*
X131276429Y-76474443D01*
X131275248Y-76455971D01*
X131273310Y-76438181D01*
X131270640Y-76421067D01*
X131267261Y-76404625D01*
X131263199Y-76388849D01*
X131258479Y-76373734D01*
X131253125Y-76359275D01*
X131247162Y-76345467D01*
X131240614Y-76332304D01*
X131233506Y-76319782D01*
X131225862Y-76307896D01*
X131217708Y-76296639D01*
X131209068Y-76286007D01*
X131199967Y-76275996D01*
X131190429Y-76266598D01*
X131180478Y-76257811D01*
X131170141Y-76249627D01*
X131159441Y-76242043D01*
X131148402Y-76235053D01*
X131137050Y-76228652D01*
X131125409Y-76222834D01*
X131113504Y-76217595D01*
X131101360Y-76212930D01*
X131076451Y-76205298D01*
X131050880Y-76199898D01*
X131024844Y-76196688D01*
X130998540Y-76195627D01*
X130985105Y-76195860D01*
X130972202Y-76196572D01*
X130959763Y-76197777D01*
X130947722Y-76199493D01*
X130936014Y-76201736D01*
X130924571Y-76204522D01*
X130913328Y-76207868D01*
X130902218Y-76211790D01*
X130891175Y-76216305D01*
X130880133Y-76221428D01*
X130869025Y-76227177D01*
X130857785Y-76233568D01*
X130846348Y-76240616D01*
X130834645Y-76248339D01*
X130822613Y-76256753D01*
X130810183Y-76265874D01*
X130602141Y-76018462D01*
X130618609Y-76006112D01*
X130635282Y-75994381D01*
X130652179Y-75983292D01*
X130669316Y-75972871D01*
X130686711Y-75963141D01*
X130704382Y-75954129D01*
X130722346Y-75945858D01*
X130740620Y-75938352D01*
X130759224Y-75931638D01*
X130778173Y-75925739D01*
X130797485Y-75920679D01*
X130817179Y-75916485D01*
X130837271Y-75913179D01*
X130857779Y-75910788D01*
X130878721Y-75909335D01*
X130900115Y-75908845D01*
X130928305Y-75909504D01*
G37*
G36*
X124118036Y-68980525D02*
G01*
X124251052Y-68989568D01*
X124388407Y-69005743D01*
X124528244Y-69029359D01*
X124668700Y-69060726D01*
X124807917Y-69100156D01*
X124944032Y-69147956D01*
X125075187Y-69204439D01*
X125138323Y-69236032D01*
X125199521Y-69269913D01*
X125258548Y-69306119D01*
X125315173Y-69344689D01*
X125369162Y-69385661D01*
X125420283Y-69429076D01*
X125469264Y-69469980D01*
X125516956Y-69513218D01*
X125608281Y-69606120D01*
X125693870Y-69706617D01*
X125773335Y-69813549D01*
X125846289Y-69925751D01*
X125912345Y-70042062D01*
X125971114Y-70161318D01*
X126022209Y-70282357D01*
X126065242Y-70404017D01*
X126099827Y-70525133D01*
X126125574Y-70644545D01*
X126142098Y-70761088D01*
X126149010Y-70873600D01*
X126148740Y-70927982D01*
X126145922Y-70980919D01*
X126140508Y-71032268D01*
X126132448Y-71081882D01*
X126121695Y-71129617D01*
X126108199Y-71175326D01*
X126098125Y-71179979D01*
X126087761Y-71184021D01*
X126077125Y-71187462D01*
X126066238Y-71190312D01*
X126055117Y-71192581D01*
X126043784Y-71194279D01*
X126032257Y-71195414D01*
X126020556Y-71195997D01*
X126008699Y-71196037D01*
X125996707Y-71195545D01*
X125972393Y-71193000D01*
X125947769Y-71188439D01*
X125922990Y-71181941D01*
X125898211Y-71173582D01*
X125873588Y-71163441D01*
X125849274Y-71151594D01*
X125825425Y-71138119D01*
X125802196Y-71123094D01*
X125779743Y-71106597D01*
X125758220Y-71088704D01*
X125737782Y-71069493D01*
X125598978Y-70987741D01*
X125460796Y-70901648D01*
X125323853Y-70811834D01*
X125188771Y-70718920D01*
X125056169Y-70623525D01*
X124926668Y-70526270D01*
X124800888Y-70427775D01*
X124679448Y-70328660D01*
X124542919Y-70209597D01*
X124410731Y-70090535D01*
X124282263Y-69971472D01*
X124156896Y-69852410D01*
X123912983Y-69614285D01*
X123674032Y-69376160D01*
X123663528Y-69356316D01*
X123652018Y-69336472D01*
X123639732Y-69316628D01*
X123626903Y-69296785D01*
X123600548Y-69257097D01*
X123574814Y-69217410D01*
X123562760Y-69197566D01*
X123551559Y-69177722D01*
X123541444Y-69157878D01*
X123532646Y-69138034D01*
X123525398Y-69118191D01*
X123522429Y-69108269D01*
X123519934Y-69098347D01*
X123517942Y-69088425D01*
X123516484Y-69078503D01*
X123515588Y-69068581D01*
X123515283Y-69058659D01*
X123583186Y-69031426D01*
X123666591Y-69009463D01*
X123763640Y-68993082D01*
X123872470Y-68982592D01*
X123991223Y-68978302D01*
X124118036Y-68980525D01*
G37*
D11*
X80950000Y-87571500D02*
G75*
G02*
X74825000Y-87571500I-3062500J0D01*
G01*
X74825000Y-87571500D02*
G75*
G02*
X80950000Y-87571500I3062500J0D01*
G01*
D10*
G36*
X137045337Y-78160738D02*
G01*
X137072977Y-78162716D01*
X137100043Y-78166013D01*
X137126508Y-78170628D01*
X137152349Y-78176561D01*
X137177540Y-78183812D01*
X137202057Y-78192381D01*
X137225874Y-78202267D01*
X137248967Y-78213470D01*
X137271310Y-78225990D01*
X137292878Y-78239826D01*
X137313647Y-78254979D01*
X137333591Y-78271448D01*
X137352686Y-78289234D01*
X137370906Y-78308334D01*
X137388226Y-78328751D01*
X137393862Y-78328751D01*
X137393862Y-78176985D01*
X137680564Y-78176985D01*
X137680565Y-79602164D01*
X137393862Y-79602164D01*
X137393862Y-78744676D01*
X137393463Y-78725531D01*
X137392280Y-78707072D01*
X137390340Y-78689292D01*
X137387667Y-78672187D01*
X137384285Y-78655753D01*
X137380219Y-78639983D01*
X137375494Y-78624872D01*
X137370135Y-78610417D01*
X137364167Y-78596611D01*
X137357613Y-78583450D01*
X137350499Y-78570928D01*
X137342850Y-78559041D01*
X137334690Y-78547782D01*
X137326044Y-78537149D01*
X137316937Y-78527134D01*
X137307393Y-78517733D01*
X137297438Y-78508942D01*
X137287095Y-78500754D01*
X137276390Y-78493165D01*
X137265347Y-78486170D01*
X137253991Y-78479764D01*
X137242347Y-78473942D01*
X137230440Y-78468698D01*
X137218293Y-78464028D01*
X137193383Y-78456387D01*
X137167815Y-78450980D01*
X137141786Y-78447765D01*
X137115494Y-78446703D01*
X137102073Y-78446936D01*
X137089179Y-78447648D01*
X137076747Y-78448854D01*
X137064710Y-78450571D01*
X137053003Y-78452816D01*
X137041560Y-78455606D01*
X137030315Y-78458957D01*
X137019202Y-78462885D01*
X137008155Y-78467408D01*
X136997108Y-78472542D01*
X136985995Y-78478304D01*
X136974751Y-78484710D01*
X136963308Y-78491776D01*
X136951603Y-78499520D01*
X136939567Y-78507959D01*
X136927137Y-78517108D01*
X136719174Y-78269696D01*
X136735616Y-78257346D01*
X136752270Y-78245615D01*
X136769153Y-78234526D01*
X136786282Y-78224104D01*
X136803674Y-78214375D01*
X136821345Y-78205362D01*
X136839313Y-78197091D01*
X136857594Y-78189586D01*
X136876206Y-78182872D01*
X136895164Y-78176972D01*
X136914487Y-78171913D01*
X136934190Y-78167718D01*
X136954291Y-78164413D01*
X136974806Y-78162021D01*
X136995753Y-78160568D01*
X137017148Y-78160079D01*
X137045337Y-78160738D01*
G37*
D11*
X136510000Y-92651500D02*
G75*
G02*
X130385000Y-92651500I-3062500J0D01*
G01*
X130385000Y-92651500D02*
G75*
G02*
X136510000Y-92651500I3062500J0D01*
G01*
D10*
G36*
X117394932Y-74935097D02*
G01*
X117440976Y-74938043D01*
X117488570Y-74943159D01*
X117537714Y-74950445D01*
X117588409Y-74959902D01*
X117640654Y-74971529D01*
X117694449Y-74985327D01*
X117778607Y-75012429D01*
X117862320Y-75044018D01*
X117945451Y-75079928D01*
X118027865Y-75119995D01*
X118109427Y-75164054D01*
X118190000Y-75211940D01*
X118269449Y-75263489D01*
X118347639Y-75318536D01*
X118499697Y-75438464D01*
X118645088Y-75570407D01*
X118782729Y-75713047D01*
X118911532Y-75865066D01*
X119030414Y-76025146D01*
X119138288Y-76191971D01*
X119234071Y-76364221D01*
X119316675Y-76540580D01*
X119352697Y-76629888D01*
X119385017Y-76719729D01*
X119413501Y-76809938D01*
X119438012Y-76900351D01*
X119458414Y-76990802D01*
X119474573Y-77081128D01*
X119486352Y-77171162D01*
X119493615Y-77260742D01*
X119490502Y-77366149D01*
X119486595Y-77416038D01*
X119481110Y-77464037D01*
X119474035Y-77510137D01*
X119465361Y-77554329D01*
X119455079Y-77596602D01*
X119443179Y-77636946D01*
X119429651Y-77675353D01*
X119414486Y-77711813D01*
X119397673Y-77746315D01*
X119379204Y-77778850D01*
X119359068Y-77809409D01*
X119337255Y-77837981D01*
X119313757Y-77864557D01*
X119288563Y-77889128D01*
X119261664Y-77911683D01*
X119233050Y-77932213D01*
X119202711Y-77950708D01*
X119170638Y-77967159D01*
X119136820Y-77981556D01*
X119101249Y-77993889D01*
X119063915Y-78004148D01*
X119024807Y-78012324D01*
X118983916Y-78018408D01*
X118941233Y-78022388D01*
X118896748Y-78024257D01*
X118850451Y-78024003D01*
X118802332Y-78021618D01*
X118752382Y-78017091D01*
X118700591Y-78010414D01*
X118646949Y-78001576D01*
X118501208Y-77978024D01*
X118361592Y-77947108D01*
X118228021Y-77908907D01*
X118100419Y-77863496D01*
X117978708Y-77810954D01*
X117862811Y-77751358D01*
X117752649Y-77684786D01*
X117648147Y-77611315D01*
X117549225Y-77531023D01*
X117455807Y-77443987D01*
X117367815Y-77350285D01*
X117285171Y-77249994D01*
X117207799Y-77143192D01*
X117135620Y-77029956D01*
X117068557Y-76910364D01*
X117006532Y-76784493D01*
X116968679Y-76724949D01*
X116934392Y-76665327D01*
X116903515Y-76605550D01*
X116875894Y-76545541D01*
X116851374Y-76485222D01*
X116829799Y-76424515D01*
X116811014Y-76363343D01*
X116794866Y-76301628D01*
X116781197Y-76239293D01*
X116769854Y-76176261D01*
X116760682Y-76112454D01*
X116753525Y-76047793D01*
X116748228Y-75982203D01*
X116744636Y-75915605D01*
X116742595Y-75847922D01*
X116741949Y-75779077D01*
X116741949Y-75620327D01*
X116747685Y-75566842D01*
X116754971Y-75515527D01*
X116763808Y-75466383D01*
X116774195Y-75419409D01*
X116786132Y-75374605D01*
X116799620Y-75331972D01*
X116814658Y-75291509D01*
X116831246Y-75253217D01*
X116849384Y-75217095D01*
X116869073Y-75183144D01*
X116890312Y-75151363D01*
X116913101Y-75121752D01*
X116937441Y-75094312D01*
X116963331Y-75069042D01*
X116990771Y-75045943D01*
X117019761Y-75025014D01*
X117050302Y-75006256D01*
X117082393Y-74989667D01*
X117116035Y-74975250D01*
X117151226Y-74963002D01*
X117187968Y-74952926D01*
X117226260Y-74945019D01*
X117266103Y-74939283D01*
X117307496Y-74935717D01*
X117350439Y-74934322D01*
X117394932Y-74935097D01*
G37*
G36*
X139854027Y-75909706D02*
G01*
X139880897Y-75912015D01*
X139907353Y-75915799D01*
X139933356Y-75921004D01*
X139958864Y-75927576D01*
X139983836Y-75935461D01*
X140008231Y-75944608D01*
X140032009Y-75954961D01*
X140055128Y-75966468D01*
X140077548Y-75979074D01*
X140099227Y-75992727D01*
X140120125Y-76007373D01*
X140140201Y-76022959D01*
X140159414Y-76039430D01*
X140177722Y-76056734D01*
X140195086Y-76074817D01*
X140195086Y-75925830D01*
X140482900Y-75925830D01*
X140482900Y-79602162D01*
X140196118Y-79602164D01*
X140196118Y-78753248D01*
X140195767Y-78735294D01*
X140194722Y-78717824D01*
X140192997Y-78700844D01*
X140190609Y-78684360D01*
X140187570Y-78668376D01*
X140183895Y-78652899D01*
X140179598Y-78637935D01*
X140174694Y-78623489D01*
X140169198Y-78609566D01*
X140163123Y-78596172D01*
X140156484Y-78583313D01*
X140149296Y-78570995D01*
X140141572Y-78559222D01*
X140133328Y-78548002D01*
X140124577Y-78537338D01*
X140115334Y-78527238D01*
X140105614Y-78517706D01*
X140095430Y-78508749D01*
X140084798Y-78500371D01*
X140073731Y-78492578D01*
X140062243Y-78485377D01*
X140050350Y-78478772D01*
X140038066Y-78472770D01*
X140025405Y-78467376D01*
X140012382Y-78462595D01*
X139999010Y-78458433D01*
X139985304Y-78454897D01*
X139971279Y-78451990D01*
X139956949Y-78449720D01*
X139942329Y-78448091D01*
X139927432Y-78447110D01*
X139912274Y-78446782D01*
X139897367Y-78447110D01*
X139882706Y-78448091D01*
X139868306Y-78449720D01*
X139854181Y-78451990D01*
X139840347Y-78454897D01*
X139826818Y-78458433D01*
X139813609Y-78462595D01*
X139800735Y-78467376D01*
X139788211Y-78472770D01*
X139776053Y-78478772D01*
X139764274Y-78485377D01*
X139752890Y-78492578D01*
X139741917Y-78500370D01*
X139731367Y-78508748D01*
X139721258Y-78517706D01*
X139711603Y-78527238D01*
X139702417Y-78537338D01*
X139693716Y-78548001D01*
X139685515Y-78559222D01*
X139677827Y-78570994D01*
X139670669Y-78583313D01*
X139664055Y-78596171D01*
X139658000Y-78609565D01*
X139652519Y-78623488D01*
X139647627Y-78637935D01*
X139643339Y-78652899D01*
X139639670Y-78668376D01*
X139636634Y-78684359D01*
X139634247Y-78700844D01*
X139632523Y-78717824D01*
X139631478Y-78735294D01*
X139631127Y-78753248D01*
X139631127Y-79602162D01*
X139344424Y-79602162D01*
X139344424Y-78654743D01*
X139345156Y-78624886D01*
X139347319Y-78595923D01*
X139350860Y-78567856D01*
X139355727Y-78540690D01*
X139361869Y-78514426D01*
X139369233Y-78489071D01*
X139377767Y-78464626D01*
X139387420Y-78441095D01*
X139398139Y-78418483D01*
X139409873Y-78396792D01*
X139422569Y-78376026D01*
X139436176Y-78356190D01*
X139450642Y-78337286D01*
X139465914Y-78319318D01*
X139481940Y-78302290D01*
X139498669Y-78286205D01*
X139516049Y-78271067D01*
X139534028Y-78256879D01*
X139552553Y-78243646D01*
X139571573Y-78231370D01*
X139591036Y-78220056D01*
X139610889Y-78209706D01*
X139631081Y-78200326D01*
X139651561Y-78191917D01*
X139672275Y-78184484D01*
X139693172Y-78178030D01*
X139714200Y-78172560D01*
X139735306Y-78168076D01*
X139756440Y-78164582D01*
X139777549Y-78162082D01*
X139798581Y-78160579D01*
X139819484Y-78160077D01*
X139847674Y-78160737D01*
X139875321Y-78162715D01*
X139902408Y-78166012D01*
X139928920Y-78170627D01*
X139954838Y-78176560D01*
X139980148Y-78183811D01*
X140004833Y-78192379D01*
X140028875Y-78202265D01*
X140052259Y-78213468D01*
X140074967Y-78225988D01*
X140096984Y-78239825D01*
X140118293Y-78254978D01*
X140138877Y-78271447D01*
X140158720Y-78289232D01*
X140177806Y-78308333D01*
X140196117Y-78328750D01*
X140195086Y-77199243D01*
X140174949Y-77217815D01*
X140154583Y-77235547D01*
X140133953Y-77252390D01*
X140113027Y-77268293D01*
X140091771Y-77283209D01*
X140070154Y-77297086D01*
X140048141Y-77309877D01*
X140025699Y-77321530D01*
X140002796Y-77331998D01*
X139979399Y-77341231D01*
X139955475Y-77349178D01*
X139930990Y-77355792D01*
X139905911Y-77361022D01*
X139880206Y-77364818D01*
X139853842Y-77367133D01*
X139826785Y-77367915D01*
X139810591Y-77367686D01*
X139794675Y-77367005D01*
X139779037Y-77365881D01*
X139763677Y-77364323D01*
X139748594Y-77362341D01*
X139733788Y-77359944D01*
X139719258Y-77357142D01*
X139705004Y-77353943D01*
X139691025Y-77350356D01*
X139677321Y-77346392D01*
X139663892Y-77342059D01*
X139650736Y-77337367D01*
X139637854Y-77332325D01*
X139625245Y-77326942D01*
X139600844Y-77315190D01*
X139577529Y-77302187D01*
X139555298Y-77288005D01*
X139534145Y-77272720D01*
X139514067Y-77256406D01*
X139495061Y-77239136D01*
X139477123Y-77220985D01*
X139460249Y-77202027D01*
X139444436Y-77182337D01*
X139430337Y-77163422D01*
X139417507Y-77144313D01*
X139405894Y-77124623D01*
X139395451Y-77103964D01*
X139386127Y-77081952D01*
X139377872Y-77058198D01*
X139370639Y-77032317D01*
X139364377Y-77003922D01*
X139359036Y-76972627D01*
X139354568Y-76938045D01*
X139350923Y-76899790D01*
X139348051Y-76857475D01*
X139344431Y-76759120D01*
X139343312Y-76639888D01*
X139343313Y-76639808D01*
X139630015Y-76639808D01*
X139630239Y-76680894D01*
X139631146Y-76721719D01*
X139633091Y-76761953D01*
X139636428Y-76801267D01*
X139641510Y-76839331D01*
X139644817Y-76857791D01*
X139648693Y-76875814D01*
X139653182Y-76893361D01*
X139658329Y-76910389D01*
X139664179Y-76926857D01*
X139670775Y-76942723D01*
X139678161Y-76957948D01*
X139686383Y-76972489D01*
X139695483Y-76986305D01*
X139705507Y-76999356D01*
X139716499Y-77011599D01*
X139728503Y-77022994D01*
X139741563Y-77033499D01*
X139755723Y-77043073D01*
X139771029Y-77051676D01*
X139787523Y-77059265D01*
X139805251Y-77065800D01*
X139824257Y-77071239D01*
X139844584Y-77075541D01*
X139866277Y-77078665D01*
X139889381Y-77080569D01*
X139913940Y-77081213D01*
X139938246Y-77080530D01*
X139961114Y-77078511D01*
X139982586Y-77075207D01*
X140002707Y-77070666D01*
X140021520Y-77064936D01*
X140039069Y-77058068D01*
X140055398Y-77050109D01*
X140070551Y-77041109D01*
X140084571Y-77031116D01*
X140097502Y-77020180D01*
X140109388Y-77008349D01*
X140120273Y-76995672D01*
X140130201Y-76982199D01*
X140139214Y-76967977D01*
X140147358Y-76953056D01*
X140154675Y-76937485D01*
X140161210Y-76921312D01*
X140167006Y-76904587D01*
X140176556Y-76869675D01*
X140183677Y-76833140D01*
X140188718Y-76795373D01*
X140192030Y-76756765D01*
X140193962Y-76717708D01*
X140195087Y-76639808D01*
X140194863Y-76600535D01*
X140193958Y-76560992D01*
X140192023Y-76521563D01*
X140188707Y-76482637D01*
X140183661Y-76444601D01*
X140180380Y-76426038D01*
X140176535Y-76407842D01*
X140172083Y-76390062D01*
X140166980Y-76372746D01*
X140161182Y-76355944D01*
X140154645Y-76339702D01*
X140147326Y-76324070D01*
X140139181Y-76309095D01*
X140130166Y-76294827D01*
X140120238Y-76281314D01*
X140109353Y-76268603D01*
X140097467Y-76256744D01*
X140084536Y-76245785D01*
X140070517Y-76235774D01*
X140055366Y-76226759D01*
X140039039Y-76218790D01*
X140021493Y-76211913D01*
X140002684Y-76206179D01*
X139982567Y-76201635D01*
X139961100Y-76198329D01*
X139938239Y-76196310D01*
X139913940Y-76195626D01*
X139889381Y-76196270D01*
X139866277Y-76198173D01*
X139844584Y-76201297D01*
X139824257Y-76205599D01*
X139805251Y-76211040D01*
X139787523Y-76217579D01*
X139771029Y-76225174D01*
X139755723Y-76233787D01*
X139741563Y-76243375D01*
X139728503Y-76253898D01*
X139716499Y-76265316D01*
X139705507Y-76277588D01*
X139695483Y-76290673D01*
X139686383Y-76304531D01*
X139678161Y-76319121D01*
X139670775Y-76334403D01*
X139664179Y-76350336D01*
X139658329Y-76366879D01*
X139648693Y-76401633D01*
X139641510Y-76438340D01*
X139636428Y-76476676D01*
X139633091Y-76516316D01*
X139631146Y-76556935D01*
X139630015Y-76639808D01*
X139343313Y-76639808D01*
X139343584Y-76576954D01*
X139344431Y-76519693D01*
X139345904Y-76467714D01*
X139348051Y-76420625D01*
X139350923Y-76378035D01*
X139354568Y-76339553D01*
X139359036Y-76304786D01*
X139364377Y-76273344D01*
X139370639Y-76244834D01*
X139374131Y-76231557D01*
X139377872Y-76218866D01*
X139381869Y-76206712D01*
X139386127Y-76195048D01*
X139390652Y-76183822D01*
X139395451Y-76172988D01*
X139405894Y-76152295D01*
X139417507Y-76132577D01*
X139430337Y-76113444D01*
X139444436Y-76094502D01*
X139460249Y-76074812D01*
X139477124Y-76055854D01*
X139495062Y-76037703D01*
X139514068Y-76020433D01*
X139534145Y-76004119D01*
X139555298Y-75988834D01*
X139577530Y-75974652D01*
X139600844Y-75961649D01*
X139625245Y-75949897D01*
X139650736Y-75939472D01*
X139677321Y-75930447D01*
X139705004Y-75922896D01*
X139733788Y-75916895D01*
X139763677Y-75912516D01*
X139794675Y-75909834D01*
X139826785Y-75908924D01*
X139854027Y-75909706D01*
G37*
G36*
X121709462Y-74035306D02*
G01*
X121808410Y-74042747D01*
X121906892Y-74055150D01*
X122004677Y-74072513D01*
X122101531Y-74094837D01*
X122197223Y-74122122D01*
X122291520Y-74154368D01*
X122384188Y-74191575D01*
X122474997Y-74233743D01*
X122563712Y-74280872D01*
X122650103Y-74332962D01*
X122733935Y-74390013D01*
X122814976Y-74452025D01*
X122892995Y-74518997D01*
X122967758Y-74590931D01*
X123039033Y-74667826D01*
X123096550Y-74733225D01*
X123150047Y-74800350D01*
X123199532Y-74869063D01*
X123245015Y-74939230D01*
X123286506Y-75010715D01*
X123324015Y-75083381D01*
X123357552Y-75157095D01*
X123387125Y-75231719D01*
X123412745Y-75307118D01*
X123434422Y-75383156D01*
X123452165Y-75459699D01*
X123465984Y-75536610D01*
X123475888Y-75613753D01*
X123481887Y-75690993D01*
X123483991Y-75768194D01*
X123482210Y-75845221D01*
X123476553Y-75921938D01*
X123467030Y-75998210D01*
X123453651Y-76073899D01*
X123436425Y-76148872D01*
X123415362Y-76222993D01*
X123390471Y-76296124D01*
X123361763Y-76368132D01*
X123329248Y-76438881D01*
X123292934Y-76508234D01*
X123252831Y-76576056D01*
X123208950Y-76642211D01*
X123161299Y-76706565D01*
X123109889Y-76768980D01*
X123054729Y-76829322D01*
X122995829Y-76887455D01*
X122933199Y-76943243D01*
X122867492Y-76996260D01*
X122799460Y-77046157D01*
X122729258Y-77092914D01*
X122657040Y-77136513D01*
X122582962Y-77176934D01*
X122507179Y-77214157D01*
X122351116Y-77278933D01*
X122190092Y-77330687D01*
X122025348Y-77369264D01*
X121858123Y-77394508D01*
X121689657Y-77406264D01*
X121521192Y-77404378D01*
X121353967Y-77388694D01*
X121189223Y-77359058D01*
X121108168Y-77338959D01*
X121028199Y-77315314D01*
X120949470Y-77288103D01*
X120872136Y-77257307D01*
X120796353Y-77222907D01*
X120722275Y-77184883D01*
X120650057Y-77143215D01*
X120579854Y-77097885D01*
X120511822Y-77048874D01*
X120446116Y-76996160D01*
X120350618Y-76915532D01*
X120262561Y-76832346D01*
X120181946Y-76746524D01*
X120108772Y-76657990D01*
X120074976Y-76612681D01*
X120043040Y-76566665D01*
X120012964Y-76519931D01*
X119984749Y-76472471D01*
X119958394Y-76424275D01*
X119933899Y-76375333D01*
X119911265Y-76325634D01*
X119890491Y-76275171D01*
X119871577Y-76223932D01*
X119854524Y-76171908D01*
X119839331Y-76119090D01*
X119825999Y-76065468D01*
X119814527Y-76011031D01*
X119804915Y-75955771D01*
X119797163Y-75899678D01*
X119791272Y-75842742D01*
X119785071Y-75726302D01*
X119786311Y-75606374D01*
X119794993Y-75482880D01*
X119811116Y-75355743D01*
X119826924Y-75292176D01*
X119844563Y-75230441D01*
X119864005Y-75170507D01*
X119885220Y-75112347D01*
X119908179Y-75055931D01*
X119932853Y-75001230D01*
X119959212Y-74948215D01*
X119987229Y-74896857D01*
X120016874Y-74847126D01*
X120048117Y-74798994D01*
X120080930Y-74752432D01*
X120115283Y-74707411D01*
X120188496Y-74621873D01*
X120267522Y-74542150D01*
X120352129Y-74468007D01*
X120442085Y-74399213D01*
X120537157Y-74335534D01*
X120637112Y-74276739D01*
X120741718Y-74222595D01*
X120850742Y-74172870D01*
X120963952Y-74127330D01*
X121081115Y-74085743D01*
X121110894Y-74085149D01*
X121140750Y-74083469D01*
X121170761Y-74080860D01*
X121201005Y-74077475D01*
X121262500Y-74069000D01*
X121325855Y-74059284D01*
X121391691Y-74049569D01*
X121460627Y-74041094D01*
X121496452Y-74037709D01*
X121533284Y-74035099D01*
X121571202Y-74033420D01*
X121610282Y-74032826D01*
X121709462Y-74035306D01*
G37*
G36*
X123513900Y-70587338D02*
G01*
X123600993Y-70592986D01*
X123688812Y-70603681D01*
X123777213Y-70619531D01*
X123866049Y-70640642D01*
X123955176Y-70667122D01*
X124044449Y-70699076D01*
X124123039Y-70730375D01*
X124200021Y-70764679D01*
X124275336Y-70801889D01*
X124348926Y-70841909D01*
X124420734Y-70884643D01*
X124490701Y-70929992D01*
X124558768Y-70977861D01*
X124624878Y-71028151D01*
X124688973Y-71080768D01*
X124750995Y-71135613D01*
X124810884Y-71192589D01*
X124868584Y-71251600D01*
X124924036Y-71312550D01*
X124977182Y-71375340D01*
X125027964Y-71439874D01*
X125076323Y-71506055D01*
X125122202Y-71573787D01*
X125165543Y-71642972D01*
X125206286Y-71713514D01*
X125244375Y-71785315D01*
X125279751Y-71858279D01*
X125312355Y-71932308D01*
X125342130Y-72007307D01*
X125369018Y-72083178D01*
X125392961Y-72159824D01*
X125413899Y-72237148D01*
X125431776Y-72315053D01*
X125446533Y-72393443D01*
X125458112Y-72472220D01*
X125466454Y-72551289D01*
X125471502Y-72630550D01*
X125473198Y-72709909D01*
X125470433Y-72812831D01*
X125462242Y-72913166D01*
X125448781Y-73010807D01*
X125430203Y-73105647D01*
X125406664Y-73197581D01*
X125378320Y-73286502D01*
X125345325Y-73372303D01*
X125307833Y-73454877D01*
X125266001Y-73534118D01*
X125219984Y-73609919D01*
X125169935Y-73682174D01*
X125116011Y-73750776D01*
X125058366Y-73815618D01*
X124997155Y-73876595D01*
X124932534Y-73933599D01*
X124864657Y-73986524D01*
X124793679Y-74035263D01*
X124719756Y-74079709D01*
X124643042Y-74119757D01*
X124563693Y-74155299D01*
X124481864Y-74186229D01*
X124397709Y-74212440D01*
X124311383Y-74233826D01*
X124223042Y-74250280D01*
X124132841Y-74261696D01*
X124040935Y-74267966D01*
X123947478Y-74268985D01*
X123852626Y-74264646D01*
X123756533Y-74254842D01*
X123659356Y-74239467D01*
X123561248Y-74218413D01*
X123462365Y-74191576D01*
X123373861Y-74159815D01*
X123287014Y-74124151D01*
X123201931Y-74084707D01*
X123118717Y-74041610D01*
X123037480Y-73994987D01*
X122958326Y-73944962D01*
X122881363Y-73891663D01*
X122806695Y-73835215D01*
X122734430Y-73775743D01*
X122664675Y-73713374D01*
X122597536Y-73648235D01*
X122533120Y-73580450D01*
X122471533Y-73510146D01*
X122412882Y-73437448D01*
X122357273Y-73362483D01*
X122304813Y-73285377D01*
X122255609Y-73206256D01*
X122209767Y-73125245D01*
X122167394Y-73042471D01*
X122128597Y-72958059D01*
X122093481Y-72872136D01*
X122062154Y-72784827D01*
X122034722Y-72696258D01*
X122011291Y-72606556D01*
X121991969Y-72515846D01*
X121976862Y-72424254D01*
X121966076Y-72331907D01*
X121959718Y-72238930D01*
X121957895Y-72145449D01*
X121960713Y-72051590D01*
X121968279Y-71957479D01*
X121980699Y-71863242D01*
X121997883Y-71775048D01*
X122019573Y-71689132D01*
X122045622Y-71605598D01*
X122075887Y-71524555D01*
X122110221Y-71446109D01*
X122148480Y-71370366D01*
X122190517Y-71297432D01*
X122236187Y-71227416D01*
X122285346Y-71160422D01*
X122337848Y-71096558D01*
X122393547Y-71035930D01*
X122452298Y-70978645D01*
X122513956Y-70924810D01*
X122578376Y-70874530D01*
X122645412Y-70827913D01*
X122714918Y-70785065D01*
X122786750Y-70746093D01*
X122860762Y-70711103D01*
X122936809Y-70680203D01*
X123014745Y-70653497D01*
X123094425Y-70631094D01*
X123175704Y-70613099D01*
X123258436Y-70599620D01*
X123342477Y-70590762D01*
X123427680Y-70586633D01*
X123513900Y-70587338D01*
G37*
G36*
X118781954Y-64835855D02*
G01*
X118810040Y-64847547D01*
X118837196Y-64860324D01*
X118863577Y-64874109D01*
X118889338Y-64888824D01*
X118914633Y-64904391D01*
X118939619Y-64920734D01*
X118964449Y-64937774D01*
X119014265Y-64973638D01*
X119065322Y-65011361D01*
X119118858Y-65050325D01*
X119146945Y-65070079D01*
X119176116Y-65089910D01*
X119185581Y-65089604D01*
X119194164Y-65088708D01*
X119201914Y-65087250D01*
X119208879Y-65085259D01*
X119215107Y-65082764D01*
X119220648Y-65079794D01*
X119225549Y-65076378D01*
X119229859Y-65072546D01*
X119233627Y-65068327D01*
X119236900Y-65063748D01*
X119239728Y-65058841D01*
X119242158Y-65053633D01*
X119244240Y-65048153D01*
X119246021Y-65042432D01*
X119247550Y-65036497D01*
X119248876Y-65030378D01*
X119251111Y-65017705D01*
X119253114Y-65004643D01*
X119255271Y-64991427D01*
X119257971Y-64978289D01*
X119259646Y-64971821D01*
X119261602Y-64965460D01*
X119263887Y-64959234D01*
X119266550Y-64953174D01*
X119269639Y-64947307D01*
X119273203Y-64941663D01*
X119277290Y-64936271D01*
X119281949Y-64931160D01*
X119296678Y-64936424D01*
X119311107Y-64942270D01*
X119325246Y-64948659D01*
X119339103Y-64955551D01*
X119366014Y-64970692D01*
X119391916Y-64987384D01*
X119416889Y-65005315D01*
X119441009Y-65024177D01*
X119464354Y-65043659D01*
X119487001Y-65063451D01*
X119530513Y-65102725D01*
X119572164Y-65139519D01*
X119592486Y-65156211D01*
X119612575Y-65171352D01*
X119632509Y-65184633D01*
X119652366Y-65195743D01*
X119661831Y-65195438D01*
X119670414Y-65194542D01*
X119678164Y-65193083D01*
X119685129Y-65191092D01*
X119691357Y-65188597D01*
X119696898Y-65185627D01*
X119701799Y-65182212D01*
X119706109Y-65178380D01*
X119709877Y-65174160D01*
X119713150Y-65169582D01*
X119715978Y-65164674D01*
X119718408Y-65159466D01*
X119720490Y-65153987D01*
X119722271Y-65148265D01*
X119723800Y-65142331D01*
X119725126Y-65136212D01*
X119727361Y-65123538D01*
X119729364Y-65110477D01*
X119731521Y-65097261D01*
X119734221Y-65084122D01*
X119735896Y-65077654D01*
X119737852Y-65071293D01*
X119740137Y-65065068D01*
X119742800Y-65059007D01*
X119745889Y-65053140D01*
X119749453Y-65047496D01*
X119753540Y-65042104D01*
X119758199Y-65036993D01*
X119787357Y-65057431D01*
X119815353Y-65078954D01*
X119842264Y-65101408D01*
X119868166Y-65124636D01*
X119893139Y-65148485D01*
X119917259Y-65172799D01*
X119940604Y-65197422D01*
X119963251Y-65222201D01*
X120006762Y-65271604D01*
X120048414Y-65319766D01*
X120088824Y-65365448D01*
X120108759Y-65386972D01*
X120128615Y-65407410D01*
X120287365Y-65301576D01*
X120405704Y-65443066D01*
X120463518Y-65515866D01*
X120519703Y-65590138D01*
X120573718Y-65665960D01*
X120625019Y-65743410D01*
X120673066Y-65822565D01*
X120717313Y-65903503D01*
X120757221Y-65986302D01*
X120792244Y-66071038D01*
X120821842Y-66157790D01*
X120834436Y-66201946D01*
X120845471Y-66246635D01*
X120854878Y-66291866D01*
X120862589Y-66337650D01*
X120868536Y-66383996D01*
X120872653Y-66430913D01*
X120874870Y-66478412D01*
X120875120Y-66526502D01*
X120873336Y-66575192D01*
X120869449Y-66624493D01*
X120868834Y-66648989D01*
X120867007Y-66672875D01*
X120863999Y-66696160D01*
X120859837Y-66718854D01*
X120854551Y-66740967D01*
X120848171Y-66762508D01*
X120840725Y-66783487D01*
X120832242Y-66803913D01*
X120822751Y-66823798D01*
X120812282Y-66843149D01*
X120800863Y-66861977D01*
X120788523Y-66880291D01*
X120775293Y-66898102D01*
X120761199Y-66915418D01*
X120746273Y-66932250D01*
X120730542Y-66948607D01*
X120696785Y-66979936D01*
X120660159Y-67009482D01*
X120620898Y-67037323D01*
X120579234Y-67063536D01*
X120535399Y-67088198D01*
X120489627Y-67111388D01*
X120442149Y-67133183D01*
X120393199Y-67153660D01*
X120253660Y-67046366D01*
X120112803Y-66942716D01*
X119970550Y-66842632D01*
X119826825Y-66746036D01*
X119681550Y-66652850D01*
X119534647Y-66562998D01*
X119386038Y-66476401D01*
X119235647Y-66392983D01*
X119083395Y-66312664D01*
X118929206Y-66235369D01*
X118773001Y-66161020D01*
X118614703Y-66089539D01*
X118454235Y-66020848D01*
X118291518Y-65954870D01*
X118126477Y-65891527D01*
X117959032Y-65830743D01*
X118551865Y-66182143D01*
X118843630Y-66358153D01*
X119129814Y-66538503D01*
X119408556Y-66726296D01*
X119544556Y-66823951D01*
X119677997Y-66924630D01*
X119808648Y-67028719D01*
X119936276Y-67136606D01*
X120060648Y-67248680D01*
X120181532Y-67365326D01*
X120174574Y-67419270D01*
X120163691Y-67471935D01*
X120148990Y-67523282D01*
X120130579Y-67573272D01*
X120108563Y-67621867D01*
X120083050Y-67669029D01*
X120054145Y-67714717D01*
X120021955Y-67758894D01*
X119986588Y-67801521D01*
X119948148Y-67842558D01*
X119906744Y-67881968D01*
X119862482Y-67919711D01*
X119815468Y-67955749D01*
X119765808Y-67990043D01*
X119713610Y-68022554D01*
X119658980Y-68053243D01*
X119602025Y-68082072D01*
X119542850Y-68109002D01*
X119481564Y-68133994D01*
X119418271Y-68157009D01*
X119353080Y-68178009D01*
X119286096Y-68196955D01*
X119217426Y-68213808D01*
X119147177Y-68228529D01*
X119075455Y-68241080D01*
X119002367Y-68251422D01*
X118928019Y-68259516D01*
X118852518Y-68265323D01*
X118775971Y-68268805D01*
X118698483Y-68269922D01*
X118620163Y-68268637D01*
X118541116Y-68264910D01*
X118536612Y-68260099D01*
X118532990Y-68255569D01*
X118530201Y-68251291D01*
X118528197Y-68247236D01*
X118526929Y-68243375D01*
X118526349Y-68239678D01*
X118526409Y-68236118D01*
X118527060Y-68232663D01*
X118528253Y-68229287D01*
X118529941Y-68225958D01*
X118532074Y-68222649D01*
X118534605Y-68219331D01*
X118540664Y-68212548D01*
X118547730Y-68205378D01*
X118555417Y-68197588D01*
X118563337Y-68188945D01*
X118567263Y-68184231D01*
X118571101Y-68179217D01*
X118574804Y-68173873D01*
X118578323Y-68168171D01*
X118581609Y-68162081D01*
X118584615Y-68155575D01*
X118587291Y-68148623D01*
X118589589Y-68141196D01*
X118591460Y-68133265D01*
X118592857Y-68124802D01*
X118593731Y-68115776D01*
X118594033Y-68106159D01*
X118553764Y-68097413D01*
X118512487Y-68090760D01*
X118470435Y-68085812D01*
X118427841Y-68082182D01*
X118256688Y-68073087D01*
X118214869Y-68070231D01*
X118173903Y-68066369D01*
X118134021Y-68061110D01*
X118095458Y-68054070D01*
X118058445Y-68044858D01*
X118023214Y-68033089D01*
X117989999Y-68018374D01*
X117974220Y-68009791D01*
X117959032Y-68000326D01*
X117959334Y-67995517D01*
X117960208Y-67990999D01*
X117961605Y-67986751D01*
X117963476Y-67982756D01*
X117965774Y-67978993D01*
X117968450Y-67975444D01*
X117971455Y-67972088D01*
X117974742Y-67968907D01*
X117978261Y-67965881D01*
X117981964Y-67962990D01*
X117989728Y-67957538D01*
X118005334Y-67947410D01*
X118012401Y-67942423D01*
X118015581Y-67939881D01*
X118018460Y-67937281D01*
X118020991Y-67934604D01*
X118023124Y-67931829D01*
X118024811Y-67928939D01*
X118026005Y-67925912D01*
X118026656Y-67922731D01*
X118026715Y-67919375D01*
X118026136Y-67915826D01*
X118024868Y-67912063D01*
X118022864Y-67908068D01*
X118020075Y-67903821D01*
X118016453Y-67899302D01*
X118011949Y-67894493D01*
X117482782Y-67629910D01*
X117483087Y-67625100D01*
X117483984Y-67620582D01*
X117485442Y-67616335D01*
X117487433Y-67612340D01*
X117489928Y-67608577D01*
X117492898Y-67605027D01*
X117496313Y-67601672D01*
X117500145Y-67598490D01*
X117504365Y-67595464D01*
X117508943Y-67592573D01*
X117513851Y-67589799D01*
X117519059Y-67587122D01*
X117530260Y-67581980D01*
X117542313Y-67576993D01*
X117568048Y-67566864D01*
X117581265Y-67561413D01*
X117594403Y-67555496D01*
X117607232Y-67548959D01*
X117613458Y-67545409D01*
X117619518Y-67541646D01*
X117625385Y-67537651D01*
X117631029Y-67533404D01*
X117636421Y-67528886D01*
X117641532Y-67524076D01*
X117611172Y-67504814D01*
X117579727Y-67486559D01*
X117547352Y-67469080D01*
X117514202Y-67452143D01*
X117376949Y-67385170D01*
X117342248Y-67367458D01*
X117307703Y-67348893D01*
X117273467Y-67329243D01*
X117239696Y-67308276D01*
X117206546Y-67285758D01*
X117174171Y-67261457D01*
X117142726Y-67235141D01*
X117112366Y-67206576D01*
X117117327Y-67201917D01*
X117122287Y-67197830D01*
X117127248Y-67194266D01*
X117132209Y-67191177D01*
X117137170Y-67188514D01*
X117142131Y-67186229D01*
X117147092Y-67184273D01*
X117152053Y-67182599D01*
X117161975Y-67179899D01*
X117171897Y-67177741D01*
X117181819Y-67175739D01*
X117191741Y-67173504D01*
X117201663Y-67170648D01*
X117206624Y-67168867D01*
X117211584Y-67166786D01*
X117216545Y-67164355D01*
X117221506Y-67161528D01*
X117226467Y-67158254D01*
X117231428Y-67154487D01*
X117236389Y-67150177D01*
X117241350Y-67145275D01*
X117246311Y-67139735D01*
X117251272Y-67133506D01*
X117256233Y-67126541D01*
X117261194Y-67118791D01*
X117266155Y-67110208D01*
X117271116Y-67100743D01*
X117211688Y-67060952D01*
X117152880Y-67020541D01*
X117095312Y-66978890D01*
X117067187Y-66957405D01*
X117039605Y-66935378D01*
X117012643Y-66912731D01*
X116986378Y-66889386D01*
X116960889Y-66865266D01*
X116936252Y-66840294D01*
X116912546Y-66814391D01*
X116889847Y-66787480D01*
X116868233Y-66759485D01*
X116847782Y-66730326D01*
X117006532Y-66677410D01*
X116689032Y-66254076D01*
X116708282Y-66254645D01*
X116726446Y-66256143D01*
X116743680Y-66258262D01*
X116760139Y-66260691D01*
X116791352Y-66265238D01*
X116806415Y-66266737D01*
X116821324Y-66267305D01*
X116828769Y-66267144D01*
X116836233Y-66266633D01*
X116843735Y-66265736D01*
X116851296Y-66264411D01*
X116858935Y-66262622D01*
X116866670Y-66260329D01*
X116874522Y-66257493D01*
X116882509Y-66254076D01*
X116890651Y-66250039D01*
X116898968Y-66245343D01*
X116907478Y-66239949D01*
X116916202Y-66233819D01*
X116925158Y-66226914D01*
X116934366Y-66219195D01*
X116943846Y-66210623D01*
X116953616Y-66201160D01*
X116943392Y-66186579D01*
X116932596Y-66172570D01*
X116921277Y-66159084D01*
X116909484Y-66146073D01*
X116884666Y-66121281D01*
X116858531Y-66097807D01*
X116831465Y-66075263D01*
X116803857Y-66053262D01*
X116748563Y-66009337D01*
X116721653Y-65986638D01*
X116695750Y-65962931D01*
X116671242Y-65937829D01*
X116659633Y-65924634D01*
X116648518Y-65910945D01*
X116637945Y-65896713D01*
X116627963Y-65881890D01*
X116618621Y-65866427D01*
X116609967Y-65850277D01*
X116602049Y-65833390D01*
X116594916Y-65815718D01*
X116588617Y-65797213D01*
X116583199Y-65777826D01*
X116794866Y-65724910D01*
X116794560Y-65710179D01*
X116793664Y-65695738D01*
X116792206Y-65681569D01*
X116790215Y-65667652D01*
X116784750Y-65640496D01*
X116777502Y-65614115D01*
X116768704Y-65588355D01*
X116758589Y-65563059D01*
X116747388Y-65538073D01*
X116735334Y-65513243D01*
X116683244Y-65412371D01*
X116670416Y-65385990D01*
X116658129Y-65358834D01*
X116646619Y-65330748D01*
X116636115Y-65301576D01*
X117165282Y-65248660D01*
X117112366Y-65089910D01*
X117132209Y-65080600D01*
X117152053Y-65072482D01*
X117171897Y-65065507D01*
X117191741Y-65059627D01*
X117211584Y-65054794D01*
X117231428Y-65050959D01*
X117251272Y-65048073D01*
X117271115Y-65046088D01*
X117310803Y-65044628D01*
X117350490Y-65046191D01*
X117390178Y-65050390D01*
X117429865Y-65056837D01*
X117469553Y-65065144D01*
X117509240Y-65074924D01*
X117588615Y-65097351D01*
X117667991Y-65121019D01*
X117747366Y-65142826D01*
X117747366Y-64931160D01*
X117777144Y-64932348D01*
X117807000Y-64935707D01*
X117837011Y-64940926D01*
X117867255Y-64947696D01*
X117897809Y-64955706D01*
X117928750Y-64964646D01*
X117992105Y-64984076D01*
X118057941Y-65003507D01*
X118091983Y-65012447D01*
X118126877Y-65020457D01*
X118162702Y-65027226D01*
X118199534Y-65032445D01*
X118237452Y-65035804D01*
X118276532Y-65036993D01*
X118280884Y-65027375D01*
X118284064Y-65018338D01*
X118286139Y-65009843D01*
X118287177Y-65001853D01*
X118287247Y-64994328D01*
X118286415Y-64987229D01*
X118284750Y-64980517D01*
X118282320Y-64974154D01*
X118279192Y-64968102D01*
X118275434Y-64962321D01*
X118271114Y-64956772D01*
X118266300Y-64951417D01*
X118261060Y-64946217D01*
X118255461Y-64941133D01*
X118243459Y-64931160D01*
X118218138Y-64910902D01*
X118205903Y-64899999D01*
X118200130Y-64894217D01*
X118194677Y-64888165D01*
X118189611Y-64881802D01*
X118185000Y-64875091D01*
X118180913Y-64867992D01*
X118177417Y-64860466D01*
X118174580Y-64852476D01*
X118172469Y-64843981D01*
X118171153Y-64834945D01*
X118170699Y-64825326D01*
X118209779Y-64826541D01*
X118247697Y-64830081D01*
X118284529Y-64835791D01*
X118320354Y-64843516D01*
X118355248Y-64853102D01*
X118389290Y-64864394D01*
X118422557Y-64877235D01*
X118455126Y-64891472D01*
X118487075Y-64906949D01*
X118518481Y-64923512D01*
X118549422Y-64941004D01*
X118579976Y-64959272D01*
X118640231Y-64997512D01*
X118699866Y-65036993D01*
X118704523Y-65032030D01*
X118708599Y-65027058D01*
X118712133Y-65022067D01*
X118715162Y-65017046D01*
X118717727Y-65011986D01*
X118719865Y-65006879D01*
X118721615Y-65001713D01*
X118723017Y-64996479D01*
X118724109Y-64991167D01*
X118724929Y-64985769D01*
X118725911Y-64974671D01*
X118726273Y-64963109D01*
X118726324Y-64951003D01*
X118726376Y-64938278D01*
X118726738Y-64924855D01*
X118727720Y-64910657D01*
X118728540Y-64903243D01*
X118729632Y-64895606D01*
X118731033Y-64887737D01*
X118732784Y-64879625D01*
X118734922Y-64871262D01*
X118737486Y-64862637D01*
X118740516Y-64853740D01*
X118744049Y-64844563D01*
X118748125Y-64835095D01*
X118752783Y-64825326D01*
X118781954Y-64835855D01*
G37*
G36*
X126279558Y-71718238D02*
G01*
X126293553Y-71719499D01*
X126307954Y-71721894D01*
X126322782Y-71725432D01*
X126338056Y-71730124D01*
X126353794Y-71735978D01*
X126370017Y-71743004D01*
X126386744Y-71751213D01*
X126403995Y-71760613D01*
X126421787Y-71771215D01*
X126440142Y-71783027D01*
X126459078Y-71796061D01*
X126478615Y-71810326D01*
X126527601Y-71840863D01*
X126575328Y-71872932D01*
X126621775Y-71906512D01*
X126666924Y-71941584D01*
X126710755Y-71978129D01*
X126753249Y-72016127D01*
X126794387Y-72055560D01*
X126834149Y-72096407D01*
X126872515Y-72138649D01*
X126909467Y-72182267D01*
X126944985Y-72227242D01*
X126979050Y-72273553D01*
X127011641Y-72321183D01*
X127042741Y-72370111D01*
X127072329Y-72420318D01*
X127100386Y-72471784D01*
X127126893Y-72524491D01*
X127151830Y-72578419D01*
X127175178Y-72633548D01*
X127196917Y-72689859D01*
X127217029Y-72747333D01*
X127235494Y-72805950D01*
X127252292Y-72865691D01*
X127267404Y-72926537D01*
X127280811Y-72988468D01*
X127292493Y-73051465D01*
X127302431Y-73115508D01*
X127310605Y-73180578D01*
X127316997Y-73246656D01*
X127321587Y-73313722D01*
X127324355Y-73381758D01*
X127325282Y-73450742D01*
X127323421Y-73530699D01*
X127317840Y-73611663D01*
X127308538Y-73693402D01*
X127295516Y-73775683D01*
X127278773Y-73858275D01*
X127258309Y-73940945D01*
X127234124Y-74023459D01*
X127206219Y-74105586D01*
X127174593Y-74187092D01*
X127139246Y-74267746D01*
X127100179Y-74347315D01*
X127057391Y-74425566D01*
X127010882Y-74502267D01*
X126960653Y-74577185D01*
X126906702Y-74650087D01*
X126849032Y-74720742D01*
X126819860Y-74748647D01*
X126805691Y-74761204D01*
X126791774Y-74772832D01*
X126778089Y-74783529D01*
X126764618Y-74793295D01*
X126751340Y-74802132D01*
X126738237Y-74810039D01*
X126725289Y-74817015D01*
X126712476Y-74823061D01*
X126699780Y-74828177D01*
X126687181Y-74832363D01*
X126674659Y-74835618D01*
X126662195Y-74837944D01*
X126649770Y-74839339D01*
X126637365Y-74839804D01*
X126624959Y-74839339D01*
X126612534Y-74837944D01*
X126600071Y-74835618D01*
X126587549Y-74832363D01*
X126574949Y-74828177D01*
X126562253Y-74823061D01*
X126549441Y-74817015D01*
X126536493Y-74810039D01*
X126523389Y-74802132D01*
X126510112Y-74793295D01*
X126496641Y-74783529D01*
X126482956Y-74772832D01*
X126469039Y-74761204D01*
X126454870Y-74748647D01*
X126425699Y-74720742D01*
X126396553Y-74680447D01*
X126368648Y-74638990D01*
X126341983Y-74596447D01*
X126316558Y-74552897D01*
X126292374Y-74508416D01*
X126269429Y-74463083D01*
X126247725Y-74416975D01*
X126227261Y-74370169D01*
X126208038Y-74322743D01*
X126190054Y-74274774D01*
X126173311Y-74226341D01*
X126157808Y-74177519D01*
X126143546Y-74128388D01*
X126130523Y-74079024D01*
X126118741Y-74029505D01*
X126108199Y-73979909D01*
X126079674Y-73880083D01*
X126053629Y-73779094D01*
X126030064Y-73677020D01*
X126008980Y-73573939D01*
X125990377Y-73469927D01*
X125974253Y-73365063D01*
X125960611Y-73259423D01*
X125949449Y-73153086D01*
X125940767Y-73046128D01*
X125934566Y-72938629D01*
X125930845Y-72830664D01*
X125929605Y-72722311D01*
X125930845Y-72613648D01*
X125934566Y-72504753D01*
X125940767Y-72395703D01*
X125949449Y-72286575D01*
X125950056Y-72266137D01*
X125951826Y-72244614D01*
X125954681Y-72222160D01*
X125958544Y-72198932D01*
X125963337Y-72175083D01*
X125968983Y-72150769D01*
X125975403Y-72126146D01*
X125982522Y-72101367D01*
X125990260Y-72076588D01*
X125998542Y-72051964D01*
X126016422Y-72003802D01*
X126035542Y-71958120D01*
X126045374Y-71936597D01*
X126055283Y-71916159D01*
X126075152Y-71878344D01*
X126085136Y-71860857D01*
X126095177Y-71844329D01*
X126105296Y-71828769D01*
X126115512Y-71814188D01*
X126125844Y-71800596D01*
X126136311Y-71788001D01*
X126146934Y-71776414D01*
X126157731Y-71765845D01*
X126168722Y-71756303D01*
X126179926Y-71747797D01*
X126191363Y-71740338D01*
X126203051Y-71733935D01*
X126215011Y-71728598D01*
X126227262Y-71724336D01*
X126239822Y-71721160D01*
X126252712Y-71719078D01*
X126265951Y-71718101D01*
X126279558Y-71718238D01*
G37*
G36*
X135740331Y-65252748D02*
G01*
X135743346Y-65252972D01*
X135746347Y-65253342D01*
X135749328Y-65253853D01*
X135752286Y-65254502D01*
X135755216Y-65255284D01*
X135758113Y-65256198D01*
X135760973Y-65257237D01*
X135763792Y-65258400D01*
X135766565Y-65259682D01*
X135771955Y-65262588D01*
X135777106Y-65265927D01*
X135781984Y-65269668D01*
X135786552Y-65273783D01*
X135790775Y-65278240D01*
X135794616Y-65283012D01*
X135796382Y-65285506D01*
X135798039Y-65288067D01*
X135799583Y-65290692D01*
X135801009Y-65293377D01*
X135802313Y-65296118D01*
X135803489Y-65298911D01*
X135804535Y-65301754D01*
X135805445Y-65304641D01*
X135806214Y-65307570D01*
X135806839Y-65310536D01*
X136057981Y-66660150D01*
X136059385Y-66666141D01*
X136061315Y-66672152D01*
X136063735Y-66678145D01*
X136066613Y-66684080D01*
X136069915Y-66689917D01*
X136073608Y-66695618D01*
X136077658Y-66701144D01*
X136082031Y-66706455D01*
X136086695Y-66711512D01*
X136091616Y-66716275D01*
X136096760Y-66720707D01*
X136102094Y-66724767D01*
X136107583Y-66728416D01*
X136113196Y-66731616D01*
X136118898Y-66734326D01*
X136124656Y-66736508D01*
X137029293Y-67106793D01*
X137034927Y-67109267D01*
X137040899Y-67111333D01*
X137047156Y-67112996D01*
X137053647Y-67114258D01*
X137060319Y-67115123D01*
X137067120Y-67115595D01*
X137073996Y-67115678D01*
X137080896Y-67115375D01*
X137087768Y-67114690D01*
X137094558Y-67113626D01*
X137101214Y-67112186D01*
X137107684Y-67110376D01*
X137113916Y-67108197D01*
X137119856Y-67105654D01*
X137125453Y-67102751D01*
X137130654Y-67099490D01*
X138258098Y-66325743D01*
X138260645Y-66324088D01*
X138263267Y-66322563D01*
X138265959Y-66321165D01*
X138268714Y-66319896D01*
X138271527Y-66318753D01*
X138274393Y-66317737D01*
X138280256Y-66316084D01*
X138286259Y-66314931D01*
X138292355Y-66314274D01*
X138298498Y-66314109D01*
X138304641Y-66314432D01*
X138310738Y-66315238D01*
X138316744Y-66316525D01*
X138322612Y-66318286D01*
X138328296Y-66320519D01*
X138333749Y-66323218D01*
X138336375Y-66324742D01*
X138338926Y-66326381D01*
X138341397Y-66328134D01*
X138343781Y-66330002D01*
X138346073Y-66331983D01*
X138348267Y-66334077D01*
X139297910Y-67283640D01*
X139299997Y-67285841D01*
X139301972Y-67288140D01*
X139303835Y-67290530D01*
X139305584Y-67293007D01*
X139307219Y-67295563D01*
X139308739Y-67298194D01*
X139310145Y-67300894D01*
X139311435Y-67303656D01*
X139312609Y-67306476D01*
X139313666Y-67309347D01*
X139315428Y-67315219D01*
X139316716Y-67321228D01*
X139317526Y-67327326D01*
X139317853Y-67333468D01*
X139317693Y-67339608D01*
X139317041Y-67345699D01*
X139316529Y-67348712D01*
X139315892Y-67351695D01*
X139315130Y-67354644D01*
X139314243Y-67357551D01*
X139313229Y-67360411D01*
X139312088Y-67363219D01*
X139310820Y-67365969D01*
X139309423Y-67368654D01*
X139307898Y-67371270D01*
X139306244Y-67373810D01*
X138545912Y-68481885D01*
X138542670Y-68487123D01*
X138539792Y-68492741D01*
X138537282Y-68498689D01*
X138535143Y-68504915D01*
X138533378Y-68511369D01*
X138531991Y-68517999D01*
X138530985Y-68524754D01*
X138530364Y-68531584D01*
X138530131Y-68538437D01*
X138530289Y-68545262D01*
X138530841Y-68552008D01*
X138531792Y-68558625D01*
X138533144Y-68565060D01*
X138534901Y-68571264D01*
X138537065Y-68577184D01*
X138539642Y-68582771D01*
X138939691Y-69515903D01*
X138940757Y-69518773D01*
X138941960Y-69521633D01*
X138944754Y-69527310D01*
X138948033Y-69532902D01*
X138951758Y-69538373D01*
X138955890Y-69543690D01*
X138960388Y-69548819D01*
X138965215Y-69553727D01*
X138970330Y-69558379D01*
X138975694Y-69562742D01*
X138981268Y-69566782D01*
X138987013Y-69570465D01*
X138992890Y-69573757D01*
X138998858Y-69576624D01*
X139004880Y-69579033D01*
X139010914Y-69580950D01*
X139013925Y-69581713D01*
X139016923Y-69582340D01*
X140321690Y-69824990D01*
X140324663Y-69825628D01*
X140327598Y-69826410D01*
X140330490Y-69827332D01*
X140333337Y-69828388D01*
X140336134Y-69829574D01*
X140338878Y-69830886D01*
X140341566Y-69832319D01*
X140344192Y-69833870D01*
X140346755Y-69835532D01*
X140349249Y-69837303D01*
X140351673Y-69839178D01*
X140354021Y-69841152D01*
X140356290Y-69843221D01*
X140358476Y-69845380D01*
X140360577Y-69847626D01*
X140362588Y-69849953D01*
X140364505Y-69852357D01*
X140366325Y-69854834D01*
X140368044Y-69857380D01*
X140369659Y-69859989D01*
X140371166Y-69862658D01*
X140372560Y-69865382D01*
X140373840Y-69868156D01*
X140375000Y-69870977D01*
X140376038Y-69873840D01*
X140376949Y-69876740D01*
X140377730Y-69879674D01*
X140378377Y-69882636D01*
X140378886Y-69885622D01*
X140379255Y-69888627D01*
X140379479Y-69891649D01*
X140379554Y-69894681D01*
X140379474Y-71237626D01*
X140379399Y-71240659D01*
X140379174Y-71243682D01*
X140378804Y-71246691D01*
X140378293Y-71249681D01*
X140377645Y-71252648D01*
X140376862Y-71255587D01*
X140375949Y-71258493D01*
X140374909Y-71261363D01*
X140372464Y-71266973D01*
X140369558Y-71272381D01*
X140366219Y-71277549D01*
X140362478Y-71282443D01*
X140358363Y-71287025D01*
X140353906Y-71291259D01*
X140349134Y-71295109D01*
X140346640Y-71296878D01*
X140344079Y-71298538D01*
X140341454Y-71300083D01*
X140338769Y-71301509D01*
X140336028Y-71302812D01*
X140333234Y-71303988D01*
X140330392Y-71305030D01*
X140327505Y-71305936D01*
X140324576Y-71306700D01*
X140321609Y-71307318D01*
X139048832Y-71544172D01*
X139045842Y-71544787D01*
X139042844Y-71545540D01*
X139036844Y-71547445D01*
X139030869Y-71549853D01*
X139024959Y-71552730D01*
X139019152Y-71556040D01*
X139013488Y-71559749D01*
X139008006Y-71563822D01*
X139002745Y-71568223D01*
X138997743Y-71572918D01*
X138993039Y-71577873D01*
X138988673Y-71583051D01*
X138984683Y-71588419D01*
X138981109Y-71593941D01*
X138977988Y-71599583D01*
X138975361Y-71605309D01*
X138974245Y-71608193D01*
X138973267Y-71611086D01*
X138575916Y-72603670D01*
X138573457Y-72609316D01*
X138571405Y-72615295D01*
X138569758Y-72621556D01*
X138568510Y-72628047D01*
X138567660Y-72634715D01*
X138567202Y-72641511D01*
X138567135Y-72648381D01*
X138567453Y-72655273D01*
X138568153Y-72662137D01*
X138569232Y-72668921D01*
X138570686Y-72675572D01*
X138572512Y-72682039D01*
X138574705Y-72688270D01*
X138577263Y-72694214D01*
X138580181Y-72699818D01*
X138583457Y-72705031D01*
X139306404Y-73758576D01*
X139308051Y-73761116D01*
X139309570Y-73763733D01*
X139310961Y-73766419D01*
X139312225Y-73769170D01*
X139313362Y-73771980D01*
X139314373Y-73774843D01*
X139316018Y-73780703D01*
X139317165Y-73786706D01*
X139317817Y-73792803D01*
X139317979Y-73798950D01*
X139317655Y-73805100D01*
X139316850Y-73811206D01*
X139315566Y-73817221D01*
X139313810Y-73823101D01*
X139311584Y-73828797D01*
X139308893Y-73834264D01*
X139307374Y-73836897D01*
X139305741Y-73839455D01*
X139303993Y-73841933D01*
X139302132Y-73844325D01*
X139300157Y-73846624D01*
X139298070Y-73848825D01*
X138348348Y-74798389D01*
X138346154Y-74800468D01*
X138343862Y-74802436D01*
X138341478Y-74804291D01*
X138339008Y-74806033D01*
X138336456Y-74807661D01*
X138333830Y-74809175D01*
X138331135Y-74810574D01*
X138328377Y-74811858D01*
X138325561Y-74813026D01*
X138322693Y-74814077D01*
X138316825Y-74815829D01*
X138310819Y-74817110D01*
X138304722Y-74817915D01*
X138298579Y-74818240D01*
X138292436Y-74818080D01*
X138286341Y-74817433D01*
X138283325Y-74816925D01*
X138280338Y-74816293D01*
X138277386Y-74815537D01*
X138274474Y-74814656D01*
X138271609Y-74813650D01*
X138268796Y-74812518D01*
X138266040Y-74811260D01*
X138263349Y-74809875D01*
X138260726Y-74808363D01*
X138258179Y-74806723D01*
X137223287Y-74096397D01*
X137218084Y-74093171D01*
X137212509Y-74090341D01*
X137206614Y-74087908D01*
X137200451Y-74085873D01*
X137194069Y-74084238D01*
X137187519Y-74083003D01*
X137180854Y-74082171D01*
X137174124Y-74081742D01*
X137167380Y-74081717D01*
X137160673Y-74082099D01*
X137154054Y-74082888D01*
X137147575Y-74084085D01*
X137141285Y-74085692D01*
X137135237Y-74087709D01*
X137129481Y-74090140D01*
X137124068Y-74092983D01*
X136667662Y-74336665D01*
X136664940Y-74337969D01*
X136662194Y-74339116D01*
X136659430Y-74340107D01*
X136656652Y-74340944D01*
X136653864Y-74341628D01*
X136651072Y-74342162D01*
X136648280Y-74342547D01*
X136645494Y-74342785D01*
X136642718Y-74342878D01*
X136639956Y-74342827D01*
X136637214Y-74342635D01*
X136634497Y-74342303D01*
X136631808Y-74341833D01*
X136629154Y-74341226D01*
X136626538Y-74340485D01*
X136623966Y-74339611D01*
X136621443Y-74338607D01*
X136618972Y-74337473D01*
X136616559Y-74336212D01*
X136614210Y-74334825D01*
X136611927Y-74333315D01*
X136609717Y-74331682D01*
X136607585Y-74329930D01*
X136605534Y-74328059D01*
X136603570Y-74326071D01*
X136601697Y-74323969D01*
X136599921Y-74321753D01*
X136598246Y-74319426D01*
X136596677Y-74316990D01*
X136595218Y-74314446D01*
X136593875Y-74311796D01*
X136592653Y-74309042D01*
X135651582Y-72035186D01*
X135650486Y-72032357D01*
X135649535Y-72029486D01*
X135648726Y-72026576D01*
X135648058Y-72023635D01*
X135647528Y-72020667D01*
X135647136Y-72017677D01*
X135646756Y-72011656D01*
X135646903Y-72005615D01*
X135647562Y-71999596D01*
X135648719Y-71993643D01*
X135650361Y-71987799D01*
X135652473Y-71982108D01*
X135655039Y-71976613D01*
X135658047Y-71971356D01*
X135661482Y-71966383D01*
X135665330Y-71961734D01*
X135667403Y-71959546D01*
X135669575Y-71957455D01*
X135671843Y-71955467D01*
X135674205Y-71953587D01*
X135676659Y-71951822D01*
X135679204Y-71950175D01*
X135793425Y-71880246D01*
X135801669Y-71875010D01*
X135810460Y-71869034D01*
X135819635Y-71862448D01*
X135829034Y-71855382D01*
X135838497Y-71847966D01*
X135847862Y-71840330D01*
X135856969Y-71832606D01*
X135865656Y-71824922D01*
X135941255Y-71773167D01*
X136013406Y-71716974D01*
X136081913Y-71656538D01*
X136146578Y-71592055D01*
X136207204Y-71523722D01*
X136263593Y-71451734D01*
X136315548Y-71376286D01*
X136362871Y-71297574D01*
X136405367Y-71215795D01*
X136424742Y-71173816D01*
X136442836Y-71131144D01*
X136459624Y-71087803D01*
X136475082Y-71043817D01*
X136489185Y-70999211D01*
X136501908Y-70954010D01*
X136513227Y-70908237D01*
X136523116Y-70861918D01*
X136531552Y-70815076D01*
X136538509Y-70767737D01*
X136543963Y-70719924D01*
X136547889Y-70671663D01*
X136550263Y-70622978D01*
X136551060Y-70573893D01*
X136549127Y-70497464D01*
X136543391Y-70422038D01*
X136533946Y-70347710D01*
X136520884Y-70274571D01*
X136504298Y-70202716D01*
X136484283Y-70132238D01*
X136460932Y-70063230D01*
X136434338Y-69995785D01*
X136404594Y-69929996D01*
X136371793Y-69865958D01*
X136336030Y-69803763D01*
X136297397Y-69743504D01*
X136255987Y-69685276D01*
X136211895Y-69629170D01*
X136165213Y-69575281D01*
X136116035Y-69523702D01*
X136064454Y-69474526D01*
X136010564Y-69427846D01*
X135954457Y-69383756D01*
X135896228Y-69342349D01*
X135835969Y-69303719D01*
X135773774Y-69267958D01*
X135709736Y-69235160D01*
X135643949Y-69205418D01*
X135576505Y-69178826D01*
X135507499Y-69155477D01*
X135437024Y-69135464D01*
X135365173Y-69118880D01*
X135292039Y-69105819D01*
X135217715Y-69096375D01*
X135142296Y-69090639D01*
X135065874Y-69088707D01*
X134989453Y-69090639D01*
X134914034Y-69096375D01*
X134839712Y-69105819D01*
X134766579Y-69118880D01*
X134694730Y-69135464D01*
X134624256Y-69155477D01*
X134555253Y-69178826D01*
X134487812Y-69205418D01*
X134422028Y-69235160D01*
X134357993Y-69267958D01*
X134295801Y-69303719D01*
X134235546Y-69342349D01*
X134177320Y-69383756D01*
X134121217Y-69427846D01*
X134067330Y-69474526D01*
X134015753Y-69523702D01*
X133966579Y-69575281D01*
X133919900Y-69629170D01*
X133875812Y-69685276D01*
X133834406Y-69743504D01*
X133795776Y-69803763D01*
X133760016Y-69865958D01*
X133727219Y-69929996D01*
X133697478Y-69995785D01*
X133670886Y-70063230D01*
X133647537Y-70132238D01*
X133627524Y-70202716D01*
X133610941Y-70274571D01*
X133597880Y-70347710D01*
X133588436Y-70422038D01*
X133582701Y-70497464D01*
X133580768Y-70573893D01*
X133583938Y-70671663D01*
X133593316Y-70767737D01*
X133608705Y-70861918D01*
X133629909Y-70954010D01*
X133656730Y-71043817D01*
X133688971Y-71131144D01*
X133726436Y-71215795D01*
X133768927Y-71297574D01*
X133816247Y-71376285D01*
X133868200Y-71451733D01*
X133924589Y-71523722D01*
X133985216Y-71592055D01*
X134049885Y-71656538D01*
X134118398Y-71716974D01*
X134190560Y-71773167D01*
X134266171Y-71824922D01*
X134274809Y-71832606D01*
X134283884Y-71840330D01*
X134293231Y-71847966D01*
X134302684Y-71855382D01*
X134312077Y-71862448D01*
X134321245Y-71869035D01*
X134330022Y-71875011D01*
X134338243Y-71880246D01*
X134452465Y-71950175D01*
X134454995Y-71951822D01*
X134457437Y-71953587D01*
X134459787Y-71955467D01*
X134462044Y-71957455D01*
X134464207Y-71959546D01*
X134466273Y-71961734D01*
X134468241Y-71964015D01*
X134470108Y-71966383D01*
X134471873Y-71968832D01*
X134473535Y-71971356D01*
X134475090Y-71973952D01*
X134476538Y-71976613D01*
X134477877Y-71979333D01*
X134479104Y-71982108D01*
X134480218Y-71984932D01*
X134481218Y-71987799D01*
X134482101Y-71990704D01*
X134482865Y-71993643D01*
X134483508Y-71996608D01*
X134484030Y-71999596D01*
X134484427Y-72002599D01*
X134484699Y-72005615D01*
X134484842Y-72008635D01*
X134484857Y-72011656D01*
X134484739Y-72014672D01*
X134484489Y-72017677D01*
X134484104Y-72020667D01*
X134483581Y-72023635D01*
X134482920Y-72026576D01*
X134482119Y-72029486D01*
X134481175Y-72032357D01*
X134480087Y-72035186D01*
X133539097Y-74309121D01*
X133537874Y-74311875D01*
X133536532Y-74314524D01*
X133535075Y-74317067D01*
X133533507Y-74319502D01*
X133531833Y-74321827D01*
X133530059Y-74324041D01*
X133528189Y-74326141D01*
X133526227Y-74328126D01*
X133524178Y-74329995D01*
X133522048Y-74331745D01*
X133519841Y-74333375D01*
X133517561Y-74334883D01*
X133515213Y-74336267D01*
X133512803Y-74337526D01*
X133510335Y-74338658D01*
X133507813Y-74339660D01*
X133505243Y-74340532D01*
X133502628Y-74341272D01*
X133499975Y-74341877D01*
X133497287Y-74342347D01*
X133494570Y-74342678D01*
X133491828Y-74342871D01*
X133489066Y-74342922D01*
X133486289Y-74342830D01*
X133483500Y-74342594D01*
X133480707Y-74342211D01*
X133477912Y-74341680D01*
X133475120Y-74341000D01*
X133472337Y-74340167D01*
X133469568Y-74339182D01*
X133466816Y-74338041D01*
X133464087Y-74336743D01*
X133007681Y-74093062D01*
X133002256Y-74090218D01*
X132996490Y-74087785D01*
X132990435Y-74085764D01*
X132984141Y-74084152D01*
X132977660Y-74082950D01*
X132971041Y-74082157D01*
X132964336Y-74081770D01*
X132957595Y-74081791D01*
X132950869Y-74082217D01*
X132944209Y-74083047D01*
X132937665Y-74084281D01*
X132931288Y-74085918D01*
X132925128Y-74087957D01*
X132919237Y-74090397D01*
X132913665Y-74093236D01*
X132908462Y-74096475D01*
X131873490Y-74806802D01*
X131870950Y-74808442D01*
X131868334Y-74809954D01*
X131865647Y-74811339D01*
X131862897Y-74812597D01*
X131860087Y-74813728D01*
X131857225Y-74814734D01*
X131851366Y-74816371D01*
X131845366Y-74817512D01*
X131839272Y-74818159D01*
X131833130Y-74818318D01*
X131826987Y-74817994D01*
X131820889Y-74817189D01*
X131814884Y-74815908D01*
X131809018Y-74814156D01*
X131803337Y-74811936D01*
X131797888Y-74809253D01*
X131795265Y-74807740D01*
X131792718Y-74806111D01*
X131790252Y-74804370D01*
X131787873Y-74802515D01*
X131785587Y-74800547D01*
X131783400Y-74798467D01*
X130833678Y-73848905D01*
X130831583Y-73846704D01*
X130829602Y-73844404D01*
X130827735Y-73842013D01*
X130825981Y-73839535D01*
X130824343Y-73836976D01*
X130822819Y-73834343D01*
X130821411Y-73831641D01*
X130820119Y-73828876D01*
X130818945Y-73826054D01*
X130817887Y-73823180D01*
X130816125Y-73817301D01*
X130814839Y-73811285D01*
X130814032Y-73805179D01*
X130813709Y-73799030D01*
X130813874Y-73792883D01*
X130814531Y-73786785D01*
X130815046Y-73783769D01*
X130815685Y-73780783D01*
X130816449Y-73777832D01*
X130817338Y-73774922D01*
X130818354Y-73772060D01*
X130819496Y-73769250D01*
X130820766Y-73766499D01*
X130822163Y-73763812D01*
X130823689Y-73761196D01*
X130825344Y-73758656D01*
X131548370Y-72705111D01*
X131551619Y-72699898D01*
X131554515Y-72694293D01*
X131557056Y-72688349D01*
X131559236Y-72682118D01*
X131561052Y-72675651D01*
X131562500Y-72669000D01*
X131563576Y-72662217D01*
X131564275Y-72655353D01*
X131564594Y-72648460D01*
X131564528Y-72641590D01*
X131564074Y-72634795D01*
X131563227Y-72628126D01*
X131561984Y-72621635D01*
X131560339Y-72615374D01*
X131558290Y-72609395D01*
X131555832Y-72603749D01*
X131158480Y-71611165D01*
X131157495Y-71608273D01*
X131156374Y-71605389D01*
X131153742Y-71599663D01*
X131150623Y-71594021D01*
X131147054Y-71588499D01*
X131143073Y-71583131D01*
X131138719Y-71577952D01*
X131134029Y-71572998D01*
X131129042Y-71568303D01*
X131123795Y-71563901D01*
X131118327Y-71559829D01*
X131112675Y-71556120D01*
X131106878Y-71552810D01*
X131100973Y-71549933D01*
X131094999Y-71547524D01*
X131091998Y-71546506D01*
X131088994Y-71545619D01*
X131085991Y-71544866D01*
X131082995Y-71544251D01*
X129810217Y-71307397D01*
X129807257Y-71306779D01*
X129804335Y-71306015D01*
X129801452Y-71305109D01*
X129798615Y-71304067D01*
X129795825Y-71302892D01*
X129793087Y-71301589D01*
X129790404Y-71300162D01*
X129787781Y-71298617D01*
X129785221Y-71296957D01*
X129782727Y-71295188D01*
X129780304Y-71293314D01*
X129777955Y-71291339D01*
X129775685Y-71289267D01*
X129773496Y-71287105D01*
X129771392Y-71284855D01*
X129769378Y-71282523D01*
X129767457Y-71280112D01*
X129765633Y-71277629D01*
X129763909Y-71275077D01*
X129762289Y-71272460D01*
X129760778Y-71269784D01*
X129759378Y-71267052D01*
X129758094Y-71264270D01*
X129756929Y-71261442D01*
X129755887Y-71258573D01*
X129754972Y-71255666D01*
X129754187Y-71252727D01*
X129753536Y-71249760D01*
X129753024Y-71246770D01*
X129752653Y-71243761D01*
X129752428Y-71240738D01*
X129752352Y-71237705D01*
X129752193Y-69894760D01*
X129752262Y-69891721D01*
X129752480Y-69888693D01*
X129752843Y-69885681D01*
X129753348Y-69882689D01*
X129753991Y-69879721D01*
X129754769Y-69876783D01*
X129755677Y-69873878D01*
X129756712Y-69871011D01*
X129757870Y-69868186D01*
X129759147Y-69865407D01*
X129762045Y-69860008D01*
X129765376Y-69854848D01*
X129769110Y-69849963D01*
X129773217Y-69845387D01*
X129777667Y-69841156D01*
X129782430Y-69837306D01*
X129787477Y-69833871D01*
X129790097Y-69832320D01*
X129792777Y-69830886D01*
X129795513Y-69829574D01*
X129798301Y-69828388D01*
X129801137Y-69827332D01*
X129804018Y-69826410D01*
X129806940Y-69825628D01*
X129809899Y-69824989D01*
X131114745Y-69582340D01*
X131120726Y-69580949D01*
X131126739Y-69579033D01*
X131132744Y-69576624D01*
X131138700Y-69573756D01*
X131144568Y-69570464D01*
X131150309Y-69566781D01*
X131155882Y-69562742D01*
X131161249Y-69558379D01*
X131166369Y-69553726D01*
X131171203Y-69548819D01*
X131175711Y-69543689D01*
X131179853Y-69538372D01*
X131183591Y-69532901D01*
X131186884Y-69527310D01*
X131189692Y-69521633D01*
X131191976Y-69515903D01*
X131591947Y-68582771D01*
X131594537Y-68577184D01*
X131596714Y-68571264D01*
X131598481Y-68565060D01*
X131599840Y-68558624D01*
X131600796Y-68552008D01*
X131601351Y-68545262D01*
X131601510Y-68538437D01*
X131601274Y-68531584D01*
X131600647Y-68524754D01*
X131599634Y-68517999D01*
X131598236Y-68511369D01*
X131596457Y-68504915D01*
X131594300Y-68498689D01*
X131591769Y-68492741D01*
X131588867Y-68487123D01*
X131585597Y-68481885D01*
X130825344Y-67373810D01*
X130823703Y-67371270D01*
X130822190Y-67368654D01*
X130820803Y-67365969D01*
X130819542Y-67363219D01*
X130818407Y-67360411D01*
X130817397Y-67357551D01*
X130815752Y-67351695D01*
X130814602Y-67345699D01*
X130813944Y-67339608D01*
X130813776Y-67333468D01*
X130814092Y-67327326D01*
X130814891Y-67321228D01*
X130816167Y-67315219D01*
X130817919Y-67309346D01*
X130820142Y-67303656D01*
X130822833Y-67298194D01*
X130824353Y-67295563D01*
X130825988Y-67293007D01*
X130827739Y-67290530D01*
X130829604Y-67288140D01*
X130831584Y-67285841D01*
X130833678Y-67283640D01*
X131783241Y-66334077D01*
X131785442Y-66331983D01*
X131787740Y-66330002D01*
X131790129Y-66328134D01*
X131792604Y-66326381D01*
X131795159Y-66324742D01*
X131797788Y-66323218D01*
X131800485Y-66321810D01*
X131803245Y-66320519D01*
X131806061Y-66319344D01*
X131808929Y-66318286D01*
X131814795Y-66316524D01*
X131820796Y-66315238D01*
X131826887Y-66314432D01*
X131833022Y-66314109D01*
X131839155Y-66314273D01*
X131845239Y-66314930D01*
X131848249Y-66315445D01*
X131851229Y-66316084D01*
X131854175Y-66316848D01*
X131857080Y-66317737D01*
X131859938Y-66318753D01*
X131862744Y-66319895D01*
X131865492Y-66321165D01*
X131868177Y-66322563D01*
X131870792Y-66324088D01*
X131873331Y-66325743D01*
X133000853Y-67099490D01*
X133006068Y-67102751D01*
X133011677Y-67105654D01*
X133017628Y-67108197D01*
X133023868Y-67110376D01*
X133030345Y-67112186D01*
X133037006Y-67113626D01*
X133043799Y-67114690D01*
X133050671Y-67115375D01*
X133057570Y-67115678D01*
X133064444Y-67115595D01*
X133071240Y-67115123D01*
X133077905Y-67114257D01*
X133084388Y-67112995D01*
X133090636Y-67111333D01*
X133096595Y-67109266D01*
X133102215Y-67106792D01*
X134006773Y-66736508D01*
X134009650Y-66735486D01*
X134012517Y-66734326D01*
X134015372Y-66733034D01*
X134018210Y-66731616D01*
X134023816Y-66728416D01*
X134029302Y-66724767D01*
X134034634Y-66720707D01*
X134039778Y-66716275D01*
X134044700Y-66711512D01*
X134049367Y-66706455D01*
X134053745Y-66701144D01*
X134057800Y-66695618D01*
X134061498Y-66689917D01*
X134064805Y-66684080D01*
X134067687Y-66678145D01*
X134070111Y-66672152D01*
X134072042Y-66666141D01*
X134072813Y-66663140D01*
X134073448Y-66660150D01*
X134324670Y-65310536D01*
X134325294Y-65307570D01*
X134326064Y-65304641D01*
X134326973Y-65301754D01*
X134328019Y-65298911D01*
X134329196Y-65296118D01*
X134330500Y-65293377D01*
X134331926Y-65290692D01*
X134333471Y-65288067D01*
X134335128Y-65285506D01*
X134336895Y-65283012D01*
X134338766Y-65280589D01*
X134340738Y-65278240D01*
X134342805Y-65275970D01*
X134344963Y-65273783D01*
X134347207Y-65271681D01*
X134349534Y-65269668D01*
X134351938Y-65267749D01*
X134354416Y-65265927D01*
X134356962Y-65264205D01*
X134359573Y-65262588D01*
X134362243Y-65261079D01*
X134364969Y-65259682D01*
X134367745Y-65258400D01*
X134370568Y-65257237D01*
X134373433Y-65256198D01*
X134376335Y-65255284D01*
X134379270Y-65254502D01*
X134382233Y-65253853D01*
X134385220Y-65253342D01*
X134388227Y-65252972D01*
X134391249Y-65252748D01*
X134394281Y-65252672D01*
X135737306Y-65252672D01*
X135740331Y-65252748D01*
G37*
G36*
X119323910Y-68916316D02*
G01*
X119449794Y-68923267D01*
X119576918Y-68935488D01*
X119705282Y-68952826D01*
X119704977Y-68967555D01*
X119704081Y-68981984D01*
X119702622Y-68996122D01*
X119700631Y-69009980D01*
X119695166Y-69036890D01*
X119687919Y-69062793D01*
X119679121Y-69087766D01*
X119669005Y-69111886D01*
X119657804Y-69135231D01*
X119645751Y-69157878D01*
X119633077Y-69179905D01*
X119620016Y-69201389D01*
X119593661Y-69243041D01*
X119568546Y-69283452D01*
X119557035Y-69303386D01*
X119546532Y-69323242D01*
X119475877Y-69411325D01*
X119402975Y-69497082D01*
X119328057Y-69580668D01*
X119251356Y-69662240D01*
X119173105Y-69741950D01*
X119093536Y-69819956D01*
X118931376Y-69971471D01*
X118766734Y-70118026D01*
X118601473Y-70260859D01*
X118276532Y-70540326D01*
X118177313Y-70617323D01*
X118078094Y-70689980D01*
X117978875Y-70758917D01*
X117879657Y-70824753D01*
X117780438Y-70888108D01*
X117681219Y-70949603D01*
X117482782Y-71069492D01*
X117444309Y-71079970D01*
X117408161Y-71091300D01*
X117374184Y-71103095D01*
X117342222Y-71114968D01*
X117283724Y-71137395D01*
X117256879Y-71147175D01*
X117231428Y-71155482D01*
X117207218Y-71161929D01*
X117184092Y-71166128D01*
X117172888Y-71167263D01*
X117161897Y-71167691D01*
X117151100Y-71167363D01*
X117140477Y-71166231D01*
X117130010Y-71164246D01*
X117119678Y-71161361D01*
X117109462Y-71157525D01*
X117099343Y-71152692D01*
X117089302Y-71146812D01*
X117079318Y-71139837D01*
X117069374Y-71131719D01*
X117059449Y-71122409D01*
X117052653Y-70994084D01*
X117052214Y-70867231D01*
X117058286Y-70742084D01*
X117071024Y-70618874D01*
X117090584Y-70497835D01*
X117117120Y-70379199D01*
X117150787Y-70263198D01*
X117191740Y-70150065D01*
X117240135Y-70040033D01*
X117296127Y-69933334D01*
X117359870Y-69830201D01*
X117431519Y-69730866D01*
X117511230Y-69635562D01*
X117599157Y-69544521D01*
X117695456Y-69457976D01*
X117800282Y-69376159D01*
X117910043Y-69300479D01*
X118021044Y-69232085D01*
X118133285Y-69170823D01*
X118246766Y-69116537D01*
X118361488Y-69069072D01*
X118477450Y-69028273D01*
X118594652Y-68993986D01*
X118713094Y-68966055D01*
X118832777Y-68944325D01*
X118953700Y-68928641D01*
X119075863Y-68918848D01*
X119199266Y-68914792D01*
X119323910Y-68916316D01*
G37*
G36*
X138614435Y-75911001D02*
G01*
X138666791Y-75917661D01*
X138692938Y-75922768D01*
X138718979Y-75929107D01*
X138744850Y-75936714D01*
X138770488Y-75945624D01*
X138795828Y-75955873D01*
X138820808Y-75967495D01*
X138845363Y-75980527D01*
X138869429Y-75995004D01*
X138892943Y-76010962D01*
X138915841Y-76028435D01*
X138938059Y-76047459D01*
X138959534Y-76068070D01*
X138980201Y-76090304D01*
X138999997Y-76114195D01*
X139018858Y-76139779D01*
X139036720Y-76167092D01*
X139053520Y-76196169D01*
X139069194Y-76227045D01*
X139083677Y-76259757D01*
X139096907Y-76294339D01*
X139108819Y-76330827D01*
X139119350Y-76369256D01*
X139128435Y-76409662D01*
X139136012Y-76452080D01*
X139142016Y-76496547D01*
X139146384Y-76543096D01*
X139149051Y-76591764D01*
X139149954Y-76642586D01*
X139148970Y-76696101D01*
X139146063Y-76747070D01*
X139141306Y-76795549D01*
X139134769Y-76841593D01*
X139126523Y-76885258D01*
X139116639Y-76926599D01*
X139105188Y-76965673D01*
X139092242Y-77002533D01*
X139077872Y-77037237D01*
X139062147Y-77069840D01*
X139045140Y-77100396D01*
X139026921Y-77128963D01*
X139007562Y-77155594D01*
X138987133Y-77180346D01*
X138965706Y-77203275D01*
X138943351Y-77224435D01*
X138920140Y-77243882D01*
X138896143Y-77261672D01*
X138871432Y-77277861D01*
X138846077Y-77292504D01*
X138820151Y-77305656D01*
X138793722Y-77317373D01*
X138739646Y-77336724D01*
X138684417Y-77351001D01*
X138628603Y-77360650D01*
X138572773Y-77366113D01*
X138517494Y-77367835D01*
X138481750Y-77367038D01*
X138446256Y-77364618D01*
X138411061Y-77360534D01*
X138376214Y-77354746D01*
X138341765Y-77347211D01*
X138307761Y-77337890D01*
X138274253Y-77326740D01*
X138241289Y-77313721D01*
X138208919Y-77298792D01*
X138177191Y-77281910D01*
X138146155Y-77263036D01*
X138115859Y-77242128D01*
X138086353Y-77219144D01*
X138057686Y-77194044D01*
X138029907Y-77166787D01*
X138003065Y-77137330D01*
X138211106Y-76960324D01*
X138227297Y-76976234D01*
X138244216Y-76991267D01*
X138261803Y-77005404D01*
X138279995Y-77018622D01*
X138298731Y-77030902D01*
X138317948Y-77042223D01*
X138337586Y-77052564D01*
X138357583Y-77061904D01*
X138377876Y-77070223D01*
X138398404Y-77077499D01*
X138419105Y-77083714D01*
X138439918Y-77088844D01*
X138460781Y-77092871D01*
X138481632Y-77095772D01*
X138502409Y-77097528D01*
X138523050Y-77098118D01*
X138541345Y-77097772D01*
X138559311Y-77096735D01*
X138576929Y-77095006D01*
X138594185Y-77092588D01*
X138611062Y-77089479D01*
X138627543Y-77085680D01*
X138643612Y-77081193D01*
X138659252Y-77076017D01*
X138674447Y-77070154D01*
X138689181Y-77063603D01*
X138703436Y-77056365D01*
X138717198Y-77048441D01*
X138730448Y-77039831D01*
X138743171Y-77030536D01*
X138755350Y-77020557D01*
X138766969Y-77009893D01*
X138778011Y-76998545D01*
X138788460Y-76986514D01*
X138798299Y-76973801D01*
X138807513Y-76960406D01*
X138816084Y-76946328D01*
X138823996Y-76931570D01*
X138831232Y-76916132D01*
X138837777Y-76900013D01*
X138843613Y-76883215D01*
X138848724Y-76865738D01*
X138853094Y-76847582D01*
X138856707Y-76828749D01*
X138859545Y-76809238D01*
X138861593Y-76789050D01*
X138862834Y-76768186D01*
X138863251Y-76746646D01*
X137974966Y-76746647D01*
X137974966Y-76510587D01*
X138261669Y-76510587D01*
X138863252Y-76510587D01*
X138862372Y-76490577D01*
X138860798Y-76471164D01*
X138858544Y-76452350D01*
X138855626Y-76434138D01*
X138852057Y-76416531D01*
X138847851Y-76399530D01*
X138843024Y-76383139D01*
X138837589Y-76367361D01*
X138831561Y-76352196D01*
X138824955Y-76337649D01*
X138817785Y-76323721D01*
X138810064Y-76310415D01*
X138801809Y-76297734D01*
X138793033Y-76285680D01*
X138783750Y-76274255D01*
X138773975Y-76263463D01*
X138763722Y-76253305D01*
X138753007Y-76243784D01*
X138741842Y-76234903D01*
X138730243Y-76226664D01*
X138718224Y-76219070D01*
X138705800Y-76212122D01*
X138692984Y-76205825D01*
X138679792Y-76200180D01*
X138666237Y-76195189D01*
X138652335Y-76190856D01*
X138638099Y-76187183D01*
X138623544Y-76184172D01*
X138608684Y-76181825D01*
X138593534Y-76180146D01*
X138578108Y-76179137D01*
X138562421Y-76178800D01*
X138546742Y-76179137D01*
X138531340Y-76180146D01*
X138516227Y-76181825D01*
X138501416Y-76184172D01*
X138486921Y-76187183D01*
X138472753Y-76190856D01*
X138458926Y-76195190D01*
X138445453Y-76200180D01*
X138432347Y-76205825D01*
X138419620Y-76212123D01*
X138407286Y-76219070D01*
X138395357Y-76226664D01*
X138383845Y-76234903D01*
X138372765Y-76243784D01*
X138362128Y-76253305D01*
X138351948Y-76263463D01*
X138342238Y-76274256D01*
X138333010Y-76285680D01*
X138324277Y-76297734D01*
X138316053Y-76310416D01*
X138308349Y-76323721D01*
X138301179Y-76337649D01*
X138294556Y-76352197D01*
X138288492Y-76367361D01*
X138283001Y-76383140D01*
X138278095Y-76399531D01*
X138273787Y-76416531D01*
X138270090Y-76434138D01*
X138267017Y-76452350D01*
X138264581Y-76471164D01*
X138262794Y-76490577D01*
X138261669Y-76510587D01*
X137974966Y-76510587D01*
X137974966Y-76510507D01*
X137975758Y-76476370D01*
X137978105Y-76443043D01*
X137981966Y-76410543D01*
X137987297Y-76378889D01*
X137994057Y-76348098D01*
X138002203Y-76318189D01*
X138011694Y-76289179D01*
X138022487Y-76261087D01*
X138034540Y-76233930D01*
X138047811Y-76207726D01*
X138062257Y-76182494D01*
X138077836Y-76158251D01*
X138094507Y-76135016D01*
X138112226Y-76112805D01*
X138130953Y-76091639D01*
X138150643Y-76071533D01*
X138171256Y-76052506D01*
X138192749Y-76034577D01*
X138215080Y-76017763D01*
X138238206Y-76002082D01*
X138262086Y-75987553D01*
X138286677Y-75974192D01*
X138311938Y-75962019D01*
X138337825Y-75951050D01*
X138364296Y-75941305D01*
X138391310Y-75932801D01*
X138418824Y-75925555D01*
X138446797Y-75919587D01*
X138475185Y-75914914D01*
X138503946Y-75911554D01*
X138533039Y-75909524D01*
X138562421Y-75908844D01*
X138614435Y-75911001D01*
G37*
G36*
X133889319Y-75909940D02*
G01*
X133927847Y-75913125D01*
X133964375Y-75918246D01*
X133998955Y-75925152D01*
X134031642Y-75933688D01*
X134062490Y-75943704D01*
X134091551Y-75955047D01*
X134118880Y-75967563D01*
X134144529Y-75981100D01*
X134168554Y-75995506D01*
X134191006Y-76010629D01*
X134211941Y-76026315D01*
X134231410Y-76042412D01*
X134249469Y-76058768D01*
X134266171Y-76075230D01*
X134281569Y-76091645D01*
X134301370Y-76114338D01*
X134319688Y-76137240D01*
X134336550Y-76160633D01*
X134351986Y-76184798D01*
X134366022Y-76210013D01*
X134378689Y-76236561D01*
X134390014Y-76264722D01*
X134400026Y-76294775D01*
X134408753Y-76327003D01*
X134416225Y-76361685D01*
X134422469Y-76399102D01*
X134427513Y-76439534D01*
X134431387Y-76483263D01*
X134434119Y-76530568D01*
X134435738Y-76581731D01*
X134436271Y-76637031D01*
X134435738Y-76692808D01*
X134434119Y-76744391D01*
X134431387Y-76792064D01*
X134427513Y-76836111D01*
X134422469Y-76876816D01*
X134416225Y-76914463D01*
X134408753Y-76949335D01*
X134400026Y-76981717D01*
X134390014Y-77011893D01*
X134378689Y-77040146D01*
X134366022Y-77066761D01*
X134351986Y-77092021D01*
X134336550Y-77116211D01*
X134319688Y-77139614D01*
X134301370Y-77162514D01*
X134281569Y-77185195D01*
X134266171Y-77201609D01*
X134249470Y-77218066D01*
X134231411Y-77234414D01*
X134211941Y-77250501D01*
X134191007Y-77266175D01*
X134168554Y-77281284D01*
X134144530Y-77295676D01*
X134118880Y-77309198D01*
X134105429Y-77315586D01*
X134091551Y-77321700D01*
X134077241Y-77327520D01*
X134062490Y-77333027D01*
X134047293Y-77338204D01*
X134031643Y-77343030D01*
X134015532Y-77347486D01*
X133998955Y-77351555D01*
X133981905Y-77355215D01*
X133964375Y-77358450D01*
X133946358Y-77361239D01*
X133927847Y-77363563D01*
X133908837Y-77365404D01*
X133889319Y-77366743D01*
X133869288Y-77367560D01*
X133848737Y-77367836D01*
X133808126Y-77366743D01*
X133769574Y-77363563D01*
X133733025Y-77358450D01*
X133698426Y-77351554D01*
X133665724Y-77343030D01*
X133634864Y-77333027D01*
X133605792Y-77321699D01*
X133578455Y-77309198D01*
X133552799Y-77295675D01*
X133528770Y-77281283D01*
X133506313Y-77266174D01*
X133485377Y-77250500D01*
X133465905Y-77234413D01*
X133447846Y-77218065D01*
X133431144Y-77201609D01*
X133415746Y-77185195D01*
X133395946Y-77162513D01*
X133377634Y-77139611D01*
X133360779Y-77116205D01*
X133345354Y-77092011D01*
X133331329Y-77066746D01*
X133318676Y-77040126D01*
X133307365Y-77011868D01*
X133297368Y-76981688D01*
X133288655Y-76949303D01*
X133281198Y-76914428D01*
X133274968Y-76876781D01*
X133269935Y-76836078D01*
X133266071Y-76792035D01*
X133263347Y-76744369D01*
X133261734Y-76692795D01*
X133261229Y-76639810D01*
X133547985Y-76639810D01*
X133548809Y-76710123D01*
X133549883Y-76740654D01*
X133551438Y-76768433D01*
X133553502Y-76793707D01*
X133556105Y-76816722D01*
X133559277Y-76837727D01*
X133563046Y-76856969D01*
X133567442Y-76874697D01*
X133572495Y-76891156D01*
X133578233Y-76906595D01*
X133584686Y-76921262D01*
X133591883Y-76935403D01*
X133599853Y-76949267D01*
X133608627Y-76963102D01*
X133618232Y-76977153D01*
X133622322Y-76982647D01*
X133626685Y-76988054D01*
X133636201Y-76998580D01*
X133646721Y-77008686D01*
X133658188Y-77018327D01*
X133670546Y-77027457D01*
X133683735Y-77036031D01*
X133697699Y-77044003D01*
X133712380Y-77051329D01*
X133727721Y-77057963D01*
X133743664Y-77063860D01*
X133760151Y-77068974D01*
X133777124Y-77073259D01*
X133794527Y-77076672D01*
X133812302Y-77079165D01*
X133830391Y-77080694D01*
X133848737Y-77081214D01*
X133867056Y-77080695D01*
X133885125Y-77079168D01*
X133902886Y-77076679D01*
X133920280Y-77073271D01*
X133937248Y-77068990D01*
X133953732Y-77063881D01*
X133969673Y-77057989D01*
X133985014Y-77051359D01*
X133999695Y-77044037D01*
X134013658Y-77036066D01*
X134026844Y-77027492D01*
X134039196Y-77018360D01*
X134050654Y-77008716D01*
X134061160Y-76998603D01*
X134070656Y-76988067D01*
X134079083Y-76977153D01*
X134088690Y-76963101D01*
X134097468Y-76949262D01*
X134105447Y-76935385D01*
X134112654Y-76921218D01*
X134119119Y-76906510D01*
X134124870Y-76891009D01*
X134129937Y-76874464D01*
X134134348Y-76856622D01*
X134138132Y-76837233D01*
X134141318Y-76816044D01*
X134143935Y-76792804D01*
X134146011Y-76767261D01*
X134147576Y-76739164D01*
X134148658Y-76708261D01*
X134149286Y-76674301D01*
X134149489Y-76637031D01*
X134148658Y-76566712D01*
X134147576Y-76536173D01*
X134146011Y-76508386D01*
X134143935Y-76483102D01*
X134141318Y-76460077D01*
X134138132Y-76439062D01*
X134134348Y-76419812D01*
X134129937Y-76402078D01*
X134124870Y-76385615D01*
X134119119Y-76370175D01*
X134112654Y-76355511D01*
X134105447Y-76341378D01*
X134097468Y-76327527D01*
X134088690Y-76313712D01*
X134079083Y-76299687D01*
X134075007Y-76294193D01*
X134070656Y-76288786D01*
X134061160Y-76278260D01*
X134050654Y-76268154D01*
X134039196Y-76258514D01*
X134026844Y-76249384D01*
X134013658Y-76240810D01*
X133999695Y-76232837D01*
X133985014Y-76225511D01*
X133969673Y-76218877D01*
X133953732Y-76212980D01*
X133937248Y-76207867D01*
X133920280Y-76203581D01*
X133902886Y-76200169D01*
X133885125Y-76197675D01*
X133867056Y-76196146D01*
X133848737Y-76195626D01*
X133830391Y-76196145D01*
X133812302Y-76197672D01*
X133794527Y-76200162D01*
X133777124Y-76203570D01*
X133760151Y-76207850D01*
X133743664Y-76212959D01*
X133727721Y-76218851D01*
X133712380Y-76225481D01*
X133697699Y-76232804D01*
X133683735Y-76240774D01*
X133670546Y-76249348D01*
X133658188Y-76258480D01*
X133646721Y-76268125D01*
X133636201Y-76278237D01*
X133626685Y-76288773D01*
X133618232Y-76299687D01*
X133608627Y-76313713D01*
X133599853Y-76327533D01*
X133591883Y-76341396D01*
X133584686Y-76355555D01*
X133578233Y-76370260D01*
X133572495Y-76385761D01*
X133567442Y-76402311D01*
X133563046Y-76420159D01*
X133559277Y-76439557D01*
X133556105Y-76460755D01*
X133553502Y-76484005D01*
X133551438Y-76509558D01*
X133549883Y-76537664D01*
X133548809Y-76568574D01*
X133548186Y-76602539D01*
X133547985Y-76639810D01*
X133261229Y-76639810D01*
X133261203Y-76637031D01*
X133261734Y-76581730D01*
X133263347Y-76530565D01*
X133266071Y-76483256D01*
X133269935Y-76439523D01*
X133274968Y-76399086D01*
X133281198Y-76361664D01*
X133288655Y-76326977D01*
X133297368Y-76294746D01*
X133307365Y-76264689D01*
X133318676Y-76236526D01*
X133331329Y-76209978D01*
X133345354Y-76184764D01*
X133360779Y-76160604D01*
X133377634Y-76137218D01*
X133395946Y-76114325D01*
X133415746Y-76091645D01*
X133431144Y-76075229D01*
X133447846Y-76058768D01*
X133465905Y-76042412D01*
X133485376Y-76026314D01*
X133506313Y-76010628D01*
X133528769Y-75995506D01*
X133552798Y-75981100D01*
X133578455Y-75967562D01*
X133591910Y-75961167D01*
X133605792Y-75955046D01*
X133620107Y-75949219D01*
X133634864Y-75943704D01*
X133650067Y-75938521D01*
X133665724Y-75933688D01*
X133681841Y-75929225D01*
X133698426Y-75925151D01*
X133715485Y-75921485D01*
X133733025Y-75918246D01*
X133751052Y-75915453D01*
X133769574Y-75913125D01*
X133788596Y-75911281D01*
X133808126Y-75909940D01*
X133828171Y-75909122D01*
X133848737Y-75908845D01*
X133889319Y-75909940D01*
G37*
G36*
X128869739Y-75911001D02*
G01*
X128922105Y-75917661D01*
X128948255Y-75922768D01*
X128974299Y-75929107D01*
X129000172Y-75936714D01*
X129025812Y-75945624D01*
X129051154Y-75955873D01*
X129076134Y-75967495D01*
X129100689Y-75980527D01*
X129124755Y-75995004D01*
X129148268Y-76010962D01*
X129171165Y-76028435D01*
X129193382Y-76047459D01*
X129214855Y-76068070D01*
X129235520Y-76090304D01*
X129255314Y-76114195D01*
X129274172Y-76139779D01*
X129292032Y-76167092D01*
X129308830Y-76196169D01*
X129324501Y-76227045D01*
X129338982Y-76259757D01*
X129352209Y-76294339D01*
X129364119Y-76330827D01*
X129374648Y-76369256D01*
X129383732Y-76409662D01*
X129391307Y-76452080D01*
X129397309Y-76496547D01*
X129401676Y-76543096D01*
X129404342Y-76591764D01*
X129405245Y-76642586D01*
X129404261Y-76696101D01*
X129401354Y-76747070D01*
X129396597Y-76795549D01*
X129390060Y-76841593D01*
X129381814Y-76885258D01*
X129371930Y-76926599D01*
X129360479Y-76965673D01*
X129347532Y-77002533D01*
X129333161Y-77037237D01*
X129317436Y-77069840D01*
X129300428Y-77100396D01*
X129282208Y-77128963D01*
X129262848Y-77155594D01*
X129242418Y-77180346D01*
X129220989Y-77203275D01*
X129198632Y-77224435D01*
X129175419Y-77243882D01*
X129151420Y-77261672D01*
X129126707Y-77277861D01*
X129101349Y-77292504D01*
X129075419Y-77305656D01*
X129048988Y-77317373D01*
X128994904Y-77336724D01*
X128939666Y-77351001D01*
X128883841Y-77360650D01*
X128827999Y-77366113D01*
X128772706Y-77367835D01*
X128736974Y-77367038D01*
X128701488Y-77364618D01*
X128666296Y-77360534D01*
X128631450Y-77354746D01*
X128596998Y-77347211D01*
X128562991Y-77337890D01*
X128529479Y-77326740D01*
X128496511Y-77313721D01*
X128464137Y-77298792D01*
X128432408Y-77281910D01*
X128401373Y-77263036D01*
X128371082Y-77242128D01*
X128341585Y-77219144D01*
X128312932Y-77194044D01*
X128285172Y-77166787D01*
X128258356Y-77137330D01*
X128466398Y-76960324D01*
X128482602Y-76976234D01*
X128499531Y-76991267D01*
X128517124Y-77005404D01*
X128535320Y-77018622D01*
X128554058Y-77030902D01*
X128573275Y-77042223D01*
X128592911Y-77052564D01*
X128612904Y-77061904D01*
X128633193Y-77070223D01*
X128653717Y-77077499D01*
X128674413Y-77083714D01*
X128695221Y-77088844D01*
X128716079Y-77092871D01*
X128736927Y-77095772D01*
X128757701Y-77097528D01*
X128778342Y-77098118D01*
X128796637Y-77097772D01*
X128814601Y-77096735D01*
X128832219Y-77095006D01*
X128849474Y-77092588D01*
X128866349Y-77089479D01*
X128882828Y-77085680D01*
X128898894Y-77081193D01*
X128914532Y-77076017D01*
X128929724Y-77070154D01*
X128944455Y-77063603D01*
X128958707Y-77056365D01*
X128972465Y-77048441D01*
X128985711Y-77039831D01*
X128998431Y-77030536D01*
X129010606Y-77020557D01*
X129022221Y-77009893D01*
X129033260Y-76998545D01*
X129043705Y-76986514D01*
X129053541Y-76973801D01*
X129062751Y-76960406D01*
X129071318Y-76946328D01*
X129079227Y-76931570D01*
X129086460Y-76916132D01*
X129093002Y-76900013D01*
X129098835Y-76883215D01*
X129103944Y-76865738D01*
X129108312Y-76847582D01*
X129111923Y-76828749D01*
X129114760Y-76809238D01*
X129116806Y-76789050D01*
X129118047Y-76768186D01*
X129118464Y-76746646D01*
X128230178Y-76746647D01*
X128230178Y-76510587D01*
X128516960Y-76510587D01*
X129118464Y-76510587D01*
X129117591Y-76490577D01*
X129116023Y-76471164D01*
X129113776Y-76452350D01*
X129110864Y-76434138D01*
X129107300Y-76416531D01*
X129103099Y-76399530D01*
X129098277Y-76383139D01*
X129092847Y-76367361D01*
X129086823Y-76352196D01*
X129080220Y-76337649D01*
X129073053Y-76323721D01*
X129065336Y-76310415D01*
X129057083Y-76297734D01*
X129048310Y-76285680D01*
X129039029Y-76274255D01*
X129029256Y-76263463D01*
X129019005Y-76253305D01*
X129008291Y-76243784D01*
X128997128Y-76234903D01*
X128985530Y-76226664D01*
X128973512Y-76219070D01*
X128961088Y-76212122D01*
X128948273Y-76205825D01*
X128935081Y-76200180D01*
X128921527Y-76195189D01*
X128907625Y-76190856D01*
X128893389Y-76187183D01*
X128878834Y-76184172D01*
X128863974Y-76181825D01*
X128848825Y-76180146D01*
X128833399Y-76179137D01*
X128817712Y-76178800D01*
X128802033Y-76179137D01*
X128786631Y-76180146D01*
X128771519Y-76181825D01*
X128756710Y-76184172D01*
X128742216Y-76187183D01*
X128728050Y-76190856D01*
X128714226Y-76195190D01*
X128700755Y-76200180D01*
X128687651Y-76205825D01*
X128674927Y-76212123D01*
X128662595Y-76219070D01*
X128650668Y-76226664D01*
X128639159Y-76234903D01*
X128628081Y-76243784D01*
X128617447Y-76253305D01*
X128607269Y-76263463D01*
X128597560Y-76274256D01*
X128588334Y-76285680D01*
X128579602Y-76297734D01*
X128571378Y-76310416D01*
X128563675Y-76323721D01*
X128556505Y-76337649D01*
X128549881Y-76352197D01*
X128543816Y-76367361D01*
X128538323Y-76383140D01*
X128533415Y-76399531D01*
X128529104Y-76416531D01*
X128525403Y-76434138D01*
X128522326Y-76452350D01*
X128519884Y-76471164D01*
X128518091Y-76490577D01*
X128516960Y-76510587D01*
X128230178Y-76510587D01*
X128230178Y-76510507D01*
X128230970Y-76476370D01*
X128233320Y-76443043D01*
X128237183Y-76410543D01*
X128242518Y-76378889D01*
X128249283Y-76348098D01*
X128257436Y-76318189D01*
X128266933Y-76289179D01*
X128277734Y-76261087D01*
X128289794Y-76233930D01*
X128303073Y-76207726D01*
X128317527Y-76182494D01*
X128333115Y-76158251D01*
X128349794Y-76135016D01*
X128367522Y-76112805D01*
X128386256Y-76091639D01*
X128405954Y-76071533D01*
X128426574Y-76052506D01*
X128448074Y-76034577D01*
X128470410Y-76017763D01*
X128493542Y-76002082D01*
X128517426Y-75987553D01*
X128542020Y-75974192D01*
X128567282Y-75962019D01*
X128593170Y-75951050D01*
X128619641Y-75941305D01*
X128646652Y-75932801D01*
X128674163Y-75925555D01*
X128702129Y-75919587D01*
X128730510Y-75914914D01*
X128759262Y-75911554D01*
X128788343Y-75909524D01*
X128817712Y-75908844D01*
X128869739Y-75911001D01*
G37*
G36*
X130051216Y-75911308D02*
G01*
X130081705Y-75914417D01*
X130111959Y-75918804D01*
X130141923Y-75924488D01*
X130171541Y-75931489D01*
X130200756Y-75939826D01*
X130229514Y-75949519D01*
X130257757Y-75960587D01*
X130285429Y-75973049D01*
X130312474Y-75986926D01*
X130338837Y-76002237D01*
X130364461Y-76019002D01*
X130389289Y-76037239D01*
X130413266Y-76056969D01*
X130436337Y-76078210D01*
X130458443Y-76100984D01*
X130479530Y-76125308D01*
X130499542Y-76151203D01*
X130518421Y-76178688D01*
X130536113Y-76207783D01*
X130552561Y-76238507D01*
X130567708Y-76270879D01*
X130581500Y-76304920D01*
X130593879Y-76340649D01*
X130604789Y-76378085D01*
X130614175Y-76417248D01*
X130621981Y-76458158D01*
X130628149Y-76500833D01*
X130632625Y-76545294D01*
X130635351Y-76591559D01*
X130636272Y-76639650D01*
X130635351Y-76687516D01*
X130632625Y-76733571D01*
X130628149Y-76777833D01*
X130621981Y-76820323D01*
X130614175Y-76861058D01*
X130604789Y-76900058D01*
X130593879Y-76937343D01*
X130581500Y-76972931D01*
X130567708Y-77006842D01*
X130552561Y-77039094D01*
X130536113Y-77069707D01*
X130518421Y-77098701D01*
X130499542Y-77126093D01*
X130479530Y-77151903D01*
X130458443Y-77176151D01*
X130436337Y-77198856D01*
X130413267Y-77220036D01*
X130389289Y-77239711D01*
X130364461Y-77257900D01*
X130338837Y-77274622D01*
X130312474Y-77289896D01*
X130285429Y-77303742D01*
X130257757Y-77316178D01*
X130229514Y-77327224D01*
X130171541Y-77345221D01*
X130111959Y-77357886D01*
X130051216Y-77365373D01*
X129989763Y-77367835D01*
X129949704Y-77366631D01*
X129910701Y-77363084D01*
X129872758Y-77357288D01*
X129835881Y-77349338D01*
X129800074Y-77339330D01*
X129765342Y-77327358D01*
X129731689Y-77313518D01*
X129699121Y-77297905D01*
X129667643Y-77280614D01*
X129637258Y-77261741D01*
X129607972Y-77241379D01*
X129579790Y-77219624D01*
X129552716Y-77196572D01*
X129526755Y-77172318D01*
X129501912Y-77146956D01*
X129478191Y-77120582D01*
X129689011Y-76932226D01*
X129702542Y-76948262D01*
X129716777Y-76963651D01*
X129731696Y-76978339D01*
X129747278Y-76992274D01*
X129763503Y-77005401D01*
X129780349Y-77017667D01*
X129797796Y-77029019D01*
X129815822Y-77039403D01*
X129834408Y-77048765D01*
X129853532Y-77057053D01*
X129873173Y-77064212D01*
X129893311Y-77070190D01*
X129913925Y-77074932D01*
X129934993Y-77078386D01*
X129945692Y-77079613D01*
X129956496Y-77080497D01*
X129967404Y-77081033D01*
X129978412Y-77081213D01*
X130000002Y-77080824D01*
X130021024Y-77079653D01*
X130041472Y-77077689D01*
X130061338Y-77074927D01*
X130080614Y-77071357D01*
X130099291Y-77066971D01*
X130117363Y-77061760D01*
X130134822Y-77055718D01*
X130151659Y-77048835D01*
X130167867Y-77041103D01*
X130183439Y-77032514D01*
X130198366Y-77023060D01*
X130212640Y-77012733D01*
X130226255Y-77001524D01*
X130239201Y-76989425D01*
X130251472Y-76976428D01*
X130263060Y-76962525D01*
X130273956Y-76947708D01*
X130284153Y-76931968D01*
X130293643Y-76915297D01*
X130302419Y-76897687D01*
X130310473Y-76879130D01*
X130317796Y-76859617D01*
X130324382Y-76839140D01*
X130330222Y-76817692D01*
X130335308Y-76795263D01*
X130339633Y-76771847D01*
X130343190Y-76747433D01*
X130345969Y-76722015D01*
X130347964Y-76695584D01*
X130349167Y-76668132D01*
X130349570Y-76639650D01*
X130347965Y-76583257D01*
X130343193Y-76531009D01*
X130339638Y-76506418D01*
X130335315Y-76482837D01*
X130330231Y-76460257D01*
X130324393Y-76438670D01*
X130317810Y-76418067D01*
X130310489Y-76398439D01*
X130302438Y-76379777D01*
X130293664Y-76362073D01*
X130284176Y-76345318D01*
X130273981Y-76329504D01*
X130263087Y-76314620D01*
X130251502Y-76300659D01*
X130239233Y-76287612D01*
X130226288Y-76275470D01*
X130212674Y-76264225D01*
X130198401Y-76253867D01*
X130183474Y-76244388D01*
X130167903Y-76235780D01*
X130151694Y-76228032D01*
X130134855Y-76221138D01*
X130117395Y-76215087D01*
X130099321Y-76209871D01*
X130080640Y-76205482D01*
X130061361Y-76201910D01*
X130021037Y-76197185D01*
X129978412Y-76195626D01*
X129956495Y-76196342D01*
X129934990Y-76198453D01*
X129913918Y-76201907D01*
X129893300Y-76206649D01*
X129873157Y-76212627D01*
X129853511Y-76219786D01*
X129834383Y-76228074D01*
X129815793Y-76237437D01*
X129797763Y-76247821D01*
X129780314Y-76259173D01*
X129763468Y-76271439D01*
X129747245Y-76284566D01*
X129731667Y-76298500D01*
X129716754Y-76313189D01*
X129702529Y-76328577D01*
X129689011Y-76344613D01*
X129478191Y-76156256D01*
X129501925Y-76129841D01*
X129526781Y-76104445D01*
X129552752Y-76080162D01*
X129579834Y-76057088D01*
X129608023Y-76035316D01*
X129637314Y-76014942D01*
X129667701Y-75996059D01*
X129699181Y-75978763D01*
X129731748Y-75963148D01*
X129765397Y-75949308D01*
X129800125Y-75937338D01*
X129835925Y-75927332D01*
X129872794Y-75919385D01*
X129910727Y-75913592D01*
X129930090Y-75911532D01*
X129949718Y-75910047D01*
X129969609Y-75909146D01*
X129989763Y-75908844D01*
X130051216Y-75911308D01*
G37*
G36*
X124943730Y-64830289D02*
G01*
X124942856Y-64835261D01*
X124941459Y-64840253D01*
X124939587Y-64845273D01*
X124937289Y-64850333D01*
X124934613Y-64855441D01*
X124928322Y-64865841D01*
X124921100Y-64876551D01*
X124913336Y-64887648D01*
X124905416Y-64899211D01*
X124897729Y-64911316D01*
X124894094Y-64917596D01*
X124890663Y-64924041D01*
X124887483Y-64930661D01*
X124884604Y-64937464D01*
X124882073Y-64944461D01*
X124879940Y-64951662D01*
X124878252Y-64959076D01*
X124877059Y-64966713D01*
X124876408Y-64974582D01*
X124876348Y-64982694D01*
X124876928Y-64991057D01*
X124878196Y-64999683D01*
X124880200Y-65008579D01*
X124882989Y-65017756D01*
X124886611Y-65027225D01*
X124891115Y-65036993D01*
X124920894Y-65035804D01*
X124950750Y-65032445D01*
X124980760Y-65027226D01*
X125011004Y-65020457D01*
X125041558Y-65012447D01*
X125072499Y-65003507D01*
X125135854Y-64984076D01*
X125201690Y-64964646D01*
X125235732Y-64955706D01*
X125270627Y-64947696D01*
X125306451Y-64940926D01*
X125343284Y-64935707D01*
X125381201Y-64932348D01*
X125420282Y-64931160D01*
X125420131Y-64936122D01*
X125419700Y-64941094D01*
X125419017Y-64946086D01*
X125418111Y-64951107D01*
X125415747Y-64961274D01*
X125412840Y-64971674D01*
X125406329Y-64993481D01*
X125403189Y-65005044D01*
X125400437Y-65017149D01*
X125398306Y-65029875D01*
X125397545Y-65036494D01*
X125397027Y-65043297D01*
X125396780Y-65050295D01*
X125396833Y-65057496D01*
X125397216Y-65064910D01*
X125397957Y-65072546D01*
X125399086Y-65080416D01*
X125400631Y-65088527D01*
X125402622Y-65096891D01*
X125405088Y-65105516D01*
X125408058Y-65114412D01*
X125411561Y-65123590D01*
X125415626Y-65133058D01*
X125420282Y-65142826D01*
X125499656Y-65123189D01*
X125579031Y-65104792D01*
X125658406Y-65088876D01*
X125698094Y-65082236D01*
X125737781Y-65076681D01*
X125777469Y-65072366D01*
X125817156Y-65069446D01*
X125856844Y-65068076D01*
X125896531Y-65068412D01*
X125936219Y-65070609D01*
X125975906Y-65074820D01*
X126015594Y-65081202D01*
X126055282Y-65089910D01*
X126002365Y-65248660D01*
X126531532Y-65301576D01*
X126526269Y-65316307D01*
X126520434Y-65330748D01*
X126514076Y-65344917D01*
X126507243Y-65358834D01*
X126492348Y-65385990D01*
X126476134Y-65412371D01*
X126458990Y-65438131D01*
X126441304Y-65463427D01*
X126405854Y-65513243D01*
X126388866Y-65538073D01*
X126372885Y-65563059D01*
X126358299Y-65588355D01*
X126345497Y-65614115D01*
X126339885Y-65627219D01*
X126334864Y-65640496D01*
X126330483Y-65653968D01*
X126326790Y-65667652D01*
X126323833Y-65681569D01*
X126321661Y-65695738D01*
X126320322Y-65710179D01*
X126319865Y-65724910D01*
X126531532Y-65777826D01*
X126526115Y-65797213D01*
X126519827Y-65815718D01*
X126512724Y-65833390D01*
X126504866Y-65850277D01*
X126496311Y-65866427D01*
X126487115Y-65881890D01*
X126477339Y-65896713D01*
X126467039Y-65910945D01*
X126456274Y-65924634D01*
X126445102Y-65937829D01*
X126421770Y-65962931D01*
X126397508Y-65986638D01*
X126372781Y-66009337D01*
X126323792Y-66053262D01*
X126300460Y-66075263D01*
X126278523Y-66097807D01*
X126268224Y-66109403D01*
X126258447Y-66121281D01*
X126249252Y-66133488D01*
X126240696Y-66146073D01*
X126232838Y-66159084D01*
X126225736Y-66172570D01*
X126219448Y-66186579D01*
X126214032Y-66201160D01*
X126219144Y-66210473D01*
X126224548Y-66218613D01*
X126230222Y-66225649D01*
X126236149Y-66231649D01*
X126242308Y-66236679D01*
X126248680Y-66240808D01*
X126255246Y-66244104D01*
X126261987Y-66246635D01*
X126268882Y-66248468D01*
X126275914Y-66249671D01*
X126283061Y-66250312D01*
X126290305Y-66250459D01*
X126297627Y-66250179D01*
X126305007Y-66249542D01*
X126319864Y-66247462D01*
X126349423Y-66241984D01*
X126363815Y-66239671D01*
X126377742Y-66238367D01*
X126384482Y-66238262D01*
X126391048Y-66238612D01*
X126397421Y-66239486D01*
X126403580Y-66240950D01*
X126409507Y-66243074D01*
X126415181Y-66245924D01*
X126420585Y-66249569D01*
X126425698Y-66254076D01*
X126420280Y-66268807D01*
X126413980Y-66283247D01*
X126406847Y-66297417D01*
X126398929Y-66311334D01*
X126390275Y-66325018D01*
X126380933Y-66338490D01*
X126370951Y-66351767D01*
X126360378Y-66364870D01*
X126337654Y-66390631D01*
X126313146Y-66415927D01*
X126287243Y-66440912D01*
X126260333Y-66465743D01*
X126205039Y-66515559D01*
X126177431Y-66540855D01*
X126150365Y-66566615D01*
X126124230Y-66592996D01*
X126099412Y-66620152D01*
X126076300Y-66648238D01*
X126065504Y-66662679D01*
X126055280Y-66677410D01*
X126060241Y-66686873D01*
X126065202Y-66695445D01*
X126070163Y-66703164D01*
X126075124Y-66710069D01*
X126080085Y-66716199D01*
X126085046Y-66721593D01*
X126090007Y-66726289D01*
X126094968Y-66730326D01*
X126099929Y-66733743D01*
X126104890Y-66736579D01*
X126109851Y-66738872D01*
X126114812Y-66740661D01*
X126119773Y-66741986D01*
X126124734Y-66742883D01*
X126129695Y-66743394D01*
X126134656Y-66743555D01*
X126214030Y-66730326D01*
X125843613Y-67100743D01*
X126002363Y-67206576D01*
X125992136Y-67221153D01*
X125981318Y-67235140D01*
X125969938Y-67248565D01*
X125958025Y-67261456D01*
X125945608Y-67273844D01*
X125932717Y-67285757D01*
X125905626Y-67308275D01*
X125876984Y-67329243D01*
X125847025Y-67348893D01*
X125815981Y-67367458D01*
X125784084Y-67385170D01*
X125718661Y-67418966D01*
X125652619Y-67452143D01*
X125619947Y-67469080D01*
X125587817Y-67486559D01*
X125556462Y-67504814D01*
X125526115Y-67524076D01*
X125531076Y-67528884D01*
X125536037Y-67533391D01*
X125540998Y-67537607D01*
X125545959Y-67541543D01*
X125550920Y-67545207D01*
X125555881Y-67548609D01*
X125565803Y-67554669D01*
X125575725Y-67559797D01*
X125585646Y-67564074D01*
X125595568Y-67567575D01*
X125605490Y-67570378D01*
X125615412Y-67572561D01*
X125625334Y-67574202D01*
X125635256Y-67575378D01*
X125645178Y-67576166D01*
X125655100Y-67576644D01*
X125665022Y-67576889D01*
X125684865Y-67576993D01*
X125669829Y-67591418D01*
X125654492Y-67604963D01*
X125638865Y-67617673D01*
X125622957Y-67629599D01*
X125590336Y-67651290D01*
X125556708Y-67670424D01*
X125522149Y-67687386D01*
X125486738Y-67702566D01*
X125450551Y-67716351D01*
X125413667Y-67729128D01*
X125260705Y-67777911D01*
X125221495Y-67791463D01*
X125182053Y-67806333D01*
X125142456Y-67822908D01*
X125102782Y-67841576D01*
X125155698Y-67947409D01*
X125140511Y-67956874D01*
X125124744Y-67965457D01*
X125108434Y-67973207D01*
X125091619Y-67980172D01*
X125056635Y-67991941D01*
X125020099Y-68001153D01*
X124982324Y-68008194D01*
X124943618Y-68013452D01*
X124904293Y-68017314D01*
X124864657Y-68020170D01*
X124709214Y-68029265D01*
X124672678Y-68032895D01*
X124637693Y-68037843D01*
X124604568Y-68044496D01*
X124573614Y-68053242D01*
X124573614Y-68211993D01*
X124533914Y-68220700D01*
X124494136Y-68227082D01*
X124454203Y-68231294D01*
X124414038Y-68233490D01*
X124373562Y-68233826D01*
X124332699Y-68232457D01*
X124291371Y-68229537D01*
X124249500Y-68225222D01*
X124207009Y-68219667D01*
X124163820Y-68213026D01*
X124075040Y-68197110D01*
X123885698Y-68159076D01*
X123797667Y-68137953D01*
X123712272Y-68114117D01*
X123629667Y-68087336D01*
X123550008Y-68057377D01*
X123473450Y-68024007D01*
X123400147Y-67986993D01*
X123330254Y-67946104D01*
X123263928Y-67901107D01*
X123201322Y-67851769D01*
X123142591Y-67797858D01*
X123087892Y-67739140D01*
X123037378Y-67675384D01*
X122991205Y-67606358D01*
X122949528Y-67531827D01*
X122912502Y-67451561D01*
X122880282Y-67365326D01*
X123001166Y-67239377D01*
X123125539Y-67119243D01*
X123253167Y-67004534D01*
X123383818Y-66894863D01*
X123517259Y-66789844D01*
X123653259Y-66689088D01*
X123791584Y-66592208D01*
X123932001Y-66498815D01*
X124074280Y-66408524D01*
X124218186Y-66320945D01*
X124509951Y-66152377D01*
X124805437Y-65990009D01*
X125102783Y-65830742D01*
X124770296Y-65954766D01*
X124447112Y-66088711D01*
X124132609Y-66232578D01*
X123826168Y-66386367D01*
X123527168Y-66550078D01*
X123234989Y-66723711D01*
X122949012Y-66907266D01*
X122668615Y-67100742D01*
X122639315Y-67090359D01*
X122610944Y-67079064D01*
X122583504Y-67066878D01*
X122556994Y-67053820D01*
X122531414Y-67039910D01*
X122506765Y-67025166D01*
X122483045Y-67009608D01*
X122460256Y-66993256D01*
X122438397Y-66976128D01*
X122417468Y-66958245D01*
X122397469Y-66939625D01*
X122378401Y-66920288D01*
X122360262Y-66900254D01*
X122343054Y-66879542D01*
X122326776Y-66858170D01*
X122311428Y-66836159D01*
X122297010Y-66813528D01*
X122283523Y-66790296D01*
X122270966Y-66766483D01*
X122259338Y-66742108D01*
X122248641Y-66717190D01*
X122238875Y-66691749D01*
X122230038Y-66665805D01*
X122222131Y-66639375D01*
X122215155Y-66612481D01*
X122209109Y-66585141D01*
X122203993Y-66557375D01*
X122199807Y-66529201D01*
X122196552Y-66500640D01*
X122194226Y-66471711D01*
X122192366Y-66412826D01*
X122196009Y-66341021D01*
X122206629Y-66265031D01*
X122223759Y-66185630D01*
X122246936Y-66103594D01*
X122275694Y-66019697D01*
X122309568Y-65934715D01*
X122348093Y-65849423D01*
X122390803Y-65764597D01*
X122437235Y-65681010D01*
X122486922Y-65599439D01*
X122539399Y-65520658D01*
X122594202Y-65445443D01*
X122650865Y-65374569D01*
X122708923Y-65308810D01*
X122767912Y-65248943D01*
X122827366Y-65195742D01*
X122933200Y-65354492D01*
X122962371Y-65333473D01*
X122990457Y-65310361D01*
X123017613Y-65285543D01*
X123043994Y-65259408D01*
X123069755Y-65232342D01*
X123095050Y-65204734D01*
X123144866Y-65149440D01*
X123169697Y-65122530D01*
X123194682Y-65096627D01*
X123219978Y-65072119D01*
X123245739Y-65049395D01*
X123272120Y-65028840D01*
X123285591Y-65019498D01*
X123299275Y-65010844D01*
X123313193Y-65002926D01*
X123327361Y-64995793D01*
X123341802Y-64989494D01*
X123356533Y-64984076D01*
X123361192Y-64989187D01*
X123365279Y-64994579D01*
X123368843Y-65000223D01*
X123371932Y-65006090D01*
X123374595Y-65012151D01*
X123376880Y-65018376D01*
X123380510Y-65031205D01*
X123383211Y-65044343D01*
X123385368Y-65057560D01*
X123389606Y-65083294D01*
X123392461Y-65095348D01*
X123394242Y-65101070D01*
X123396324Y-65106549D01*
X123398754Y-65111757D01*
X123401582Y-65116664D01*
X123404855Y-65121243D01*
X123408623Y-65125462D01*
X123412933Y-65129295D01*
X123417834Y-65132710D01*
X123423375Y-65135680D01*
X123429603Y-65138175D01*
X123436569Y-65140166D01*
X123444318Y-65141624D01*
X123452902Y-65142520D01*
X123462366Y-65142826D01*
X123472290Y-65137561D01*
X123482223Y-65131715D01*
X123502157Y-65118434D01*
X123522247Y-65103293D01*
X123542568Y-65086602D01*
X123563200Y-65068670D01*
X123584220Y-65049808D01*
X123627731Y-65010534D01*
X123650378Y-64990742D01*
X123673723Y-64971260D01*
X123697843Y-64952398D01*
X123722816Y-64934466D01*
X123735646Y-64925946D01*
X123748719Y-64917775D01*
X123762043Y-64909991D01*
X123775629Y-64902634D01*
X123789487Y-64895741D01*
X123803625Y-64889353D01*
X123818054Y-64883507D01*
X123832784Y-64878242D01*
X123837443Y-64883203D01*
X123841530Y-64888164D01*
X123845094Y-64893125D01*
X123848183Y-64898086D01*
X123850846Y-64903047D01*
X123853131Y-64908008D01*
X123855087Y-64912969D01*
X123856762Y-64917930D01*
X123859462Y-64927852D01*
X123861619Y-64937774D01*
X123863622Y-64947696D01*
X123865857Y-64957617D01*
X123868712Y-64967539D01*
X123870493Y-64972500D01*
X123872575Y-64977461D01*
X123875005Y-64982422D01*
X123877833Y-64987383D01*
X123881106Y-64992344D01*
X123884874Y-64997305D01*
X123889184Y-65002266D01*
X123894085Y-65007227D01*
X123899626Y-65012188D01*
X123905855Y-65017149D01*
X123912820Y-65022110D01*
X123920570Y-65027071D01*
X123929153Y-65032031D01*
X123938618Y-65036992D01*
X123953350Y-65036535D01*
X123967802Y-65035197D01*
X123982001Y-65033025D01*
X123995978Y-65030068D01*
X124009761Y-65026375D01*
X124023379Y-65021994D01*
X124036861Y-65016973D01*
X124050237Y-65011361D01*
X124076786Y-64998558D01*
X124103257Y-64983973D01*
X124129883Y-64967992D01*
X124156897Y-64951003D01*
X124213017Y-64915553D01*
X124242589Y-64897867D01*
X124273479Y-64880723D01*
X124305919Y-64864510D01*
X124322793Y-64856873D01*
X124340141Y-64849614D01*
X124357994Y-64842782D01*
X124376379Y-64836424D01*
X124395327Y-64830589D01*
X124414865Y-64825326D01*
X124414715Y-64830289D01*
X124414284Y-64835261D01*
X124413601Y-64840253D01*
X124412695Y-64845273D01*
X124410331Y-64855441D01*
X124407424Y-64865841D01*
X124400912Y-64887648D01*
X124397773Y-64899211D01*
X124395021Y-64911316D01*
X124392890Y-64924041D01*
X124392129Y-64930661D01*
X124391611Y-64937464D01*
X124391363Y-64944461D01*
X124391417Y-64951662D01*
X124391799Y-64959076D01*
X124392541Y-64966713D01*
X124393670Y-64974582D01*
X124395215Y-64982694D01*
X124397206Y-64991057D01*
X124399672Y-64999683D01*
X124402642Y-65008579D01*
X124406145Y-65017756D01*
X124410209Y-65027225D01*
X124414865Y-65036993D01*
X124474500Y-64997512D01*
X124534755Y-64959272D01*
X124565308Y-64941004D01*
X124596250Y-64923512D01*
X124627656Y-64906949D01*
X124659605Y-64891472D01*
X124692174Y-64877235D01*
X124725441Y-64864394D01*
X124759482Y-64853102D01*
X124794377Y-64843516D01*
X124830201Y-64835791D01*
X124867034Y-64830081D01*
X124904951Y-64826541D01*
X124944032Y-64825326D01*
X124943730Y-64830289D01*
G37*
G36*
X141354631Y-75909940D02*
G01*
X141393174Y-75913125D01*
X141429717Y-75918246D01*
X141464311Y-75925152D01*
X141497012Y-75933688D01*
X141527873Y-75943704D01*
X141556946Y-75955047D01*
X141584287Y-75967563D01*
X141609947Y-75981100D01*
X141633981Y-75995506D01*
X141656442Y-76010629D01*
X141677384Y-76026315D01*
X141696860Y-76042412D01*
X141714923Y-76058768D01*
X141731627Y-76075230D01*
X141747026Y-76091645D01*
X141766826Y-76114338D01*
X141785138Y-76137240D01*
X141801993Y-76160633D01*
X141817418Y-76184798D01*
X141831442Y-76210013D01*
X141844096Y-76236561D01*
X141855406Y-76264722D01*
X141865404Y-76294775D01*
X141874116Y-76327003D01*
X141881574Y-76361685D01*
X141887804Y-76399102D01*
X141892837Y-76439534D01*
X141896701Y-76483263D01*
X141899425Y-76530568D01*
X141901038Y-76581731D01*
X141901569Y-76637031D01*
X141901038Y-76692808D01*
X141899425Y-76744391D01*
X141896701Y-76792064D01*
X141892837Y-76836111D01*
X141887804Y-76876816D01*
X141881574Y-76914463D01*
X141874117Y-76949335D01*
X141865404Y-76981717D01*
X141855407Y-77011893D01*
X141844096Y-77040146D01*
X141831443Y-77066761D01*
X141817418Y-77092021D01*
X141801993Y-77116211D01*
X141785139Y-77139614D01*
X141766826Y-77162514D01*
X141747026Y-77185195D01*
X141731627Y-77201609D01*
X141714923Y-77218066D01*
X141696860Y-77234414D01*
X141677384Y-77250501D01*
X141656442Y-77266175D01*
X141633981Y-77281284D01*
X141609947Y-77295676D01*
X141584287Y-77309198D01*
X141570830Y-77315586D01*
X141556946Y-77321700D01*
X141542630Y-77327520D01*
X141527873Y-77333027D01*
X141512669Y-77338204D01*
X141497012Y-77343030D01*
X141480895Y-77347486D01*
X141464311Y-77351555D01*
X141447254Y-77355215D01*
X141429717Y-77358450D01*
X141411692Y-77361239D01*
X141393174Y-77363563D01*
X141374156Y-77365404D01*
X141354631Y-77366743D01*
X141334593Y-77367560D01*
X141314034Y-77367836D01*
X141273451Y-77366743D01*
X141234921Y-77363563D01*
X141198389Y-77358450D01*
X141163804Y-77351554D01*
X141131111Y-77343030D01*
X141100256Y-77333027D01*
X141071188Y-77321699D01*
X141043852Y-77309198D01*
X141018195Y-77295675D01*
X140994163Y-77281283D01*
X140971704Y-77266174D01*
X140950764Y-77250500D01*
X140931289Y-77234413D01*
X140913226Y-77218065D01*
X140896522Y-77201609D01*
X140881124Y-77185195D01*
X140861323Y-77162513D01*
X140843008Y-77139611D01*
X140826150Y-77116205D01*
X140810720Y-77092011D01*
X140796689Y-77066746D01*
X140784029Y-77040126D01*
X140772711Y-77011868D01*
X140762706Y-76981688D01*
X140753986Y-76949303D01*
X140746522Y-76914428D01*
X140740285Y-76876781D01*
X140735246Y-76836078D01*
X140731377Y-76792035D01*
X140728649Y-76744369D01*
X140727034Y-76692795D01*
X140726528Y-76639810D01*
X141013283Y-76639810D01*
X141014111Y-76710123D01*
X141015189Y-76740654D01*
X141016748Y-76768433D01*
X141018817Y-76793707D01*
X141021425Y-76816722D01*
X141024602Y-76837727D01*
X141028375Y-76856969D01*
X141032775Y-76874697D01*
X141037829Y-76891156D01*
X141043567Y-76906595D01*
X141050019Y-76921262D01*
X141057212Y-76935403D01*
X141065175Y-76949267D01*
X141073939Y-76963102D01*
X141083531Y-76977153D01*
X141087628Y-76982647D01*
X141091998Y-76988054D01*
X141101525Y-76998580D01*
X141112056Y-77008686D01*
X141123531Y-77018327D01*
X141135895Y-77027457D01*
X141149089Y-77036031D01*
X141163056Y-77044003D01*
X141177738Y-77051329D01*
X141193078Y-77057963D01*
X141209018Y-77063860D01*
X141225500Y-77068974D01*
X141242467Y-77073259D01*
X141259862Y-77076672D01*
X141277627Y-77079165D01*
X141295704Y-77080694D01*
X141314035Y-77081214D01*
X141332381Y-77080695D01*
X141350470Y-77079168D01*
X141368245Y-77076679D01*
X141385648Y-77073271D01*
X141402622Y-77068990D01*
X141419109Y-77063881D01*
X141435052Y-77057989D01*
X141450392Y-77051359D01*
X141465073Y-77044037D01*
X141479037Y-77036066D01*
X141492227Y-77027492D01*
X141504584Y-77018360D01*
X141516052Y-77008716D01*
X141526572Y-76998603D01*
X141536088Y-76988067D01*
X141544541Y-76977153D01*
X141554134Y-76963101D01*
X141562900Y-76949262D01*
X141570868Y-76935385D01*
X141578066Y-76921218D01*
X141584523Y-76906510D01*
X141590268Y-76891009D01*
X141595330Y-76874464D01*
X141599737Y-76856622D01*
X141603517Y-76837233D01*
X141606701Y-76816044D01*
X141609316Y-76792804D01*
X141611391Y-76767261D01*
X141612955Y-76739164D01*
X141614037Y-76708261D01*
X141614664Y-76674301D01*
X141614867Y-76637031D01*
X141614037Y-76566712D01*
X141612955Y-76536173D01*
X141611391Y-76508386D01*
X141609316Y-76483102D01*
X141606701Y-76460077D01*
X141603517Y-76439062D01*
X141599737Y-76419812D01*
X141595330Y-76402078D01*
X141590268Y-76385615D01*
X141584523Y-76370175D01*
X141578066Y-76355511D01*
X141570868Y-76341378D01*
X141562900Y-76327527D01*
X141554134Y-76313712D01*
X141544541Y-76299687D01*
X141540451Y-76294193D01*
X141536088Y-76288786D01*
X141526572Y-76278260D01*
X141516052Y-76268154D01*
X141504584Y-76258514D01*
X141492227Y-76249384D01*
X141479037Y-76240810D01*
X141465073Y-76232837D01*
X141450392Y-76225511D01*
X141435052Y-76218877D01*
X141419109Y-76212980D01*
X141402622Y-76207867D01*
X141385648Y-76203581D01*
X141368245Y-76200169D01*
X141350470Y-76197675D01*
X141332381Y-76196146D01*
X141314035Y-76195626D01*
X141295704Y-76196145D01*
X141277627Y-76197672D01*
X141259863Y-76200162D01*
X141242468Y-76203570D01*
X141225501Y-76207850D01*
X141209019Y-76212959D01*
X141193079Y-76218851D01*
X141177740Y-76225481D01*
X141163057Y-76232804D01*
X141149091Y-76240774D01*
X141135896Y-76249348D01*
X141123533Y-76258480D01*
X141112057Y-76268125D01*
X141101526Y-76278237D01*
X141091998Y-76288773D01*
X141083531Y-76299687D01*
X141073939Y-76313713D01*
X141065175Y-76327533D01*
X141057211Y-76341396D01*
X141050018Y-76355555D01*
X141043567Y-76370260D01*
X141037829Y-76385761D01*
X141032774Y-76402311D01*
X141028375Y-76420159D01*
X141024601Y-76439557D01*
X141021425Y-76460755D01*
X141018817Y-76484005D01*
X141016747Y-76509558D01*
X141015189Y-76537664D01*
X141014111Y-76568574D01*
X141013485Y-76602539D01*
X141013283Y-76639810D01*
X140726528Y-76639810D01*
X140726501Y-76637031D01*
X140727034Y-76581730D01*
X140728649Y-76530565D01*
X140731377Y-76483256D01*
X140735246Y-76439523D01*
X140740285Y-76399086D01*
X140746522Y-76361664D01*
X140753986Y-76326977D01*
X140762706Y-76294746D01*
X140772711Y-76264689D01*
X140784029Y-76236526D01*
X140796689Y-76209978D01*
X140810720Y-76184764D01*
X140826150Y-76160604D01*
X140843008Y-76137218D01*
X140861323Y-76114325D01*
X140881124Y-76091645D01*
X140896522Y-76075229D01*
X140913227Y-76058768D01*
X140931290Y-76042412D01*
X140950765Y-76026314D01*
X140971705Y-76010628D01*
X140994164Y-75995506D01*
X141018196Y-75981100D01*
X141043853Y-75967562D01*
X141057308Y-75961167D01*
X141071189Y-75955046D01*
X141085503Y-75949219D01*
X141100257Y-75943704D01*
X141115458Y-75938521D01*
X141131111Y-75933688D01*
X141147224Y-75929225D01*
X141163804Y-75925151D01*
X141180857Y-75921485D01*
X141198390Y-75918246D01*
X141216409Y-75915453D01*
X141234921Y-75913125D01*
X141253933Y-75911281D01*
X141273451Y-75909940D01*
X141293483Y-75909122D01*
X141314034Y-75908845D01*
X141354631Y-75909940D01*
G37*
G36*
X135248084Y-75910748D02*
G01*
X135301732Y-75915971D01*
X135353263Y-75924662D01*
X135402444Y-75936807D01*
X135449040Y-75952396D01*
X135471295Y-75961477D01*
X135492815Y-75971414D01*
X135513572Y-75982206D01*
X135533535Y-75993850D01*
X135552676Y-76006346D01*
X135570966Y-76019692D01*
X135588374Y-76033886D01*
X135604872Y-76048927D01*
X135620430Y-76064813D01*
X135635019Y-76081543D01*
X135648610Y-76099115D01*
X135661172Y-76117528D01*
X135672678Y-76136780D01*
X135683097Y-76156869D01*
X135692400Y-76177794D01*
X135700558Y-76199554D01*
X135707541Y-76222147D01*
X135713320Y-76245571D01*
X135717867Y-76269824D01*
X135721150Y-76294907D01*
X135723142Y-76320816D01*
X135723812Y-76347550D01*
X135723305Y-76370165D01*
X135721797Y-76392168D01*
X135719309Y-76413557D01*
X135715861Y-76434328D01*
X135711475Y-76454478D01*
X135706170Y-76474004D01*
X135699968Y-76492903D01*
X135692888Y-76511172D01*
X135684952Y-76528807D01*
X135676180Y-76545805D01*
X135666593Y-76562164D01*
X135656212Y-76577880D01*
X135645056Y-76592950D01*
X135633147Y-76607371D01*
X135620505Y-76621139D01*
X135607151Y-76634253D01*
X135593105Y-76646707D01*
X135578389Y-76658500D01*
X135563022Y-76669628D01*
X135547025Y-76680088D01*
X135530419Y-76689877D01*
X135513224Y-76698991D01*
X135495462Y-76707429D01*
X135477152Y-76715185D01*
X135458316Y-76722258D01*
X135438973Y-76728645D01*
X135419145Y-76734341D01*
X135398852Y-76739344D01*
X135356954Y-76747258D01*
X135313444Y-76752363D01*
X135060396Y-76774826D01*
X135042205Y-76776667D01*
X135024625Y-76779109D01*
X135007732Y-76782222D01*
X134991604Y-76786075D01*
X134976320Y-76790739D01*
X134961956Y-76796283D01*
X134948591Y-76802776D01*
X134942308Y-76806400D01*
X134936303Y-76810288D01*
X134930587Y-76814447D01*
X134925170Y-76818888D01*
X134920060Y-76823617D01*
X134915268Y-76828645D01*
X134910803Y-76833980D01*
X134906676Y-76839630D01*
X134902896Y-76845605D01*
X134899472Y-76851912D01*
X134896415Y-76858561D01*
X134893734Y-76865561D01*
X134891438Y-76872919D01*
X134889538Y-76880645D01*
X134888044Y-76888748D01*
X134886964Y-76897235D01*
X134886309Y-76906116D01*
X134886089Y-76915400D01*
X134886433Y-76926560D01*
X134887456Y-76937373D01*
X134889145Y-76947838D01*
X134891485Y-76957955D01*
X134894465Y-76967725D01*
X134898070Y-76977145D01*
X134902287Y-76986216D01*
X134907102Y-76994937D01*
X134912502Y-77003307D01*
X134918474Y-77011327D01*
X134925004Y-77018996D01*
X134932078Y-77026313D01*
X134939684Y-77033277D01*
X134947807Y-77039889D01*
X134956434Y-77046148D01*
X134965553Y-77052053D01*
X134975149Y-77057604D01*
X134985209Y-77062800D01*
X134995719Y-77067641D01*
X135006667Y-77072126D01*
X135018038Y-77076256D01*
X135029819Y-77080029D01*
X135041997Y-77083444D01*
X135054558Y-77086503D01*
X135067489Y-77089203D01*
X135080777Y-77091545D01*
X135094408Y-77093528D01*
X135108368Y-77095151D01*
X135122644Y-77096414D01*
X135137223Y-77097318D01*
X135152091Y-77097860D01*
X135167235Y-77098041D01*
X135202425Y-77097318D01*
X135236364Y-77095154D01*
X135269117Y-77091552D01*
X135300751Y-77086514D01*
X135331331Y-77080045D01*
X135360923Y-77072148D01*
X135389592Y-77062826D01*
X135417405Y-77052083D01*
X135444427Y-77039923D01*
X135470725Y-77026348D01*
X135496363Y-77011363D01*
X135521409Y-76994971D01*
X135545927Y-76977175D01*
X135569983Y-76957978D01*
X135593643Y-76937386D01*
X135616974Y-76915400D01*
X135816523Y-77112090D01*
X135781903Y-77143218D01*
X135746578Y-77172308D01*
X135710570Y-77199365D01*
X135673898Y-77224394D01*
X135636583Y-77247397D01*
X135598646Y-77268379D01*
X135560108Y-77287345D01*
X135520989Y-77304297D01*
X135481310Y-77319240D01*
X135441092Y-77332178D01*
X135400356Y-77343114D01*
X135359121Y-77352054D01*
X135317410Y-77358999D01*
X135275241Y-77363956D01*
X135232638Y-77366927D01*
X135189619Y-77367916D01*
X135128325Y-77366049D01*
X135069017Y-77360490D01*
X135011966Y-77351299D01*
X134957443Y-77338539D01*
X134905720Y-77322270D01*
X134857070Y-77302555D01*
X134811763Y-77279455D01*
X134790449Y-77266655D01*
X134770072Y-77253031D01*
X134750667Y-77238592D01*
X134732268Y-77223345D01*
X134714909Y-77207298D01*
X134698623Y-77190459D01*
X134683445Y-77172834D01*
X134669408Y-77154433D01*
X134656548Y-77135262D01*
X134644896Y-77115330D01*
X134634489Y-77094643D01*
X134625358Y-77073210D01*
X134617540Y-77051039D01*
X134611066Y-77028136D01*
X134605972Y-77004511D01*
X134602292Y-76980169D01*
X134600059Y-76955120D01*
X134599307Y-76929371D01*
X134600703Y-76887286D01*
X134604952Y-76846481D01*
X134612138Y-76807121D01*
X134616861Y-76788035D01*
X134622350Y-76769371D01*
X134628618Y-76751152D01*
X134635675Y-76733397D01*
X134643531Y-76716127D01*
X134652198Y-76699362D01*
X134661687Y-76683125D01*
X134672008Y-76667434D01*
X134683173Y-76652311D01*
X134695192Y-76637776D01*
X134708076Y-76623851D01*
X134721835Y-76610555D01*
X134736482Y-76597909D01*
X134752026Y-76585935D01*
X134768479Y-76574652D01*
X134785851Y-76564081D01*
X134804154Y-76554244D01*
X134823397Y-76545160D01*
X134843593Y-76536850D01*
X134864752Y-76529335D01*
X134886884Y-76522636D01*
X134910001Y-76516773D01*
X134934114Y-76511766D01*
X134959233Y-76507638D01*
X134985369Y-76504407D01*
X135012533Y-76502095D01*
X135248674Y-76485347D01*
X135274412Y-76482639D01*
X135297921Y-76478822D01*
X135319281Y-76473970D01*
X135338568Y-76468157D01*
X135355863Y-76461456D01*
X135363787Y-76457796D01*
X135371242Y-76453942D01*
X135378238Y-76449903D01*
X135384785Y-76445688D01*
X135390892Y-76441307D01*
X135396569Y-76436769D01*
X135401827Y-76432083D01*
X135406674Y-76427258D01*
X135415177Y-76417230D01*
X135422157Y-76406758D01*
X135427692Y-76395916D01*
X135431860Y-76384778D01*
X135434741Y-76373418D01*
X135436412Y-76361911D01*
X135436951Y-76350329D01*
X135436768Y-76341192D01*
X135436212Y-76332210D01*
X135435272Y-76323393D01*
X135433938Y-76314749D01*
X135432197Y-76306288D01*
X135430041Y-76298017D01*
X135427457Y-76289947D01*
X135424436Y-76282084D01*
X135420966Y-76274440D01*
X135417036Y-76267021D01*
X135412636Y-76259838D01*
X135407755Y-76252898D01*
X135402382Y-76246212D01*
X135396507Y-76239786D01*
X135390118Y-76233631D01*
X135383204Y-76227755D01*
X135375756Y-76222167D01*
X135367762Y-76216875D01*
X135359211Y-76211889D01*
X135350092Y-76207218D01*
X135340395Y-76202869D01*
X135330110Y-76198852D01*
X135319224Y-76195176D01*
X135307728Y-76191850D01*
X135295610Y-76188882D01*
X135282860Y-76186281D01*
X135269466Y-76184056D01*
X135255419Y-76182216D01*
X135240707Y-76180770D01*
X135225320Y-76179726D01*
X135209247Y-76179093D01*
X135192476Y-76178880D01*
X135163922Y-76179500D01*
X135136237Y-76181332D01*
X135109369Y-76184335D01*
X135083262Y-76188467D01*
X135057866Y-76193686D01*
X135033125Y-76199951D01*
X135008986Y-76207220D01*
X134985397Y-76215451D01*
X134962303Y-76224604D01*
X134939652Y-76234635D01*
X134917390Y-76245505D01*
X134895464Y-76257170D01*
X134873819Y-76269590D01*
X134852404Y-76282723D01*
X134831165Y-76296526D01*
X134810047Y-76310959D01*
X134633041Y-76103076D01*
X134659740Y-76081433D01*
X134687174Y-76060827D01*
X134715423Y-76041307D01*
X134744564Y-76022924D01*
X134774677Y-76005728D01*
X134805840Y-75989766D01*
X134838132Y-75975090D01*
X134871632Y-75961749D01*
X134906419Y-75949791D01*
X134942570Y-75939267D01*
X134980165Y-75930226D01*
X135019283Y-75922718D01*
X135060003Y-75916793D01*
X135102402Y-75912499D01*
X135146560Y-75909886D01*
X135192556Y-75909004D01*
X135248084Y-75910748D01*
G37*
G36*
X131283586Y-78160738D02*
G01*
X131311223Y-78162716D01*
X131338285Y-78166013D01*
X131364745Y-78170628D01*
X131390580Y-78176561D01*
X131415765Y-78183812D01*
X131440274Y-78192381D01*
X131464084Y-78202267D01*
X131487169Y-78213470D01*
X131509505Y-78225990D01*
X131531067Y-78239826D01*
X131551830Y-78254979D01*
X131571769Y-78271448D01*
X131590859Y-78289234D01*
X131609077Y-78308334D01*
X131626396Y-78328751D01*
X131632111Y-78328751D01*
X131632111Y-78176985D01*
X131918734Y-78176985D01*
X131918734Y-79602164D01*
X131632111Y-79602164D01*
X131632111Y-78744676D01*
X131631712Y-78725531D01*
X131630531Y-78707072D01*
X131628593Y-78689292D01*
X131625922Y-78672187D01*
X131622544Y-78655753D01*
X131618482Y-78639983D01*
X131613762Y-78624872D01*
X131608408Y-78610417D01*
X131602444Y-78596611D01*
X131595896Y-78583450D01*
X131588788Y-78570928D01*
X131581145Y-78559041D01*
X131572991Y-78547782D01*
X131564351Y-78537149D01*
X131555249Y-78527134D01*
X131545711Y-78517733D01*
X131535761Y-78508942D01*
X131525424Y-78500754D01*
X131514723Y-78493165D01*
X131503685Y-78486170D01*
X131492333Y-78479764D01*
X131480692Y-78473942D01*
X131468787Y-78468698D01*
X131456643Y-78464028D01*
X131431734Y-78456387D01*
X131406163Y-78450980D01*
X131380126Y-78447765D01*
X131353822Y-78446703D01*
X131340388Y-78446936D01*
X131327484Y-78447648D01*
X131315045Y-78448854D01*
X131303005Y-78450571D01*
X131291296Y-78452816D01*
X131279854Y-78455606D01*
X131268611Y-78458957D01*
X131257501Y-78462885D01*
X131246458Y-78467408D01*
X131235416Y-78472542D01*
X131224308Y-78478304D01*
X131213068Y-78484710D01*
X131201630Y-78491776D01*
X131189928Y-78499520D01*
X131177895Y-78507959D01*
X131165465Y-78517108D01*
X130957424Y-78269696D01*
X130973867Y-78257346D01*
X130990526Y-78245615D01*
X131007416Y-78234526D01*
X131024554Y-78224104D01*
X131041955Y-78214375D01*
X131059636Y-78205362D01*
X131077614Y-78197091D01*
X131095903Y-78189586D01*
X131114521Y-78182872D01*
X131133483Y-78176972D01*
X131152806Y-78171913D01*
X131172506Y-78167718D01*
X131192599Y-78164413D01*
X131213101Y-78162021D01*
X131234029Y-78160568D01*
X131255397Y-78160079D01*
X131283586Y-78160738D01*
G37*
G36*
X132164717Y-76774667D02*
G01*
X132165069Y-76792607D01*
X132166114Y-76810065D01*
X132167837Y-76827034D01*
X132170225Y-76843510D01*
X132173261Y-76859486D01*
X132176930Y-76874956D01*
X132181219Y-76889916D01*
X132186111Y-76904359D01*
X132191593Y-76918280D01*
X132197648Y-76931672D01*
X132204263Y-76944531D01*
X132211422Y-76956850D01*
X132219111Y-76968624D01*
X132227314Y-76979847D01*
X132236016Y-76990513D01*
X132245203Y-77000617D01*
X132254860Y-77010153D01*
X132264972Y-77019115D01*
X132275524Y-77027497D01*
X132286500Y-77035295D01*
X132297887Y-77042501D01*
X132309669Y-77049110D01*
X132321831Y-77055118D01*
X132334359Y-77060517D01*
X132347237Y-77065302D01*
X132360450Y-77069468D01*
X132373985Y-77073008D01*
X132387824Y-77075918D01*
X132401955Y-77078191D01*
X132416362Y-77079822D01*
X132431029Y-77080804D01*
X132445943Y-77081133D01*
X132461094Y-77080804D01*
X132475985Y-77079822D01*
X132490600Y-77078191D01*
X132504926Y-77075918D01*
X132518947Y-77073008D01*
X132532650Y-77069468D01*
X132546019Y-77065302D01*
X132559041Y-77060517D01*
X132571701Y-77055118D01*
X132583985Y-77049110D01*
X132595878Y-77042501D01*
X132607365Y-77035295D01*
X132618433Y-77027497D01*
X132629067Y-77019115D01*
X132639252Y-77010153D01*
X132648974Y-77000617D01*
X132658219Y-76990513D01*
X132666972Y-76979847D01*
X132675219Y-76968624D01*
X132682945Y-76956850D01*
X132690135Y-76944531D01*
X132696777Y-76931672D01*
X132702854Y-76918280D01*
X132708353Y-76904359D01*
X132713259Y-76889916D01*
X132717557Y-76874956D01*
X132721234Y-76859486D01*
X132724275Y-76843510D01*
X132726665Y-76827034D01*
X132728390Y-76810065D01*
X132729436Y-76792607D01*
X132729788Y-76774667D01*
X132729788Y-75925750D01*
X133016411Y-75925750D01*
X133016411Y-76873171D01*
X133015678Y-76903027D01*
X133013514Y-76931991D01*
X133009970Y-76960058D01*
X133005098Y-76987224D01*
X132998950Y-77013487D01*
X132991576Y-77038843D01*
X132983028Y-77063288D01*
X132973359Y-77086819D01*
X132962618Y-77109431D01*
X132950858Y-77131122D01*
X132938130Y-77151887D01*
X132924487Y-77171724D01*
X132909978Y-77190628D01*
X132894656Y-77208596D01*
X132878572Y-77225624D01*
X132861778Y-77241709D01*
X132844326Y-77256847D01*
X132826265Y-77271034D01*
X132807650Y-77284268D01*
X132788529Y-77296543D01*
X132768956Y-77307857D01*
X132748982Y-77318207D01*
X132728658Y-77327587D01*
X132708035Y-77335996D01*
X132687166Y-77343429D01*
X132666101Y-77349882D01*
X132623592Y-77359837D01*
X132580919Y-77365831D01*
X132559650Y-77367333D01*
X132538494Y-77367835D01*
X132510821Y-77367176D01*
X132483631Y-77365197D01*
X132456954Y-77361901D01*
X132430819Y-77357286D01*
X132405257Y-77351353D01*
X132380296Y-77344102D01*
X132355967Y-77335533D01*
X132332298Y-77325648D01*
X132309319Y-77314445D01*
X132287060Y-77301925D01*
X132265550Y-77288088D01*
X132244819Y-77272935D01*
X132224896Y-77256466D01*
X132205811Y-77238681D01*
X132187594Y-77219580D01*
X132170274Y-77199164D01*
X132164717Y-77199164D01*
X132164717Y-77351088D01*
X131878094Y-77351088D01*
X131878094Y-75925750D01*
X132164717Y-75925750D01*
X132164717Y-76774667D01*
G37*
D12*
X144273152Y-83503438D02*
X144273152Y-81503438D01*
X143416009Y-83503438D02*
X143416009Y-82455819D01*
X143416009Y-82455819D02*
X143511247Y-82265342D01*
X143511247Y-82265342D02*
X143701723Y-82170104D01*
X143701723Y-82170104D02*
X143987438Y-82170104D01*
X143987438Y-82170104D02*
X144177914Y-82265342D01*
X144177914Y-82265342D02*
X144273152Y-82360580D01*
X142749342Y-82170104D02*
X141987438Y-82170104D01*
X142463628Y-81503438D02*
X142463628Y-83217723D01*
X142463628Y-83217723D02*
X142368390Y-83408200D01*
X142368390Y-83408200D02*
X142177914Y-83503438D01*
X142177914Y-83503438D02*
X141987438Y-83503438D01*
X141606485Y-82170104D02*
X140844581Y-82170104D01*
X141320771Y-81503438D02*
X141320771Y-83217723D01*
X141320771Y-83217723D02*
X141225533Y-83408200D01*
X141225533Y-83408200D02*
X141035057Y-83503438D01*
X141035057Y-83503438D02*
X140844581Y-83503438D01*
X140177914Y-82170104D02*
X140177914Y-84170104D01*
X140177914Y-82265342D02*
X139987438Y-82170104D01*
X139987438Y-82170104D02*
X139606485Y-82170104D01*
X139606485Y-82170104D02*
X139416009Y-82265342D01*
X139416009Y-82265342D02*
X139320771Y-82360580D01*
X139320771Y-82360580D02*
X139225533Y-82551057D01*
X139225533Y-82551057D02*
X139225533Y-83122485D01*
X139225533Y-83122485D02*
X139320771Y-83312961D01*
X139320771Y-83312961D02*
X139416009Y-83408200D01*
X139416009Y-83408200D02*
X139606485Y-83503438D01*
X139606485Y-83503438D02*
X139987438Y-83503438D01*
X139987438Y-83503438D02*
X140177914Y-83408200D01*
X138463628Y-83408200D02*
X138273152Y-83503438D01*
X138273152Y-83503438D02*
X137892200Y-83503438D01*
X137892200Y-83503438D02*
X137701723Y-83408200D01*
X137701723Y-83408200D02*
X137606485Y-83217723D01*
X137606485Y-83217723D02*
X137606485Y-83122485D01*
X137606485Y-83122485D02*
X137701723Y-82932009D01*
X137701723Y-82932009D02*
X137892200Y-82836771D01*
X137892200Y-82836771D02*
X138177914Y-82836771D01*
X138177914Y-82836771D02*
X138368390Y-82741533D01*
X138368390Y-82741533D02*
X138463628Y-82551057D01*
X138463628Y-82551057D02*
X138463628Y-82455819D01*
X138463628Y-82455819D02*
X138368390Y-82265342D01*
X138368390Y-82265342D02*
X138177914Y-82170104D01*
X138177914Y-82170104D02*
X137892200Y-82170104D01*
X137892200Y-82170104D02*
X137701723Y-82265342D01*
X136749342Y-83312961D02*
X136654104Y-83408200D01*
X136654104Y-83408200D02*
X136749342Y-83503438D01*
X136749342Y-83503438D02*
X136844580Y-83408200D01*
X136844580Y-83408200D02*
X136749342Y-83312961D01*
X136749342Y-83312961D02*
X136749342Y-83503438D01*
X136749342Y-82265342D02*
X136654104Y-82360580D01*
X136654104Y-82360580D02*
X136749342Y-82455819D01*
X136749342Y-82455819D02*
X136844580Y-82360580D01*
X136844580Y-82360580D02*
X136749342Y-82265342D01*
X136749342Y-82265342D02*
X136749342Y-82455819D01*
X134368390Y-81408200D02*
X136082675Y-83979628D01*
X132273152Y-81408200D02*
X133987437Y-83979628D01*
X130749342Y-82170104D02*
X130749342Y-83789152D01*
X130749342Y-83789152D02*
X130844580Y-83979628D01*
X130844580Y-83979628D02*
X130939818Y-84074866D01*
X130939818Y-84074866D02*
X131130295Y-84170104D01*
X131130295Y-84170104D02*
X131416009Y-84170104D01*
X131416009Y-84170104D02*
X131606485Y-84074866D01*
X130749342Y-83408200D02*
X130939818Y-83503438D01*
X130939818Y-83503438D02*
X131320771Y-83503438D01*
X131320771Y-83503438D02*
X131511247Y-83408200D01*
X131511247Y-83408200D02*
X131606485Y-83312961D01*
X131606485Y-83312961D02*
X131701723Y-83122485D01*
X131701723Y-83122485D02*
X131701723Y-82551057D01*
X131701723Y-82551057D02*
X131606485Y-82360580D01*
X131606485Y-82360580D02*
X131511247Y-82265342D01*
X131511247Y-82265342D02*
X131320771Y-82170104D01*
X131320771Y-82170104D02*
X130939818Y-82170104D01*
X130939818Y-82170104D02*
X130749342Y-82265342D01*
X129796961Y-83503438D02*
X129796961Y-82170104D01*
X129796961Y-81503438D02*
X129892199Y-81598676D01*
X129892199Y-81598676D02*
X129796961Y-81693914D01*
X129796961Y-81693914D02*
X129701723Y-81598676D01*
X129701723Y-81598676D02*
X129796961Y-81503438D01*
X129796961Y-81503438D02*
X129796961Y-81693914D01*
X129130294Y-82170104D02*
X128368390Y-82170104D01*
X128844580Y-81503438D02*
X128844580Y-83217723D01*
X128844580Y-83217723D02*
X128749342Y-83408200D01*
X128749342Y-83408200D02*
X128558866Y-83503438D01*
X128558866Y-83503438D02*
X128368390Y-83503438D01*
X127701723Y-83503438D02*
X127701723Y-81503438D01*
X126844580Y-83503438D02*
X126844580Y-82455819D01*
X126844580Y-82455819D02*
X126939818Y-82265342D01*
X126939818Y-82265342D02*
X127130294Y-82170104D01*
X127130294Y-82170104D02*
X127416009Y-82170104D01*
X127416009Y-82170104D02*
X127606485Y-82265342D01*
X127606485Y-82265342D02*
X127701723Y-82360580D01*
X125035056Y-82170104D02*
X125035056Y-83503438D01*
X125892199Y-82170104D02*
X125892199Y-83217723D01*
X125892199Y-83217723D02*
X125796961Y-83408200D01*
X125796961Y-83408200D02*
X125606485Y-83503438D01*
X125606485Y-83503438D02*
X125320770Y-83503438D01*
X125320770Y-83503438D02*
X125130294Y-83408200D01*
X125130294Y-83408200D02*
X125035056Y-83312961D01*
X124082675Y-83503438D02*
X124082675Y-81503438D01*
X124082675Y-82265342D02*
X123892199Y-82170104D01*
X123892199Y-82170104D02*
X123511246Y-82170104D01*
X123511246Y-82170104D02*
X123320770Y-82265342D01*
X123320770Y-82265342D02*
X123225532Y-82360580D01*
X123225532Y-82360580D02*
X123130294Y-82551057D01*
X123130294Y-82551057D02*
X123130294Y-83122485D01*
X123130294Y-83122485D02*
X123225532Y-83312961D01*
X123225532Y-83312961D02*
X123320770Y-83408200D01*
X123320770Y-83408200D02*
X123511246Y-83503438D01*
X123511246Y-83503438D02*
X123892199Y-83503438D01*
X123892199Y-83503438D02*
X124082675Y-83408200D01*
X122273151Y-83312961D02*
X122177913Y-83408200D01*
X122177913Y-83408200D02*
X122273151Y-83503438D01*
X122273151Y-83503438D02*
X122368389Y-83408200D01*
X122368389Y-83408200D02*
X122273151Y-83312961D01*
X122273151Y-83312961D02*
X122273151Y-83503438D01*
X120463627Y-83408200D02*
X120654103Y-83503438D01*
X120654103Y-83503438D02*
X121035056Y-83503438D01*
X121035056Y-83503438D02*
X121225532Y-83408200D01*
X121225532Y-83408200D02*
X121320770Y-83312961D01*
X121320770Y-83312961D02*
X121416008Y-83122485D01*
X121416008Y-83122485D02*
X121416008Y-82551057D01*
X121416008Y-82551057D02*
X121320770Y-82360580D01*
X121320770Y-82360580D02*
X121225532Y-82265342D01*
X121225532Y-82265342D02*
X121035056Y-82170104D01*
X121035056Y-82170104D02*
X120654103Y-82170104D01*
X120654103Y-82170104D02*
X120463627Y-82265342D01*
X119320770Y-83503438D02*
X119511246Y-83408200D01*
X119511246Y-83408200D02*
X119606484Y-83312961D01*
X119606484Y-83312961D02*
X119701722Y-83122485D01*
X119701722Y-83122485D02*
X119701722Y-82551057D01*
X119701722Y-82551057D02*
X119606484Y-82360580D01*
X119606484Y-82360580D02*
X119511246Y-82265342D01*
X119511246Y-82265342D02*
X119320770Y-82170104D01*
X119320770Y-82170104D02*
X119035055Y-82170104D01*
X119035055Y-82170104D02*
X118844579Y-82265342D01*
X118844579Y-82265342D02*
X118749341Y-82360580D01*
X118749341Y-82360580D02*
X118654103Y-82551057D01*
X118654103Y-82551057D02*
X118654103Y-83122485D01*
X118654103Y-83122485D02*
X118749341Y-83312961D01*
X118749341Y-83312961D02*
X118844579Y-83408200D01*
X118844579Y-83408200D02*
X119035055Y-83503438D01*
X119035055Y-83503438D02*
X119320770Y-83503438D01*
X117796960Y-83503438D02*
X117796960Y-82170104D01*
X117796960Y-82360580D02*
X117701722Y-82265342D01*
X117701722Y-82265342D02*
X117511246Y-82170104D01*
X117511246Y-82170104D02*
X117225531Y-82170104D01*
X117225531Y-82170104D02*
X117035055Y-82265342D01*
X117035055Y-82265342D02*
X116939817Y-82455819D01*
X116939817Y-82455819D02*
X116939817Y-83503438D01*
X116939817Y-82455819D02*
X116844579Y-82265342D01*
X116844579Y-82265342D02*
X116654103Y-82170104D01*
X116654103Y-82170104D02*
X116368389Y-82170104D01*
X116368389Y-82170104D02*
X116177912Y-82265342D01*
X116177912Y-82265342D02*
X116082674Y-82455819D01*
X116082674Y-82455819D02*
X116082674Y-83503438D01*
X113701722Y-81408200D02*
X115416007Y-83979628D01*
X111987436Y-81598676D02*
X112177912Y-81503438D01*
X112177912Y-81503438D02*
X112463626Y-81503438D01*
X112463626Y-81503438D02*
X112749341Y-81598676D01*
X112749341Y-81598676D02*
X112939817Y-81789152D01*
X112939817Y-81789152D02*
X113035055Y-81979628D01*
X113035055Y-81979628D02*
X113130293Y-82360580D01*
X113130293Y-82360580D02*
X113130293Y-82646295D01*
X113130293Y-82646295D02*
X113035055Y-83027247D01*
X113035055Y-83027247D02*
X112939817Y-83217723D01*
X112939817Y-83217723D02*
X112749341Y-83408200D01*
X112749341Y-83408200D02*
X112463626Y-83503438D01*
X112463626Y-83503438D02*
X112273150Y-83503438D01*
X112273150Y-83503438D02*
X111987436Y-83408200D01*
X111987436Y-83408200D02*
X111892198Y-83312961D01*
X111892198Y-83312961D02*
X111892198Y-82646295D01*
X111892198Y-82646295D02*
X112273150Y-82646295D01*
X110177912Y-82170104D02*
X110177912Y-83503438D01*
X111035055Y-82170104D02*
X111035055Y-83217723D01*
X111035055Y-83217723D02*
X110939817Y-83408200D01*
X110939817Y-83408200D02*
X110749341Y-83503438D01*
X110749341Y-83503438D02*
X110463626Y-83503438D01*
X110463626Y-83503438D02*
X110273150Y-83408200D01*
X110273150Y-83408200D02*
X110177912Y-83312961D01*
X109225531Y-83503438D02*
X109225531Y-82170104D01*
X109225531Y-81503438D02*
X109320769Y-81598676D01*
X109320769Y-81598676D02*
X109225531Y-81693914D01*
X109225531Y-81693914D02*
X109130293Y-81598676D01*
X109130293Y-81598676D02*
X109225531Y-81503438D01*
X109225531Y-81503438D02*
X109225531Y-81693914D01*
X108273150Y-83503438D02*
X108273150Y-82170104D01*
X108273150Y-82360580D02*
X108177912Y-82265342D01*
X108177912Y-82265342D02*
X107987436Y-82170104D01*
X107987436Y-82170104D02*
X107701721Y-82170104D01*
X107701721Y-82170104D02*
X107511245Y-82265342D01*
X107511245Y-82265342D02*
X107416007Y-82455819D01*
X107416007Y-82455819D02*
X107416007Y-83503438D01*
X107416007Y-82455819D02*
X107320769Y-82265342D01*
X107320769Y-82265342D02*
X107130293Y-82170104D01*
X107130293Y-82170104D02*
X106844579Y-82170104D01*
X106844579Y-82170104D02*
X106654102Y-82265342D01*
X106654102Y-82265342D02*
X106558864Y-82455819D01*
X106558864Y-82455819D02*
X106558864Y-83503438D01*
X105320769Y-83503438D02*
X105511245Y-83408200D01*
X105511245Y-83408200D02*
X105606483Y-83217723D01*
X105606483Y-83217723D02*
X105606483Y-81503438D01*
X104558864Y-83503438D02*
X104558864Y-82170104D01*
X104558864Y-81503438D02*
X104654102Y-81598676D01*
X104654102Y-81598676D02*
X104558864Y-81693914D01*
X104558864Y-81693914D02*
X104463626Y-81598676D01*
X104463626Y-81598676D02*
X104558864Y-81503438D01*
X104558864Y-81503438D02*
X104558864Y-81693914D01*
X102177912Y-81408200D02*
X103892197Y-83979628D01*
X101511245Y-83503438D02*
X101511245Y-81503438D01*
X101511245Y-81503438D02*
X100749340Y-81503438D01*
X100749340Y-81503438D02*
X100558864Y-81598676D01*
X100558864Y-81598676D02*
X100463626Y-81693914D01*
X100463626Y-81693914D02*
X100368388Y-81884390D01*
X100368388Y-81884390D02*
X100368388Y-82170104D01*
X100368388Y-82170104D02*
X100463626Y-82360580D01*
X100463626Y-82360580D02*
X100558864Y-82455819D01*
X100558864Y-82455819D02*
X100749340Y-82551057D01*
X100749340Y-82551057D02*
X101511245Y-82551057D01*
X99511245Y-83503438D02*
X99511245Y-82170104D01*
X99511245Y-81503438D02*
X99606483Y-81598676D01*
X99606483Y-81598676D02*
X99511245Y-81693914D01*
X99511245Y-81693914D02*
X99416007Y-81598676D01*
X99416007Y-81598676D02*
X99511245Y-81503438D01*
X99511245Y-81503438D02*
X99511245Y-81693914D01*
X97701721Y-83408200D02*
X97892197Y-83503438D01*
X97892197Y-83503438D02*
X98273150Y-83503438D01*
X98273150Y-83503438D02*
X98463626Y-83408200D01*
X98463626Y-83408200D02*
X98558864Y-83312961D01*
X98558864Y-83312961D02*
X98654102Y-83122485D01*
X98654102Y-83122485D02*
X98654102Y-82551057D01*
X98654102Y-82551057D02*
X98558864Y-82360580D01*
X98558864Y-82360580D02*
X98463626Y-82265342D01*
X98463626Y-82265342D02*
X98273150Y-82170104D01*
X98273150Y-82170104D02*
X97892197Y-82170104D01*
X97892197Y-82170104D02*
X97701721Y-82265342D01*
X96558864Y-83503438D02*
X96749340Y-83408200D01*
X96749340Y-83408200D02*
X96844578Y-83312961D01*
X96844578Y-83312961D02*
X96939816Y-83122485D01*
X96939816Y-83122485D02*
X96939816Y-82551057D01*
X96939816Y-82551057D02*
X96844578Y-82360580D01*
X96844578Y-82360580D02*
X96749340Y-82265342D01*
X96749340Y-82265342D02*
X96558864Y-82170104D01*
X96558864Y-82170104D02*
X96273149Y-82170104D01*
X96273149Y-82170104D02*
X96082673Y-82265342D01*
X96082673Y-82265342D02*
X95987435Y-82360580D01*
X95987435Y-82360580D02*
X95892197Y-82551057D01*
X95892197Y-82551057D02*
X95892197Y-83122485D01*
X95892197Y-83122485D02*
X95987435Y-83312961D01*
X95987435Y-83312961D02*
X96082673Y-83408200D01*
X96082673Y-83408200D02*
X96273149Y-83503438D01*
X96273149Y-83503438D02*
X96558864Y-83503438D01*
X95130292Y-81693914D02*
X95035054Y-81598676D01*
X95035054Y-81598676D02*
X94844578Y-81503438D01*
X94844578Y-81503438D02*
X94368387Y-81503438D01*
X94368387Y-81503438D02*
X94177911Y-81598676D01*
X94177911Y-81598676D02*
X94082673Y-81693914D01*
X94082673Y-81693914D02*
X93987435Y-81884390D01*
X93987435Y-81884390D02*
X93987435Y-82074866D01*
X93987435Y-82074866D02*
X94082673Y-82360580D01*
X94082673Y-82360580D02*
X95225530Y-83503438D01*
X95225530Y-83503438D02*
X93987435Y-83503438D01*
X93130292Y-82741533D02*
X91606483Y-82741533D01*
X90654102Y-83503438D02*
X90654102Y-81503438D01*
X90654102Y-81503438D02*
X89987435Y-82932009D01*
X89987435Y-82932009D02*
X89320769Y-81503438D01*
X89320769Y-81503438D02*
X89320769Y-83503438D01*
X88463626Y-83408200D02*
X88177912Y-83503438D01*
X88177912Y-83503438D02*
X87701721Y-83503438D01*
X87701721Y-83503438D02*
X87511245Y-83408200D01*
X87511245Y-83408200D02*
X87416007Y-83312961D01*
X87416007Y-83312961D02*
X87320769Y-83122485D01*
X87320769Y-83122485D02*
X87320769Y-82932009D01*
X87320769Y-82932009D02*
X87416007Y-82741533D01*
X87416007Y-82741533D02*
X87511245Y-82646295D01*
X87511245Y-82646295D02*
X87701721Y-82551057D01*
X87701721Y-82551057D02*
X88082674Y-82455819D01*
X88082674Y-82455819D02*
X88273150Y-82360580D01*
X88273150Y-82360580D02*
X88368388Y-82265342D01*
X88368388Y-82265342D02*
X88463626Y-82074866D01*
X88463626Y-82074866D02*
X88463626Y-81884390D01*
X88463626Y-81884390D02*
X88368388Y-81693914D01*
X88368388Y-81693914D02*
X88273150Y-81598676D01*
X88273150Y-81598676D02*
X88082674Y-81503438D01*
X88082674Y-81503438D02*
X87606483Y-81503438D01*
X87606483Y-81503438D02*
X87320769Y-81598676D01*
X86654102Y-81503438D02*
X85320769Y-83503438D01*
X85320769Y-81503438D02*
X86654102Y-83503438D01*
D13*
X109876785Y-99808119D02*
X109591071Y-99903357D01*
X109591071Y-99903357D02*
X109495833Y-99998595D01*
X109495833Y-99998595D02*
X109400595Y-100189071D01*
X109400595Y-100189071D02*
X109400595Y-100474785D01*
X109400595Y-100474785D02*
X109495833Y-100665261D01*
X109495833Y-100665261D02*
X109591071Y-100760500D01*
X109591071Y-100760500D02*
X109781547Y-100855738D01*
X109781547Y-100855738D02*
X110543452Y-100855738D01*
X110543452Y-100855738D02*
X110543452Y-98855738D01*
X110543452Y-98855738D02*
X109876785Y-98855738D01*
X109876785Y-98855738D02*
X109686309Y-98950976D01*
X109686309Y-98950976D02*
X109591071Y-99046214D01*
X109591071Y-99046214D02*
X109495833Y-99236690D01*
X109495833Y-99236690D02*
X109495833Y-99427166D01*
X109495833Y-99427166D02*
X109591071Y-99617642D01*
X109591071Y-99617642D02*
X109686309Y-99712880D01*
X109686309Y-99712880D02*
X109876785Y-99808119D01*
X109876785Y-99808119D02*
X110543452Y-99808119D01*
X108638690Y-100284309D02*
X107686309Y-100284309D01*
X108829166Y-100855738D02*
X108162500Y-98855738D01*
X108162500Y-98855738D02*
X107495833Y-100855738D01*
X105686309Y-100665261D02*
X105781547Y-100760500D01*
X105781547Y-100760500D02*
X106067261Y-100855738D01*
X106067261Y-100855738D02*
X106257737Y-100855738D01*
X106257737Y-100855738D02*
X106543452Y-100760500D01*
X106543452Y-100760500D02*
X106733928Y-100570023D01*
X106733928Y-100570023D02*
X106829166Y-100379547D01*
X106829166Y-100379547D02*
X106924404Y-99998595D01*
X106924404Y-99998595D02*
X106924404Y-99712880D01*
X106924404Y-99712880D02*
X106829166Y-99331928D01*
X106829166Y-99331928D02*
X106733928Y-99141452D01*
X106733928Y-99141452D02*
X106543452Y-98950976D01*
X106543452Y-98950976D02*
X106257737Y-98855738D01*
X106257737Y-98855738D02*
X106067261Y-98855738D01*
X106067261Y-98855738D02*
X105781547Y-98950976D01*
X105781547Y-98950976D02*
X105686309Y-99046214D01*
X104829166Y-100855738D02*
X104829166Y-98855738D01*
X103686309Y-100855738D02*
X104543452Y-99712880D01*
X103686309Y-98855738D02*
X104829166Y-99998595D01*
D14*
X136086785Y-102978319D02*
X136658213Y-102978319D01*
X136372499Y-102978319D02*
X136372499Y-101978319D01*
X136372499Y-101978319D02*
X136467737Y-102121176D01*
X136467737Y-102121176D02*
X136562975Y-102216414D01*
X136562975Y-102216414D02*
X136658213Y-102264033D01*
X75698214Y-102311652D02*
X75698214Y-102978319D01*
X75936309Y-101930700D02*
X76174404Y-102644985D01*
X76174404Y-102644985D02*
X75555357Y-102644985D01*
X75126785Y-102978319D02*
X74936309Y-102978319D01*
X74936309Y-102978319D02*
X74841071Y-102930700D01*
X74841071Y-102930700D02*
X74793452Y-102883080D01*
X74793452Y-102883080D02*
X74698214Y-102740223D01*
X74698214Y-102740223D02*
X74650595Y-102549747D01*
X74650595Y-102549747D02*
X74650595Y-102168795D01*
X74650595Y-102168795D02*
X74698214Y-102073557D01*
X74698214Y-102073557D02*
X74745833Y-102025938D01*
X74745833Y-102025938D02*
X74841071Y-101978319D01*
X74841071Y-101978319D02*
X75031547Y-101978319D01*
X75031547Y-101978319D02*
X75126785Y-102025938D01*
X75126785Y-102025938D02*
X75174404Y-102073557D01*
X75174404Y-102073557D02*
X75222023Y-102168795D01*
X75222023Y-102168795D02*
X75222023Y-102406890D01*
X75222023Y-102406890D02*
X75174404Y-102502128D01*
X75174404Y-102502128D02*
X75126785Y-102549747D01*
X75126785Y-102549747D02*
X75031547Y-102597366D01*
X75031547Y-102597366D02*
X74841071Y-102597366D01*
X74841071Y-102597366D02*
X74745833Y-102549747D01*
X74745833Y-102549747D02*
X74698214Y-102502128D01*
X74698214Y-102502128D02*
X74650595Y-102406890D01*
X111024404Y-75729116D02*
X110262500Y-75729116D01*
X110643452Y-76110069D02*
X110643452Y-75348164D01*
X109262500Y-76110069D02*
X109833928Y-76110069D01*
X109548214Y-76110069D02*
X109548214Y-75110069D01*
X109548214Y-75110069D02*
X109643452Y-75252926D01*
X109643452Y-75252926D02*
X109738690Y-75348164D01*
X109738690Y-75348164D02*
X109833928Y-75395783D01*
X108976785Y-75110069D02*
X108643452Y-76110069D01*
X108643452Y-76110069D02*
X108310119Y-75110069D01*
X107452976Y-76110069D02*
X108024404Y-76110069D01*
X107738690Y-76110069D02*
X107738690Y-75110069D01*
X107738690Y-75110069D02*
X107833928Y-75252926D01*
X107833928Y-75252926D02*
X107929166Y-75348164D01*
X107929166Y-75348164D02*
X108024404Y-75395783D01*
X77087142Y-60095009D02*
X76944285Y-60142628D01*
X76944285Y-60142628D02*
X76896666Y-60190247D01*
X76896666Y-60190247D02*
X76849047Y-60285485D01*
X76849047Y-60285485D02*
X76849047Y-60428342D01*
X76849047Y-60428342D02*
X76896666Y-60523580D01*
X76896666Y-60523580D02*
X76944285Y-60571200D01*
X76944285Y-60571200D02*
X77039523Y-60618819D01*
X77039523Y-60618819D02*
X77420475Y-60618819D01*
X77420475Y-60618819D02*
X77420475Y-59618819D01*
X77420475Y-59618819D02*
X77087142Y-59618819D01*
X77087142Y-59618819D02*
X76991904Y-59666438D01*
X76991904Y-59666438D02*
X76944285Y-59714057D01*
X76944285Y-59714057D02*
X76896666Y-59809295D01*
X76896666Y-59809295D02*
X76896666Y-59904533D01*
X76896666Y-59904533D02*
X76944285Y-59999771D01*
X76944285Y-59999771D02*
X76991904Y-60047390D01*
X76991904Y-60047390D02*
X77087142Y-60095009D01*
X77087142Y-60095009D02*
X77420475Y-60095009D01*
X76229999Y-59618819D02*
X76039523Y-59618819D01*
X76039523Y-59618819D02*
X75944285Y-59666438D01*
X75944285Y-59666438D02*
X75849047Y-59761676D01*
X75849047Y-59761676D02*
X75801428Y-59952152D01*
X75801428Y-59952152D02*
X75801428Y-60285485D01*
X75801428Y-60285485D02*
X75849047Y-60475961D01*
X75849047Y-60475961D02*
X75944285Y-60571200D01*
X75944285Y-60571200D02*
X76039523Y-60618819D01*
X76039523Y-60618819D02*
X76229999Y-60618819D01*
X76229999Y-60618819D02*
X76325237Y-60571200D01*
X76325237Y-60571200D02*
X76420475Y-60475961D01*
X76420475Y-60475961D02*
X76468094Y-60285485D01*
X76468094Y-60285485D02*
X76468094Y-59952152D01*
X76468094Y-59952152D02*
X76420475Y-59761676D01*
X76420475Y-59761676D02*
X76325237Y-59666438D01*
X76325237Y-59666438D02*
X76229999Y-59618819D01*
X75182380Y-59618819D02*
X74991904Y-59618819D01*
X74991904Y-59618819D02*
X74896666Y-59666438D01*
X74896666Y-59666438D02*
X74801428Y-59761676D01*
X74801428Y-59761676D02*
X74753809Y-59952152D01*
X74753809Y-59952152D02*
X74753809Y-60285485D01*
X74753809Y-60285485D02*
X74801428Y-60475961D01*
X74801428Y-60475961D02*
X74896666Y-60571200D01*
X74896666Y-60571200D02*
X74991904Y-60618819D01*
X74991904Y-60618819D02*
X75182380Y-60618819D01*
X75182380Y-60618819D02*
X75277618Y-60571200D01*
X75277618Y-60571200D02*
X75372856Y-60475961D01*
X75372856Y-60475961D02*
X75420475Y-60285485D01*
X75420475Y-60285485D02*
X75420475Y-59952152D01*
X75420475Y-59952152D02*
X75372856Y-59761676D01*
X75372856Y-59761676D02*
X75277618Y-59666438D01*
X75277618Y-59666438D02*
X75182380Y-59618819D01*
X74468094Y-59618819D02*
X73896666Y-59618819D01*
X74182380Y-60618819D02*
X74182380Y-59618819D01*
D15*
%TO.C,TP3*%
X110712500Y-73405250D02*
G75*
G02*
X107812500Y-73405250I-1450000J0D01*
G01*
X107812500Y-73405250D02*
G75*
G02*
X110712500Y-73405250I1450000J0D01*
G01*
%TO.C,SW1*%
X72230000Y-63864000D02*
X72230000Y-65364000D01*
X73480000Y-67864000D02*
X77980000Y-67864000D01*
X77980000Y-61364000D02*
X73480000Y-61364000D01*
X79230000Y-65364000D02*
X79230000Y-63864000D01*
%TD*%
%LPC*%
%TO.C,U5*%
X73126500Y-104873500D02*
X138658500Y-104873500D01*
X138658500Y-114073500D01*
X73126500Y-114073500D01*
X73126500Y-104873500D01*
G36*
X73126500Y-104873500D02*
G01*
X138658500Y-104873500D01*
X138658500Y-114073500D01*
X73126500Y-114073500D01*
X73126500Y-104873500D01*
G37*
%TD*%
D16*
%TO.C,J2*%
X146467500Y-67504000D03*
X146467500Y-61724000D03*
D17*
X145947500Y-68934000D03*
D18*
X150147500Y-68934000D03*
D17*
X145947500Y-60294000D03*
D18*
X150147500Y-60294000D03*
%TD*%
D19*
%TO.C,U6*%
X106029167Y-78085667D03*
X106029167Y-79219000D03*
X106029167Y-80352333D03*
X107162500Y-78085667D03*
X107162500Y-79219000D03*
X107162500Y-80352333D03*
X108295833Y-78085667D03*
X108295833Y-79219000D03*
X108295833Y-80352333D03*
%TD*%
D20*
%TO.C,U5*%
X136372500Y-108746500D03*
X133832500Y-108746500D03*
X131292500Y-108746500D03*
X128752500Y-108746500D03*
X126212500Y-108746500D03*
X123672500Y-108746500D03*
X121132500Y-108746500D03*
X118592500Y-108746500D03*
X116052500Y-108746500D03*
X113512500Y-108746500D03*
X110972500Y-108746500D03*
X108432500Y-108746500D03*
X105892500Y-108746500D03*
X103352500Y-108746500D03*
X100812500Y-108746500D03*
X98272500Y-108746500D03*
X95732500Y-108746500D03*
X93192500Y-108746500D03*
X90652500Y-108746500D03*
X88112500Y-108746500D03*
X85572500Y-108746500D03*
X83032500Y-108746500D03*
X80492500Y-108746500D03*
X77952500Y-108746500D03*
X75412500Y-108746500D03*
%TD*%
D21*
%TO.C,J1*%
X115417500Y-85251500D03*
D22*
X115417500Y-86521500D03*
X115417500Y-87791500D03*
%TD*%
D23*
%TO.C,TP3*%
X109262500Y-73405250D03*
%TD*%
D24*
%TO.C,SW1*%
X72480000Y-66864000D03*
X78980000Y-66864000D03*
X72480000Y-62364000D03*
X78980000Y-62364000D03*
%TD*%
%LPD*%
M02*
