%TF.GenerationSoftware,KiCad,Pcbnew,8.0.4*%
%TF.CreationDate,2024-09-04T03:30:15+02:00*%
%TF.ProjectId,Pico2-MSX,5069636f-322d-44d5-9358-2e6b69636164,rev?*%
%TF.SameCoordinates,Original*%
%TF.FileFunction,Legend,Top*%
%TF.FilePolarity,Positive*%
%FSLAX46Y46*%
G04 Gerber Fmt 4.6, Leading zero omitted, Abs format (unit mm)*
G04 Created by KiCad (PCBNEW 8.0.4) date 2024-09-04 03:30:15*
%MOMM*%
%LPD*%
G01*
G04 APERTURE LIST*
G04 Aperture macros list*
%AMRoundRect*
0 Rectangle with rounded corners*
0 $1 Rounding radius*
0 $2 $3 $4 $5 $6 $7 $8 $9 X,Y pos of 4 corners*
0 Add a 4 corners polygon primitive as box body*
4,1,4,$2,$3,$4,$5,$6,$7,$8,$9,$2,$3,0*
0 Add four circle primitives for the rounded corners*
1,1,$1+$1,$2,$3*
1,1,$1+$1,$4,$5*
1,1,$1+$1,$6,$7*
1,1,$1+$1,$8,$9*
0 Add four rect primitives between the rounded corners*
20,1,$1+$1,$2,$3,$4,$5,0*
20,1,$1+$1,$4,$5,$6,$7,0*
20,1,$1+$1,$6,$7,$8,$9,0*
20,1,$1+$1,$8,$9,$2,$3,0*%
G04 Aperture macros list end*
%ADD10C,0.000000*%
%ADD11C,0.300000*%
%ADD12C,2.125000*%
%ADD13C,0.500000*%
%ADD14C,0.150000*%
%ADD15C,0.700000*%
%ADD16C,0.120000*%
%ADD17RoundRect,0.100000X-0.100000X0.130000X-0.100000X-0.130000X0.100000X-0.130000X0.100000X0.130000X0*%
%ADD18C,2.500000*%
%ADD19C,0.650000*%
%ADD20R,1.240000X0.600000*%
%ADD21R,1.240000X0.300000*%
%ADD22O,2.100000X1.000000*%
%ADD23O,1.800000X1.000000*%
%ADD24RoundRect,0.135000X0.135000X0.185000X-0.135000X0.185000X-0.135000X-0.185000X0.135000X-0.185000X0*%
%ADD25RoundRect,0.150000X-0.650000X-0.150000X0.650000X-0.150000X0.650000X0.150000X-0.650000X0.150000X0*%
%ADD26RoundRect,0.100000X-0.100000X0.637500X-0.100000X-0.637500X0.100000X-0.637500X0.100000X0.637500X0*%
%ADD27RoundRect,0.100000X0.130000X0.100000X-0.130000X0.100000X-0.130000X-0.100000X0.130000X-0.100000X0*%
%ADD28R,1.400000X1.200000*%
%ADD29RoundRect,0.140000X-0.140000X-0.170000X0.140000X-0.170000X0.140000X0.170000X-0.140000X0.170000X0*%
%ADD30RoundRect,0.135000X-0.185000X0.135000X-0.185000X-0.135000X0.185000X-0.135000X0.185000X0.135000X0*%
%ADD31RoundRect,0.243750X0.456250X-0.243750X0.456250X0.243750X-0.456250X0.243750X-0.456250X-0.243750X0*%
%ADD32RoundRect,0.200000X-0.275000X0.200000X-0.275000X-0.200000X0.275000X-0.200000X0.275000X0.200000X0*%
%ADD33RoundRect,0.055000X0.335000X-0.055000X0.335000X0.055000X-0.335000X0.055000X-0.335000X-0.055000X0*%
%ADD34RoundRect,0.055000X-0.055000X-0.335000X0.055000X-0.335000X0.055000X0.335000X-0.055000X0.335000X0*%
%ADD35C,0.600000*%
%ADD36R,1.133333X1.133333*%
%ADD37RoundRect,0.100000X-0.130000X-0.100000X0.130000X-0.100000X0.130000X0.100000X-0.130000X0.100000X0*%
%ADD38RoundRect,0.250000X-0.450000X-0.425000X0.450000X-0.425000X0.450000X0.425000X-0.450000X0.425000X0*%
%ADD39RoundRect,0.140000X0.170000X-0.140000X0.170000X0.140000X-0.170000X0.140000X-0.170000X-0.140000X0*%
%ADD40RoundRect,0.375000X-0.375000X-4.625000X0.375000X-4.625000X0.375000X4.625000X-0.375000X4.625000X0*%
%ADD41RoundRect,0.375000X-0.375000X-4.125000X0.375000X-4.125000X0.375000X4.125000X-0.375000X4.125000X0*%
%ADD42C,1.000000*%
%ADD43O,1.000000X1.000000*%
%ADD44RoundRect,0.135000X0.185000X-0.135000X0.185000X0.135000X-0.185000X0.135000X-0.185000X-0.135000X0*%
%ADD45RoundRect,0.225000X-0.225000X-0.250000X0.225000X-0.250000X0.225000X0.250000X-0.225000X0.250000X0*%
%ADD46RoundRect,0.140000X0.140000X0.170000X-0.140000X0.170000X-0.140000X-0.170000X0.140000X-0.170000X0*%
%ADD47RoundRect,0.225000X0.375000X-0.225000X0.375000X0.225000X-0.375000X0.225000X-0.375000X-0.225000X0*%
%ADD48RoundRect,0.150000X0.825000X0.150000X-0.825000X0.150000X-0.825000X-0.150000X0.825000X-0.150000X0*%
%ADD49RoundRect,0.135000X-0.135000X-0.185000X0.135000X-0.185000X0.135000X0.185000X-0.135000X0.185000X0*%
%ADD50RoundRect,0.100000X0.100000X-0.130000X0.100000X0.130000X-0.100000X0.130000X-0.100000X-0.130000X0*%
%ADD51RoundRect,0.100000X0.100000X-0.637500X0.100000X0.637500X-0.100000X0.637500X-0.100000X-0.637500X0*%
%ADD52RoundRect,0.140000X-0.170000X0.140000X-0.170000X-0.140000X0.170000X-0.140000X0.170000X0.140000X0*%
%ADD53RoundRect,0.250000X-0.375000X-0.850000X0.375000X-0.850000X0.375000X0.850000X-0.375000X0.850000X0*%
%ADD54RoundRect,0.225000X-0.375000X0.225000X-0.375000X-0.225000X0.375000X-0.225000X0.375000X0.225000X0*%
%ADD55RoundRect,0.375000X0.375000X-0.625000X0.375000X0.625000X-0.375000X0.625000X-0.375000X-0.625000X0*%
%ADD56RoundRect,0.500000X1.400000X-0.500000X1.400000X0.500000X-1.400000X0.500000X-1.400000X-0.500000X0*%
%ADD57RoundRect,0.250000X0.450000X0.425000X-0.450000X0.425000X-0.450000X-0.425000X0.450000X-0.425000X0*%
%ADD58C,2.000000*%
G04 APERTURE END LIST*
D10*
G36*
X138770247Y-61377603D02*
G01*
X138775017Y-66722578D01*
X138767176Y-66730417D01*
X138759337Y-66738256D01*
X112462500Y-66738256D01*
X112462500Y-65233073D01*
X114266185Y-65233073D01*
X115391638Y-65232999D01*
X116517091Y-65232924D01*
X116572113Y-65030743D01*
X116572115Y-65030734D01*
X116627136Y-64828552D01*
X116671721Y-64678034D01*
X116716306Y-64527516D01*
X116770507Y-64348775D01*
X116824708Y-64170034D01*
X116865218Y-64028923D01*
X116905729Y-63887811D01*
X116963135Y-63699663D01*
X117020540Y-63511515D01*
X117120843Y-63210478D01*
X117221146Y-62909441D01*
X117295226Y-62693984D01*
X117369306Y-62478527D01*
X117387191Y-62543465D01*
X117405077Y-62608404D01*
X117616796Y-63417440D01*
X117828514Y-64226477D01*
X117854448Y-64320551D01*
X117880380Y-64414624D01*
X117957920Y-64743883D01*
X118035459Y-65073143D01*
X118057091Y-65148402D01*
X118078723Y-65223662D01*
X119116924Y-65228523D01*
X120155123Y-65233386D01*
X120165486Y-65200301D01*
X120175849Y-65167216D01*
X120259331Y-64837956D01*
X120342813Y-64508697D01*
X120411305Y-64245290D01*
X120479797Y-63981882D01*
X120515376Y-63859586D01*
X120550956Y-63737290D01*
X120606658Y-63539734D01*
X120662360Y-63342178D01*
X120710294Y-63178215D01*
X120758229Y-63014251D01*
X120847036Y-62745474D01*
X120935843Y-62476696D01*
X120962149Y-62561363D01*
X120988456Y-62646030D01*
X121025662Y-62768326D01*
X121062867Y-62890622D01*
X121157724Y-63238697D01*
X121252580Y-63586771D01*
X121287410Y-63718475D01*
X121322239Y-63850179D01*
X121369099Y-64028919D01*
X121415959Y-64207660D01*
X121548860Y-64710197D01*
X121681761Y-65212735D01*
X121681761Y-65233068D01*
X127774119Y-65233068D01*
X127968793Y-65165476D01*
X128163467Y-65097884D01*
X128304577Y-65030415D01*
X128445688Y-64962946D01*
X128597262Y-64873656D01*
X128748837Y-64784366D01*
X128902228Y-64660520D01*
X129055618Y-64536675D01*
X129172068Y-64401373D01*
X129288518Y-64266072D01*
X129371703Y-64137483D01*
X129454885Y-64008895D01*
X129502642Y-63901315D01*
X129550398Y-63793735D01*
X129603218Y-63643217D01*
X129656039Y-63492698D01*
X129696655Y-63304550D01*
X129737269Y-63116401D01*
X129753020Y-62852995D01*
X129768774Y-62589587D01*
X129752480Y-62382624D01*
X129736189Y-62175661D01*
X129698878Y-62079740D01*
X129661566Y-61983819D01*
X129584373Y-61816731D01*
X129507178Y-61649645D01*
X129221186Y-61220197D01*
X129038354Y-61037365D01*
X128855523Y-60854533D01*
X128637120Y-60709087D01*
X128418717Y-60563641D01*
X128225240Y-60479505D01*
X128031762Y-60395369D01*
X127862429Y-60351854D01*
X127693094Y-60308338D01*
X127580206Y-60296797D01*
X127467317Y-60285256D01*
X126462347Y-60283151D01*
X125457377Y-60281046D01*
X125362206Y-60256359D01*
X125267035Y-60231672D01*
X125193758Y-60153115D01*
X125120482Y-60074559D01*
X125128681Y-59975682D01*
X125136881Y-59876805D01*
X125224630Y-59753572D01*
X125301751Y-59718547D01*
X125378871Y-59683523D01*
X127900056Y-59683334D01*
X130421240Y-59683143D01*
X130788128Y-60203870D01*
X131155016Y-60724596D01*
X131357422Y-60995430D01*
X131559825Y-61266265D01*
X131546336Y-61288221D01*
X131532844Y-61310178D01*
X130918719Y-62232104D01*
X130304593Y-63154030D01*
X129950430Y-63690252D01*
X129596265Y-64226474D01*
X128959047Y-65184086D01*
X128949647Y-65208577D01*
X128940250Y-65233067D01*
X131402457Y-65233067D01*
X131440374Y-65190733D01*
X131478293Y-65148399D01*
X132150293Y-64173447D01*
X132822295Y-63198496D01*
X132832631Y-63171559D01*
X132842968Y-63144622D01*
X132864473Y-63144963D01*
X132885978Y-63145304D01*
X132949744Y-63243744D01*
X133013511Y-63342184D01*
X133327327Y-63784331D01*
X133641144Y-64226480D01*
X133961526Y-64678035D01*
X134281904Y-65129591D01*
X134315178Y-65181331D01*
X134348452Y-65233072D01*
X136963412Y-65233072D01*
X136954065Y-65209554D01*
X136944719Y-65186036D01*
X136627497Y-64714795D01*
X136310274Y-64243556D01*
X135999828Y-63787630D01*
X135689384Y-63331706D01*
X135425977Y-62946738D01*
X135162569Y-62561772D01*
X134760859Y-61973608D01*
X134359147Y-61385444D01*
X134286997Y-61283604D01*
X134214847Y-61181763D01*
X134371258Y-60954345D01*
X134527666Y-60726926D01*
X134666376Y-60525696D01*
X134805086Y-60324465D01*
X135153160Y-59821053D01*
X135501234Y-59317641D01*
X135956223Y-58658209D01*
X136411213Y-57998777D01*
X136563002Y-57778331D01*
X136714787Y-57557884D01*
X136714787Y-57518738D01*
X135432254Y-57523572D01*
X134149723Y-57528407D01*
X133800070Y-58038909D01*
X133450417Y-58549412D01*
X133311015Y-58735057D01*
X133171616Y-58920703D01*
X133031953Y-59094711D01*
X132892290Y-59268720D01*
X132812955Y-59160563D01*
X132733619Y-59052407D01*
X132451015Y-58647888D01*
X132168412Y-58243370D01*
X132054294Y-58074036D01*
X131940179Y-57904703D01*
X131691046Y-57518999D01*
X124865614Y-57518999D01*
X124714885Y-57547592D01*
X124564158Y-57576185D01*
X124462881Y-57611028D01*
X124361606Y-57645872D01*
X124253331Y-57695399D01*
X124145056Y-57744925D01*
X124010254Y-57833734D01*
X123875450Y-57922542D01*
X123755752Y-58034514D01*
X123636053Y-58146486D01*
X123517859Y-58303971D01*
X123399664Y-58461456D01*
X123313532Y-58625228D01*
X123227399Y-58789000D01*
X123178123Y-58920429D01*
X123128847Y-59051859D01*
X123083196Y-59230874D01*
X123037546Y-59409889D01*
X123015947Y-59579222D01*
X122994349Y-59748556D01*
X122993608Y-59974333D01*
X122992867Y-60200111D01*
X123016430Y-60388259D01*
X123039991Y-60576408D01*
X123094005Y-60783371D01*
X123148020Y-60990334D01*
X123214794Y-61150260D01*
X123281567Y-61310185D01*
X123370658Y-61457970D01*
X123459749Y-61605756D01*
X123586254Y-61758495D01*
X123712759Y-61911235D01*
X123849661Y-62021190D01*
X123986563Y-62131145D01*
X124114100Y-62207610D01*
X124241638Y-62284075D01*
X124411233Y-62345484D01*
X124580828Y-62406893D01*
X124707030Y-62428438D01*
X124833231Y-62449984D01*
X124936713Y-62467487D01*
X125040193Y-62484990D01*
X125275379Y-62503328D01*
X125510564Y-62521665D01*
X126437656Y-62521455D01*
X127364749Y-62521244D01*
X127426935Y-62559678D01*
X127489122Y-62598112D01*
X127557498Y-62725079D01*
X127538166Y-62896599D01*
X127495503Y-62956515D01*
X127452842Y-63016431D01*
X127369144Y-63052307D01*
X127285449Y-63088184D01*
X123304408Y-63088184D01*
X123274056Y-62970592D01*
X123243704Y-62853000D01*
X123102123Y-62316777D01*
X122960541Y-61780555D01*
X122915054Y-61611222D01*
X122869566Y-61441889D01*
X122745256Y-60980926D01*
X122620946Y-60519963D01*
X122498409Y-60058999D01*
X122375873Y-59598036D01*
X122271811Y-59202926D01*
X122167750Y-58807815D01*
X122054329Y-58393889D01*
X121940909Y-57979963D01*
X121914026Y-57876481D01*
X121887142Y-57773000D01*
X121869997Y-57725963D01*
X121852852Y-57678926D01*
X121812013Y-57519000D01*
X119990648Y-57519000D01*
X119980337Y-57535683D01*
X119970026Y-57552366D01*
X119924149Y-57719128D01*
X119878272Y-57885889D01*
X119841835Y-58008185D01*
X119805397Y-58130482D01*
X119754397Y-58299815D01*
X119703397Y-58469148D01*
X119618429Y-58760778D01*
X119533460Y-59052408D01*
X119486807Y-59212334D01*
X119440153Y-59372259D01*
X119392927Y-59541593D01*
X119345701Y-59710926D01*
X119271268Y-59964926D01*
X119196836Y-60218926D01*
X119118346Y-60482333D01*
X119091726Y-60397666D01*
X119065108Y-60312999D01*
X118969827Y-59964925D01*
X118874547Y-59616851D01*
X118820718Y-59409888D01*
X118766890Y-59202925D01*
X118718087Y-59024185D01*
X118669286Y-58845444D01*
X118626085Y-58685518D01*
X118582885Y-58525592D01*
X118457859Y-58037403D01*
X118332832Y-57549214D01*
X118317549Y-57533931D01*
X118302266Y-57518647D01*
X117354406Y-57523527D01*
X116406548Y-57528406D01*
X116381138Y-57631888D01*
X116355729Y-57735369D01*
X116320158Y-57857666D01*
X116284586Y-57979962D01*
X116187833Y-58318629D01*
X116091080Y-58657295D01*
X116055830Y-58779592D01*
X116020580Y-58901888D01*
X115961546Y-59118258D01*
X115902512Y-59334629D01*
X115876680Y-59419295D01*
X115850849Y-59503962D01*
X115811698Y-59663888D01*
X115772547Y-59823814D01*
X115755775Y-59870851D01*
X115739003Y-59917888D01*
X115690620Y-60096629D01*
X115642237Y-60275369D01*
X115574570Y-60519962D01*
X115506903Y-60764554D01*
X115462860Y-60924480D01*
X115418818Y-61084406D01*
X115372415Y-61253739D01*
X115326012Y-61423072D01*
X115238010Y-61742925D01*
X115150007Y-62062776D01*
X115083680Y-62307369D01*
X115017352Y-62551962D01*
X114990499Y-62664851D01*
X114963645Y-62777739D01*
X114946663Y-62824776D01*
X114929682Y-62871813D01*
X114861388Y-63125813D01*
X114793094Y-63379813D01*
X114776905Y-63426851D01*
X114760715Y-63473888D01*
X114701664Y-63690258D01*
X114642614Y-63906629D01*
X114557817Y-64207665D01*
X114473019Y-64508702D01*
X114408349Y-64743887D01*
X114343679Y-64979073D01*
X114317447Y-65063738D01*
X114291215Y-65148406D01*
X114278701Y-65190739D01*
X114266185Y-65233073D01*
X112462500Y-65233073D01*
X112462500Y-56077783D01*
X112485079Y-56055205D01*
X112507656Y-56032627D01*
X138765479Y-56032627D01*
X138770247Y-61377603D01*
G37*
D11*
X108837500Y-68255250D02*
G75*
G02*
X108537500Y-68255250I-150000J0D01*
G01*
X108537500Y-68255250D02*
G75*
G02*
X108837500Y-68255250I150000J0D01*
G01*
D12*
X136510000Y-92651500D02*
G75*
G02*
X130385000Y-92651500I-3062500J0D01*
G01*
X130385000Y-92651500D02*
G75*
G02*
X136510000Y-92651500I3062500J0D01*
G01*
X80950000Y-87571500D02*
G75*
G02*
X74825000Y-87571500I-3062500J0D01*
G01*
X74825000Y-87571500D02*
G75*
G02*
X80950000Y-87571500I3062500J0D01*
G01*
D11*
X134137010Y-100720828D02*
X134137010Y-99220828D01*
X134137010Y-99220828D02*
X134494153Y-99220828D01*
X134494153Y-99220828D02*
X134708439Y-99292257D01*
X134708439Y-99292257D02*
X134851296Y-99435114D01*
X134851296Y-99435114D02*
X134922725Y-99577971D01*
X134922725Y-99577971D02*
X134994153Y-99863685D01*
X134994153Y-99863685D02*
X134994153Y-100077971D01*
X134994153Y-100077971D02*
X134922725Y-100363685D01*
X134922725Y-100363685D02*
X134851296Y-100506542D01*
X134851296Y-100506542D02*
X134708439Y-100649400D01*
X134708439Y-100649400D02*
X134494153Y-100720828D01*
X134494153Y-100720828D02*
X134137010Y-100720828D01*
X136208439Y-100649400D02*
X136065582Y-100720828D01*
X136065582Y-100720828D02*
X135779868Y-100720828D01*
X135779868Y-100720828D02*
X135637010Y-100649400D01*
X135637010Y-100649400D02*
X135565582Y-100506542D01*
X135565582Y-100506542D02*
X135565582Y-99935114D01*
X135565582Y-99935114D02*
X135637010Y-99792257D01*
X135637010Y-99792257D02*
X135779868Y-99720828D01*
X135779868Y-99720828D02*
X136065582Y-99720828D01*
X136065582Y-99720828D02*
X136208439Y-99792257D01*
X136208439Y-99792257D02*
X136279868Y-99935114D01*
X136279868Y-99935114D02*
X136279868Y-100077971D01*
X136279868Y-100077971D02*
X135565582Y-100220828D01*
X136779867Y-99720828D02*
X137137010Y-100720828D01*
X137137010Y-100720828D02*
X137494153Y-99720828D01*
X138565581Y-99935114D02*
X138779867Y-100006542D01*
X138779867Y-100006542D02*
X138851296Y-100077971D01*
X138851296Y-100077971D02*
X138922724Y-100220828D01*
X138922724Y-100220828D02*
X138922724Y-100435114D01*
X138922724Y-100435114D02*
X138851296Y-100577971D01*
X138851296Y-100577971D02*
X138779867Y-100649400D01*
X138779867Y-100649400D02*
X138637010Y-100720828D01*
X138637010Y-100720828D02*
X138065581Y-100720828D01*
X138065581Y-100720828D02*
X138065581Y-99220828D01*
X138065581Y-99220828D02*
X138565581Y-99220828D01*
X138565581Y-99220828D02*
X138708439Y-99292257D01*
X138708439Y-99292257D02*
X138779867Y-99363685D01*
X138779867Y-99363685D02*
X138851296Y-99506542D01*
X138851296Y-99506542D02*
X138851296Y-99649400D01*
X138851296Y-99649400D02*
X138779867Y-99792257D01*
X138779867Y-99792257D02*
X138708439Y-99863685D01*
X138708439Y-99863685D02*
X138565581Y-99935114D01*
X138565581Y-99935114D02*
X138065581Y-99935114D01*
X139779867Y-100720828D02*
X139637010Y-100649400D01*
X139637010Y-100649400D02*
X139565581Y-100577971D01*
X139565581Y-100577971D02*
X139494153Y-100435114D01*
X139494153Y-100435114D02*
X139494153Y-100006542D01*
X139494153Y-100006542D02*
X139565581Y-99863685D01*
X139565581Y-99863685D02*
X139637010Y-99792257D01*
X139637010Y-99792257D02*
X139779867Y-99720828D01*
X139779867Y-99720828D02*
X139994153Y-99720828D01*
X139994153Y-99720828D02*
X140137010Y-99792257D01*
X140137010Y-99792257D02*
X140208439Y-99863685D01*
X140208439Y-99863685D02*
X140279867Y-100006542D01*
X140279867Y-100006542D02*
X140279867Y-100435114D01*
X140279867Y-100435114D02*
X140208439Y-100577971D01*
X140208439Y-100577971D02*
X140137010Y-100649400D01*
X140137010Y-100649400D02*
X139994153Y-100720828D01*
X139994153Y-100720828D02*
X139779867Y-100720828D01*
X141565582Y-100720828D02*
X141565582Y-99935114D01*
X141565582Y-99935114D02*
X141494153Y-99792257D01*
X141494153Y-99792257D02*
X141351296Y-99720828D01*
X141351296Y-99720828D02*
X141065582Y-99720828D01*
X141065582Y-99720828D02*
X140922724Y-99792257D01*
X141565582Y-100649400D02*
X141422724Y-100720828D01*
X141422724Y-100720828D02*
X141065582Y-100720828D01*
X141065582Y-100720828D02*
X140922724Y-100649400D01*
X140922724Y-100649400D02*
X140851296Y-100506542D01*
X140851296Y-100506542D02*
X140851296Y-100363685D01*
X140851296Y-100363685D02*
X140922724Y-100220828D01*
X140922724Y-100220828D02*
X141065582Y-100149400D01*
X141065582Y-100149400D02*
X141422724Y-100149400D01*
X141422724Y-100149400D02*
X141565582Y-100077971D01*
X142279867Y-100720828D02*
X142279867Y-99720828D01*
X142279867Y-100006542D02*
X142351296Y-99863685D01*
X142351296Y-99863685D02*
X142422725Y-99792257D01*
X142422725Y-99792257D02*
X142565582Y-99720828D01*
X142565582Y-99720828D02*
X142708439Y-99720828D01*
X143851296Y-100720828D02*
X143851296Y-99220828D01*
X143851296Y-100649400D02*
X143708438Y-100720828D01*
X143708438Y-100720828D02*
X143422724Y-100720828D01*
X143422724Y-100720828D02*
X143279867Y-100649400D01*
X143279867Y-100649400D02*
X143208438Y-100577971D01*
X143208438Y-100577971D02*
X143137010Y-100435114D01*
X143137010Y-100435114D02*
X143137010Y-100006542D01*
X143137010Y-100006542D02*
X143208438Y-99863685D01*
X143208438Y-99863685D02*
X143279867Y-99792257D01*
X143279867Y-99792257D02*
X143422724Y-99720828D01*
X143422724Y-99720828D02*
X143708438Y-99720828D01*
X143708438Y-99720828D02*
X143851296Y-99792257D01*
X145565581Y-99720828D02*
X145922724Y-100720828D01*
X145922724Y-100720828D02*
X146279867Y-99720828D01*
X147137010Y-99220828D02*
X147279867Y-99220828D01*
X147279867Y-99220828D02*
X147422724Y-99292257D01*
X147422724Y-99292257D02*
X147494153Y-99363685D01*
X147494153Y-99363685D02*
X147565581Y-99506542D01*
X147565581Y-99506542D02*
X147637010Y-99792257D01*
X147637010Y-99792257D02*
X147637010Y-100149400D01*
X147637010Y-100149400D02*
X147565581Y-100435114D01*
X147565581Y-100435114D02*
X147494153Y-100577971D01*
X147494153Y-100577971D02*
X147422724Y-100649400D01*
X147422724Y-100649400D02*
X147279867Y-100720828D01*
X147279867Y-100720828D02*
X147137010Y-100720828D01*
X147137010Y-100720828D02*
X146994153Y-100649400D01*
X146994153Y-100649400D02*
X146922724Y-100577971D01*
X146922724Y-100577971D02*
X146851295Y-100435114D01*
X146851295Y-100435114D02*
X146779867Y-100149400D01*
X146779867Y-100149400D02*
X146779867Y-99792257D01*
X146779867Y-99792257D02*
X146851295Y-99506542D01*
X146851295Y-99506542D02*
X146922724Y-99363685D01*
X146922724Y-99363685D02*
X146994153Y-99292257D01*
X146994153Y-99292257D02*
X147137010Y-99220828D01*
X148279866Y-100577971D02*
X148351295Y-100649400D01*
X148351295Y-100649400D02*
X148279866Y-100720828D01*
X148279866Y-100720828D02*
X148208438Y-100649400D01*
X148208438Y-100649400D02*
X148279866Y-100577971D01*
X148279866Y-100577971D02*
X148279866Y-100720828D01*
X148851295Y-99220828D02*
X149779867Y-99220828D01*
X149779867Y-99220828D02*
X149279867Y-99792257D01*
X149279867Y-99792257D02*
X149494152Y-99792257D01*
X149494152Y-99792257D02*
X149637010Y-99863685D01*
X149637010Y-99863685D02*
X149708438Y-99935114D01*
X149708438Y-99935114D02*
X149779867Y-100077971D01*
X149779867Y-100077971D02*
X149779867Y-100435114D01*
X149779867Y-100435114D02*
X149708438Y-100577971D01*
X149708438Y-100577971D02*
X149637010Y-100649400D01*
X149637010Y-100649400D02*
X149494152Y-100720828D01*
X149494152Y-100720828D02*
X149065581Y-100720828D01*
X149065581Y-100720828D02*
X148922724Y-100649400D01*
X148922724Y-100649400D02*
X148851295Y-100577971D01*
D13*
X103591071Y-99808119D02*
X102924404Y-99808119D01*
X102924404Y-100855738D02*
X102924404Y-98855738D01*
X102924404Y-98855738D02*
X103876785Y-98855738D01*
X105781547Y-100855738D02*
X105114880Y-99903357D01*
X104638690Y-100855738D02*
X104638690Y-98855738D01*
X104638690Y-98855738D02*
X105400595Y-98855738D01*
X105400595Y-98855738D02*
X105591071Y-98950976D01*
X105591071Y-98950976D02*
X105686309Y-99046214D01*
X105686309Y-99046214D02*
X105781547Y-99236690D01*
X105781547Y-99236690D02*
X105781547Y-99522404D01*
X105781547Y-99522404D02*
X105686309Y-99712880D01*
X105686309Y-99712880D02*
X105591071Y-99808119D01*
X105591071Y-99808119D02*
X105400595Y-99903357D01*
X105400595Y-99903357D02*
X104638690Y-99903357D01*
X107019642Y-98855738D02*
X107400595Y-98855738D01*
X107400595Y-98855738D02*
X107591071Y-98950976D01*
X107591071Y-98950976D02*
X107781547Y-99141452D01*
X107781547Y-99141452D02*
X107876785Y-99522404D01*
X107876785Y-99522404D02*
X107876785Y-100189071D01*
X107876785Y-100189071D02*
X107781547Y-100570023D01*
X107781547Y-100570023D02*
X107591071Y-100760500D01*
X107591071Y-100760500D02*
X107400595Y-100855738D01*
X107400595Y-100855738D02*
X107019642Y-100855738D01*
X107019642Y-100855738D02*
X106829166Y-100760500D01*
X106829166Y-100760500D02*
X106638690Y-100570023D01*
X106638690Y-100570023D02*
X106543452Y-100189071D01*
X106543452Y-100189071D02*
X106543452Y-99522404D01*
X106543452Y-99522404D02*
X106638690Y-99141452D01*
X106638690Y-99141452D02*
X106829166Y-98950976D01*
X106829166Y-98950976D02*
X107019642Y-98855738D01*
X108733928Y-100855738D02*
X108733928Y-98855738D01*
X108733928Y-98855738D02*
X109876785Y-100855738D01*
X109876785Y-100855738D02*
X109876785Y-98855738D01*
X110543452Y-98855738D02*
X111686309Y-98855738D01*
X111114880Y-100855738D02*
X111114880Y-98855738D01*
D14*
X110292386Y-85562745D02*
X110406672Y-85600840D01*
X110406672Y-85600840D02*
X110597148Y-85600840D01*
X110597148Y-85600840D02*
X110673339Y-85562745D01*
X110673339Y-85562745D02*
X110711434Y-85524649D01*
X110711434Y-85524649D02*
X110749529Y-85448459D01*
X110749529Y-85448459D02*
X110749529Y-85372268D01*
X110749529Y-85372268D02*
X110711434Y-85296078D01*
X110711434Y-85296078D02*
X110673339Y-85257983D01*
X110673339Y-85257983D02*
X110597148Y-85219887D01*
X110597148Y-85219887D02*
X110444767Y-85181792D01*
X110444767Y-85181792D02*
X110368577Y-85143697D01*
X110368577Y-85143697D02*
X110330482Y-85105602D01*
X110330482Y-85105602D02*
X110292386Y-85029411D01*
X110292386Y-85029411D02*
X110292386Y-84953221D01*
X110292386Y-84953221D02*
X110330482Y-84877030D01*
X110330482Y-84877030D02*
X110368577Y-84838935D01*
X110368577Y-84838935D02*
X110444767Y-84800840D01*
X110444767Y-84800840D02*
X110635244Y-84800840D01*
X110635244Y-84800840D02*
X110749529Y-84838935D01*
X111016196Y-84800840D02*
X111206672Y-85600840D01*
X111206672Y-85600840D02*
X111359053Y-85029411D01*
X111359053Y-85029411D02*
X111511434Y-85600840D01*
X111511434Y-85600840D02*
X111701911Y-84800840D01*
X112463816Y-85524649D02*
X112425720Y-85562745D01*
X112425720Y-85562745D02*
X112311435Y-85600840D01*
X112311435Y-85600840D02*
X112235244Y-85600840D01*
X112235244Y-85600840D02*
X112120958Y-85562745D01*
X112120958Y-85562745D02*
X112044768Y-85486554D01*
X112044768Y-85486554D02*
X112006673Y-85410364D01*
X112006673Y-85410364D02*
X111968577Y-85257983D01*
X111968577Y-85257983D02*
X111968577Y-85143697D01*
X111968577Y-85143697D02*
X112006673Y-84991316D01*
X112006673Y-84991316D02*
X112044768Y-84915125D01*
X112044768Y-84915125D02*
X112120958Y-84838935D01*
X112120958Y-84838935D02*
X112235244Y-84800840D01*
X112235244Y-84800840D02*
X112311435Y-84800840D01*
X112311435Y-84800840D02*
X112425720Y-84838935D01*
X112425720Y-84838935D02*
X112463816Y-84877030D01*
X113187625Y-85600840D02*
X112806673Y-85600840D01*
X112806673Y-85600840D02*
X112806673Y-84800840D01*
X113454292Y-85600840D02*
X113454292Y-84800840D01*
X113911435Y-85600840D02*
X113568577Y-85143697D01*
X113911435Y-84800840D02*
X113454292Y-85257983D01*
X112235244Y-86126890D02*
X112159054Y-86088795D01*
X112159054Y-86088795D02*
X112044768Y-86088795D01*
X112044768Y-86088795D02*
X111930482Y-86126890D01*
X111930482Y-86126890D02*
X111854292Y-86203080D01*
X111854292Y-86203080D02*
X111816197Y-86279271D01*
X111816197Y-86279271D02*
X111778101Y-86431652D01*
X111778101Y-86431652D02*
X111778101Y-86545938D01*
X111778101Y-86545938D02*
X111816197Y-86698319D01*
X111816197Y-86698319D02*
X111854292Y-86774509D01*
X111854292Y-86774509D02*
X111930482Y-86850700D01*
X111930482Y-86850700D02*
X112044768Y-86888795D01*
X112044768Y-86888795D02*
X112120959Y-86888795D01*
X112120959Y-86888795D02*
X112235244Y-86850700D01*
X112235244Y-86850700D02*
X112273340Y-86812604D01*
X112273340Y-86812604D02*
X112273340Y-86545938D01*
X112273340Y-86545938D02*
X112120959Y-86545938D01*
X112616197Y-86888795D02*
X112616197Y-86088795D01*
X112616197Y-86088795D02*
X113073340Y-86888795D01*
X113073340Y-86888795D02*
X113073340Y-86088795D01*
X113454292Y-86888795D02*
X113454292Y-86088795D01*
X113454292Y-86088795D02*
X113644768Y-86088795D01*
X113644768Y-86088795D02*
X113759054Y-86126890D01*
X113759054Y-86126890D02*
X113835244Y-86203080D01*
X113835244Y-86203080D02*
X113873339Y-86279271D01*
X113873339Y-86279271D02*
X113911435Y-86431652D01*
X113911435Y-86431652D02*
X113911435Y-86545938D01*
X113911435Y-86545938D02*
X113873339Y-86698319D01*
X113873339Y-86698319D02*
X113835244Y-86774509D01*
X113835244Y-86774509D02*
X113759054Y-86850700D01*
X113759054Y-86850700D02*
X113644768Y-86888795D01*
X113644768Y-86888795D02*
X113454292Y-86888795D01*
X111740005Y-88138655D02*
X111854291Y-88176750D01*
X111854291Y-88176750D02*
X112044767Y-88176750D01*
X112044767Y-88176750D02*
X112120958Y-88138655D01*
X112120958Y-88138655D02*
X112159053Y-88100559D01*
X112159053Y-88100559D02*
X112197148Y-88024369D01*
X112197148Y-88024369D02*
X112197148Y-87948178D01*
X112197148Y-87948178D02*
X112159053Y-87871988D01*
X112159053Y-87871988D02*
X112120958Y-87833893D01*
X112120958Y-87833893D02*
X112044767Y-87795797D01*
X112044767Y-87795797D02*
X111892386Y-87757702D01*
X111892386Y-87757702D02*
X111816196Y-87719607D01*
X111816196Y-87719607D02*
X111778101Y-87681512D01*
X111778101Y-87681512D02*
X111740005Y-87605321D01*
X111740005Y-87605321D02*
X111740005Y-87529131D01*
X111740005Y-87529131D02*
X111778101Y-87452940D01*
X111778101Y-87452940D02*
X111816196Y-87414845D01*
X111816196Y-87414845D02*
X111892386Y-87376750D01*
X111892386Y-87376750D02*
X112082863Y-87376750D01*
X112082863Y-87376750D02*
X112197148Y-87414845D01*
X112463815Y-87376750D02*
X112654291Y-88176750D01*
X112654291Y-88176750D02*
X112806672Y-87605321D01*
X112806672Y-87605321D02*
X112959053Y-88176750D01*
X112959053Y-88176750D02*
X113149530Y-87376750D01*
X113454292Y-88176750D02*
X113454292Y-87376750D01*
X113454292Y-87376750D02*
X113644768Y-87376750D01*
X113644768Y-87376750D02*
X113759054Y-87414845D01*
X113759054Y-87414845D02*
X113835244Y-87491035D01*
X113835244Y-87491035D02*
X113873339Y-87567226D01*
X113873339Y-87567226D02*
X113911435Y-87719607D01*
X113911435Y-87719607D02*
X113911435Y-87833893D01*
X113911435Y-87833893D02*
X113873339Y-87986274D01*
X113873339Y-87986274D02*
X113835244Y-88062464D01*
X113835244Y-88062464D02*
X113759054Y-88138655D01*
X113759054Y-88138655D02*
X113644768Y-88176750D01*
X113644768Y-88176750D02*
X113454292Y-88176750D01*
D15*
G36*
X115721132Y-51463130D02*
G01*
X115919505Y-51479908D01*
X116136130Y-51532136D01*
X116314885Y-51618801D01*
X116474804Y-51767812D01*
X116569846Y-51965420D01*
X116595420Y-52166826D01*
X116595420Y-53009952D01*
X116594380Y-53052885D01*
X116558751Y-53247554D01*
X116452504Y-53436881D01*
X116282320Y-53577470D01*
X116095731Y-53657063D01*
X115871923Y-53702220D01*
X115668274Y-53713371D01*
X113459342Y-53713371D01*
X113459342Y-55214000D01*
X112556620Y-55214000D01*
X112556620Y-53175060D01*
X113459342Y-53175060D01*
X115500235Y-53175060D01*
X115546134Y-53173110D01*
X115693675Y-53038284D01*
X115693675Y-52138494D01*
X115681860Y-52076731D01*
X115500235Y-52001718D01*
X113459342Y-52001718D01*
X113459342Y-53175060D01*
X112556620Y-53175060D01*
X112556620Y-51462429D01*
X115668274Y-51462429D01*
X115721132Y-51463130D01*
G37*
G36*
X117202119Y-55214000D02*
G01*
X118049153Y-55214000D01*
X118049153Y-52462848D01*
X117202119Y-52462848D01*
X117202119Y-55214000D01*
G37*
G36*
X117202119Y-52085737D02*
G01*
X118049153Y-52085737D01*
X118049153Y-51462429D01*
X117202119Y-51462429D01*
X117202119Y-52085737D01*
G37*
G36*
X118714471Y-54567244D02*
G01*
X118748513Y-54789459D01*
X118847495Y-54964223D01*
X119006705Y-55092310D01*
X119221427Y-55174493D01*
X119439367Y-55208471D01*
X119585929Y-55214000D01*
X121689349Y-55214000D01*
X121689349Y-54732353D01*
X119725636Y-54732353D01*
X119561505Y-54622932D01*
X119561505Y-53054893D01*
X119725636Y-52945472D01*
X121689349Y-52945472D01*
X121689349Y-52462848D01*
X119585929Y-52462848D01*
X119348133Y-52478300D01*
X119143976Y-52524922D01*
X118947234Y-52622583D01*
X118807577Y-52766405D01*
X118729717Y-52957085D01*
X118714471Y-53110580D01*
X118714471Y-54567244D01*
G37*
G36*
X124713091Y-52468401D02*
G01*
X124931031Y-52502507D01*
X125145754Y-52584935D01*
X125304963Y-52713292D01*
X125403946Y-52888276D01*
X125437988Y-53110580D01*
X125437988Y-54567244D01*
X125422742Y-54720698D01*
X125344882Y-54911193D01*
X125205225Y-55054753D01*
X125008483Y-55152152D01*
X124804326Y-55198612D01*
X124566530Y-55214000D01*
X123110842Y-55214000D01*
X122964280Y-55208471D01*
X122746340Y-55174493D01*
X122531618Y-55092310D01*
X122372408Y-54964223D01*
X122273425Y-54789459D01*
X122239384Y-54567244D01*
X122239384Y-53110580D01*
X122244915Y-53054893D01*
X123086418Y-53054893D01*
X123086418Y-54622932D01*
X123250549Y-54732353D01*
X124426823Y-54732353D01*
X124591931Y-54622932D01*
X124591931Y-53054893D01*
X124426823Y-52945472D01*
X123250549Y-52945472D01*
X123086418Y-53054893D01*
X122244915Y-53054893D01*
X122254630Y-52957085D01*
X122332489Y-52766405D01*
X122472147Y-52622583D01*
X122668889Y-52524922D01*
X122873046Y-52478300D01*
X123110842Y-52462848D01*
X124566530Y-52462848D01*
X124713091Y-52468401D01*
G37*
G36*
X126072042Y-55214000D02*
G01*
X129999467Y-55214000D01*
X129999467Y-54675688D01*
X126974764Y-54675688D01*
X126974764Y-53537517D01*
X127122306Y-53402731D01*
X127168204Y-53400741D01*
X129072322Y-53400741D01*
X129275690Y-53389591D01*
X129499352Y-53344454D01*
X129685962Y-53264921D01*
X129856293Y-53124489D01*
X129962714Y-52935447D01*
X129998424Y-52741142D01*
X129999467Y-52698298D01*
X129999467Y-52165849D01*
X129973833Y-51964834D01*
X129878624Y-51767536D01*
X129718544Y-51618700D01*
X129539745Y-51532107D01*
X129323227Y-51479905D01*
X129125094Y-51463130D01*
X129072322Y-51462429D01*
X126352433Y-51462429D01*
X126352433Y-52001718D01*
X128904282Y-52001718D01*
X129084946Y-52076731D01*
X129096746Y-52138494D01*
X129096746Y-52725653D01*
X128949859Y-52860479D01*
X128904282Y-52862429D01*
X127000165Y-52862429D01*
X126796474Y-52873619D01*
X126572520Y-52918882D01*
X126385722Y-52998564D01*
X126215268Y-53139111D01*
X126108802Y-53328086D01*
X126073086Y-53522114D01*
X126072042Y-53564872D01*
X126072042Y-55214000D01*
G37*
D14*
X107612080Y-88612922D02*
X107659700Y-88660541D01*
X107659700Y-88660541D02*
X107707319Y-88803398D01*
X107707319Y-88803398D02*
X107707319Y-88898636D01*
X107707319Y-88898636D02*
X107659700Y-89041493D01*
X107659700Y-89041493D02*
X107564461Y-89136731D01*
X107564461Y-89136731D02*
X107469223Y-89184350D01*
X107469223Y-89184350D02*
X107278747Y-89231969D01*
X107278747Y-89231969D02*
X107135890Y-89231969D01*
X107135890Y-89231969D02*
X106945414Y-89184350D01*
X106945414Y-89184350D02*
X106850176Y-89136731D01*
X106850176Y-89136731D02*
X106754938Y-89041493D01*
X106754938Y-89041493D02*
X106707319Y-88898636D01*
X106707319Y-88898636D02*
X106707319Y-88803398D01*
X106707319Y-88803398D02*
X106754938Y-88660541D01*
X106754938Y-88660541D02*
X106802557Y-88612922D01*
X107707319Y-87660541D02*
X107707319Y-88231969D01*
X107707319Y-87946255D02*
X106707319Y-87946255D01*
X106707319Y-87946255D02*
X106850176Y-88041493D01*
X106850176Y-88041493D02*
X106945414Y-88136731D01*
X106945414Y-88136731D02*
X106993033Y-88231969D01*
X107040652Y-86803398D02*
X107707319Y-86803398D01*
X106659700Y-87041493D02*
X107373985Y-87279588D01*
X107373985Y-87279588D02*
X107373985Y-86660541D01*
X70310417Y-69989604D02*
X70786607Y-69989604D01*
X70215179Y-70275319D02*
X70548512Y-69275319D01*
X70548512Y-69275319D02*
X70881845Y-70275319D01*
X71643750Y-69608652D02*
X71643750Y-70275319D01*
X71215179Y-69608652D02*
X71215179Y-70132461D01*
X71215179Y-70132461D02*
X71262798Y-70227700D01*
X71262798Y-70227700D02*
X71358036Y-70275319D01*
X71358036Y-70275319D02*
X71500893Y-70275319D01*
X71500893Y-70275319D02*
X71596131Y-70227700D01*
X71596131Y-70227700D02*
X71643750Y-70180080D01*
X72548512Y-70275319D02*
X72548512Y-69275319D01*
X72548512Y-70227700D02*
X72453274Y-70275319D01*
X72453274Y-70275319D02*
X72262798Y-70275319D01*
X72262798Y-70275319D02*
X72167560Y-70227700D01*
X72167560Y-70227700D02*
X72119941Y-70180080D01*
X72119941Y-70180080D02*
X72072322Y-70084842D01*
X72072322Y-70084842D02*
X72072322Y-69799128D01*
X72072322Y-69799128D02*
X72119941Y-69703890D01*
X72119941Y-69703890D02*
X72167560Y-69656271D01*
X72167560Y-69656271D02*
X72262798Y-69608652D01*
X72262798Y-69608652D02*
X72453274Y-69608652D01*
X72453274Y-69608652D02*
X72548512Y-69656271D01*
X73024703Y-70275319D02*
X73024703Y-69608652D01*
X73024703Y-69275319D02*
X72977084Y-69322938D01*
X72977084Y-69322938D02*
X73024703Y-69370557D01*
X73024703Y-69370557D02*
X73072322Y-69322938D01*
X73072322Y-69322938D02*
X73024703Y-69275319D01*
X73024703Y-69275319D02*
X73024703Y-69370557D01*
X73643750Y-70275319D02*
X73548512Y-70227700D01*
X73548512Y-70227700D02*
X73500893Y-70180080D01*
X73500893Y-70180080D02*
X73453274Y-70084842D01*
X73453274Y-70084842D02*
X73453274Y-69799128D01*
X73453274Y-69799128D02*
X73500893Y-69703890D01*
X73500893Y-69703890D02*
X73548512Y-69656271D01*
X73548512Y-69656271D02*
X73643750Y-69608652D01*
X73643750Y-69608652D02*
X73786607Y-69608652D01*
X73786607Y-69608652D02*
X73881845Y-69656271D01*
X73881845Y-69656271D02*
X73929464Y-69703890D01*
X73929464Y-69703890D02*
X73977083Y-69799128D01*
X73977083Y-69799128D02*
X73977083Y-70084842D01*
X73977083Y-70084842D02*
X73929464Y-70180080D01*
X73929464Y-70180080D02*
X73881845Y-70227700D01*
X73881845Y-70227700D02*
X73786607Y-70275319D01*
X73786607Y-70275319D02*
X73643750Y-70275319D01*
X104812080Y-88661857D02*
X104859700Y-88709476D01*
X104859700Y-88709476D02*
X104907319Y-88852333D01*
X104907319Y-88852333D02*
X104907319Y-88947571D01*
X104907319Y-88947571D02*
X104859700Y-89090428D01*
X104859700Y-89090428D02*
X104764461Y-89185666D01*
X104764461Y-89185666D02*
X104669223Y-89233285D01*
X104669223Y-89233285D02*
X104478747Y-89280904D01*
X104478747Y-89280904D02*
X104335890Y-89280904D01*
X104335890Y-89280904D02*
X104145414Y-89233285D01*
X104145414Y-89233285D02*
X104050176Y-89185666D01*
X104050176Y-89185666D02*
X103954938Y-89090428D01*
X103954938Y-89090428D02*
X103907319Y-88947571D01*
X103907319Y-88947571D02*
X103907319Y-88852333D01*
X103907319Y-88852333D02*
X103954938Y-88709476D01*
X103954938Y-88709476D02*
X104002557Y-88661857D01*
X104907319Y-87709476D02*
X104907319Y-88280904D01*
X104907319Y-87995190D02*
X103907319Y-87995190D01*
X103907319Y-87995190D02*
X104050176Y-88090428D01*
X104050176Y-88090428D02*
X104145414Y-88185666D01*
X104145414Y-88185666D02*
X104193033Y-88280904D01*
X103907319Y-87090428D02*
X103907319Y-86995190D01*
X103907319Y-86995190D02*
X103954938Y-86899952D01*
X103954938Y-86899952D02*
X104002557Y-86852333D01*
X104002557Y-86852333D02*
X104097795Y-86804714D01*
X104097795Y-86804714D02*
X104288271Y-86757095D01*
X104288271Y-86757095D02*
X104526366Y-86757095D01*
X104526366Y-86757095D02*
X104716842Y-86804714D01*
X104716842Y-86804714D02*
X104812080Y-86852333D01*
X104812080Y-86852333D02*
X104859700Y-86899952D01*
X104859700Y-86899952D02*
X104907319Y-86995190D01*
X104907319Y-86995190D02*
X104907319Y-87090428D01*
X104907319Y-87090428D02*
X104859700Y-87185666D01*
X104859700Y-87185666D02*
X104812080Y-87233285D01*
X104812080Y-87233285D02*
X104716842Y-87280904D01*
X104716842Y-87280904D02*
X104526366Y-87328523D01*
X104526366Y-87328523D02*
X104288271Y-87328523D01*
X104288271Y-87328523D02*
X104097795Y-87280904D01*
X104097795Y-87280904D02*
X104002557Y-87233285D01*
X104002557Y-87233285D02*
X103954938Y-87185666D01*
X103954938Y-87185666D02*
X103907319Y-87090428D01*
X143027319Y-64947333D02*
X143741604Y-64947333D01*
X143741604Y-64947333D02*
X143884461Y-64994952D01*
X143884461Y-64994952D02*
X143979700Y-65090190D01*
X143979700Y-65090190D02*
X144027319Y-65233047D01*
X144027319Y-65233047D02*
X144027319Y-65328285D01*
X143122557Y-64518761D02*
X143074938Y-64471142D01*
X143074938Y-64471142D02*
X143027319Y-64375904D01*
X143027319Y-64375904D02*
X143027319Y-64137809D01*
X143027319Y-64137809D02*
X143074938Y-64042571D01*
X143074938Y-64042571D02*
X143122557Y-63994952D01*
X143122557Y-63994952D02*
X143217795Y-63947333D01*
X143217795Y-63947333D02*
X143313033Y-63947333D01*
X143313033Y-63947333D02*
X143455890Y-63994952D01*
X143455890Y-63994952D02*
X144027319Y-64566380D01*
X144027319Y-64566380D02*
X144027319Y-63947333D01*
X141127142Y-67488819D02*
X140793809Y-67012628D01*
X140555714Y-67488819D02*
X140555714Y-66488819D01*
X140555714Y-66488819D02*
X140936666Y-66488819D01*
X140936666Y-66488819D02*
X141031904Y-66536438D01*
X141031904Y-66536438D02*
X141079523Y-66584057D01*
X141079523Y-66584057D02*
X141127142Y-66679295D01*
X141127142Y-66679295D02*
X141127142Y-66822152D01*
X141127142Y-66822152D02*
X141079523Y-66917390D01*
X141079523Y-66917390D02*
X141031904Y-66965009D01*
X141031904Y-66965009D02*
X140936666Y-67012628D01*
X140936666Y-67012628D02*
X140555714Y-67012628D01*
X142079523Y-67488819D02*
X141508095Y-67488819D01*
X141793809Y-67488819D02*
X141793809Y-66488819D01*
X141793809Y-66488819D02*
X141698571Y-66631676D01*
X141698571Y-66631676D02*
X141603333Y-66726914D01*
X141603333Y-66726914D02*
X141508095Y-66774533D01*
X142460476Y-66584057D02*
X142508095Y-66536438D01*
X142508095Y-66536438D02*
X142603333Y-66488819D01*
X142603333Y-66488819D02*
X142841428Y-66488819D01*
X142841428Y-66488819D02*
X142936666Y-66536438D01*
X142936666Y-66536438D02*
X142984285Y-66584057D01*
X142984285Y-66584057D02*
X143031904Y-66679295D01*
X143031904Y-66679295D02*
X143031904Y-66774533D01*
X143031904Y-66774533D02*
X142984285Y-66917390D01*
X142984285Y-66917390D02*
X142412857Y-67488819D01*
X142412857Y-67488819D02*
X143031904Y-67488819D01*
X100050595Y-61778819D02*
X100050595Y-62588342D01*
X100050595Y-62588342D02*
X100098214Y-62683580D01*
X100098214Y-62683580D02*
X100145833Y-62731200D01*
X100145833Y-62731200D02*
X100241071Y-62778819D01*
X100241071Y-62778819D02*
X100431547Y-62778819D01*
X100431547Y-62778819D02*
X100526785Y-62731200D01*
X100526785Y-62731200D02*
X100574404Y-62683580D01*
X100574404Y-62683580D02*
X100622023Y-62588342D01*
X100622023Y-62588342D02*
X100622023Y-61778819D01*
X101526785Y-62112152D02*
X101526785Y-62778819D01*
X101288690Y-61731200D02*
X101050595Y-62445485D01*
X101050595Y-62445485D02*
X101669642Y-62445485D01*
X93982319Y-87567154D02*
X94791842Y-87567154D01*
X94791842Y-87567154D02*
X94887080Y-87519535D01*
X94887080Y-87519535D02*
X94934700Y-87471916D01*
X94934700Y-87471916D02*
X94982319Y-87376678D01*
X94982319Y-87376678D02*
X94982319Y-87186202D01*
X94982319Y-87186202D02*
X94934700Y-87090964D01*
X94934700Y-87090964D02*
X94887080Y-87043345D01*
X94887080Y-87043345D02*
X94791842Y-86995726D01*
X94791842Y-86995726D02*
X93982319Y-86995726D01*
X94077557Y-86567154D02*
X94029938Y-86519535D01*
X94029938Y-86519535D02*
X93982319Y-86424297D01*
X93982319Y-86424297D02*
X93982319Y-86186202D01*
X93982319Y-86186202D02*
X94029938Y-86090964D01*
X94029938Y-86090964D02*
X94077557Y-86043345D01*
X94077557Y-86043345D02*
X94172795Y-85995726D01*
X94172795Y-85995726D02*
X94268033Y-85995726D01*
X94268033Y-85995726D02*
X94410890Y-86043345D01*
X94410890Y-86043345D02*
X94982319Y-86614773D01*
X94982319Y-86614773D02*
X94982319Y-85995726D01*
X98681958Y-81378580D02*
X98634339Y-81426200D01*
X98634339Y-81426200D02*
X98491482Y-81473819D01*
X98491482Y-81473819D02*
X98396244Y-81473819D01*
X98396244Y-81473819D02*
X98253387Y-81426200D01*
X98253387Y-81426200D02*
X98158149Y-81330961D01*
X98158149Y-81330961D02*
X98110530Y-81235723D01*
X98110530Y-81235723D02*
X98062911Y-81045247D01*
X98062911Y-81045247D02*
X98062911Y-80902390D01*
X98062911Y-80902390D02*
X98110530Y-80711914D01*
X98110530Y-80711914D02*
X98158149Y-80616676D01*
X98158149Y-80616676D02*
X98253387Y-80521438D01*
X98253387Y-80521438D02*
X98396244Y-80473819D01*
X98396244Y-80473819D02*
X98491482Y-80473819D01*
X98491482Y-80473819D02*
X98634339Y-80521438D01*
X98634339Y-80521438D02*
X98681958Y-80569057D01*
X99015292Y-80473819D02*
X99681958Y-80473819D01*
X99681958Y-80473819D02*
X99253387Y-81473819D01*
X141127142Y-62222569D02*
X140793809Y-61746378D01*
X140555714Y-62222569D02*
X140555714Y-61222569D01*
X140555714Y-61222569D02*
X140936666Y-61222569D01*
X140936666Y-61222569D02*
X141031904Y-61270188D01*
X141031904Y-61270188D02*
X141079523Y-61317807D01*
X141079523Y-61317807D02*
X141127142Y-61413045D01*
X141127142Y-61413045D02*
X141127142Y-61555902D01*
X141127142Y-61555902D02*
X141079523Y-61651140D01*
X141079523Y-61651140D02*
X141031904Y-61698759D01*
X141031904Y-61698759D02*
X140936666Y-61746378D01*
X140936666Y-61746378D02*
X140555714Y-61746378D01*
X142079523Y-62222569D02*
X141508095Y-62222569D01*
X141793809Y-62222569D02*
X141793809Y-61222569D01*
X141793809Y-61222569D02*
X141698571Y-61365426D01*
X141698571Y-61365426D02*
X141603333Y-61460664D01*
X141603333Y-61460664D02*
X141508095Y-61508283D01*
X143031904Y-62222569D02*
X142460476Y-62222569D01*
X142746190Y-62222569D02*
X142746190Y-61222569D01*
X142746190Y-61222569D02*
X142650952Y-61365426D01*
X142650952Y-61365426D02*
X142555714Y-61460664D01*
X142555714Y-61460664D02*
X142460476Y-61508283D01*
X73485833Y-75037319D02*
X73152500Y-74561128D01*
X72914405Y-75037319D02*
X72914405Y-74037319D01*
X72914405Y-74037319D02*
X73295357Y-74037319D01*
X73295357Y-74037319D02*
X73390595Y-74084938D01*
X73390595Y-74084938D02*
X73438214Y-74132557D01*
X73438214Y-74132557D02*
X73485833Y-74227795D01*
X73485833Y-74227795D02*
X73485833Y-74370652D01*
X73485833Y-74370652D02*
X73438214Y-74465890D01*
X73438214Y-74465890D02*
X73390595Y-74513509D01*
X73390595Y-74513509D02*
X73295357Y-74561128D01*
X73295357Y-74561128D02*
X72914405Y-74561128D01*
X74438214Y-75037319D02*
X73866786Y-75037319D01*
X74152500Y-75037319D02*
X74152500Y-74037319D01*
X74152500Y-74037319D02*
X74057262Y-74180176D01*
X74057262Y-74180176D02*
X73962024Y-74275414D01*
X73962024Y-74275414D02*
X73866786Y-74323033D01*
X105476309Y-90997628D02*
X105476309Y-91473819D01*
X105142976Y-90473819D02*
X105476309Y-90997628D01*
X105476309Y-90997628D02*
X105809642Y-90473819D01*
X106666785Y-91473819D02*
X106095357Y-91473819D01*
X106381071Y-91473819D02*
X106381071Y-90473819D01*
X106381071Y-90473819D02*
X106285833Y-90616676D01*
X106285833Y-90616676D02*
X106190595Y-90711914D01*
X106190595Y-90711914D02*
X106095357Y-90759533D01*
X108394642Y-95096080D02*
X108347023Y-95143700D01*
X108347023Y-95143700D02*
X108204166Y-95191319D01*
X108204166Y-95191319D02*
X108108928Y-95191319D01*
X108108928Y-95191319D02*
X107966071Y-95143700D01*
X107966071Y-95143700D02*
X107870833Y-95048461D01*
X107870833Y-95048461D02*
X107823214Y-94953223D01*
X107823214Y-94953223D02*
X107775595Y-94762747D01*
X107775595Y-94762747D02*
X107775595Y-94619890D01*
X107775595Y-94619890D02*
X107823214Y-94429414D01*
X107823214Y-94429414D02*
X107870833Y-94334176D01*
X107870833Y-94334176D02*
X107966071Y-94238938D01*
X107966071Y-94238938D02*
X108108928Y-94191319D01*
X108108928Y-94191319D02*
X108204166Y-94191319D01*
X108204166Y-94191319D02*
X108347023Y-94238938D01*
X108347023Y-94238938D02*
X108394642Y-94286557D01*
X109347023Y-95191319D02*
X108775595Y-95191319D01*
X109061309Y-95191319D02*
X109061309Y-94191319D01*
X109061309Y-94191319D02*
X108966071Y-94334176D01*
X108966071Y-94334176D02*
X108870833Y-94429414D01*
X108870833Y-94429414D02*
X108775595Y-94477033D01*
X110251785Y-94191319D02*
X109775595Y-94191319D01*
X109775595Y-94191319D02*
X109727976Y-94667509D01*
X109727976Y-94667509D02*
X109775595Y-94619890D01*
X109775595Y-94619890D02*
X109870833Y-94572271D01*
X109870833Y-94572271D02*
X110108928Y-94572271D01*
X110108928Y-94572271D02*
X110204166Y-94619890D01*
X110204166Y-94619890D02*
X110251785Y-94667509D01*
X110251785Y-94667509D02*
X110299404Y-94762747D01*
X110299404Y-94762747D02*
X110299404Y-95000842D01*
X110299404Y-95000842D02*
X110251785Y-95096080D01*
X110251785Y-95096080D02*
X110204166Y-95143700D01*
X110204166Y-95143700D02*
X110108928Y-95191319D01*
X110108928Y-95191319D02*
X109870833Y-95191319D01*
X109870833Y-95191319D02*
X109775595Y-95143700D01*
X109775595Y-95143700D02*
X109727976Y-95096080D01*
X110617319Y-66609416D02*
X110141128Y-66942749D01*
X110617319Y-67180844D02*
X109617319Y-67180844D01*
X109617319Y-67180844D02*
X109617319Y-66799892D01*
X109617319Y-66799892D02*
X109664938Y-66704654D01*
X109664938Y-66704654D02*
X109712557Y-66657035D01*
X109712557Y-66657035D02*
X109807795Y-66609416D01*
X109807795Y-66609416D02*
X109950652Y-66609416D01*
X109950652Y-66609416D02*
X110045890Y-66657035D01*
X110045890Y-66657035D02*
X110093509Y-66704654D01*
X110093509Y-66704654D02*
X110141128Y-66799892D01*
X110141128Y-66799892D02*
X110141128Y-67180844D01*
X110617319Y-66133225D02*
X110617319Y-65942749D01*
X110617319Y-65942749D02*
X110569700Y-65847511D01*
X110569700Y-65847511D02*
X110522080Y-65799892D01*
X110522080Y-65799892D02*
X110379223Y-65704654D01*
X110379223Y-65704654D02*
X110188747Y-65657035D01*
X110188747Y-65657035D02*
X109807795Y-65657035D01*
X109807795Y-65657035D02*
X109712557Y-65704654D01*
X109712557Y-65704654D02*
X109664938Y-65752273D01*
X109664938Y-65752273D02*
X109617319Y-65847511D01*
X109617319Y-65847511D02*
X109617319Y-66037987D01*
X109617319Y-66037987D02*
X109664938Y-66133225D01*
X109664938Y-66133225D02*
X109712557Y-66180844D01*
X109712557Y-66180844D02*
X109807795Y-66228463D01*
X109807795Y-66228463D02*
X110045890Y-66228463D01*
X110045890Y-66228463D02*
X110141128Y-66180844D01*
X110141128Y-66180844D02*
X110188747Y-66133225D01*
X110188747Y-66133225D02*
X110236366Y-66037987D01*
X110236366Y-66037987D02*
X110236366Y-65847511D01*
X110236366Y-65847511D02*
X110188747Y-65752273D01*
X110188747Y-65752273D02*
X110141128Y-65704654D01*
X110141128Y-65704654D02*
X110045890Y-65657035D01*
X142167319Y-52757094D02*
X141167319Y-52757094D01*
X141167319Y-52757094D02*
X141167319Y-52518999D01*
X141167319Y-52518999D02*
X141214938Y-52376142D01*
X141214938Y-52376142D02*
X141310176Y-52280904D01*
X141310176Y-52280904D02*
X141405414Y-52233285D01*
X141405414Y-52233285D02*
X141595890Y-52185666D01*
X141595890Y-52185666D02*
X141738747Y-52185666D01*
X141738747Y-52185666D02*
X141929223Y-52233285D01*
X141929223Y-52233285D02*
X142024461Y-52280904D01*
X142024461Y-52280904D02*
X142119700Y-52376142D01*
X142119700Y-52376142D02*
X142167319Y-52518999D01*
X142167319Y-52518999D02*
X142167319Y-52757094D01*
X141262557Y-51804713D02*
X141214938Y-51757094D01*
X141214938Y-51757094D02*
X141167319Y-51661856D01*
X141167319Y-51661856D02*
X141167319Y-51423761D01*
X141167319Y-51423761D02*
X141214938Y-51328523D01*
X141214938Y-51328523D02*
X141262557Y-51280904D01*
X141262557Y-51280904D02*
X141357795Y-51233285D01*
X141357795Y-51233285D02*
X141453033Y-51233285D01*
X141453033Y-51233285D02*
X141595890Y-51280904D01*
X141595890Y-51280904D02*
X142167319Y-51852332D01*
X142167319Y-51852332D02*
X142167319Y-51233285D01*
X98837319Y-61605666D02*
X98361128Y-61938999D01*
X98837319Y-62177094D02*
X97837319Y-62177094D01*
X97837319Y-62177094D02*
X97837319Y-61796142D01*
X97837319Y-61796142D02*
X97884938Y-61700904D01*
X97884938Y-61700904D02*
X97932557Y-61653285D01*
X97932557Y-61653285D02*
X98027795Y-61605666D01*
X98027795Y-61605666D02*
X98170652Y-61605666D01*
X98170652Y-61605666D02*
X98265890Y-61653285D01*
X98265890Y-61653285D02*
X98313509Y-61700904D01*
X98313509Y-61700904D02*
X98361128Y-61796142D01*
X98361128Y-61796142D02*
X98361128Y-62177094D01*
X97837319Y-61272332D02*
X97837319Y-60605666D01*
X97837319Y-60605666D02*
X98837319Y-61034237D01*
X149317319Y-56861857D02*
X148841128Y-57195190D01*
X149317319Y-57433285D02*
X148317319Y-57433285D01*
X148317319Y-57433285D02*
X148317319Y-57052333D01*
X148317319Y-57052333D02*
X148364938Y-56957095D01*
X148364938Y-56957095D02*
X148412557Y-56909476D01*
X148412557Y-56909476D02*
X148507795Y-56861857D01*
X148507795Y-56861857D02*
X148650652Y-56861857D01*
X148650652Y-56861857D02*
X148745890Y-56909476D01*
X148745890Y-56909476D02*
X148793509Y-56957095D01*
X148793509Y-56957095D02*
X148841128Y-57052333D01*
X148841128Y-57052333D02*
X148841128Y-57433285D01*
X149317319Y-55909476D02*
X149317319Y-56480904D01*
X149317319Y-56195190D02*
X148317319Y-56195190D01*
X148317319Y-56195190D02*
X148460176Y-56290428D01*
X148460176Y-56290428D02*
X148555414Y-56385666D01*
X148555414Y-56385666D02*
X148603033Y-56480904D01*
X148317319Y-55004714D02*
X148317319Y-55480904D01*
X148317319Y-55480904D02*
X148793509Y-55528523D01*
X148793509Y-55528523D02*
X148745890Y-55480904D01*
X148745890Y-55480904D02*
X148698271Y-55385666D01*
X148698271Y-55385666D02*
X148698271Y-55147571D01*
X148698271Y-55147571D02*
X148745890Y-55052333D01*
X148745890Y-55052333D02*
X148793509Y-55004714D01*
X148793509Y-55004714D02*
X148888747Y-54957095D01*
X148888747Y-54957095D02*
X149126842Y-54957095D01*
X149126842Y-54957095D02*
X149222080Y-55004714D01*
X149222080Y-55004714D02*
X149269700Y-55052333D01*
X149269700Y-55052333D02*
X149317319Y-55147571D01*
X149317319Y-55147571D02*
X149317319Y-55385666D01*
X149317319Y-55385666D02*
X149269700Y-55480904D01*
X149269700Y-55480904D02*
X149222080Y-55528523D01*
X102590595Y-72323819D02*
X102590595Y-73133342D01*
X102590595Y-73133342D02*
X102638214Y-73228580D01*
X102638214Y-73228580D02*
X102685833Y-73276200D01*
X102685833Y-73276200D02*
X102781071Y-73323819D01*
X102781071Y-73323819D02*
X102971547Y-73323819D01*
X102971547Y-73323819D02*
X103066785Y-73276200D01*
X103066785Y-73276200D02*
X103114404Y-73228580D01*
X103114404Y-73228580D02*
X103162023Y-73133342D01*
X103162023Y-73133342D02*
X103162023Y-72323819D01*
X104066785Y-72323819D02*
X103876309Y-72323819D01*
X103876309Y-72323819D02*
X103781071Y-72371438D01*
X103781071Y-72371438D02*
X103733452Y-72419057D01*
X103733452Y-72419057D02*
X103638214Y-72561914D01*
X103638214Y-72561914D02*
X103590595Y-72752390D01*
X103590595Y-72752390D02*
X103590595Y-73133342D01*
X103590595Y-73133342D02*
X103638214Y-73228580D01*
X103638214Y-73228580D02*
X103685833Y-73276200D01*
X103685833Y-73276200D02*
X103781071Y-73323819D01*
X103781071Y-73323819D02*
X103971547Y-73323819D01*
X103971547Y-73323819D02*
X104066785Y-73276200D01*
X104066785Y-73276200D02*
X104114404Y-73228580D01*
X104114404Y-73228580D02*
X104162023Y-73133342D01*
X104162023Y-73133342D02*
X104162023Y-72895247D01*
X104162023Y-72895247D02*
X104114404Y-72800009D01*
X104114404Y-72800009D02*
X104066785Y-72752390D01*
X104066785Y-72752390D02*
X103971547Y-72704771D01*
X103971547Y-72704771D02*
X103781071Y-72704771D01*
X103781071Y-72704771D02*
X103685833Y-72752390D01*
X103685833Y-72752390D02*
X103638214Y-72800009D01*
X103638214Y-72800009D02*
X103590595Y-72895247D01*
X115309707Y-83468580D02*
X115262088Y-83516200D01*
X115262088Y-83516200D02*
X115119231Y-83563819D01*
X115119231Y-83563819D02*
X115023993Y-83563819D01*
X115023993Y-83563819D02*
X114881136Y-83516200D01*
X114881136Y-83516200D02*
X114785898Y-83420961D01*
X114785898Y-83420961D02*
X114738279Y-83325723D01*
X114738279Y-83325723D02*
X114690660Y-83135247D01*
X114690660Y-83135247D02*
X114690660Y-82992390D01*
X114690660Y-82992390D02*
X114738279Y-82801914D01*
X114738279Y-82801914D02*
X114785898Y-82706676D01*
X114785898Y-82706676D02*
X114881136Y-82611438D01*
X114881136Y-82611438D02*
X115023993Y-82563819D01*
X115023993Y-82563819D02*
X115119231Y-82563819D01*
X115119231Y-82563819D02*
X115262088Y-82611438D01*
X115262088Y-82611438D02*
X115309707Y-82659057D01*
X115690660Y-82659057D02*
X115738279Y-82611438D01*
X115738279Y-82611438D02*
X115833517Y-82563819D01*
X115833517Y-82563819D02*
X116071612Y-82563819D01*
X116071612Y-82563819D02*
X116166850Y-82611438D01*
X116166850Y-82611438D02*
X116214469Y-82659057D01*
X116214469Y-82659057D02*
X116262088Y-82754295D01*
X116262088Y-82754295D02*
X116262088Y-82849533D01*
X116262088Y-82849533D02*
X116214469Y-82992390D01*
X116214469Y-82992390D02*
X115643041Y-83563819D01*
X115643041Y-83563819D02*
X116262088Y-83563819D01*
X116643041Y-82659057D02*
X116690660Y-82611438D01*
X116690660Y-82611438D02*
X116785898Y-82563819D01*
X116785898Y-82563819D02*
X117023993Y-82563819D01*
X117023993Y-82563819D02*
X117119231Y-82611438D01*
X117119231Y-82611438D02*
X117166850Y-82659057D01*
X117166850Y-82659057D02*
X117214469Y-82754295D01*
X117214469Y-82754295D02*
X117214469Y-82849533D01*
X117214469Y-82849533D02*
X117166850Y-82992390D01*
X117166850Y-82992390D02*
X116595422Y-83563819D01*
X116595422Y-83563819D02*
X117214469Y-83563819D01*
X138109642Y-87353580D02*
X138062023Y-87401200D01*
X138062023Y-87401200D02*
X137919166Y-87448819D01*
X137919166Y-87448819D02*
X137823928Y-87448819D01*
X137823928Y-87448819D02*
X137681071Y-87401200D01*
X137681071Y-87401200D02*
X137585833Y-87305961D01*
X137585833Y-87305961D02*
X137538214Y-87210723D01*
X137538214Y-87210723D02*
X137490595Y-87020247D01*
X137490595Y-87020247D02*
X137490595Y-86877390D01*
X137490595Y-86877390D02*
X137538214Y-86686914D01*
X137538214Y-86686914D02*
X137585833Y-86591676D01*
X137585833Y-86591676D02*
X137681071Y-86496438D01*
X137681071Y-86496438D02*
X137823928Y-86448819D01*
X137823928Y-86448819D02*
X137919166Y-86448819D01*
X137919166Y-86448819D02*
X138062023Y-86496438D01*
X138062023Y-86496438D02*
X138109642Y-86544057D01*
X138490595Y-86544057D02*
X138538214Y-86496438D01*
X138538214Y-86496438D02*
X138633452Y-86448819D01*
X138633452Y-86448819D02*
X138871547Y-86448819D01*
X138871547Y-86448819D02*
X138966785Y-86496438D01*
X138966785Y-86496438D02*
X139014404Y-86544057D01*
X139014404Y-86544057D02*
X139062023Y-86639295D01*
X139062023Y-86639295D02*
X139062023Y-86734533D01*
X139062023Y-86734533D02*
X139014404Y-86877390D01*
X139014404Y-86877390D02*
X138442976Y-87448819D01*
X138442976Y-87448819D02*
X139062023Y-87448819D01*
X139395357Y-86448819D02*
X140062023Y-86448819D01*
X140062023Y-86448819D02*
X139633452Y-87448819D01*
X103672080Y-61605666D02*
X103719700Y-61653285D01*
X103719700Y-61653285D02*
X103767319Y-61796142D01*
X103767319Y-61796142D02*
X103767319Y-61891380D01*
X103767319Y-61891380D02*
X103719700Y-62034237D01*
X103719700Y-62034237D02*
X103624461Y-62129475D01*
X103624461Y-62129475D02*
X103529223Y-62177094D01*
X103529223Y-62177094D02*
X103338747Y-62224713D01*
X103338747Y-62224713D02*
X103195890Y-62224713D01*
X103195890Y-62224713D02*
X103005414Y-62177094D01*
X103005414Y-62177094D02*
X102910176Y-62129475D01*
X102910176Y-62129475D02*
X102814938Y-62034237D01*
X102814938Y-62034237D02*
X102767319Y-61891380D01*
X102767319Y-61891380D02*
X102767319Y-61796142D01*
X102767319Y-61796142D02*
X102814938Y-61653285D01*
X102814938Y-61653285D02*
X102862557Y-61605666D01*
X103767319Y-61129475D02*
X103767319Y-60938999D01*
X103767319Y-60938999D02*
X103719700Y-60843761D01*
X103719700Y-60843761D02*
X103672080Y-60796142D01*
X103672080Y-60796142D02*
X103529223Y-60700904D01*
X103529223Y-60700904D02*
X103338747Y-60653285D01*
X103338747Y-60653285D02*
X102957795Y-60653285D01*
X102957795Y-60653285D02*
X102862557Y-60700904D01*
X102862557Y-60700904D02*
X102814938Y-60748523D01*
X102814938Y-60748523D02*
X102767319Y-60843761D01*
X102767319Y-60843761D02*
X102767319Y-61034237D01*
X102767319Y-61034237D02*
X102814938Y-61129475D01*
X102814938Y-61129475D02*
X102862557Y-61177094D01*
X102862557Y-61177094D02*
X102957795Y-61224713D01*
X102957795Y-61224713D02*
X103195890Y-61224713D01*
X103195890Y-61224713D02*
X103291128Y-61177094D01*
X103291128Y-61177094D02*
X103338747Y-61129475D01*
X103338747Y-61129475D02*
X103386366Y-61034237D01*
X103386366Y-61034237D02*
X103386366Y-60843761D01*
X103386366Y-60843761D02*
X103338747Y-60748523D01*
X103338747Y-60748523D02*
X103291128Y-60700904D01*
X103291128Y-60700904D02*
X103195890Y-60653285D01*
X75174404Y-101978319D02*
X74698214Y-101978319D01*
X74698214Y-101978319D02*
X74650595Y-102454509D01*
X74650595Y-102454509D02*
X74698214Y-102406890D01*
X74698214Y-102406890D02*
X74793452Y-102359271D01*
X74793452Y-102359271D02*
X75031547Y-102359271D01*
X75031547Y-102359271D02*
X75126785Y-102406890D01*
X75126785Y-102406890D02*
X75174404Y-102454509D01*
X75174404Y-102454509D02*
X75222023Y-102549747D01*
X75222023Y-102549747D02*
X75222023Y-102787842D01*
X75222023Y-102787842D02*
X75174404Y-102883080D01*
X75174404Y-102883080D02*
X75126785Y-102930700D01*
X75126785Y-102930700D02*
X75031547Y-102978319D01*
X75031547Y-102978319D02*
X74793452Y-102978319D01*
X74793452Y-102978319D02*
X74698214Y-102930700D01*
X74698214Y-102930700D02*
X74650595Y-102883080D01*
X75841071Y-101978319D02*
X75936309Y-101978319D01*
X75936309Y-101978319D02*
X76031547Y-102025938D01*
X76031547Y-102025938D02*
X76079166Y-102073557D01*
X76079166Y-102073557D02*
X76126785Y-102168795D01*
X76126785Y-102168795D02*
X76174404Y-102359271D01*
X76174404Y-102359271D02*
X76174404Y-102597366D01*
X76174404Y-102597366D02*
X76126785Y-102787842D01*
X76126785Y-102787842D02*
X76079166Y-102883080D01*
X76079166Y-102883080D02*
X76031547Y-102930700D01*
X76031547Y-102930700D02*
X75936309Y-102978319D01*
X75936309Y-102978319D02*
X75841071Y-102978319D01*
X75841071Y-102978319D02*
X75745833Y-102930700D01*
X75745833Y-102930700D02*
X75698214Y-102883080D01*
X75698214Y-102883080D02*
X75650595Y-102787842D01*
X75650595Y-102787842D02*
X75602976Y-102597366D01*
X75602976Y-102597366D02*
X75602976Y-102359271D01*
X75602976Y-102359271D02*
X75650595Y-102168795D01*
X75650595Y-102168795D02*
X75698214Y-102073557D01*
X75698214Y-102073557D02*
X75745833Y-102025938D01*
X75745833Y-102025938D02*
X75841071Y-101978319D01*
X136086786Y-102073557D02*
X136134405Y-102025938D01*
X136134405Y-102025938D02*
X136229643Y-101978319D01*
X136229643Y-101978319D02*
X136467738Y-101978319D01*
X136467738Y-101978319D02*
X136562976Y-102025938D01*
X136562976Y-102025938D02*
X136610595Y-102073557D01*
X136610595Y-102073557D02*
X136658214Y-102168795D01*
X136658214Y-102168795D02*
X136658214Y-102264033D01*
X136658214Y-102264033D02*
X136610595Y-102406890D01*
X136610595Y-102406890D02*
X136039167Y-102978319D01*
X136039167Y-102978319D02*
X136658214Y-102978319D01*
X117329166Y-84173819D02*
X117329166Y-84888104D01*
X117329166Y-84888104D02*
X117281547Y-85030961D01*
X117281547Y-85030961D02*
X117186309Y-85126200D01*
X117186309Y-85126200D02*
X117043452Y-85173819D01*
X117043452Y-85173819D02*
X116948214Y-85173819D01*
X118329166Y-85173819D02*
X117757738Y-85173819D01*
X118043452Y-85173819D02*
X118043452Y-84173819D01*
X118043452Y-84173819D02*
X117948214Y-84316676D01*
X117948214Y-84316676D02*
X117852976Y-84411914D01*
X117852976Y-84411914D02*
X117757738Y-84459533D01*
X113179405Y-89941319D02*
X113179405Y-88941319D01*
X113179405Y-88941319D02*
X113417500Y-88941319D01*
X113417500Y-88941319D02*
X113560357Y-88988938D01*
X113560357Y-88988938D02*
X113655595Y-89084176D01*
X113655595Y-89084176D02*
X113703214Y-89179414D01*
X113703214Y-89179414D02*
X113750833Y-89369890D01*
X113750833Y-89369890D02*
X113750833Y-89512747D01*
X113750833Y-89512747D02*
X113703214Y-89703223D01*
X113703214Y-89703223D02*
X113655595Y-89798461D01*
X113655595Y-89798461D02*
X113560357Y-89893700D01*
X113560357Y-89893700D02*
X113417500Y-89941319D01*
X113417500Y-89941319D02*
X113179405Y-89941319D01*
X114179405Y-89417509D02*
X114512738Y-89417509D01*
X114655595Y-89941319D02*
X114179405Y-89941319D01*
X114179405Y-89941319D02*
X114179405Y-88941319D01*
X114179405Y-88941319D02*
X114655595Y-88941319D01*
X115417500Y-89417509D02*
X115560357Y-89465128D01*
X115560357Y-89465128D02*
X115607976Y-89512747D01*
X115607976Y-89512747D02*
X115655595Y-89607985D01*
X115655595Y-89607985D02*
X115655595Y-89750842D01*
X115655595Y-89750842D02*
X115607976Y-89846080D01*
X115607976Y-89846080D02*
X115560357Y-89893700D01*
X115560357Y-89893700D02*
X115465119Y-89941319D01*
X115465119Y-89941319D02*
X115084167Y-89941319D01*
X115084167Y-89941319D02*
X115084167Y-88941319D01*
X115084167Y-88941319D02*
X115417500Y-88941319D01*
X115417500Y-88941319D02*
X115512738Y-88988938D01*
X115512738Y-88988938D02*
X115560357Y-89036557D01*
X115560357Y-89036557D02*
X115607976Y-89131795D01*
X115607976Y-89131795D02*
X115607976Y-89227033D01*
X115607976Y-89227033D02*
X115560357Y-89322271D01*
X115560357Y-89322271D02*
X115512738Y-89369890D01*
X115512738Y-89369890D02*
X115417500Y-89417509D01*
X115417500Y-89417509D02*
X115084167Y-89417509D01*
X116084167Y-88941319D02*
X116084167Y-89750842D01*
X116084167Y-89750842D02*
X116131786Y-89846080D01*
X116131786Y-89846080D02*
X116179405Y-89893700D01*
X116179405Y-89893700D02*
X116274643Y-89941319D01*
X116274643Y-89941319D02*
X116465119Y-89941319D01*
X116465119Y-89941319D02*
X116560357Y-89893700D01*
X116560357Y-89893700D02*
X116607976Y-89846080D01*
X116607976Y-89846080D02*
X116655595Y-89750842D01*
X116655595Y-89750842D02*
X116655595Y-88941319D01*
X117655595Y-88988938D02*
X117560357Y-88941319D01*
X117560357Y-88941319D02*
X117417500Y-88941319D01*
X117417500Y-88941319D02*
X117274643Y-88988938D01*
X117274643Y-88988938D02*
X117179405Y-89084176D01*
X117179405Y-89084176D02*
X117131786Y-89179414D01*
X117131786Y-89179414D02*
X117084167Y-89369890D01*
X117084167Y-89369890D02*
X117084167Y-89512747D01*
X117084167Y-89512747D02*
X117131786Y-89703223D01*
X117131786Y-89703223D02*
X117179405Y-89798461D01*
X117179405Y-89798461D02*
X117274643Y-89893700D01*
X117274643Y-89893700D02*
X117417500Y-89941319D01*
X117417500Y-89941319D02*
X117512738Y-89941319D01*
X117512738Y-89941319D02*
X117655595Y-89893700D01*
X117655595Y-89893700D02*
X117703214Y-89846080D01*
X117703214Y-89846080D02*
X117703214Y-89512747D01*
X117703214Y-89512747D02*
X117512738Y-89512747D01*
X75467319Y-71699166D02*
X74991128Y-72032499D01*
X75467319Y-72270594D02*
X74467319Y-72270594D01*
X74467319Y-72270594D02*
X74467319Y-71889642D01*
X74467319Y-71889642D02*
X74514938Y-71794404D01*
X74514938Y-71794404D02*
X74562557Y-71746785D01*
X74562557Y-71746785D02*
X74657795Y-71699166D01*
X74657795Y-71699166D02*
X74800652Y-71699166D01*
X74800652Y-71699166D02*
X74895890Y-71746785D01*
X74895890Y-71746785D02*
X74943509Y-71794404D01*
X74943509Y-71794404D02*
X74991128Y-71889642D01*
X74991128Y-71889642D02*
X74991128Y-72270594D01*
X74562557Y-71318213D02*
X74514938Y-71270594D01*
X74514938Y-71270594D02*
X74467319Y-71175356D01*
X74467319Y-71175356D02*
X74467319Y-70937261D01*
X74467319Y-70937261D02*
X74514938Y-70842023D01*
X74514938Y-70842023D02*
X74562557Y-70794404D01*
X74562557Y-70794404D02*
X74657795Y-70746785D01*
X74657795Y-70746785D02*
X74753033Y-70746785D01*
X74753033Y-70746785D02*
X74895890Y-70794404D01*
X74895890Y-70794404D02*
X75467319Y-71365832D01*
X75467319Y-71365832D02*
X75467319Y-70746785D01*
X85265319Y-89858166D02*
X84789128Y-90191499D01*
X85265319Y-90429594D02*
X84265319Y-90429594D01*
X84265319Y-90429594D02*
X84265319Y-90048642D01*
X84265319Y-90048642D02*
X84312938Y-89953404D01*
X84312938Y-89953404D02*
X84360557Y-89905785D01*
X84360557Y-89905785D02*
X84455795Y-89858166D01*
X84455795Y-89858166D02*
X84598652Y-89858166D01*
X84598652Y-89858166D02*
X84693890Y-89905785D01*
X84693890Y-89905785D02*
X84741509Y-89953404D01*
X84741509Y-89953404D02*
X84789128Y-90048642D01*
X84789128Y-90048642D02*
X84789128Y-90429594D01*
X84598652Y-89001023D02*
X85265319Y-89001023D01*
X84217700Y-89239118D02*
X84931985Y-89477213D01*
X84931985Y-89477213D02*
X84931985Y-88858166D01*
X75397319Y-78049166D02*
X74921128Y-78382499D01*
X75397319Y-78620594D02*
X74397319Y-78620594D01*
X74397319Y-78620594D02*
X74397319Y-78239642D01*
X74397319Y-78239642D02*
X74444938Y-78144404D01*
X74444938Y-78144404D02*
X74492557Y-78096785D01*
X74492557Y-78096785D02*
X74587795Y-78049166D01*
X74587795Y-78049166D02*
X74730652Y-78049166D01*
X74730652Y-78049166D02*
X74825890Y-78096785D01*
X74825890Y-78096785D02*
X74873509Y-78144404D01*
X74873509Y-78144404D02*
X74921128Y-78239642D01*
X74921128Y-78239642D02*
X74921128Y-78620594D01*
X74397319Y-77715832D02*
X74397319Y-77096785D01*
X74397319Y-77096785D02*
X74778271Y-77430118D01*
X74778271Y-77430118D02*
X74778271Y-77287261D01*
X74778271Y-77287261D02*
X74825890Y-77192023D01*
X74825890Y-77192023D02*
X74873509Y-77144404D01*
X74873509Y-77144404D02*
X74968747Y-77096785D01*
X74968747Y-77096785D02*
X75206842Y-77096785D01*
X75206842Y-77096785D02*
X75302080Y-77144404D01*
X75302080Y-77144404D02*
X75349700Y-77192023D01*
X75349700Y-77192023D02*
X75397319Y-77287261D01*
X75397319Y-77287261D02*
X75397319Y-77572975D01*
X75397319Y-77572975D02*
X75349700Y-77668213D01*
X75349700Y-77668213D02*
X75302080Y-77715832D01*
X95087319Y-61605666D02*
X94611128Y-61938999D01*
X95087319Y-62177094D02*
X94087319Y-62177094D01*
X94087319Y-62177094D02*
X94087319Y-61796142D01*
X94087319Y-61796142D02*
X94134938Y-61700904D01*
X94134938Y-61700904D02*
X94182557Y-61653285D01*
X94182557Y-61653285D02*
X94277795Y-61605666D01*
X94277795Y-61605666D02*
X94420652Y-61605666D01*
X94420652Y-61605666D02*
X94515890Y-61653285D01*
X94515890Y-61653285D02*
X94563509Y-61700904D01*
X94563509Y-61700904D02*
X94611128Y-61796142D01*
X94611128Y-61796142D02*
X94611128Y-62177094D01*
X94087319Y-60700904D02*
X94087319Y-61177094D01*
X94087319Y-61177094D02*
X94563509Y-61224713D01*
X94563509Y-61224713D02*
X94515890Y-61177094D01*
X94515890Y-61177094D02*
X94468271Y-61081856D01*
X94468271Y-61081856D02*
X94468271Y-60843761D01*
X94468271Y-60843761D02*
X94515890Y-60748523D01*
X94515890Y-60748523D02*
X94563509Y-60700904D01*
X94563509Y-60700904D02*
X94658747Y-60653285D01*
X94658747Y-60653285D02*
X94896842Y-60653285D01*
X94896842Y-60653285D02*
X94992080Y-60700904D01*
X94992080Y-60700904D02*
X95039700Y-60748523D01*
X95039700Y-60748523D02*
X95087319Y-60843761D01*
X95087319Y-60843761D02*
X95087319Y-61081856D01*
X95087319Y-61081856D02*
X95039700Y-61177094D01*
X95039700Y-61177094D02*
X94992080Y-61224713D01*
X107367319Y-66609416D02*
X106891128Y-66942749D01*
X107367319Y-67180844D02*
X106367319Y-67180844D01*
X106367319Y-67180844D02*
X106367319Y-66799892D01*
X106367319Y-66799892D02*
X106414938Y-66704654D01*
X106414938Y-66704654D02*
X106462557Y-66657035D01*
X106462557Y-66657035D02*
X106557795Y-66609416D01*
X106557795Y-66609416D02*
X106700652Y-66609416D01*
X106700652Y-66609416D02*
X106795890Y-66657035D01*
X106795890Y-66657035D02*
X106843509Y-66704654D01*
X106843509Y-66704654D02*
X106891128Y-66799892D01*
X106891128Y-66799892D02*
X106891128Y-67180844D01*
X106795890Y-66037987D02*
X106748271Y-66133225D01*
X106748271Y-66133225D02*
X106700652Y-66180844D01*
X106700652Y-66180844D02*
X106605414Y-66228463D01*
X106605414Y-66228463D02*
X106557795Y-66228463D01*
X106557795Y-66228463D02*
X106462557Y-66180844D01*
X106462557Y-66180844D02*
X106414938Y-66133225D01*
X106414938Y-66133225D02*
X106367319Y-66037987D01*
X106367319Y-66037987D02*
X106367319Y-65847511D01*
X106367319Y-65847511D02*
X106414938Y-65752273D01*
X106414938Y-65752273D02*
X106462557Y-65704654D01*
X106462557Y-65704654D02*
X106557795Y-65657035D01*
X106557795Y-65657035D02*
X106605414Y-65657035D01*
X106605414Y-65657035D02*
X106700652Y-65704654D01*
X106700652Y-65704654D02*
X106748271Y-65752273D01*
X106748271Y-65752273D02*
X106795890Y-65847511D01*
X106795890Y-65847511D02*
X106795890Y-66037987D01*
X106795890Y-66037987D02*
X106843509Y-66133225D01*
X106843509Y-66133225D02*
X106891128Y-66180844D01*
X106891128Y-66180844D02*
X106986366Y-66228463D01*
X106986366Y-66228463D02*
X107176842Y-66228463D01*
X107176842Y-66228463D02*
X107272080Y-66180844D01*
X107272080Y-66180844D02*
X107319700Y-66133225D01*
X107319700Y-66133225D02*
X107367319Y-66037987D01*
X107367319Y-66037987D02*
X107367319Y-65847511D01*
X107367319Y-65847511D02*
X107319700Y-65752273D01*
X107319700Y-65752273D02*
X107272080Y-65704654D01*
X107272080Y-65704654D02*
X107176842Y-65657035D01*
X107176842Y-65657035D02*
X106986366Y-65657035D01*
X106986366Y-65657035D02*
X106891128Y-65704654D01*
X106891128Y-65704654D02*
X106843509Y-65752273D01*
X106843509Y-65752273D02*
X106795890Y-65847511D01*
X112569642Y-73164830D02*
X112522023Y-73212450D01*
X112522023Y-73212450D02*
X112379166Y-73260069D01*
X112379166Y-73260069D02*
X112283928Y-73260069D01*
X112283928Y-73260069D02*
X112141071Y-73212450D01*
X112141071Y-73212450D02*
X112045833Y-73117211D01*
X112045833Y-73117211D02*
X111998214Y-73021973D01*
X111998214Y-73021973D02*
X111950595Y-72831497D01*
X111950595Y-72831497D02*
X111950595Y-72688640D01*
X111950595Y-72688640D02*
X111998214Y-72498164D01*
X111998214Y-72498164D02*
X112045833Y-72402926D01*
X112045833Y-72402926D02*
X112141071Y-72307688D01*
X112141071Y-72307688D02*
X112283928Y-72260069D01*
X112283928Y-72260069D02*
X112379166Y-72260069D01*
X112379166Y-72260069D02*
X112522023Y-72307688D01*
X112522023Y-72307688D02*
X112569642Y-72355307D01*
X113522023Y-73260069D02*
X112950595Y-73260069D01*
X113236309Y-73260069D02*
X113236309Y-72260069D01*
X113236309Y-72260069D02*
X113141071Y-72402926D01*
X113141071Y-72402926D02*
X113045833Y-72498164D01*
X113045833Y-72498164D02*
X112950595Y-72545783D01*
X114379166Y-72260069D02*
X114188690Y-72260069D01*
X114188690Y-72260069D02*
X114093452Y-72307688D01*
X114093452Y-72307688D02*
X114045833Y-72355307D01*
X114045833Y-72355307D02*
X113950595Y-72498164D01*
X113950595Y-72498164D02*
X113902976Y-72688640D01*
X113902976Y-72688640D02*
X113902976Y-73069592D01*
X113902976Y-73069592D02*
X113950595Y-73164830D01*
X113950595Y-73164830D02*
X113998214Y-73212450D01*
X113998214Y-73212450D02*
X114093452Y-73260069D01*
X114093452Y-73260069D02*
X114283928Y-73260069D01*
X114283928Y-73260069D02*
X114379166Y-73212450D01*
X114379166Y-73212450D02*
X114426785Y-73164830D01*
X114426785Y-73164830D02*
X114474404Y-73069592D01*
X114474404Y-73069592D02*
X114474404Y-72831497D01*
X114474404Y-72831497D02*
X114426785Y-72736259D01*
X114426785Y-72736259D02*
X114379166Y-72688640D01*
X114379166Y-72688640D02*
X114283928Y-72641021D01*
X114283928Y-72641021D02*
X114093452Y-72641021D01*
X114093452Y-72641021D02*
X113998214Y-72688640D01*
X113998214Y-72688640D02*
X113950595Y-72736259D01*
X113950595Y-72736259D02*
X113902976Y-72831497D01*
X98681958Y-77378580D02*
X98634339Y-77426200D01*
X98634339Y-77426200D02*
X98491482Y-77473819D01*
X98491482Y-77473819D02*
X98396244Y-77473819D01*
X98396244Y-77473819D02*
X98253387Y-77426200D01*
X98253387Y-77426200D02*
X98158149Y-77330961D01*
X98158149Y-77330961D02*
X98110530Y-77235723D01*
X98110530Y-77235723D02*
X98062911Y-77045247D01*
X98062911Y-77045247D02*
X98062911Y-76902390D01*
X98062911Y-76902390D02*
X98110530Y-76711914D01*
X98110530Y-76711914D02*
X98158149Y-76616676D01*
X98158149Y-76616676D02*
X98253387Y-76521438D01*
X98253387Y-76521438D02*
X98396244Y-76473819D01*
X98396244Y-76473819D02*
X98491482Y-76473819D01*
X98491482Y-76473819D02*
X98634339Y-76521438D01*
X98634339Y-76521438D02*
X98681958Y-76569057D01*
X99586720Y-76473819D02*
X99110530Y-76473819D01*
X99110530Y-76473819D02*
X99062911Y-76950009D01*
X99062911Y-76950009D02*
X99110530Y-76902390D01*
X99110530Y-76902390D02*
X99205768Y-76854771D01*
X99205768Y-76854771D02*
X99443863Y-76854771D01*
X99443863Y-76854771D02*
X99539101Y-76902390D01*
X99539101Y-76902390D02*
X99586720Y-76950009D01*
X99586720Y-76950009D02*
X99634339Y-77045247D01*
X99634339Y-77045247D02*
X99634339Y-77283342D01*
X99634339Y-77283342D02*
X99586720Y-77378580D01*
X99586720Y-77378580D02*
X99539101Y-77426200D01*
X99539101Y-77426200D02*
X99443863Y-77473819D01*
X99443863Y-77473819D02*
X99205768Y-77473819D01*
X99205768Y-77473819D02*
X99110530Y-77426200D01*
X99110530Y-77426200D02*
X99062911Y-77378580D01*
X131072142Y-83291080D02*
X131024523Y-83338700D01*
X131024523Y-83338700D02*
X130881666Y-83386319D01*
X130881666Y-83386319D02*
X130786428Y-83386319D01*
X130786428Y-83386319D02*
X130643571Y-83338700D01*
X130643571Y-83338700D02*
X130548333Y-83243461D01*
X130548333Y-83243461D02*
X130500714Y-83148223D01*
X130500714Y-83148223D02*
X130453095Y-82957747D01*
X130453095Y-82957747D02*
X130453095Y-82814890D01*
X130453095Y-82814890D02*
X130500714Y-82624414D01*
X130500714Y-82624414D02*
X130548333Y-82529176D01*
X130548333Y-82529176D02*
X130643571Y-82433938D01*
X130643571Y-82433938D02*
X130786428Y-82386319D01*
X130786428Y-82386319D02*
X130881666Y-82386319D01*
X130881666Y-82386319D02*
X131024523Y-82433938D01*
X131024523Y-82433938D02*
X131072142Y-82481557D01*
X131453095Y-82481557D02*
X131500714Y-82433938D01*
X131500714Y-82433938D02*
X131595952Y-82386319D01*
X131595952Y-82386319D02*
X131834047Y-82386319D01*
X131834047Y-82386319D02*
X131929285Y-82433938D01*
X131929285Y-82433938D02*
X131976904Y-82481557D01*
X131976904Y-82481557D02*
X132024523Y-82576795D01*
X132024523Y-82576795D02*
X132024523Y-82672033D01*
X132024523Y-82672033D02*
X131976904Y-82814890D01*
X131976904Y-82814890D02*
X131405476Y-83386319D01*
X131405476Y-83386319D02*
X132024523Y-83386319D01*
X132929285Y-82386319D02*
X132453095Y-82386319D01*
X132453095Y-82386319D02*
X132405476Y-82862509D01*
X132405476Y-82862509D02*
X132453095Y-82814890D01*
X132453095Y-82814890D02*
X132548333Y-82767271D01*
X132548333Y-82767271D02*
X132786428Y-82767271D01*
X132786428Y-82767271D02*
X132881666Y-82814890D01*
X132881666Y-82814890D02*
X132929285Y-82862509D01*
X132929285Y-82862509D02*
X132976904Y-82957747D01*
X132976904Y-82957747D02*
X132976904Y-83195842D01*
X132976904Y-83195842D02*
X132929285Y-83291080D01*
X132929285Y-83291080D02*
X132881666Y-83338700D01*
X132881666Y-83338700D02*
X132786428Y-83386319D01*
X132786428Y-83386319D02*
X132548333Y-83386319D01*
X132548333Y-83386319D02*
X132453095Y-83338700D01*
X132453095Y-83338700D02*
X132405476Y-83291080D01*
X141988569Y-76535844D02*
X140988569Y-76535844D01*
X140988569Y-76535844D02*
X140988569Y-76297749D01*
X140988569Y-76297749D02*
X141036188Y-76154892D01*
X141036188Y-76154892D02*
X141131426Y-76059654D01*
X141131426Y-76059654D02*
X141226664Y-76012035D01*
X141226664Y-76012035D02*
X141417140Y-75964416D01*
X141417140Y-75964416D02*
X141559997Y-75964416D01*
X141559997Y-75964416D02*
X141750473Y-76012035D01*
X141750473Y-76012035D02*
X141845711Y-76059654D01*
X141845711Y-76059654D02*
X141940950Y-76154892D01*
X141940950Y-76154892D02*
X141988569Y-76297749D01*
X141988569Y-76297749D02*
X141988569Y-76535844D01*
X140988569Y-75631082D02*
X140988569Y-75012035D01*
X140988569Y-75012035D02*
X141369521Y-75345368D01*
X141369521Y-75345368D02*
X141369521Y-75202511D01*
X141369521Y-75202511D02*
X141417140Y-75107273D01*
X141417140Y-75107273D02*
X141464759Y-75059654D01*
X141464759Y-75059654D02*
X141559997Y-75012035D01*
X141559997Y-75012035D02*
X141798092Y-75012035D01*
X141798092Y-75012035D02*
X141893330Y-75059654D01*
X141893330Y-75059654D02*
X141940950Y-75107273D01*
X141940950Y-75107273D02*
X141988569Y-75202511D01*
X141988569Y-75202511D02*
X141988569Y-75488225D01*
X141988569Y-75488225D02*
X141940950Y-75583463D01*
X141940950Y-75583463D02*
X141893330Y-75631082D01*
X113144642Y-71614830D02*
X113097023Y-71662450D01*
X113097023Y-71662450D02*
X112954166Y-71710069D01*
X112954166Y-71710069D02*
X112858928Y-71710069D01*
X112858928Y-71710069D02*
X112716071Y-71662450D01*
X112716071Y-71662450D02*
X112620833Y-71567211D01*
X112620833Y-71567211D02*
X112573214Y-71471973D01*
X112573214Y-71471973D02*
X112525595Y-71281497D01*
X112525595Y-71281497D02*
X112525595Y-71138640D01*
X112525595Y-71138640D02*
X112573214Y-70948164D01*
X112573214Y-70948164D02*
X112620833Y-70852926D01*
X112620833Y-70852926D02*
X112716071Y-70757688D01*
X112716071Y-70757688D02*
X112858928Y-70710069D01*
X112858928Y-70710069D02*
X112954166Y-70710069D01*
X112954166Y-70710069D02*
X113097023Y-70757688D01*
X113097023Y-70757688D02*
X113144642Y-70805307D01*
X114097023Y-71710069D02*
X113525595Y-71710069D01*
X113811309Y-71710069D02*
X113811309Y-70710069D01*
X113811309Y-70710069D02*
X113716071Y-70852926D01*
X113716071Y-70852926D02*
X113620833Y-70948164D01*
X113620833Y-70948164D02*
X113525595Y-70995783D01*
X114430357Y-70710069D02*
X115097023Y-70710069D01*
X115097023Y-70710069D02*
X114668452Y-71710069D01*
X80113095Y-79317319D02*
X80113095Y-80126842D01*
X80113095Y-80126842D02*
X80160714Y-80222080D01*
X80160714Y-80222080D02*
X80208333Y-80269700D01*
X80208333Y-80269700D02*
X80303571Y-80317319D01*
X80303571Y-80317319D02*
X80494047Y-80317319D01*
X80494047Y-80317319D02*
X80589285Y-80269700D01*
X80589285Y-80269700D02*
X80636904Y-80222080D01*
X80636904Y-80222080D02*
X80684523Y-80126842D01*
X80684523Y-80126842D02*
X80684523Y-79317319D01*
X81684523Y-80317319D02*
X81113095Y-80317319D01*
X81398809Y-80317319D02*
X81398809Y-79317319D01*
X81398809Y-79317319D02*
X81303571Y-79460176D01*
X81303571Y-79460176D02*
X81208333Y-79555414D01*
X81208333Y-79555414D02*
X81113095Y-79603033D01*
X108642142Y-87773819D02*
X108308809Y-87297628D01*
X108070714Y-87773819D02*
X108070714Y-86773819D01*
X108070714Y-86773819D02*
X108451666Y-86773819D01*
X108451666Y-86773819D02*
X108546904Y-86821438D01*
X108546904Y-86821438D02*
X108594523Y-86869057D01*
X108594523Y-86869057D02*
X108642142Y-86964295D01*
X108642142Y-86964295D02*
X108642142Y-87107152D01*
X108642142Y-87107152D02*
X108594523Y-87202390D01*
X108594523Y-87202390D02*
X108546904Y-87250009D01*
X108546904Y-87250009D02*
X108451666Y-87297628D01*
X108451666Y-87297628D02*
X108070714Y-87297628D01*
X109594523Y-87773819D02*
X109023095Y-87773819D01*
X109308809Y-87773819D02*
X109308809Y-86773819D01*
X109308809Y-86773819D02*
X109213571Y-86916676D01*
X109213571Y-86916676D02*
X109118333Y-87011914D01*
X109118333Y-87011914D02*
X109023095Y-87059533D01*
X110213571Y-86773819D02*
X110308809Y-86773819D01*
X110308809Y-86773819D02*
X110404047Y-86821438D01*
X110404047Y-86821438D02*
X110451666Y-86869057D01*
X110451666Y-86869057D02*
X110499285Y-86964295D01*
X110499285Y-86964295D02*
X110546904Y-87154771D01*
X110546904Y-87154771D02*
X110546904Y-87392866D01*
X110546904Y-87392866D02*
X110499285Y-87583342D01*
X110499285Y-87583342D02*
X110451666Y-87678580D01*
X110451666Y-87678580D02*
X110404047Y-87726200D01*
X110404047Y-87726200D02*
X110308809Y-87773819D01*
X110308809Y-87773819D02*
X110213571Y-87773819D01*
X110213571Y-87773819D02*
X110118333Y-87726200D01*
X110118333Y-87726200D02*
X110070714Y-87678580D01*
X110070714Y-87678580D02*
X110023095Y-87583342D01*
X110023095Y-87583342D02*
X109975476Y-87392866D01*
X109975476Y-87392866D02*
X109975476Y-87154771D01*
X109975476Y-87154771D02*
X110023095Y-86964295D01*
X110023095Y-86964295D02*
X110070714Y-86869057D01*
X110070714Y-86869057D02*
X110118333Y-86821438D01*
X110118333Y-86821438D02*
X110213571Y-86773819D01*
X96346080Y-90978166D02*
X96393700Y-91025785D01*
X96393700Y-91025785D02*
X96441319Y-91168642D01*
X96441319Y-91168642D02*
X96441319Y-91263880D01*
X96441319Y-91263880D02*
X96393700Y-91406737D01*
X96393700Y-91406737D02*
X96298461Y-91501975D01*
X96298461Y-91501975D02*
X96203223Y-91549594D01*
X96203223Y-91549594D02*
X96012747Y-91597213D01*
X96012747Y-91597213D02*
X95869890Y-91597213D01*
X95869890Y-91597213D02*
X95679414Y-91549594D01*
X95679414Y-91549594D02*
X95584176Y-91501975D01*
X95584176Y-91501975D02*
X95488938Y-91406737D01*
X95488938Y-91406737D02*
X95441319Y-91263880D01*
X95441319Y-91263880D02*
X95441319Y-91168642D01*
X95441319Y-91168642D02*
X95488938Y-91025785D01*
X95488938Y-91025785D02*
X95536557Y-90978166D01*
X95774652Y-90121023D02*
X96441319Y-90121023D01*
X95393700Y-90359118D02*
X96107985Y-90597213D01*
X96107985Y-90597213D02*
X96107985Y-89978166D01*
X70286607Y-80097319D02*
X70619940Y-81097319D01*
X70619940Y-81097319D02*
X70953273Y-80097319D01*
X71286607Y-81097319D02*
X71286607Y-80430652D01*
X71286607Y-80621128D02*
X71334226Y-80525890D01*
X71334226Y-80525890D02*
X71381845Y-80478271D01*
X71381845Y-80478271D02*
X71477083Y-80430652D01*
X71477083Y-80430652D02*
X71572321Y-80430652D01*
X72286607Y-81049700D02*
X72191369Y-81097319D01*
X72191369Y-81097319D02*
X72000893Y-81097319D01*
X72000893Y-81097319D02*
X71905655Y-81049700D01*
X71905655Y-81049700D02*
X71858036Y-80954461D01*
X71858036Y-80954461D02*
X71858036Y-80573509D01*
X71858036Y-80573509D02*
X71905655Y-80478271D01*
X71905655Y-80478271D02*
X72000893Y-80430652D01*
X72000893Y-80430652D02*
X72191369Y-80430652D01*
X72191369Y-80430652D02*
X72286607Y-80478271D01*
X72286607Y-80478271D02*
X72334226Y-80573509D01*
X72334226Y-80573509D02*
X72334226Y-80668747D01*
X72334226Y-80668747D02*
X71858036Y-80763985D01*
X72619941Y-80430652D02*
X73000893Y-80430652D01*
X72762798Y-81097319D02*
X72762798Y-80240176D01*
X72762798Y-80240176D02*
X72810417Y-80144938D01*
X72810417Y-80144938D02*
X72905655Y-80097319D01*
X72905655Y-80097319D02*
X73000893Y-80097319D01*
X73667560Y-80573509D02*
X73810417Y-80621128D01*
X73810417Y-80621128D02*
X73858036Y-80668747D01*
X73858036Y-80668747D02*
X73905655Y-80763985D01*
X73905655Y-80763985D02*
X73905655Y-80906842D01*
X73905655Y-80906842D02*
X73858036Y-81002080D01*
X73858036Y-81002080D02*
X73810417Y-81049700D01*
X73810417Y-81049700D02*
X73715179Y-81097319D01*
X73715179Y-81097319D02*
X73334227Y-81097319D01*
X73334227Y-81097319D02*
X73334227Y-80097319D01*
X73334227Y-80097319D02*
X73667560Y-80097319D01*
X73667560Y-80097319D02*
X73762798Y-80144938D01*
X73762798Y-80144938D02*
X73810417Y-80192557D01*
X73810417Y-80192557D02*
X73858036Y-80287795D01*
X73858036Y-80287795D02*
X73858036Y-80383033D01*
X73858036Y-80383033D02*
X73810417Y-80478271D01*
X73810417Y-80478271D02*
X73762798Y-80525890D01*
X73762798Y-80525890D02*
X73667560Y-80573509D01*
X73667560Y-80573509D02*
X73334227Y-80573509D01*
X108122080Y-71039357D02*
X108169700Y-71086976D01*
X108169700Y-71086976D02*
X108217319Y-71229833D01*
X108217319Y-71229833D02*
X108217319Y-71325071D01*
X108217319Y-71325071D02*
X108169700Y-71467928D01*
X108169700Y-71467928D02*
X108074461Y-71563166D01*
X108074461Y-71563166D02*
X107979223Y-71610785D01*
X107979223Y-71610785D02*
X107788747Y-71658404D01*
X107788747Y-71658404D02*
X107645890Y-71658404D01*
X107645890Y-71658404D02*
X107455414Y-71610785D01*
X107455414Y-71610785D02*
X107360176Y-71563166D01*
X107360176Y-71563166D02*
X107264938Y-71467928D01*
X107264938Y-71467928D02*
X107217319Y-71325071D01*
X107217319Y-71325071D02*
X107217319Y-71229833D01*
X107217319Y-71229833D02*
X107264938Y-71086976D01*
X107264938Y-71086976D02*
X107312557Y-71039357D01*
X108217319Y-70086976D02*
X108217319Y-70658404D01*
X108217319Y-70372690D02*
X107217319Y-70372690D01*
X107217319Y-70372690D02*
X107360176Y-70467928D01*
X107360176Y-70467928D02*
X107455414Y-70563166D01*
X107455414Y-70563166D02*
X107503033Y-70658404D01*
X107217319Y-69753642D02*
X107217319Y-69134595D01*
X107217319Y-69134595D02*
X107598271Y-69467928D01*
X107598271Y-69467928D02*
X107598271Y-69325071D01*
X107598271Y-69325071D02*
X107645890Y-69229833D01*
X107645890Y-69229833D02*
X107693509Y-69182214D01*
X107693509Y-69182214D02*
X107788747Y-69134595D01*
X107788747Y-69134595D02*
X108026842Y-69134595D01*
X108026842Y-69134595D02*
X108122080Y-69182214D01*
X108122080Y-69182214D02*
X108169700Y-69229833D01*
X108169700Y-69229833D02*
X108217319Y-69325071D01*
X108217319Y-69325071D02*
X108217319Y-69610785D01*
X108217319Y-69610785D02*
X108169700Y-69706023D01*
X108169700Y-69706023D02*
X108122080Y-69753642D01*
X142517319Y-56861857D02*
X142041128Y-57195190D01*
X142517319Y-57433285D02*
X141517319Y-57433285D01*
X141517319Y-57433285D02*
X141517319Y-57052333D01*
X141517319Y-57052333D02*
X141564938Y-56957095D01*
X141564938Y-56957095D02*
X141612557Y-56909476D01*
X141612557Y-56909476D02*
X141707795Y-56861857D01*
X141707795Y-56861857D02*
X141850652Y-56861857D01*
X141850652Y-56861857D02*
X141945890Y-56909476D01*
X141945890Y-56909476D02*
X141993509Y-56957095D01*
X141993509Y-56957095D02*
X142041128Y-57052333D01*
X142041128Y-57052333D02*
X142041128Y-57433285D01*
X142517319Y-55909476D02*
X142517319Y-56480904D01*
X142517319Y-56195190D02*
X141517319Y-56195190D01*
X141517319Y-56195190D02*
X141660176Y-56290428D01*
X141660176Y-56290428D02*
X141755414Y-56385666D01*
X141755414Y-56385666D02*
X141803033Y-56480904D01*
X141517319Y-55576142D02*
X141517319Y-54957095D01*
X141517319Y-54957095D02*
X141898271Y-55290428D01*
X141898271Y-55290428D02*
X141898271Y-55147571D01*
X141898271Y-55147571D02*
X141945890Y-55052333D01*
X141945890Y-55052333D02*
X141993509Y-55004714D01*
X141993509Y-55004714D02*
X142088747Y-54957095D01*
X142088747Y-54957095D02*
X142326842Y-54957095D01*
X142326842Y-54957095D02*
X142422080Y-55004714D01*
X142422080Y-55004714D02*
X142469700Y-55052333D01*
X142469700Y-55052333D02*
X142517319Y-55147571D01*
X142517319Y-55147571D02*
X142517319Y-55433285D01*
X142517319Y-55433285D02*
X142469700Y-55528523D01*
X142469700Y-55528523D02*
X142422080Y-55576142D01*
X82703333Y-81817080D02*
X82655714Y-81864700D01*
X82655714Y-81864700D02*
X82512857Y-81912319D01*
X82512857Y-81912319D02*
X82417619Y-81912319D01*
X82417619Y-81912319D02*
X82274762Y-81864700D01*
X82274762Y-81864700D02*
X82179524Y-81769461D01*
X82179524Y-81769461D02*
X82131905Y-81674223D01*
X82131905Y-81674223D02*
X82084286Y-81483747D01*
X82084286Y-81483747D02*
X82084286Y-81340890D01*
X82084286Y-81340890D02*
X82131905Y-81150414D01*
X82131905Y-81150414D02*
X82179524Y-81055176D01*
X82179524Y-81055176D02*
X82274762Y-80959938D01*
X82274762Y-80959938D02*
X82417619Y-80912319D01*
X82417619Y-80912319D02*
X82512857Y-80912319D01*
X82512857Y-80912319D02*
X82655714Y-80959938D01*
X82655714Y-80959938D02*
X82703333Y-81007557D01*
X83084286Y-81007557D02*
X83131905Y-80959938D01*
X83131905Y-80959938D02*
X83227143Y-80912319D01*
X83227143Y-80912319D02*
X83465238Y-80912319D01*
X83465238Y-80912319D02*
X83560476Y-80959938D01*
X83560476Y-80959938D02*
X83608095Y-81007557D01*
X83608095Y-81007557D02*
X83655714Y-81102795D01*
X83655714Y-81102795D02*
X83655714Y-81198033D01*
X83655714Y-81198033D02*
X83608095Y-81340890D01*
X83608095Y-81340890D02*
X83036667Y-81912319D01*
X83036667Y-81912319D02*
X83655714Y-81912319D01*
X118437319Y-90459404D02*
X119246842Y-90459404D01*
X119246842Y-90459404D02*
X119342080Y-90411785D01*
X119342080Y-90411785D02*
X119389700Y-90364166D01*
X119389700Y-90364166D02*
X119437319Y-90268928D01*
X119437319Y-90268928D02*
X119437319Y-90078452D01*
X119437319Y-90078452D02*
X119389700Y-89983214D01*
X119389700Y-89983214D02*
X119342080Y-89935595D01*
X119342080Y-89935595D02*
X119246842Y-89887976D01*
X119246842Y-89887976D02*
X118437319Y-89887976D01*
X118437319Y-89507023D02*
X118437319Y-88840357D01*
X118437319Y-88840357D02*
X119437319Y-89268928D01*
X96299580Y-88748166D02*
X96347200Y-88795785D01*
X96347200Y-88795785D02*
X96394819Y-88938642D01*
X96394819Y-88938642D02*
X96394819Y-89033880D01*
X96394819Y-89033880D02*
X96347200Y-89176737D01*
X96347200Y-89176737D02*
X96251961Y-89271975D01*
X96251961Y-89271975D02*
X96156723Y-89319594D01*
X96156723Y-89319594D02*
X95966247Y-89367213D01*
X95966247Y-89367213D02*
X95823390Y-89367213D01*
X95823390Y-89367213D02*
X95632914Y-89319594D01*
X95632914Y-89319594D02*
X95537676Y-89271975D01*
X95537676Y-89271975D02*
X95442438Y-89176737D01*
X95442438Y-89176737D02*
X95394819Y-89033880D01*
X95394819Y-89033880D02*
X95394819Y-88938642D01*
X95394819Y-88938642D02*
X95442438Y-88795785D01*
X95442438Y-88795785D02*
X95490057Y-88748166D01*
X95394819Y-88414832D02*
X95394819Y-87795785D01*
X95394819Y-87795785D02*
X95775771Y-88129118D01*
X95775771Y-88129118D02*
X95775771Y-87986261D01*
X95775771Y-87986261D02*
X95823390Y-87891023D01*
X95823390Y-87891023D02*
X95871009Y-87843404D01*
X95871009Y-87843404D02*
X95966247Y-87795785D01*
X95966247Y-87795785D02*
X96204342Y-87795785D01*
X96204342Y-87795785D02*
X96299580Y-87843404D01*
X96299580Y-87843404D02*
X96347200Y-87891023D01*
X96347200Y-87891023D02*
X96394819Y-87986261D01*
X96394819Y-87986261D02*
X96394819Y-88271975D01*
X96394819Y-88271975D02*
X96347200Y-88367213D01*
X96347200Y-88367213D02*
X96299580Y-88414832D01*
X103672080Y-52715666D02*
X103719700Y-52763285D01*
X103719700Y-52763285D02*
X103767319Y-52906142D01*
X103767319Y-52906142D02*
X103767319Y-53001380D01*
X103767319Y-53001380D02*
X103719700Y-53144237D01*
X103719700Y-53144237D02*
X103624461Y-53239475D01*
X103624461Y-53239475D02*
X103529223Y-53287094D01*
X103529223Y-53287094D02*
X103338747Y-53334713D01*
X103338747Y-53334713D02*
X103195890Y-53334713D01*
X103195890Y-53334713D02*
X103005414Y-53287094D01*
X103005414Y-53287094D02*
X102910176Y-53239475D01*
X102910176Y-53239475D02*
X102814938Y-53144237D01*
X102814938Y-53144237D02*
X102767319Y-53001380D01*
X102767319Y-53001380D02*
X102767319Y-52906142D01*
X102767319Y-52906142D02*
X102814938Y-52763285D01*
X102814938Y-52763285D02*
X102862557Y-52715666D01*
X103195890Y-52144237D02*
X103148271Y-52239475D01*
X103148271Y-52239475D02*
X103100652Y-52287094D01*
X103100652Y-52287094D02*
X103005414Y-52334713D01*
X103005414Y-52334713D02*
X102957795Y-52334713D01*
X102957795Y-52334713D02*
X102862557Y-52287094D01*
X102862557Y-52287094D02*
X102814938Y-52239475D01*
X102814938Y-52239475D02*
X102767319Y-52144237D01*
X102767319Y-52144237D02*
X102767319Y-51953761D01*
X102767319Y-51953761D02*
X102814938Y-51858523D01*
X102814938Y-51858523D02*
X102862557Y-51810904D01*
X102862557Y-51810904D02*
X102957795Y-51763285D01*
X102957795Y-51763285D02*
X103005414Y-51763285D01*
X103005414Y-51763285D02*
X103100652Y-51810904D01*
X103100652Y-51810904D02*
X103148271Y-51858523D01*
X103148271Y-51858523D02*
X103195890Y-51953761D01*
X103195890Y-51953761D02*
X103195890Y-52144237D01*
X103195890Y-52144237D02*
X103243509Y-52239475D01*
X103243509Y-52239475D02*
X103291128Y-52287094D01*
X103291128Y-52287094D02*
X103386366Y-52334713D01*
X103386366Y-52334713D02*
X103576842Y-52334713D01*
X103576842Y-52334713D02*
X103672080Y-52287094D01*
X103672080Y-52287094D02*
X103719700Y-52239475D01*
X103719700Y-52239475D02*
X103767319Y-52144237D01*
X103767319Y-52144237D02*
X103767319Y-51953761D01*
X103767319Y-51953761D02*
X103719700Y-51858523D01*
X103719700Y-51858523D02*
X103672080Y-51810904D01*
X103672080Y-51810904D02*
X103576842Y-51763285D01*
X103576842Y-51763285D02*
X103386366Y-51763285D01*
X103386366Y-51763285D02*
X103291128Y-51810904D01*
X103291128Y-51810904D02*
X103243509Y-51858523D01*
X103243509Y-51858523D02*
X103195890Y-51953761D01*
X113544580Y-92125357D02*
X113592200Y-92172976D01*
X113592200Y-92172976D02*
X113639819Y-92315833D01*
X113639819Y-92315833D02*
X113639819Y-92411071D01*
X113639819Y-92411071D02*
X113592200Y-92553928D01*
X113592200Y-92553928D02*
X113496961Y-92649166D01*
X113496961Y-92649166D02*
X113401723Y-92696785D01*
X113401723Y-92696785D02*
X113211247Y-92744404D01*
X113211247Y-92744404D02*
X113068390Y-92744404D01*
X113068390Y-92744404D02*
X112877914Y-92696785D01*
X112877914Y-92696785D02*
X112782676Y-92649166D01*
X112782676Y-92649166D02*
X112687438Y-92553928D01*
X112687438Y-92553928D02*
X112639819Y-92411071D01*
X112639819Y-92411071D02*
X112639819Y-92315833D01*
X112639819Y-92315833D02*
X112687438Y-92172976D01*
X112687438Y-92172976D02*
X112735057Y-92125357D01*
X113639819Y-91172976D02*
X113639819Y-91744404D01*
X113639819Y-91458690D02*
X112639819Y-91458690D01*
X112639819Y-91458690D02*
X112782676Y-91553928D01*
X112782676Y-91553928D02*
X112877914Y-91649166D01*
X112877914Y-91649166D02*
X112925533Y-91744404D01*
X113068390Y-90601547D02*
X113020771Y-90696785D01*
X113020771Y-90696785D02*
X112973152Y-90744404D01*
X112973152Y-90744404D02*
X112877914Y-90792023D01*
X112877914Y-90792023D02*
X112830295Y-90792023D01*
X112830295Y-90792023D02*
X112735057Y-90744404D01*
X112735057Y-90744404D02*
X112687438Y-90696785D01*
X112687438Y-90696785D02*
X112639819Y-90601547D01*
X112639819Y-90601547D02*
X112639819Y-90411071D01*
X112639819Y-90411071D02*
X112687438Y-90315833D01*
X112687438Y-90315833D02*
X112735057Y-90268214D01*
X112735057Y-90268214D02*
X112830295Y-90220595D01*
X112830295Y-90220595D02*
X112877914Y-90220595D01*
X112877914Y-90220595D02*
X112973152Y-90268214D01*
X112973152Y-90268214D02*
X113020771Y-90315833D01*
X113020771Y-90315833D02*
X113068390Y-90411071D01*
X113068390Y-90411071D02*
X113068390Y-90601547D01*
X113068390Y-90601547D02*
X113116009Y-90696785D01*
X113116009Y-90696785D02*
X113163628Y-90744404D01*
X113163628Y-90744404D02*
X113258866Y-90792023D01*
X113258866Y-90792023D02*
X113449342Y-90792023D01*
X113449342Y-90792023D02*
X113544580Y-90744404D01*
X113544580Y-90744404D02*
X113592200Y-90696785D01*
X113592200Y-90696785D02*
X113639819Y-90601547D01*
X113639819Y-90601547D02*
X113639819Y-90411071D01*
X113639819Y-90411071D02*
X113592200Y-90315833D01*
X113592200Y-90315833D02*
X113544580Y-90268214D01*
X113544580Y-90268214D02*
X113449342Y-90220595D01*
X113449342Y-90220595D02*
X113258866Y-90220595D01*
X113258866Y-90220595D02*
X113163628Y-90268214D01*
X113163628Y-90268214D02*
X113116009Y-90315833D01*
X113116009Y-90315833D02*
X113068390Y-90411071D01*
X145917319Y-56861857D02*
X145441128Y-57195190D01*
X145917319Y-57433285D02*
X144917319Y-57433285D01*
X144917319Y-57433285D02*
X144917319Y-57052333D01*
X144917319Y-57052333D02*
X144964938Y-56957095D01*
X144964938Y-56957095D02*
X145012557Y-56909476D01*
X145012557Y-56909476D02*
X145107795Y-56861857D01*
X145107795Y-56861857D02*
X145250652Y-56861857D01*
X145250652Y-56861857D02*
X145345890Y-56909476D01*
X145345890Y-56909476D02*
X145393509Y-56957095D01*
X145393509Y-56957095D02*
X145441128Y-57052333D01*
X145441128Y-57052333D02*
X145441128Y-57433285D01*
X145917319Y-55909476D02*
X145917319Y-56480904D01*
X145917319Y-56195190D02*
X144917319Y-56195190D01*
X144917319Y-56195190D02*
X145060176Y-56290428D01*
X145060176Y-56290428D02*
X145155414Y-56385666D01*
X145155414Y-56385666D02*
X145203033Y-56480904D01*
X145250652Y-55052333D02*
X145917319Y-55052333D01*
X144869700Y-55290428D02*
X145583985Y-55528523D01*
X145583985Y-55528523D02*
X145583985Y-54909476D01*
X113655833Y-69510069D02*
X113179643Y-69510069D01*
X113179643Y-69510069D02*
X113179643Y-68510069D01*
X114512976Y-69510069D02*
X113941548Y-69510069D01*
X114227262Y-69510069D02*
X114227262Y-68510069D01*
X114227262Y-68510069D02*
X114132024Y-68652926D01*
X114132024Y-68652926D02*
X114036786Y-68748164D01*
X114036786Y-68748164D02*
X113941548Y-68795783D01*
X115309707Y-75943580D02*
X115262088Y-75991200D01*
X115262088Y-75991200D02*
X115119231Y-76038819D01*
X115119231Y-76038819D02*
X115023993Y-76038819D01*
X115023993Y-76038819D02*
X114881136Y-75991200D01*
X114881136Y-75991200D02*
X114785898Y-75895961D01*
X114785898Y-75895961D02*
X114738279Y-75800723D01*
X114738279Y-75800723D02*
X114690660Y-75610247D01*
X114690660Y-75610247D02*
X114690660Y-75467390D01*
X114690660Y-75467390D02*
X114738279Y-75276914D01*
X114738279Y-75276914D02*
X114785898Y-75181676D01*
X114785898Y-75181676D02*
X114881136Y-75086438D01*
X114881136Y-75086438D02*
X115023993Y-75038819D01*
X115023993Y-75038819D02*
X115119231Y-75038819D01*
X115119231Y-75038819D02*
X115262088Y-75086438D01*
X115262088Y-75086438D02*
X115309707Y-75134057D01*
X116262088Y-76038819D02*
X115690660Y-76038819D01*
X115976374Y-76038819D02*
X115976374Y-75038819D01*
X115976374Y-75038819D02*
X115881136Y-75181676D01*
X115881136Y-75181676D02*
X115785898Y-75276914D01*
X115785898Y-75276914D02*
X115690660Y-75324533D01*
X116738279Y-76038819D02*
X116928755Y-76038819D01*
X116928755Y-76038819D02*
X117023993Y-75991200D01*
X117023993Y-75991200D02*
X117071612Y-75943580D01*
X117071612Y-75943580D02*
X117166850Y-75800723D01*
X117166850Y-75800723D02*
X117214469Y-75610247D01*
X117214469Y-75610247D02*
X117214469Y-75229295D01*
X117214469Y-75229295D02*
X117166850Y-75134057D01*
X117166850Y-75134057D02*
X117119231Y-75086438D01*
X117119231Y-75086438D02*
X117023993Y-75038819D01*
X117023993Y-75038819D02*
X116833517Y-75038819D01*
X116833517Y-75038819D02*
X116738279Y-75086438D01*
X116738279Y-75086438D02*
X116690660Y-75134057D01*
X116690660Y-75134057D02*
X116643041Y-75229295D01*
X116643041Y-75229295D02*
X116643041Y-75467390D01*
X116643041Y-75467390D02*
X116690660Y-75562628D01*
X116690660Y-75562628D02*
X116738279Y-75610247D01*
X116738279Y-75610247D02*
X116833517Y-75657866D01*
X116833517Y-75657866D02*
X117023993Y-75657866D01*
X117023993Y-75657866D02*
X117119231Y-75610247D01*
X117119231Y-75610247D02*
X117166850Y-75562628D01*
X117166850Y-75562628D02*
X117214469Y-75467390D01*
X98681958Y-79378580D02*
X98634339Y-79426200D01*
X98634339Y-79426200D02*
X98491482Y-79473819D01*
X98491482Y-79473819D02*
X98396244Y-79473819D01*
X98396244Y-79473819D02*
X98253387Y-79426200D01*
X98253387Y-79426200D02*
X98158149Y-79330961D01*
X98158149Y-79330961D02*
X98110530Y-79235723D01*
X98110530Y-79235723D02*
X98062911Y-79045247D01*
X98062911Y-79045247D02*
X98062911Y-78902390D01*
X98062911Y-78902390D02*
X98110530Y-78711914D01*
X98110530Y-78711914D02*
X98158149Y-78616676D01*
X98158149Y-78616676D02*
X98253387Y-78521438D01*
X98253387Y-78521438D02*
X98396244Y-78473819D01*
X98396244Y-78473819D02*
X98491482Y-78473819D01*
X98491482Y-78473819D02*
X98634339Y-78521438D01*
X98634339Y-78521438D02*
X98681958Y-78569057D01*
X99539101Y-78473819D02*
X99348625Y-78473819D01*
X99348625Y-78473819D02*
X99253387Y-78521438D01*
X99253387Y-78521438D02*
X99205768Y-78569057D01*
X99205768Y-78569057D02*
X99110530Y-78711914D01*
X99110530Y-78711914D02*
X99062911Y-78902390D01*
X99062911Y-78902390D02*
X99062911Y-79283342D01*
X99062911Y-79283342D02*
X99110530Y-79378580D01*
X99110530Y-79378580D02*
X99158149Y-79426200D01*
X99158149Y-79426200D02*
X99253387Y-79473819D01*
X99253387Y-79473819D02*
X99443863Y-79473819D01*
X99443863Y-79473819D02*
X99539101Y-79426200D01*
X99539101Y-79426200D02*
X99586720Y-79378580D01*
X99586720Y-79378580D02*
X99634339Y-79283342D01*
X99634339Y-79283342D02*
X99634339Y-79045247D01*
X99634339Y-79045247D02*
X99586720Y-78950009D01*
X99586720Y-78950009D02*
X99539101Y-78902390D01*
X99539101Y-78902390D02*
X99443863Y-78854771D01*
X99443863Y-78854771D02*
X99253387Y-78854771D01*
X99253387Y-78854771D02*
X99158149Y-78902390D01*
X99158149Y-78902390D02*
X99110530Y-78950009D01*
X99110530Y-78950009D02*
X99062911Y-79045247D01*
X105322080Y-71098857D02*
X105369700Y-71146476D01*
X105369700Y-71146476D02*
X105417319Y-71289333D01*
X105417319Y-71289333D02*
X105417319Y-71384571D01*
X105417319Y-71384571D02*
X105369700Y-71527428D01*
X105369700Y-71527428D02*
X105274461Y-71622666D01*
X105274461Y-71622666D02*
X105179223Y-71670285D01*
X105179223Y-71670285D02*
X104988747Y-71717904D01*
X104988747Y-71717904D02*
X104845890Y-71717904D01*
X104845890Y-71717904D02*
X104655414Y-71670285D01*
X104655414Y-71670285D02*
X104560176Y-71622666D01*
X104560176Y-71622666D02*
X104464938Y-71527428D01*
X104464938Y-71527428D02*
X104417319Y-71384571D01*
X104417319Y-71384571D02*
X104417319Y-71289333D01*
X104417319Y-71289333D02*
X104464938Y-71146476D01*
X104464938Y-71146476D02*
X104512557Y-71098857D01*
X105417319Y-70146476D02*
X105417319Y-70717904D01*
X105417319Y-70432190D02*
X104417319Y-70432190D01*
X104417319Y-70432190D02*
X104560176Y-70527428D01*
X104560176Y-70527428D02*
X104655414Y-70622666D01*
X104655414Y-70622666D02*
X104703033Y-70717904D01*
X105417319Y-69194095D02*
X105417319Y-69765523D01*
X105417319Y-69479809D02*
X104417319Y-69479809D01*
X104417319Y-69479809D02*
X104560176Y-69575047D01*
X104560176Y-69575047D02*
X104655414Y-69670285D01*
X104655414Y-69670285D02*
X104703033Y-69765523D01*
X118190080Y-87957857D02*
X118237700Y-88005476D01*
X118237700Y-88005476D02*
X118285319Y-88148333D01*
X118285319Y-88148333D02*
X118285319Y-88243571D01*
X118285319Y-88243571D02*
X118237700Y-88386428D01*
X118237700Y-88386428D02*
X118142461Y-88481666D01*
X118142461Y-88481666D02*
X118047223Y-88529285D01*
X118047223Y-88529285D02*
X117856747Y-88576904D01*
X117856747Y-88576904D02*
X117713890Y-88576904D01*
X117713890Y-88576904D02*
X117523414Y-88529285D01*
X117523414Y-88529285D02*
X117428176Y-88481666D01*
X117428176Y-88481666D02*
X117332938Y-88386428D01*
X117332938Y-88386428D02*
X117285319Y-88243571D01*
X117285319Y-88243571D02*
X117285319Y-88148333D01*
X117285319Y-88148333D02*
X117332938Y-88005476D01*
X117332938Y-88005476D02*
X117380557Y-87957857D01*
X117380557Y-87576904D02*
X117332938Y-87529285D01*
X117332938Y-87529285D02*
X117285319Y-87434047D01*
X117285319Y-87434047D02*
X117285319Y-87195952D01*
X117285319Y-87195952D02*
X117332938Y-87100714D01*
X117332938Y-87100714D02*
X117380557Y-87053095D01*
X117380557Y-87053095D02*
X117475795Y-87005476D01*
X117475795Y-87005476D02*
X117571033Y-87005476D01*
X117571033Y-87005476D02*
X117713890Y-87053095D01*
X117713890Y-87053095D02*
X118285319Y-87624523D01*
X118285319Y-87624523D02*
X118285319Y-87005476D01*
X117285319Y-86672142D02*
X117285319Y-86053095D01*
X117285319Y-86053095D02*
X117666271Y-86386428D01*
X117666271Y-86386428D02*
X117666271Y-86243571D01*
X117666271Y-86243571D02*
X117713890Y-86148333D01*
X117713890Y-86148333D02*
X117761509Y-86100714D01*
X117761509Y-86100714D02*
X117856747Y-86053095D01*
X117856747Y-86053095D02*
X118094842Y-86053095D01*
X118094842Y-86053095D02*
X118190080Y-86100714D01*
X118190080Y-86100714D02*
X118237700Y-86148333D01*
X118237700Y-86148333D02*
X118285319Y-86243571D01*
X118285319Y-86243571D02*
X118285319Y-86529285D01*
X118285319Y-86529285D02*
X118237700Y-86624523D01*
X118237700Y-86624523D02*
X118190080Y-86672142D01*
X106212080Y-88661857D02*
X106259700Y-88709476D01*
X106259700Y-88709476D02*
X106307319Y-88852333D01*
X106307319Y-88852333D02*
X106307319Y-88947571D01*
X106307319Y-88947571D02*
X106259700Y-89090428D01*
X106259700Y-89090428D02*
X106164461Y-89185666D01*
X106164461Y-89185666D02*
X106069223Y-89233285D01*
X106069223Y-89233285D02*
X105878747Y-89280904D01*
X105878747Y-89280904D02*
X105735890Y-89280904D01*
X105735890Y-89280904D02*
X105545414Y-89233285D01*
X105545414Y-89233285D02*
X105450176Y-89185666D01*
X105450176Y-89185666D02*
X105354938Y-89090428D01*
X105354938Y-89090428D02*
X105307319Y-88947571D01*
X105307319Y-88947571D02*
X105307319Y-88852333D01*
X105307319Y-88852333D02*
X105354938Y-88709476D01*
X105354938Y-88709476D02*
X105402557Y-88661857D01*
X106307319Y-87709476D02*
X106307319Y-88280904D01*
X106307319Y-87995190D02*
X105307319Y-87995190D01*
X105307319Y-87995190D02*
X105450176Y-88090428D01*
X105450176Y-88090428D02*
X105545414Y-88185666D01*
X105545414Y-88185666D02*
X105593033Y-88280904D01*
X105402557Y-87328523D02*
X105354938Y-87280904D01*
X105354938Y-87280904D02*
X105307319Y-87185666D01*
X105307319Y-87185666D02*
X105307319Y-86947571D01*
X105307319Y-86947571D02*
X105354938Y-86852333D01*
X105354938Y-86852333D02*
X105402557Y-86804714D01*
X105402557Y-86804714D02*
X105497795Y-86757095D01*
X105497795Y-86757095D02*
X105593033Y-86757095D01*
X105593033Y-86757095D02*
X105735890Y-86804714D01*
X105735890Y-86804714D02*
X106307319Y-87376142D01*
X106307319Y-87376142D02*
X106307319Y-86757095D01*
X145567319Y-52757094D02*
X144567319Y-52757094D01*
X144567319Y-52757094D02*
X144567319Y-52518999D01*
X144567319Y-52518999D02*
X144614938Y-52376142D01*
X144614938Y-52376142D02*
X144710176Y-52280904D01*
X144710176Y-52280904D02*
X144805414Y-52233285D01*
X144805414Y-52233285D02*
X144995890Y-52185666D01*
X144995890Y-52185666D02*
X145138747Y-52185666D01*
X145138747Y-52185666D02*
X145329223Y-52233285D01*
X145329223Y-52233285D02*
X145424461Y-52280904D01*
X145424461Y-52280904D02*
X145519700Y-52376142D01*
X145519700Y-52376142D02*
X145567319Y-52518999D01*
X145567319Y-52518999D02*
X145567319Y-52757094D01*
X144900652Y-51328523D02*
X145567319Y-51328523D01*
X144519700Y-51566618D02*
X145233985Y-51804713D01*
X145233985Y-51804713D02*
X145233985Y-51185666D01*
X77899319Y-97420594D02*
X76899319Y-97420594D01*
X76899319Y-97420594D02*
X76899319Y-97182499D01*
X76899319Y-97182499D02*
X76946938Y-97039642D01*
X76946938Y-97039642D02*
X77042176Y-96944404D01*
X77042176Y-96944404D02*
X77137414Y-96896785D01*
X77137414Y-96896785D02*
X77327890Y-96849166D01*
X77327890Y-96849166D02*
X77470747Y-96849166D01*
X77470747Y-96849166D02*
X77661223Y-96896785D01*
X77661223Y-96896785D02*
X77756461Y-96944404D01*
X77756461Y-96944404D02*
X77851700Y-97039642D01*
X77851700Y-97039642D02*
X77899319Y-97182499D01*
X77899319Y-97182499D02*
X77899319Y-97420594D01*
X77899319Y-95896785D02*
X77899319Y-96468213D01*
X77899319Y-96182499D02*
X76899319Y-96182499D01*
X76899319Y-96182499D02*
X77042176Y-96277737D01*
X77042176Y-96277737D02*
X77137414Y-96372975D01*
X77137414Y-96372975D02*
X77185033Y-96468213D01*
X73515833Y-76370830D02*
X73468214Y-76418450D01*
X73468214Y-76418450D02*
X73325357Y-76466069D01*
X73325357Y-76466069D02*
X73230119Y-76466069D01*
X73230119Y-76466069D02*
X73087262Y-76418450D01*
X73087262Y-76418450D02*
X72992024Y-76323211D01*
X72992024Y-76323211D02*
X72944405Y-76227973D01*
X72944405Y-76227973D02*
X72896786Y-76037497D01*
X72896786Y-76037497D02*
X72896786Y-75894640D01*
X72896786Y-75894640D02*
X72944405Y-75704164D01*
X72944405Y-75704164D02*
X72992024Y-75608926D01*
X72992024Y-75608926D02*
X73087262Y-75513688D01*
X73087262Y-75513688D02*
X73230119Y-75466069D01*
X73230119Y-75466069D02*
X73325357Y-75466069D01*
X73325357Y-75466069D02*
X73468214Y-75513688D01*
X73468214Y-75513688D02*
X73515833Y-75561307D01*
X74468214Y-76466069D02*
X73896786Y-76466069D01*
X74182500Y-76466069D02*
X74182500Y-75466069D01*
X74182500Y-75466069D02*
X74087262Y-75608926D01*
X74087262Y-75608926D02*
X73992024Y-75704164D01*
X73992024Y-75704164D02*
X73896786Y-75751783D01*
X140147142Y-83291080D02*
X140099523Y-83338700D01*
X140099523Y-83338700D02*
X139956666Y-83386319D01*
X139956666Y-83386319D02*
X139861428Y-83386319D01*
X139861428Y-83386319D02*
X139718571Y-83338700D01*
X139718571Y-83338700D02*
X139623333Y-83243461D01*
X139623333Y-83243461D02*
X139575714Y-83148223D01*
X139575714Y-83148223D02*
X139528095Y-82957747D01*
X139528095Y-82957747D02*
X139528095Y-82814890D01*
X139528095Y-82814890D02*
X139575714Y-82624414D01*
X139575714Y-82624414D02*
X139623333Y-82529176D01*
X139623333Y-82529176D02*
X139718571Y-82433938D01*
X139718571Y-82433938D02*
X139861428Y-82386319D01*
X139861428Y-82386319D02*
X139956666Y-82386319D01*
X139956666Y-82386319D02*
X140099523Y-82433938D01*
X140099523Y-82433938D02*
X140147142Y-82481557D01*
X140528095Y-82481557D02*
X140575714Y-82433938D01*
X140575714Y-82433938D02*
X140670952Y-82386319D01*
X140670952Y-82386319D02*
X140909047Y-82386319D01*
X140909047Y-82386319D02*
X141004285Y-82433938D01*
X141004285Y-82433938D02*
X141051904Y-82481557D01*
X141051904Y-82481557D02*
X141099523Y-82576795D01*
X141099523Y-82576795D02*
X141099523Y-82672033D01*
X141099523Y-82672033D02*
X141051904Y-82814890D01*
X141051904Y-82814890D02*
X140480476Y-83386319D01*
X140480476Y-83386319D02*
X141099523Y-83386319D01*
X141956666Y-82386319D02*
X141766190Y-82386319D01*
X141766190Y-82386319D02*
X141670952Y-82433938D01*
X141670952Y-82433938D02*
X141623333Y-82481557D01*
X141623333Y-82481557D02*
X141528095Y-82624414D01*
X141528095Y-82624414D02*
X141480476Y-82814890D01*
X141480476Y-82814890D02*
X141480476Y-83195842D01*
X141480476Y-83195842D02*
X141528095Y-83291080D01*
X141528095Y-83291080D02*
X141575714Y-83338700D01*
X141575714Y-83338700D02*
X141670952Y-83386319D01*
X141670952Y-83386319D02*
X141861428Y-83386319D01*
X141861428Y-83386319D02*
X141956666Y-83338700D01*
X141956666Y-83338700D02*
X142004285Y-83291080D01*
X142004285Y-83291080D02*
X142051904Y-83195842D01*
X142051904Y-83195842D02*
X142051904Y-82957747D01*
X142051904Y-82957747D02*
X142004285Y-82862509D01*
X142004285Y-82862509D02*
X141956666Y-82814890D01*
X141956666Y-82814890D02*
X141861428Y-82767271D01*
X141861428Y-82767271D02*
X141670952Y-82767271D01*
X141670952Y-82767271D02*
X141575714Y-82814890D01*
X141575714Y-82814890D02*
X141528095Y-82862509D01*
X141528095Y-82862509D02*
X141480476Y-82957747D01*
X148967319Y-52757094D02*
X147967319Y-52757094D01*
X147967319Y-52757094D02*
X147967319Y-52518999D01*
X147967319Y-52518999D02*
X148014938Y-52376142D01*
X148014938Y-52376142D02*
X148110176Y-52280904D01*
X148110176Y-52280904D02*
X148205414Y-52233285D01*
X148205414Y-52233285D02*
X148395890Y-52185666D01*
X148395890Y-52185666D02*
X148538747Y-52185666D01*
X148538747Y-52185666D02*
X148729223Y-52233285D01*
X148729223Y-52233285D02*
X148824461Y-52280904D01*
X148824461Y-52280904D02*
X148919700Y-52376142D01*
X148919700Y-52376142D02*
X148967319Y-52518999D01*
X148967319Y-52518999D02*
X148967319Y-52757094D01*
X147967319Y-51280904D02*
X147967319Y-51757094D01*
X147967319Y-51757094D02*
X148443509Y-51804713D01*
X148443509Y-51804713D02*
X148395890Y-51757094D01*
X148395890Y-51757094D02*
X148348271Y-51661856D01*
X148348271Y-51661856D02*
X148348271Y-51423761D01*
X148348271Y-51423761D02*
X148395890Y-51328523D01*
X148395890Y-51328523D02*
X148443509Y-51280904D01*
X148443509Y-51280904D02*
X148538747Y-51233285D01*
X148538747Y-51233285D02*
X148776842Y-51233285D01*
X148776842Y-51233285D02*
X148872080Y-51280904D01*
X148872080Y-51280904D02*
X148919700Y-51328523D01*
X148919700Y-51328523D02*
X148967319Y-51423761D01*
X148967319Y-51423761D02*
X148967319Y-51661856D01*
X148967319Y-51661856D02*
X148919700Y-51757094D01*
X148919700Y-51757094D02*
X148872080Y-51804713D01*
X115309707Y-80340580D02*
X115262088Y-80388200D01*
X115262088Y-80388200D02*
X115119231Y-80435819D01*
X115119231Y-80435819D02*
X115023993Y-80435819D01*
X115023993Y-80435819D02*
X114881136Y-80388200D01*
X114881136Y-80388200D02*
X114785898Y-80292961D01*
X114785898Y-80292961D02*
X114738279Y-80197723D01*
X114738279Y-80197723D02*
X114690660Y-80007247D01*
X114690660Y-80007247D02*
X114690660Y-79864390D01*
X114690660Y-79864390D02*
X114738279Y-79673914D01*
X114738279Y-79673914D02*
X114785898Y-79578676D01*
X114785898Y-79578676D02*
X114881136Y-79483438D01*
X114881136Y-79483438D02*
X115023993Y-79435819D01*
X115023993Y-79435819D02*
X115119231Y-79435819D01*
X115119231Y-79435819D02*
X115262088Y-79483438D01*
X115262088Y-79483438D02*
X115309707Y-79531057D01*
X115690660Y-79531057D02*
X115738279Y-79483438D01*
X115738279Y-79483438D02*
X115833517Y-79435819D01*
X115833517Y-79435819D02*
X116071612Y-79435819D01*
X116071612Y-79435819D02*
X116166850Y-79483438D01*
X116166850Y-79483438D02*
X116214469Y-79531057D01*
X116214469Y-79531057D02*
X116262088Y-79626295D01*
X116262088Y-79626295D02*
X116262088Y-79721533D01*
X116262088Y-79721533D02*
X116214469Y-79864390D01*
X116214469Y-79864390D02*
X115643041Y-80435819D01*
X115643041Y-80435819D02*
X116262088Y-80435819D01*
X117214469Y-80435819D02*
X116643041Y-80435819D01*
X116928755Y-80435819D02*
X116928755Y-79435819D01*
X116928755Y-79435819D02*
X116833517Y-79578676D01*
X116833517Y-79578676D02*
X116738279Y-79673914D01*
X116738279Y-79673914D02*
X116643041Y-79721533D01*
X130057319Y-78330904D02*
X130866842Y-78330904D01*
X130866842Y-78330904D02*
X130962080Y-78283285D01*
X130962080Y-78283285D02*
X131009700Y-78235666D01*
X131009700Y-78235666D02*
X131057319Y-78140428D01*
X131057319Y-78140428D02*
X131057319Y-77949952D01*
X131057319Y-77949952D02*
X131009700Y-77854714D01*
X131009700Y-77854714D02*
X130962080Y-77807095D01*
X130962080Y-77807095D02*
X130866842Y-77759476D01*
X130866842Y-77759476D02*
X130057319Y-77759476D01*
X130485890Y-77140428D02*
X130438271Y-77235666D01*
X130438271Y-77235666D02*
X130390652Y-77283285D01*
X130390652Y-77283285D02*
X130295414Y-77330904D01*
X130295414Y-77330904D02*
X130247795Y-77330904D01*
X130247795Y-77330904D02*
X130152557Y-77283285D01*
X130152557Y-77283285D02*
X130104938Y-77235666D01*
X130104938Y-77235666D02*
X130057319Y-77140428D01*
X130057319Y-77140428D02*
X130057319Y-76949952D01*
X130057319Y-76949952D02*
X130104938Y-76854714D01*
X130104938Y-76854714D02*
X130152557Y-76807095D01*
X130152557Y-76807095D02*
X130247795Y-76759476D01*
X130247795Y-76759476D02*
X130295414Y-76759476D01*
X130295414Y-76759476D02*
X130390652Y-76807095D01*
X130390652Y-76807095D02*
X130438271Y-76854714D01*
X130438271Y-76854714D02*
X130485890Y-76949952D01*
X130485890Y-76949952D02*
X130485890Y-77140428D01*
X130485890Y-77140428D02*
X130533509Y-77235666D01*
X130533509Y-77235666D02*
X130581128Y-77283285D01*
X130581128Y-77283285D02*
X130676366Y-77330904D01*
X130676366Y-77330904D02*
X130866842Y-77330904D01*
X130866842Y-77330904D02*
X130962080Y-77283285D01*
X130962080Y-77283285D02*
X131009700Y-77235666D01*
X131009700Y-77235666D02*
X131057319Y-77140428D01*
X131057319Y-77140428D02*
X131057319Y-76949952D01*
X131057319Y-76949952D02*
X131009700Y-76854714D01*
X131009700Y-76854714D02*
X130962080Y-76807095D01*
X130962080Y-76807095D02*
X130866842Y-76759476D01*
X130866842Y-76759476D02*
X130676366Y-76759476D01*
X130676366Y-76759476D02*
X130581128Y-76807095D01*
X130581128Y-76807095D02*
X130533509Y-76854714D01*
X130533509Y-76854714D02*
X130485890Y-76949952D01*
X133109642Y-87353580D02*
X133062023Y-87401200D01*
X133062023Y-87401200D02*
X132919166Y-87448819D01*
X132919166Y-87448819D02*
X132823928Y-87448819D01*
X132823928Y-87448819D02*
X132681071Y-87401200D01*
X132681071Y-87401200D02*
X132585833Y-87305961D01*
X132585833Y-87305961D02*
X132538214Y-87210723D01*
X132538214Y-87210723D02*
X132490595Y-87020247D01*
X132490595Y-87020247D02*
X132490595Y-86877390D01*
X132490595Y-86877390D02*
X132538214Y-86686914D01*
X132538214Y-86686914D02*
X132585833Y-86591676D01*
X132585833Y-86591676D02*
X132681071Y-86496438D01*
X132681071Y-86496438D02*
X132823928Y-86448819D01*
X132823928Y-86448819D02*
X132919166Y-86448819D01*
X132919166Y-86448819D02*
X133062023Y-86496438D01*
X133062023Y-86496438D02*
X133109642Y-86544057D01*
X133490595Y-86544057D02*
X133538214Y-86496438D01*
X133538214Y-86496438D02*
X133633452Y-86448819D01*
X133633452Y-86448819D02*
X133871547Y-86448819D01*
X133871547Y-86448819D02*
X133966785Y-86496438D01*
X133966785Y-86496438D02*
X134014404Y-86544057D01*
X134014404Y-86544057D02*
X134062023Y-86639295D01*
X134062023Y-86639295D02*
X134062023Y-86734533D01*
X134062023Y-86734533D02*
X134014404Y-86877390D01*
X134014404Y-86877390D02*
X133442976Y-87448819D01*
X133442976Y-87448819D02*
X134062023Y-87448819D01*
X134919166Y-86782152D02*
X134919166Y-87448819D01*
X134681071Y-86401200D02*
X134442976Y-87115485D01*
X134442976Y-87115485D02*
X135062023Y-87115485D01*
X96567319Y-52715666D02*
X96091128Y-53048999D01*
X96567319Y-53287094D02*
X95567319Y-53287094D01*
X95567319Y-53287094D02*
X95567319Y-52906142D01*
X95567319Y-52906142D02*
X95614938Y-52810904D01*
X95614938Y-52810904D02*
X95662557Y-52763285D01*
X95662557Y-52763285D02*
X95757795Y-52715666D01*
X95757795Y-52715666D02*
X95900652Y-52715666D01*
X95900652Y-52715666D02*
X95995890Y-52763285D01*
X95995890Y-52763285D02*
X96043509Y-52810904D01*
X96043509Y-52810904D02*
X96091128Y-52906142D01*
X96091128Y-52906142D02*
X96091128Y-53287094D01*
X95567319Y-51858523D02*
X95567319Y-52048999D01*
X95567319Y-52048999D02*
X95614938Y-52144237D01*
X95614938Y-52144237D02*
X95662557Y-52191856D01*
X95662557Y-52191856D02*
X95805414Y-52287094D01*
X95805414Y-52287094D02*
X95995890Y-52334713D01*
X95995890Y-52334713D02*
X96376842Y-52334713D01*
X96376842Y-52334713D02*
X96472080Y-52287094D01*
X96472080Y-52287094D02*
X96519700Y-52239475D01*
X96519700Y-52239475D02*
X96567319Y-52144237D01*
X96567319Y-52144237D02*
X96567319Y-51953761D01*
X96567319Y-51953761D02*
X96519700Y-51858523D01*
X96519700Y-51858523D02*
X96472080Y-51810904D01*
X96472080Y-51810904D02*
X96376842Y-51763285D01*
X96376842Y-51763285D02*
X96138747Y-51763285D01*
X96138747Y-51763285D02*
X96043509Y-51810904D01*
X96043509Y-51810904D02*
X95995890Y-51858523D01*
X95995890Y-51858523D02*
X95948271Y-51953761D01*
X95948271Y-51953761D02*
X95948271Y-52144237D01*
X95948271Y-52144237D02*
X95995890Y-52239475D01*
X95995890Y-52239475D02*
X96043509Y-52287094D01*
X96043509Y-52287094D02*
X96138747Y-52334713D01*
X100050595Y-52888819D02*
X100050595Y-53698342D01*
X100050595Y-53698342D02*
X100098214Y-53793580D01*
X100098214Y-53793580D02*
X100145833Y-53841200D01*
X100145833Y-53841200D02*
X100241071Y-53888819D01*
X100241071Y-53888819D02*
X100431547Y-53888819D01*
X100431547Y-53888819D02*
X100526785Y-53841200D01*
X100526785Y-53841200D02*
X100574404Y-53793580D01*
X100574404Y-53793580D02*
X100622023Y-53698342D01*
X100622023Y-53698342D02*
X100622023Y-52888819D01*
X101002976Y-52888819D02*
X101622023Y-52888819D01*
X101622023Y-52888819D02*
X101288690Y-53269771D01*
X101288690Y-53269771D02*
X101431547Y-53269771D01*
X101431547Y-53269771D02*
X101526785Y-53317390D01*
X101526785Y-53317390D02*
X101574404Y-53365009D01*
X101574404Y-53365009D02*
X101622023Y-53460247D01*
X101622023Y-53460247D02*
X101622023Y-53698342D01*
X101622023Y-53698342D02*
X101574404Y-53793580D01*
X101574404Y-53793580D02*
X101526785Y-53841200D01*
X101526785Y-53841200D02*
X101431547Y-53888819D01*
X101431547Y-53888819D02*
X101145833Y-53888819D01*
X101145833Y-53888819D02*
X101050595Y-53841200D01*
X101050595Y-53841200D02*
X101002976Y-53793580D01*
X115309707Y-78943580D02*
X115262088Y-78991200D01*
X115262088Y-78991200D02*
X115119231Y-79038819D01*
X115119231Y-79038819D02*
X115023993Y-79038819D01*
X115023993Y-79038819D02*
X114881136Y-78991200D01*
X114881136Y-78991200D02*
X114785898Y-78895961D01*
X114785898Y-78895961D02*
X114738279Y-78800723D01*
X114738279Y-78800723D02*
X114690660Y-78610247D01*
X114690660Y-78610247D02*
X114690660Y-78467390D01*
X114690660Y-78467390D02*
X114738279Y-78276914D01*
X114738279Y-78276914D02*
X114785898Y-78181676D01*
X114785898Y-78181676D02*
X114881136Y-78086438D01*
X114881136Y-78086438D02*
X115023993Y-78038819D01*
X115023993Y-78038819D02*
X115119231Y-78038819D01*
X115119231Y-78038819D02*
X115262088Y-78086438D01*
X115262088Y-78086438D02*
X115309707Y-78134057D01*
X115690660Y-78134057D02*
X115738279Y-78086438D01*
X115738279Y-78086438D02*
X115833517Y-78038819D01*
X115833517Y-78038819D02*
X116071612Y-78038819D01*
X116071612Y-78038819D02*
X116166850Y-78086438D01*
X116166850Y-78086438D02*
X116214469Y-78134057D01*
X116214469Y-78134057D02*
X116262088Y-78229295D01*
X116262088Y-78229295D02*
X116262088Y-78324533D01*
X116262088Y-78324533D02*
X116214469Y-78467390D01*
X116214469Y-78467390D02*
X115643041Y-79038819D01*
X115643041Y-79038819D02*
X116262088Y-79038819D01*
X116881136Y-78038819D02*
X116976374Y-78038819D01*
X116976374Y-78038819D02*
X117071612Y-78086438D01*
X117071612Y-78086438D02*
X117119231Y-78134057D01*
X117119231Y-78134057D02*
X117166850Y-78229295D01*
X117166850Y-78229295D02*
X117214469Y-78419771D01*
X117214469Y-78419771D02*
X117214469Y-78657866D01*
X117214469Y-78657866D02*
X117166850Y-78848342D01*
X117166850Y-78848342D02*
X117119231Y-78943580D01*
X117119231Y-78943580D02*
X117071612Y-78991200D01*
X117071612Y-78991200D02*
X116976374Y-79038819D01*
X116976374Y-79038819D02*
X116881136Y-79038819D01*
X116881136Y-79038819D02*
X116785898Y-78991200D01*
X116785898Y-78991200D02*
X116738279Y-78943580D01*
X116738279Y-78943580D02*
X116690660Y-78848342D01*
X116690660Y-78848342D02*
X116643041Y-78657866D01*
X116643041Y-78657866D02*
X116643041Y-78419771D01*
X116643041Y-78419771D02*
X116690660Y-78229295D01*
X116690660Y-78229295D02*
X116738279Y-78134057D01*
X116738279Y-78134057D02*
X116785898Y-78086438D01*
X116785898Y-78086438D02*
X116881136Y-78038819D01*
D16*
%TO.C,TP1*%
X73593750Y-72231500D02*
G75*
G02*
X70693750Y-72231500I-1450000J0D01*
G01*
X70693750Y-72231500D02*
G75*
G02*
X73593750Y-72231500I1450000J0D01*
G01*
%TO.C,J2*%
X147222500Y-69194000D02*
X149142500Y-69194000D01*
X149142500Y-60034000D02*
X147222500Y-60034000D01*
X151152500Y-60034000D02*
X152857500Y-60034000D01*
X152857500Y-60034000D02*
X152857500Y-69194000D01*
X152857500Y-69194000D02*
X151152500Y-69194000D01*
%TO.C,R12*%
X141923641Y-65484000D02*
X141616359Y-65484000D01*
X141923641Y-66244000D02*
X141616359Y-66244000D01*
%TO.C,U4*%
X98087500Y-63159000D02*
X98087500Y-63419000D01*
X98087500Y-68609000D02*
X98087500Y-68349000D01*
X100812500Y-63159000D02*
X98087500Y-63159000D01*
X100812500Y-63159000D02*
X103537500Y-63159000D01*
X100812500Y-68609000D02*
X98087500Y-68609000D01*
X100812500Y-68609000D02*
X103537500Y-68609000D01*
X103537500Y-63159000D02*
X103537500Y-63419000D01*
X103537500Y-68609000D02*
X103537500Y-68349000D01*
X97305000Y-63419000D02*
X97065000Y-63089000D01*
X97545000Y-63089000D01*
X97305000Y-63419000D01*
G36*
X97305000Y-63419000D02*
G01*
X97065000Y-63089000D01*
X97545000Y-63089000D01*
X97305000Y-63419000D01*
G37*
%TO.C,U2*%
X86942500Y-89691500D02*
X86942500Y-87491500D01*
X86942500Y-89691500D02*
X86942500Y-91891500D01*
X93712500Y-89691500D02*
X93712500Y-87491500D01*
X93712500Y-89691500D02*
X93712500Y-91891500D01*
X93252500Y-85831500D02*
X93012500Y-85501500D01*
X93492500Y-85501500D01*
X93252500Y-85831500D01*
G36*
X93252500Y-85831500D02*
G01*
X93012500Y-85501500D01*
X93492500Y-85501500D01*
X93252500Y-85831500D01*
G37*
%TO.C,R11*%
X141923641Y-62487750D02*
X141616359Y-62487750D01*
X141923641Y-63247750D02*
X141616359Y-63247750D01*
%TO.C,R1*%
X75756141Y-74202500D02*
X75448859Y-74202500D01*
X75756141Y-74962500D02*
X75448859Y-74962500D01*
%TO.C,Y1*%
X107037500Y-89316500D02*
X107037500Y-92616500D01*
X107037500Y-92616500D02*
X111037500Y-92616500D01*
%TO.C,C15*%
X108929664Y-93106500D02*
X109145336Y-93106500D01*
X108929664Y-93826500D02*
X109145336Y-93826500D01*
%TO.C,R9*%
X108582500Y-66289109D02*
X108582500Y-66596391D01*
X109342500Y-66289109D02*
X109342500Y-66596391D01*
%TO.C,D2*%
X142402500Y-51019000D02*
X142402500Y-53704000D01*
X142402500Y-53704000D02*
X144322500Y-53704000D01*
X144322500Y-53704000D02*
X144322500Y-51019000D01*
%TO.C,R7*%
X96832500Y-61285359D02*
X96832500Y-61592641D01*
X97592500Y-61285359D02*
X97592500Y-61592641D01*
%TO.C,R15*%
X149640000Y-55981742D02*
X149640000Y-56456258D01*
X150685000Y-55981742D02*
X150685000Y-56456258D01*
%TO.C,U6*%
X102012500Y-84369000D02*
X102012500Y-83419000D01*
X102962500Y-74069000D02*
X101772500Y-74069000D01*
X102962500Y-84369000D02*
X102012500Y-84369000D01*
X111362500Y-74069000D02*
X112312500Y-74069000D01*
X111362500Y-84369000D02*
X112312500Y-84369000D01*
X112312500Y-74069000D02*
X112312500Y-75019000D01*
X112312500Y-84369000D02*
X112312500Y-83419000D01*
%TO.C,C27*%
X136442500Y-84271500D02*
X136442500Y-86141500D01*
X136442500Y-86141500D02*
X140352500Y-86141500D01*
X140352500Y-84271500D02*
X136442500Y-84271500D01*
%TO.C,C9*%
X104052500Y-61546836D02*
X104052500Y-61331164D01*
X104772500Y-61546836D02*
X104772500Y-61331164D01*
%TO.C,J1*%
X114307500Y-84491500D02*
X115417500Y-84491500D01*
X114307500Y-85251500D02*
X114307500Y-84491500D01*
X114307500Y-86011500D02*
X114307500Y-88486500D01*
X114307500Y-86011500D02*
X114854029Y-86011500D01*
X114307500Y-88486500D02*
X115109970Y-88486500D01*
X115725030Y-88486500D02*
X116527500Y-88486500D01*
X115980971Y-86011500D02*
X116527500Y-86011500D01*
X116527500Y-86011500D02*
X116527500Y-88486500D01*
%TO.C,R2*%
X75732500Y-71686141D02*
X75732500Y-71378859D01*
X76492500Y-71686141D02*
X76492500Y-71378859D01*
%TO.C,R4*%
X85502500Y-89537859D02*
X85502500Y-89845141D01*
X86262500Y-89537859D02*
X86262500Y-89845141D01*
%TO.C,R3*%
X75732500Y-78036141D02*
X75732500Y-77728859D01*
X76492500Y-78036141D02*
X76492500Y-77728859D01*
%TO.C,R5*%
X95352500Y-61592641D02*
X95352500Y-61285359D01*
X96112500Y-61592641D02*
X96112500Y-61285359D01*
%TO.C,R8*%
X107632500Y-66289109D02*
X107632500Y-66596391D01*
X108392500Y-66289109D02*
X108392500Y-66596391D01*
%TO.C,C16*%
X110146920Y-72295250D02*
X110428080Y-72295250D01*
X110146920Y-73315250D02*
X110428080Y-73315250D01*
%TO.C,C25*%
X134260336Y-82571500D02*
X134044664Y-82571500D01*
X134260336Y-83291500D02*
X134044664Y-83291500D01*
%TO.C,D3*%
X142533750Y-78157750D02*
X142533750Y-74147750D01*
X142533750Y-78157750D02*
X144533750Y-78157750D01*
X144533750Y-78157750D02*
X144533750Y-74147750D01*
%TO.C,C17*%
X110721920Y-70745250D02*
X111003080Y-70745250D01*
X110721920Y-71765250D02*
X111003080Y-71765250D01*
%TO.C,U1*%
X80875000Y-70147500D02*
X78925000Y-70147500D01*
X80875000Y-70147500D02*
X82825000Y-70147500D01*
X80875000Y-79017500D02*
X78925000Y-79017500D01*
X80875000Y-79017500D02*
X82825000Y-79017500D01*
X83815000Y-79282500D02*
X83335000Y-79282500D01*
X83575000Y-78952500D01*
X83815000Y-79282500D01*
G36*
X83815000Y-79282500D02*
G01*
X83335000Y-79282500D01*
X83575000Y-78952500D01*
X83815000Y-79282500D01*
G37*
%TO.C,R10*%
X108883859Y-88086500D02*
X109191141Y-88086500D01*
X108883859Y-88846500D02*
X109191141Y-88846500D01*
%TO.C,C4*%
X94420000Y-90756836D02*
X94420000Y-90541164D01*
X95140000Y-90756836D02*
X95140000Y-90541164D01*
%TO.C,TP2*%
X73593750Y-78392500D02*
G75*
G02*
X70693750Y-78392500I-1450000J0D01*
G01*
X70693750Y-78392500D02*
G75*
G02*
X73593750Y-78392500I1450000J0D01*
G01*
%TO.C,R13*%
X142840000Y-55981742D02*
X142840000Y-56456258D01*
X143885000Y-55981742D02*
X143885000Y-56456258D01*
%TO.C,C2*%
X82977836Y-79937500D02*
X82762164Y-79937500D01*
X82977836Y-80657500D02*
X82762164Y-80657500D01*
%TO.C,U7*%
X119822500Y-89697500D02*
X119822500Y-87497500D01*
X119822500Y-89697500D02*
X119822500Y-91897500D01*
X125042500Y-89697500D02*
X125042500Y-87497500D01*
X125042500Y-89697500D02*
X125042500Y-91897500D01*
X120022500Y-92597500D02*
X119692500Y-92837500D01*
X119692500Y-92357500D01*
X120022500Y-92597500D01*
G36*
X120022500Y-92597500D02*
G01*
X119692500Y-92837500D01*
X119692500Y-92357500D01*
X120022500Y-92597500D01*
G37*
%TO.C,C3*%
X94420000Y-88636164D02*
X94420000Y-88851836D01*
X95140000Y-88636164D02*
X95140000Y-88851836D01*
%TO.C,C8*%
X104052500Y-52656836D02*
X104052500Y-52441164D01*
X104772500Y-52656836D02*
X104772500Y-52441164D01*
%TO.C,C18*%
X111577500Y-90858664D02*
X111577500Y-91074336D01*
X112297500Y-90858664D02*
X112297500Y-91074336D01*
%TO.C,R14*%
X146240000Y-55981742D02*
X146240000Y-56456258D01*
X147285000Y-55981742D02*
X147285000Y-56456258D01*
%TO.C,L1*%
X110711248Y-67945250D02*
X111233752Y-67945250D01*
X110711248Y-70165250D02*
X111233752Y-70165250D01*
%TO.C,C23*%
X118550000Y-87207164D02*
X118550000Y-87422836D01*
X119270000Y-87207164D02*
X119270000Y-87422836D01*
%TO.C,D4*%
X145802500Y-51019000D02*
X145802500Y-53704000D01*
X145802500Y-53704000D02*
X147722500Y-53704000D01*
X147722500Y-53704000D02*
X147722500Y-51019000D01*
%TO.C,D1*%
X78222500Y-94322500D02*
X78222500Y-98332500D01*
X80222500Y-94322500D02*
X78222500Y-94322500D01*
X80222500Y-94322500D02*
X80222500Y-98332500D01*
%TO.C,C1*%
X75740336Y-75651250D02*
X75524664Y-75651250D01*
X75740336Y-76371250D02*
X75524664Y-76371250D01*
%TO.C,C26*%
X138244664Y-82571500D02*
X138460336Y-82571500D01*
X138244664Y-83291500D02*
X138460336Y-83291500D01*
%TO.C,D5*%
X149202500Y-51019000D02*
X149202500Y-53704000D01*
X149202500Y-53704000D02*
X151122500Y-53704000D01*
X151122500Y-53704000D02*
X151122500Y-51019000D01*
%TO.C,U8*%
X131692500Y-75659000D02*
X132952500Y-75659000D01*
X131692500Y-79419000D02*
X131692500Y-75659000D01*
X138512500Y-75659000D02*
X137252500Y-75659000D01*
X138512500Y-79419000D02*
X138512500Y-75659000D01*
X131792500Y-80699000D02*
X131462500Y-80939000D01*
X131462500Y-80459000D01*
X131792500Y-80699000D01*
G36*
X131792500Y-80699000D02*
G01*
X131462500Y-80939000D01*
X131462500Y-80459000D01*
X131792500Y-80699000D01*
G37*
%TO.C,C24*%
X132152500Y-86141500D02*
X136062500Y-86141500D01*
X136062500Y-84271500D02*
X132152500Y-84271500D01*
X136062500Y-86141500D02*
X136062500Y-84271500D01*
%TO.C,R6*%
X96832500Y-52395359D02*
X96832500Y-52702641D01*
X97592500Y-52395359D02*
X97592500Y-52702641D01*
%TO.C,U3*%
X98087500Y-54269000D02*
X98087500Y-54529000D01*
X98087500Y-59719000D02*
X98087500Y-59459000D01*
X100812500Y-54269000D02*
X98087500Y-54269000D01*
X100812500Y-54269000D02*
X103537500Y-54269000D01*
X100812500Y-59719000D02*
X98087500Y-59719000D01*
X100812500Y-59719000D02*
X103537500Y-59719000D01*
X103537500Y-54269000D02*
X103537500Y-54529000D01*
X103537500Y-59719000D02*
X103537500Y-59459000D01*
X97305000Y-54529000D02*
X97065000Y-54199000D01*
X97545000Y-54199000D01*
X97305000Y-54529000D01*
G36*
X97305000Y-54529000D02*
G01*
X97065000Y-54199000D01*
X97545000Y-54199000D01*
X97305000Y-54529000D01*
G37*
%TD*%
%LPC*%
%TO.C,U5*%
X73126500Y-104873500D02*
X138658500Y-104873500D01*
X138658500Y-114073500D01*
X73126500Y-114073500D01*
X73126500Y-104873500D01*
G36*
X73126500Y-104873500D02*
G01*
X138658500Y-104873500D01*
X138658500Y-114073500D01*
X73126500Y-114073500D01*
X73126500Y-104873500D01*
G37*
%TD*%
D17*
%TO.C,C14*%
X107852500Y-85499000D03*
X107852500Y-86139000D03*
%TD*%
D18*
%TO.C,TP1*%
X72143750Y-72231500D03*
%TD*%
D17*
%TO.C,C10*%
X104562500Y-85499000D03*
X104562500Y-86139000D03*
%TD*%
D19*
%TO.C,J2*%
X146467500Y-67504000D03*
X146467500Y-61724000D03*
D20*
X145347500Y-67814000D03*
X145347500Y-67014000D03*
D21*
X145347500Y-65864000D03*
X145347500Y-64864000D03*
X145347500Y-64364000D03*
X145347500Y-63364000D03*
D20*
X145347500Y-62214000D03*
X145347500Y-61414000D03*
X145347500Y-61414000D03*
X145347500Y-62214000D03*
D21*
X145347500Y-62864000D03*
X145347500Y-63864000D03*
X145347500Y-65364000D03*
X145347500Y-66364000D03*
D20*
X145347500Y-67014000D03*
X145347500Y-67814000D03*
D22*
X145947500Y-68934000D03*
D23*
X150147500Y-68934000D03*
D22*
X145947500Y-60294000D03*
D23*
X150147500Y-60294000D03*
%TD*%
D24*
%TO.C,R12*%
X142280000Y-65864000D03*
X141260000Y-65864000D03*
%TD*%
D25*
%TO.C,U4*%
X97212500Y-63979000D03*
X97212500Y-65249000D03*
X97212500Y-66519000D03*
X97212500Y-67789000D03*
X104412500Y-67789000D03*
X104412500Y-66519000D03*
X104412500Y-65249000D03*
X104412500Y-63979000D03*
%TD*%
D26*
%TO.C,U2*%
X93252500Y-86829000D03*
X92602500Y-86829000D03*
X91952500Y-86829000D03*
X91302500Y-86829000D03*
X90652500Y-86829000D03*
X90002500Y-86829000D03*
X89352500Y-86829000D03*
X88702500Y-86829000D03*
X88052500Y-86829000D03*
X87402500Y-86829000D03*
X87402500Y-92554000D03*
X88052500Y-92554000D03*
X88702500Y-92554000D03*
X89352500Y-92554000D03*
X90002500Y-92554000D03*
X90652500Y-92554000D03*
X91302500Y-92554000D03*
X91952500Y-92554000D03*
X92602500Y-92554000D03*
X93252500Y-92554000D03*
%TD*%
D27*
%TO.C,C7*%
X100882500Y-81019000D03*
X100242500Y-81019000D03*
%TD*%
D24*
%TO.C,R11*%
X142280000Y-62867750D03*
X141260000Y-62867750D03*
%TD*%
%TO.C,R1*%
X76112500Y-74582500D03*
X75092500Y-74582500D03*
%TD*%
D28*
%TO.C,Y1*%
X107937500Y-91816500D03*
X110137500Y-91816500D03*
X110137500Y-90116500D03*
X107937500Y-90116500D03*
%TD*%
D29*
%TO.C,C15*%
X108557500Y-93466500D03*
X109517500Y-93466500D03*
%TD*%
D30*
%TO.C,R9*%
X108962500Y-65932750D03*
X108962500Y-66952750D03*
%TD*%
D31*
%TO.C,D2*%
X143362500Y-52956500D03*
X143362500Y-51081500D03*
%TD*%
D30*
%TO.C,R7*%
X97212500Y-60929000D03*
X97212500Y-61949000D03*
%TD*%
D32*
%TO.C,R15*%
X150162500Y-55394000D03*
X150162500Y-57044000D03*
%TD*%
D33*
%TO.C,U6*%
X102266000Y-75419000D03*
X102266000Y-75819000D03*
X102266000Y-76219000D03*
X102266000Y-76619000D03*
X102266000Y-77019000D03*
X102266000Y-77419000D03*
X102266000Y-77819000D03*
X102266000Y-78219000D03*
X102266000Y-78619000D03*
X102266000Y-79019000D03*
X102266000Y-79419000D03*
X102266000Y-79819000D03*
X102266000Y-80219000D03*
X102266000Y-80619000D03*
X102266000Y-81019000D03*
X102266000Y-81419000D03*
X102266000Y-81819000D03*
X102266000Y-82219000D03*
X102266000Y-82619000D03*
X102266000Y-83019000D03*
D34*
X103362500Y-84115500D03*
X103762500Y-84115500D03*
X104162500Y-84115500D03*
X104562500Y-84115500D03*
X104962500Y-84115500D03*
X105362500Y-84115500D03*
X105762500Y-84115500D03*
X106162500Y-84115500D03*
X106562500Y-84115500D03*
X106962500Y-84115500D03*
X107362500Y-84115500D03*
X107762500Y-84115500D03*
X108162500Y-84115500D03*
X108562500Y-84115500D03*
X108962500Y-84115500D03*
X109362500Y-84115500D03*
X109762500Y-84115500D03*
X110162500Y-84115500D03*
X110562500Y-84115500D03*
X110962500Y-84115500D03*
D33*
X112059000Y-83019000D03*
X112059000Y-82619000D03*
X112059000Y-82219000D03*
X112059000Y-81819000D03*
X112059000Y-81419000D03*
X112059000Y-81019000D03*
X112059000Y-80619000D03*
X112059000Y-80219000D03*
X112059000Y-79819000D03*
X112059000Y-79419000D03*
X112059000Y-79019000D03*
X112059000Y-78619000D03*
X112059000Y-78219000D03*
X112059000Y-77819000D03*
X112059000Y-77419000D03*
X112059000Y-77019000D03*
X112059000Y-76619000D03*
X112059000Y-76219000D03*
X112059000Y-75819000D03*
X112059000Y-75419000D03*
D34*
X110962500Y-74322500D03*
X110562500Y-74322500D03*
X110162500Y-74322500D03*
X109762500Y-74322500D03*
X109362500Y-74322500D03*
X108962500Y-74322500D03*
X108562500Y-74322500D03*
X108162500Y-74322500D03*
X107762500Y-74322500D03*
X107362500Y-74322500D03*
X106962500Y-74322500D03*
X106562500Y-74322500D03*
X106162500Y-74322500D03*
X105762500Y-74322500D03*
X105362500Y-74322500D03*
X104962500Y-74322500D03*
X104562500Y-74322500D03*
X104162500Y-74322500D03*
X103762500Y-74322500D03*
X103362500Y-74322500D03*
D35*
X106029167Y-78085667D03*
D36*
X106029167Y-78085667D03*
D35*
X106029167Y-79219000D03*
D36*
X106029167Y-79219000D03*
D35*
X106029167Y-80352333D03*
D36*
X106029167Y-80352333D03*
D35*
X107162500Y-78085667D03*
D36*
X107162500Y-78085667D03*
D35*
X107162500Y-79219000D03*
D36*
X107162500Y-79219000D03*
D35*
X107162500Y-80352333D03*
D36*
X107162500Y-80352333D03*
D35*
X108295833Y-78085667D03*
D36*
X108295833Y-78085667D03*
D35*
X108295833Y-79219000D03*
D36*
X108295833Y-79219000D03*
D35*
X108295833Y-80352333D03*
D36*
X108295833Y-80352333D03*
%TD*%
D37*
%TO.C,C22*%
X113442500Y-83109000D03*
X114082500Y-83109000D03*
%TD*%
D38*
%TO.C,C27*%
X137402500Y-85206500D03*
X140102500Y-85206500D03*
%TD*%
D39*
%TO.C,C9*%
X104412500Y-61919000D03*
X104412500Y-60959000D03*
%TD*%
D40*
%TO.C,U5*%
X136372500Y-108746500D03*
X133832500Y-108746500D03*
X131292500Y-108746500D03*
X128752500Y-108746500D03*
X126212500Y-108746500D03*
X123672500Y-108746500D03*
X121132500Y-108746500D03*
X118592500Y-108746500D03*
X116052500Y-108746500D03*
X113512500Y-108746500D03*
X110972500Y-108746500D03*
X108432500Y-108746500D03*
X105892500Y-108746500D03*
X103352500Y-108746500D03*
X100812500Y-108746500D03*
X98272500Y-108746500D03*
X95732500Y-108746500D03*
X93192500Y-108746500D03*
X90652500Y-108746500D03*
X88112500Y-108746500D03*
X85572500Y-108746500D03*
D41*
X83032500Y-108246500D03*
D40*
X80492500Y-108746500D03*
X77952500Y-108746500D03*
X75412500Y-108746500D03*
%TD*%
D42*
%TO.C,J1*%
X115417500Y-85251500D03*
D43*
X115417500Y-86521500D03*
X115417500Y-87791500D03*
%TD*%
D44*
%TO.C,R2*%
X76112500Y-72042500D03*
X76112500Y-71022500D03*
%TD*%
D30*
%TO.C,R4*%
X85882500Y-89181500D03*
X85882500Y-90201500D03*
%TD*%
D44*
%TO.C,R3*%
X76112500Y-78392500D03*
X76112500Y-77372500D03*
%TD*%
%TO.C,R5*%
X95732500Y-61949000D03*
X95732500Y-60929000D03*
%TD*%
D30*
%TO.C,R8*%
X108012500Y-65932750D03*
X108012500Y-66952750D03*
%TD*%
D45*
%TO.C,C16*%
X109512500Y-72805250D03*
X111062500Y-72805250D03*
%TD*%
D27*
%TO.C,C5*%
X100882500Y-77019000D03*
X100242500Y-77019000D03*
%TD*%
D46*
%TO.C,C25*%
X134632500Y-82931500D03*
X133672500Y-82931500D03*
%TD*%
D47*
%TO.C,D3*%
X143533750Y-77447750D03*
X143533750Y-74147750D03*
%TD*%
D45*
%TO.C,C17*%
X110087500Y-71255250D03*
X111637500Y-71255250D03*
%TD*%
D48*
%TO.C,U1*%
X83350000Y-78392500D03*
X83350000Y-77122500D03*
X83350000Y-75852500D03*
X83350000Y-74582500D03*
X83350000Y-73312500D03*
X83350000Y-72042500D03*
X83350000Y-70772500D03*
X78400000Y-70772500D03*
X78400000Y-72042500D03*
X78400000Y-73312500D03*
X78400000Y-74582500D03*
X78400000Y-75852500D03*
X78400000Y-77122500D03*
X78400000Y-78392500D03*
%TD*%
D49*
%TO.C,R10*%
X108527500Y-88466500D03*
X109547500Y-88466500D03*
%TD*%
D39*
%TO.C,C4*%
X94780000Y-91129000D03*
X94780000Y-90169000D03*
%TD*%
D18*
%TO.C,TP2*%
X72143750Y-78392500D03*
%TD*%
D50*
%TO.C,C13*%
X107762500Y-72939000D03*
X107762500Y-72299000D03*
%TD*%
D32*
%TO.C,R13*%
X143362500Y-55394000D03*
X143362500Y-57044000D03*
%TD*%
D46*
%TO.C,C2*%
X83350000Y-80297500D03*
X82390000Y-80297500D03*
%TD*%
D51*
%TO.C,U7*%
X120482500Y-92560000D03*
X121132500Y-92560000D03*
X121782500Y-92560000D03*
X122432500Y-92560000D03*
X123082500Y-92560000D03*
X123732500Y-92560000D03*
X124382500Y-92560000D03*
X124382500Y-86835000D03*
X123732500Y-86835000D03*
X123082500Y-86835000D03*
X122432500Y-86835000D03*
X121782500Y-86835000D03*
X121132500Y-86835000D03*
X120482500Y-86835000D03*
%TD*%
D52*
%TO.C,C3*%
X94780000Y-88264000D03*
X94780000Y-89224000D03*
%TD*%
D39*
%TO.C,C8*%
X104412500Y-53029000D03*
X104412500Y-52069000D03*
%TD*%
D52*
%TO.C,C18*%
X111937500Y-90486500D03*
X111937500Y-91446500D03*
%TD*%
D32*
%TO.C,R14*%
X146762500Y-55394000D03*
X146762500Y-57044000D03*
%TD*%
D53*
%TO.C,L1*%
X109897500Y-69055250D03*
X112047500Y-69055250D03*
%TD*%
D37*
%TO.C,C19*%
X113442500Y-75594000D03*
X114082500Y-75594000D03*
%TD*%
D27*
%TO.C,C6*%
X100882500Y-79019000D03*
X100242500Y-79019000D03*
%TD*%
D50*
%TO.C,C11*%
X104962500Y-72939000D03*
X104962500Y-72299000D03*
%TD*%
D52*
%TO.C,C23*%
X118910000Y-86835000D03*
X118910000Y-87795000D03*
%TD*%
D17*
%TO.C,C12*%
X106562500Y-85499000D03*
X106562500Y-86139000D03*
%TD*%
D31*
%TO.C,D4*%
X146762500Y-52956500D03*
X146762500Y-51081500D03*
%TD*%
D54*
%TO.C,D1*%
X79222500Y-95032500D03*
X79222500Y-98332500D03*
%TD*%
D46*
%TO.C,C1*%
X76112500Y-76011250D03*
X75152500Y-76011250D03*
%TD*%
D29*
%TO.C,C26*%
X137872500Y-82931500D03*
X138832500Y-82931500D03*
%TD*%
D31*
%TO.C,D5*%
X150162500Y-52956500D03*
X150162500Y-51081500D03*
%TD*%
D37*
%TO.C,C21*%
X113442500Y-79594000D03*
X114082500Y-79594000D03*
%TD*%
D55*
%TO.C,U8*%
X132802500Y-80719000D03*
X135102500Y-80719000D03*
D56*
X135102500Y-74419000D03*
D55*
X137402500Y-80719000D03*
%TD*%
D57*
%TO.C,C24*%
X135102500Y-85206500D03*
X132402500Y-85206500D03*
%TD*%
D30*
%TO.C,R6*%
X97212500Y-52039000D03*
X97212500Y-53059000D03*
%TD*%
D25*
%TO.C,U3*%
X97212500Y-55089000D03*
X97212500Y-56359000D03*
X97212500Y-57629000D03*
X97212500Y-58899000D03*
X104412500Y-58899000D03*
X104412500Y-57629000D03*
X104412500Y-56359000D03*
X104412500Y-55089000D03*
%TD*%
D37*
%TO.C,C20*%
X113442500Y-78844000D03*
X114082500Y-78844000D03*
%TD*%
D58*
%TO.C,SW1*%
X72480000Y-66864000D03*
X78980000Y-66864000D03*
X72480000Y-62364000D03*
X78980000Y-62364000D03*
%TD*%
%LPD*%
M02*
