M48
; DRILL file {KiCad 8.0.4} date 2024-09-04T03:30:15+0200
; FORMAT={-:-/ absolute / inch / decimal}
; #@! TF.CreationDate,2024-09-04T03:30:15+02:00
; #@! TF.GenerationSoftware,Kicad,Pcbnew,8.0.4
; #@! TF.FileFunction,Plated,1,4,PTH
FMAT,2
INCH
; #@! TA.AperFunction,Plated,PTH,ViaDrill
T1C0.0079
; #@! TA.AperFunction,Plated,PTH,ViaDrill
T2C0.0098
; #@! TA.AperFunction,Plated,PTH,ComponentDrill
T3C0.0098
; #@! TA.AperFunction,Plated,PTH,ViaDrill
T4C0.0118
; #@! TA.AperFunction,Plated,PTH,ViaDrill
T5C0.0138
; #@! TA.AperFunction,Plated,PTH,ViaDrill
T6C0.0236
; #@! TA.AperFunction,Plated,PTH,ComponentDrill
T7C0.0236
; #@! TA.AperFunction,Plated,PTH,ComponentDrill
T8C0.0256
; #@! TA.AperFunction,Plated,PTH,ComponentDrill
T9C0.0433
%
G90
G05
T1
X3.3591Y-2.8863
X3.3591Y-2.9363
X3.3591Y-2.9863
X3.4315Y-3.9064
X3.444Y-3.7939
X3.5065Y-3.8314
X3.5065Y-3.8689
X3.5315Y-3.9814
X3.6065Y-4.0189
X3.6315Y-3.8689
X3.669Y-3.8314
X3.719Y-3.9439
X3.739Y-2.3989
X3.769Y-3.7939
X3.8573Y-2.3989
X3.8815Y-2.2689
X3.8815Y-2.6189
X3.8962Y-3.0322
X3.8962Y-3.111
X3.9031Y-3.8689
X3.9149Y-3.9814
X3.9198Y-3.0322
X3.9198Y-3.111
X3.9414Y-3.9439
X3.9906Y-3.0007
X4.0065Y-4.0189
X4.0143Y-3.8689
X4.0315Y-3.9814
X4.044Y-3.9064
X4.0565Y-2.3189
X4.0565Y-2.6689
X4.0615Y-2.9771
X4.0615Y-3.0086
X4.1166Y-3.4181
X4.1166Y-3.4417
X4.1324Y-2.796
X4.1324Y-2.8196
X4.1954Y-3.4181
X4.1954Y-3.4417
X4.2131Y-4.0189
X4.2426Y-2.796
X4.2426Y-2.8196
X4.2462Y-3.4181
X4.2462Y-3.4417
X4.2495Y-3.5066
X4.2662Y-3.2763
X4.269Y-3.9189
X4.269Y-4.0189
X4.282Y-3.3472
X4.319Y-3.9064
X4.369Y-3.9814
X4.469Y-3.9689
X4.494Y-3.9376
X4.5182Y-2.9761
X4.5182Y-3.1041
X4.5182Y-3.1336
X4.519Y-3.8698
X4.5418Y-2.9761
X4.5418Y-3.1041
X4.5418Y-3.1336
X4.544Y-3.8314
X4.5817Y-2.9811
X4.6137Y-2.9811
X4.619Y-3.5954
X4.6315Y-4.0189
X4.6801Y-3.9544
X4.7434Y-3.9536
X4.7946Y-3.5954
X4.8815Y-3.9536
X4.9565Y-4.0189
X5.0264Y-4.0191
X5.1815Y-3.9536
T2
X2.9214Y-2.9363
X2.9588Y-3.0223
X2.9966Y-2.7611
X3.1466Y-2.9863
X3.1466Y-3.0363
X3.2075Y-3.1613
X3.2216Y-3.0863
X3.3812Y-3.5814
X3.441Y-3.5951
X3.6458Y-3.3708
X3.6458Y-3.6939
X3.769Y-2.3189
X3.769Y-3.5128
X3.769Y-3.55
X3.8815Y-2.6689
X3.8962Y-3.1897
X3.9198Y-3.1897
X4.0615Y-3.111
X4.1107Y-2.0137
X4.1107Y-2.3669
X4.1718Y-2.1689
X4.1718Y-2.5189
X4.2347Y-3.2763
X4.2977Y-2.9614
X4.3017Y-2.7915
X4.3017Y-2.8191
X4.3401Y-3.6798
X4.3765Y-3.1031
X4.405Y-2.8526
X4.405Y-2.8801
X4.407Y-3.6286
X4.4277Y-2.7915
X4.4277Y-2.8191
X4.5182Y-3.272
X4.5418Y-3.272
X4.6815Y-3.4876
X4.7434Y-3.4674
X4.8969Y-3.5954
X5.5861Y-2.2453
X5.7205Y-2.2453
T3
X4.1744Y-3.0742
X4.1744Y-3.1189
X4.1744Y-3.1635
X4.219Y-3.0742
X4.219Y-3.1189
X4.219Y-3.1635
X4.2636Y-3.0742
X4.2636Y-3.1189
X4.2636Y-3.1635
T4
X4.1009Y-3.0559
X4.1009Y-3.0874
X4.156Y-3.0007
X4.1875Y-3.0007
X4.7434Y-2.9299
X5.319Y-2.4077
X5.319Y-2.4397
X5.319Y-2.6317
X5.319Y-2.6636
X5.6391Y-2.4494
X5.6391Y-2.6383
X5.6627Y-2.4494
X5.6627Y-2.6383
T5
X3.0216Y-2.8863
T6
X3.119Y-3.9314
X3.119Y-3.9814
X3.119Y-4.0314
X3.1815Y-3.6939
X3.2315Y-3.6939
X3.269Y-3.8564
X3.269Y-3.9189
X3.269Y-3.9814
X3.2815Y-3.6939
X3.4127Y-3.9814
X5.1497Y-3.1779
X5.2048Y-3.265
X5.2284Y-3.0913
X5.472Y-3.1779
X5.522Y-3.1779
X5.5257Y-3.265
X5.572Y-3.1779
X5.6509Y-2.7709
X5.6509Y-2.8182
X5.6509Y-2.8654
T8
X4.544Y-3.3564
X4.544Y-3.4064
X4.544Y-3.4564
T9
X2.8535Y-2.4553
X2.8535Y-2.6324
X3.1094Y-2.4553
X3.1094Y-2.6324
T7
G00X5.7243Y-2.3738
M15
G01X5.7676Y-2.3738
M16
G05
G00X5.7243Y-2.7139
M15
G01X5.7676Y-2.7139
M16
G05
G00X5.8956Y-2.3738
M15
G01X5.9271Y-2.3738
M16
G05
G00X5.8956Y-2.7139
M15
G01X5.9271Y-2.7139
M16
G05
M30
